%TF.GenerationSoftware,KiCad,Pcbnew,9.0.0*%
%TF.CreationDate,2025-05-29T20:25:45-04:00*%
%TF.ProjectId,distrabution_controler,64697374-7261-4627-9574-696f6e5f636f,rev?*%
%TF.SameCoordinates,Original*%
%TF.FileFunction,Copper,L3,Inr*%
%TF.FilePolarity,Positive*%
%FSLAX46Y46*%
G04 Gerber Fmt 4.6, Leading zero omitted, Abs format (unit mm)*
G04 Created by KiCad (PCBNEW 9.0.0) date 2025-05-29 20:25:45*
%MOMM*%
%LPD*%
G01*
G04 APERTURE LIST*
G04 Aperture macros list*
%AMRoundRect*
0 Rectangle with rounded corners*
0 $1 Rounding radius*
0 $2 $3 $4 $5 $6 $7 $8 $9 X,Y pos of 4 corners*
0 Add a 4 corners polygon primitive as box body*
4,1,4,$2,$3,$4,$5,$6,$7,$8,$9,$2,$3,0*
0 Add four circle primitives for the rounded corners*
1,1,$1+$1,$2,$3*
1,1,$1+$1,$4,$5*
1,1,$1+$1,$6,$7*
1,1,$1+$1,$8,$9*
0 Add four rect primitives between the rounded corners*
20,1,$1+$1,$2,$3,$4,$5,0*
20,1,$1+$1,$4,$5,$6,$7,0*
20,1,$1+$1,$6,$7,$8,$9,0*
20,1,$1+$1,$8,$9,$2,$3,0*%
G04 Aperture macros list end*
%TA.AperFunction,ComponentPad*%
%ADD10C,6.800000*%
%TD*%
%TA.AperFunction,ComponentPad*%
%ADD11C,4.000000*%
%TD*%
%TA.AperFunction,ComponentPad*%
%ADD12RoundRect,0.250000X1.550000X-0.650000X1.550000X0.650000X-1.550000X0.650000X-1.550000X-0.650000X0*%
%TD*%
%TA.AperFunction,ComponentPad*%
%ADD13O,3.600000X1.800000*%
%TD*%
%TA.AperFunction,ComponentPad*%
%ADD14R,1.700000X1.700000*%
%TD*%
%TA.AperFunction,ComponentPad*%
%ADD15C,1.700000*%
%TD*%
%TA.AperFunction,ComponentPad*%
%ADD16C,2.050000*%
%TD*%
%TA.AperFunction,ComponentPad*%
%ADD17C,2.250000*%
%TD*%
%TA.AperFunction,ComponentPad*%
%ADD18RoundRect,0.250000X-0.650000X-1.550000X0.650000X-1.550000X0.650000X1.550000X-0.650000X1.550000X0*%
%TD*%
%TA.AperFunction,ComponentPad*%
%ADD19O,1.800000X3.600000*%
%TD*%
%TA.AperFunction,ComponentPad*%
%ADD20C,8.800000*%
%TD*%
%TA.AperFunction,ComponentPad*%
%ADD21R,1.600000X1.600000*%
%TD*%
%TA.AperFunction,ComponentPad*%
%ADD22C,1.600000*%
%TD*%
%TA.AperFunction,ViaPad*%
%ADD23C,0.500000*%
%TD*%
%TA.AperFunction,ViaPad*%
%ADD24C,0.600000*%
%TD*%
%TA.AperFunction,Conductor*%
%ADD25C,0.500000*%
%TD*%
%TA.AperFunction,Conductor*%
%ADD26C,0.200000*%
%TD*%
G04 APERTURE END LIST*
D10*
%TO.N,Net-(F14-Pad1)*%
%TO.C,H14*%
X74750000Y-64000000D03*
%TD*%
D11*
%TO.N,Net-(F14-Pad1)*%
%TO.C,F14*%
X68450000Y-74250000D03*
X73550000Y-74250000D03*
%TO.N,CH14_CSN*%
X77650000Y-74250000D03*
X82750000Y-74250000D03*
%TD*%
D10*
%TO.N,Net-(F16-Pad1)*%
%TO.C,H16*%
X30750000Y-64000000D03*
%TD*%
%TO.N,GND*%
%TO.C,H19*%
X207000000Y-64250000D03*
%TD*%
%TO.N,Net-(F10-Pad1)*%
%TO.C,H10*%
X162750000Y-64000000D03*
%TD*%
%TO.N,Net-(F12-Pad1)*%
%TO.C,H12*%
X118750000Y-64000000D03*
%TD*%
D12*
%TO.N,GPIO11*%
%TO.C,J7*%
X258067500Y-152747500D03*
D13*
%TO.N,GPIO10*%
X258067500Y-148937500D03*
%TO.N,GPIO9*%
X258067500Y-145127500D03*
%TO.N,GPIO8*%
X258067500Y-141317500D03*
%TO.N,GPIO7*%
X258067500Y-137507500D03*
%TO.N,GPIO6*%
X258067500Y-133697500D03*
%TO.N,PERIPHERAL_PWR*%
X258067500Y-129887500D03*
%TO.N,GND*%
X258067500Y-126077500D03*
%TD*%
D11*
%TO.N,Net-(F1-Pad1)*%
%TO.C,F1*%
X36850000Y-143750000D03*
X31750000Y-143750000D03*
%TO.N,CH1_CSN*%
X27650000Y-143750000D03*
X22550000Y-143750000D03*
%TD*%
%TO.N,Net-(F11-Pad1)*%
%TO.C,F11*%
X134450000Y-74250000D03*
X139550000Y-74250000D03*
%TO.N,CH11_CSN*%
X143650000Y-74250000D03*
X148750000Y-74250000D03*
%TD*%
%TO.N,Net-(F7-Pad1)*%
%TO.C,F7*%
X168800000Y-143750000D03*
X163700000Y-143750000D03*
%TO.N,CH7_CSN*%
X159600000Y-143750000D03*
X154500000Y-143750000D03*
%TD*%
D14*
%TO.N,GND*%
%TO.C,J5*%
X248475000Y-102740000D03*
D15*
%TO.N,+3V3*%
X245935000Y-102740000D03*
%TO.N,RST*%
X248475000Y-100200000D03*
%TO.N,ESP_TX*%
X245935000Y-100200000D03*
%TO.N,ESP_IO0*%
X248475000Y-97660000D03*
%TO.N,ESP_RX*%
X245935000Y-97660000D03*
%TD*%
D11*
%TO.N,Net-(F12-Pad1)*%
%TO.C,F12*%
X112450000Y-74250000D03*
X117550000Y-74250000D03*
%TO.N,CH12_CSN*%
X121650000Y-74250000D03*
X126750000Y-74250000D03*
%TD*%
%TO.N,PERIPHERAL_PWR*%
%TO.C,F17*%
X192750000Y-108500000D03*
X187650000Y-108500000D03*
%TO.N,PERIPHERAL_PWR_CSN*%
X183550000Y-108500000D03*
X178450000Y-108500000D03*
%TD*%
%TO.N,Net-(F2-Pad1)*%
%TO.C,F2*%
X58800000Y-143750000D03*
X53700000Y-143750000D03*
%TO.N,CH2_CSN*%
X49600000Y-143750000D03*
X44500000Y-143750000D03*
%TD*%
D16*
%TO.N,LNA*%
%TO.C,J1*%
X222700000Y-127340000D03*
D17*
%TO.N,GND*%
X220160000Y-124800000D03*
X220160000Y-129880000D03*
X225240000Y-124800000D03*
X225240000Y-129880000D03*
%TD*%
D11*
%TO.N,Net-(F6-Pad1)*%
%TO.C,F6*%
X146800000Y-143750000D03*
X141700000Y-143750000D03*
%TO.N,CH6_CSN*%
X137600000Y-143750000D03*
X132500000Y-143750000D03*
%TD*%
D10*
%TO.N,Net-(F11-Pad1)*%
%TO.C,H11*%
X140750000Y-64000000D03*
%TD*%
D12*
%TO.N,ESP_RX*%
%TO.C,J6*%
X258000000Y-108000000D03*
D13*
%TO.N,ESP_TX*%
X258000000Y-104190000D03*
%TO.N,I2C_SCL*%
X258000000Y-100380000D03*
%TO.N,I2C_SDA*%
X258000000Y-96570000D03*
%TO.N,CAN_L*%
X258000000Y-92760000D03*
%TO.N,CAN_H*%
X258000000Y-88950000D03*
%TO.N,PERIPHERAL_PWR*%
X258000000Y-85140000D03*
%TO.N,GND*%
X258000000Y-81330000D03*
%TD*%
D18*
%TO.N,unconnected-(J8-Pin_1-Pad1)*%
%TO.C,J8*%
X210715000Y-157067500D03*
D19*
%TO.N,unconnected-(J8-Pin_2-Pad2)*%
X214525000Y-157067500D03*
%TO.N,unconnected-(J8-Pin_3-Pad3)*%
X218335000Y-157067500D03*
%TO.N,GPIO12*%
X222145000Y-157067500D03*
%TO.N,DAC_1*%
X225955000Y-157067500D03*
%TO.N,DAC_2*%
X229765000Y-157067500D03*
%TO.N,GND*%
X233575000Y-157067500D03*
%TO.N,PERIPHERAL_PWR*%
X237385000Y-157067500D03*
%TD*%
D10*
%TO.N,Net-(F6-Pad1)*%
%TO.C,H6*%
X140500000Y-154000000D03*
%TD*%
%TO.N,Net-(F3-Pad1)*%
%TO.C,H3*%
X74500000Y-154000000D03*
%TD*%
%TO.N,Net-(F13-Pad1)*%
%TO.C,H13*%
X96750000Y-64000000D03*
%TD*%
D20*
%TO.N,+12V*%
%TO.C,H18*%
X30500000Y-99000000D03*
%TD*%
D11*
%TO.N,Net-(F16-Pad1)*%
%TO.C,F16*%
X24450000Y-74250000D03*
X29550000Y-74250000D03*
%TO.N,CH16_CSN*%
X33650000Y-74250000D03*
X38750000Y-74250000D03*
%TD*%
D10*
%TO.N,Net-(F5-Pad1)*%
%TO.C,H5*%
X118500000Y-154000000D03*
%TD*%
%TO.N,Net-(F2-Pad1)*%
%TO.C,H2*%
X52500000Y-154000000D03*
%TD*%
D11*
%TO.N,Net-(F4-Pad1)*%
%TO.C,F4*%
X102800000Y-143750000D03*
X97700000Y-143750000D03*
%TO.N,CH4_CSN*%
X93600000Y-143750000D03*
X88500000Y-143750000D03*
%TD*%
D10*
%TO.N,Net-(F7-Pad1)*%
%TO.C,H7*%
X162500000Y-154000000D03*
%TD*%
%TO.N,Net-(F1-Pad1)*%
%TO.C,H1*%
X30500000Y-154000000D03*
%TD*%
D14*
%TO.N,MTD0*%
%TO.C,J3*%
X217625000Y-104525000D03*
D15*
%TO.N,MTCK*%
X220165000Y-104525000D03*
%TO.N,MTMS*%
X217625000Y-107065000D03*
%TO.N,MTDI*%
X220165000Y-107065000D03*
%TD*%
D10*
%TO.N,Net-(F4-Pad1)*%
%TO.C,H4*%
X96500000Y-154000000D03*
%TD*%
D11*
%TO.N,GNDS*%
%TO.C,J4*%
X245000000Y-67105331D03*
X220000000Y-67105331D03*
D21*
%TO.N,CAN_H*%
X238040000Y-69945331D03*
D22*
%TO.N,CAN_L*%
X235270000Y-69945331D03*
%TO.N,PERIPHERAL_PWR*%
X232500000Y-69945331D03*
%TO.N,unconnected-(J4-Pad4)*%
X229730000Y-69945331D03*
%TO.N,GND*%
X226960000Y-69945331D03*
%TO.N,Net-(JP2-B)*%
X236655000Y-67105331D03*
%TO.N,Net-(JP3-B)*%
X233885000Y-67105331D03*
%TO.N,ALLOW_Q_DRAW*%
X231115000Y-67105331D03*
%TO.N,/MCU_IO/CAR_ACC_ESD*%
X228345000Y-67105331D03*
%TD*%
D11*
%TO.N,Net-(F3-Pad1)*%
%TO.C,F3*%
X80800000Y-143750000D03*
X75700000Y-143750000D03*
%TO.N,CH3_CSN*%
X71600000Y-143750000D03*
X66500000Y-143750000D03*
%TD*%
%TO.N,Net-(F10-Pad1)*%
%TO.C,F10*%
X156450000Y-74250000D03*
X161550000Y-74250000D03*
%TO.N,CH10_CSN*%
X165650000Y-74250000D03*
X170750000Y-74250000D03*
%TD*%
%TO.N,Net-(F8-Pad1)*%
%TO.C,F8*%
X190800000Y-143750000D03*
X185700000Y-143750000D03*
%TO.N,CH8_CSN*%
X181600000Y-143750000D03*
X176500000Y-143750000D03*
%TD*%
%TO.N,Net-(F15-Pad1)*%
%TO.C,F15*%
X46450000Y-74250000D03*
X51550000Y-74250000D03*
%TO.N,CH15_CSN*%
X55650000Y-74250000D03*
X60750000Y-74250000D03*
%TD*%
%TO.N,Net-(F13-Pad1)*%
%TO.C,F13*%
X90450000Y-74250000D03*
X95550000Y-74250000D03*
%TO.N,CH13_CSN*%
X99650000Y-74250000D03*
X104750000Y-74250000D03*
%TD*%
%TO.N,Net-(F9-Pad1)*%
%TO.C,F9*%
X178450000Y-74250000D03*
X183550000Y-74250000D03*
%TO.N,CH9_CSN*%
X187650000Y-74250000D03*
X192750000Y-74250000D03*
%TD*%
D10*
%TO.N,Net-(F9-Pad1)*%
%TO.C,H9*%
X184750000Y-64000000D03*
%TD*%
D11*
%TO.N,Net-(F5-Pad1)*%
%TO.C,F5*%
X124800000Y-143750000D03*
X119700000Y-143750000D03*
%TO.N,CH5_CSN*%
X115600000Y-143750000D03*
X110500000Y-143750000D03*
%TD*%
D10*
%TO.N,Net-(F8-Pad1)*%
%TO.C,H8*%
X184500000Y-154000000D03*
%TD*%
D20*
%TO.N,+12V*%
%TO.C,H17*%
X30500000Y-119000000D03*
%TD*%
D10*
%TO.N,Net-(F15-Pad1)*%
%TO.C,H15*%
X52750000Y-64000000D03*
%TD*%
D23*
%TO.N,GND*%
X107096824Y-95861220D03*
%TO.N,+3V3*%
X238600000Y-102750000D03*
%TO.N,GND*%
X232200000Y-113700000D03*
X231500000Y-111400000D03*
X104625000Y-120800000D03*
%TO.N,+12V*%
X215300000Y-71900000D03*
X243825000Y-86900000D03*
%TO.N,PERIPHERAL_PWR*%
X247700000Y-77200000D03*
X247700000Y-78500000D03*
X247700000Y-79700000D03*
X247700000Y-81000000D03*
%TO.N,I2C_SCL*%
X236900000Y-59550000D03*
%TO.N,I2C_SDA*%
X233400000Y-60100000D03*
%TO.N,GND*%
X212900000Y-88800000D03*
%TO.N,+3V3*%
X234675000Y-85800000D03*
X210800000Y-78400000D03*
%TO.N,RST*%
X249472459Y-110472459D03*
%TO.N,ADC_02_ALERT*%
X110700000Y-119100000D03*
X187100000Y-120150000D03*
X186926102Y-114349000D03*
%TO.N,ADC_01_ALERT*%
X186300000Y-120150000D03*
X186300000Y-114750000D03*
%TO.N,+12V_REF*%
X185200000Y-114800000D03*
%TO.N,PERIPHERAL_PWR_CSN_DEV*%
X182000000Y-113000000D03*
%TO.N,RST*%
X216200000Y-124200000D03*
%TO.N,I2C_SDA*%
X108800000Y-120200000D03*
%TO.N,IOX0_INT*%
X62400000Y-113799000D03*
%TO.N,PERIPHERAL_PWR_GATE*%
X162275000Y-110975000D03*
%TO.N,I2C_SCL*%
X57674997Y-101000000D03*
%TO.N,I2C_SDA*%
X58375000Y-101000000D03*
%TO.N,RST*%
X61100000Y-115200000D03*
%TO.N,I2C_SCL*%
X101714409Y-96700000D03*
%TO.N,I2C_SDA*%
X100900000Y-96700000D03*
%TO.N,ADC_01_ALERT*%
X108800000Y-120999997D03*
%TO.N,I2C_SCL*%
X108800000Y-121700000D03*
%TO.N,I2C_SDA*%
X108800000Y-122400000D03*
%TO.N,+3V3*%
X59075000Y-95600000D03*
X58700000Y-115900000D03*
X101200000Y-130200000D03*
X101200000Y-124900000D03*
%TO.N,DISRABUTION_NEO_PIXELS*%
X34500000Y-136100000D03*
%TO.N,+3V3*%
X34400000Y-138900000D03*
%TO.N,Net-(D1-DOUT)*%
X36600000Y-138900000D03*
X56500000Y-136000000D03*
%TO.N,+3V3*%
X56500000Y-139000000D03*
%TO.N,Net-(D2-DOUT)*%
X58400000Y-139100000D03*
X78400000Y-136100000D03*
%TO.N,+3V3*%
X78400000Y-138900000D03*
%TO.N,Net-(D3-DOUT)*%
X80500000Y-139000000D03*
X100500000Y-135900000D03*
%TO.N,+3V3*%
X100500000Y-139000000D03*
%TO.N,Net-(D4-DOUT)*%
X102500000Y-139000000D03*
X122700000Y-136100000D03*
%TO.N,+3V3*%
X122600000Y-139000000D03*
%TO.N,Net-(D5-DOUT)*%
X124500000Y-139000000D03*
%TO.N,Net-(D6-DOUT)*%
X146500000Y-139000000D03*
%TO.N,+3V3*%
X144500000Y-139000000D03*
%TO.N,Net-(D5-DOUT)*%
X144400000Y-136100000D03*
%TO.N,Net-(D7-DOUT)*%
X168500000Y-139000000D03*
%TO.N,+3V3*%
X166600000Y-138900000D03*
%TO.N,Net-(D6-DOUT)*%
X166600000Y-136100000D03*
%TO.N,Net-(D17-DIN)*%
X190500000Y-139100000D03*
%TO.N,+3V3*%
X188600000Y-139000000D03*
%TO.N,Net-(D7-DOUT)*%
X188600000Y-136000000D03*
%TO.N,Net-(D16-DIN)*%
X172100000Y-113400000D03*
%TO.N,+3V3*%
X170200000Y-113400000D03*
%TO.N,Net-(D17-DIN)*%
X170200000Y-110600000D03*
%TO.N,GND*%
X172200000Y-110600000D03*
%TO.N,+3V3*%
X180700000Y-79100000D03*
%TO.N,Net-(D10-DOUT)*%
X180700000Y-81900000D03*
%TO.N,Net-(D10-DIN)*%
X158700000Y-82000000D03*
%TO.N,+3V3*%
X158700000Y-79100000D03*
%TO.N,Net-(D10-DOUT)*%
X156700000Y-79000000D03*
%TO.N,Net-(D11-DIN)*%
X136700000Y-82000000D03*
%TO.N,+3V3*%
X136700000Y-79100000D03*
%TO.N,Net-(D10-DIN)*%
X134700000Y-79100000D03*
%TO.N,Net-(D12-DIN)*%
X114700000Y-81900000D03*
%TO.N,+3V3*%
X114700000Y-79000000D03*
%TO.N,Net-(D11-DIN)*%
X112700000Y-79100000D03*
%TO.N,Net-(D13-DIN)*%
X92700000Y-82000000D03*
%TO.N,+3V3*%
X92700000Y-79100000D03*
%TO.N,Net-(D12-DIN)*%
X90700000Y-79100000D03*
%TO.N,Net-(D14-DIN)*%
X70600000Y-81900000D03*
%TO.N,+3V3*%
X70600000Y-79200000D03*
%TO.N,Net-(D13-DIN)*%
X68700000Y-79100000D03*
%TO.N,Net-(D15-DIN)*%
X48700000Y-82000000D03*
%TO.N,Net-(D14-DIN)*%
X46800000Y-79100000D03*
%TO.N,+3V3*%
X48700000Y-79100000D03*
%TO.N,Net-(D16-DIN)*%
X26700000Y-81900000D03*
%TO.N,Net-(D15-DIN)*%
X24700000Y-79100000D03*
%TO.N,+3V3*%
X26700000Y-79100000D03*
%TO.N,GND*%
X124500000Y-136100000D03*
X146500000Y-136100000D03*
X168500000Y-136100000D03*
X190500000Y-136100000D03*
%TO.N,DAC_1*%
X239700000Y-153500000D03*
%TO.N,DAC_2*%
X240400000Y-153550000D03*
X240400000Y-121300000D03*
%TO.N,DAC_1*%
X239700000Y-121300000D03*
%TO.N,GND*%
X203900000Y-95300000D03*
X202900000Y-92400000D03*
X202900000Y-88900000D03*
X207100000Y-78400000D03*
%TO.N,+3V3*%
X212400000Y-84200000D03*
X212400000Y-84800000D03*
X212400000Y-85400000D03*
X211700000Y-87000000D03*
X211100000Y-87000000D03*
X210500000Y-87000000D03*
%TO.N,GND*%
X207475000Y-87992420D03*
X201000000Y-84000000D03*
%TO.N,IOX0_INT*%
X61100000Y-109300000D03*
%TO.N,ESP_TX*%
X251600000Y-104800000D03*
X218200000Y-114700000D03*
%TO.N,ESP_RX*%
X219000000Y-114720000D03*
%TO.N,+3V3*%
X222300000Y-112500000D03*
%TO.N,GNDS*%
X251600000Y-57025000D03*
%TO.N,GND*%
X251500000Y-58625000D03*
%TO.N,Net-(JP1-C)*%
X243600000Y-84900000D03*
X247026409Y-84873591D03*
%TO.N,GND*%
X251976409Y-89823591D03*
%TO.N,DISRABUTION_NEO_PIXELS*%
X233900000Y-114948000D03*
%TO.N,USB_P*%
X231503321Y-112264058D03*
%TO.N,USB_N*%
X231499986Y-112964053D03*
%TO.N,GND*%
X253300000Y-65500000D03*
X253300000Y-63200000D03*
%TO.N,USB_P*%
X253300000Y-64000000D03*
%TO.N,USB_N*%
X253300000Y-64700000D03*
%TO.N,GND*%
X254200000Y-65700000D03*
%TO.N,USB_C_P*%
X256600000Y-64100000D03*
X257800000Y-64600000D03*
X257800000Y-63450000D03*
%TO.N,ADC_02_ALERT*%
X230800000Y-114700000D03*
%TO.N,ADC_01_ALERT*%
X230014355Y-114720000D03*
%TO.N,+12V_REF*%
X231890027Y-115429498D03*
%TO.N,PERIPHERAL_PWR_CSN_DEV*%
X231338909Y-115861091D03*
%TO.N,GND*%
X182200000Y-115100000D03*
%TO.N,+12V*%
X176850000Y-115100000D03*
%TO.N,GND*%
X182100000Y-112100000D03*
%TO.N,ESP_IO0*%
X224450000Y-122350000D03*
%TO.N,GPIO12*%
X252100000Y-148900000D03*
%TO.N,+3V3*%
X228500000Y-121500000D03*
%TO.N,PERIPHERAL_PWR_GATE*%
X226050000Y-119461091D03*
%TO.N,I2C_SDA*%
X225250000Y-120262166D03*
%TO.N,I2C_SCL*%
X224850000Y-120921686D03*
%TO.N,IOX0_INT*%
X224450000Y-121561091D03*
%TO.N,GND*%
X214725000Y-118925000D03*
%TO.N,+3V3*%
X221403167Y-118175000D03*
%TO.N,GND*%
X228300000Y-109025000D03*
X226075000Y-116600000D03*
%TO.N,+3V3*%
X227300000Y-111800000D03*
%TO.N,GND*%
X224900000Y-114270000D03*
X220015592Y-116625000D03*
%TO.N,+3V3*%
X222400000Y-116600000D03*
X223312015Y-116788129D03*
%TO.N,GND*%
X254100000Y-151750000D03*
%TO.N,I2C_SCL*%
X253000000Y-67299997D03*
%TO.N,I2C_SDA*%
X252150000Y-67250000D03*
%TO.N,GND*%
X254100000Y-101700000D03*
X233125000Y-84200000D03*
X253200000Y-73800000D03*
X245375000Y-87000000D03*
%TO.N,Net-(JP1-C)*%
X259800000Y-90700000D03*
%TO.N,Net-(JP1-B)*%
X259800000Y-91600000D03*
%TO.N,Net-(JP1-A)*%
X261300000Y-87700000D03*
%TO.N,PERIPHERAL_PWR*%
X244600000Y-77200000D03*
%TO.N,/MCU_IO/CAR_ACC_ESD*%
X246200000Y-73700000D03*
%TO.N,ALLOW_Q_DRAW*%
X247600000Y-76000000D03*
%TO.N,+3V3*%
X105650000Y-97250000D03*
X108625000Y-95850000D03*
X104767858Y-118953678D03*
X103500000Y-121000000D03*
%TO.N,GND*%
X259250000Y-68250000D03*
X170000000Y-88000000D03*
X101750000Y-121000000D03*
X90750000Y-82000000D03*
D24*
X51750000Y-108000000D03*
D23*
X80500000Y-136250000D03*
X21500000Y-130000000D03*
X134750000Y-82000000D03*
X43500000Y-130000000D03*
X156750000Y-82000000D03*
X153500000Y-130250000D03*
D24*
X60250000Y-112250000D03*
D23*
X109500000Y-130250000D03*
X58500000Y-136250000D03*
X109657430Y-95439638D03*
X106896273Y-97422840D03*
X192250000Y-87750000D03*
X131500000Y-130250000D03*
X60500000Y-88000000D03*
X148250000Y-88000000D03*
X24750000Y-82000000D03*
X112750000Y-81750000D03*
X259250000Y-60600000D03*
X36500000Y-136250000D03*
X102500000Y-136000000D03*
X87500000Y-130000000D03*
X126500000Y-88000000D03*
X38250000Y-88000000D03*
X46750000Y-82000000D03*
X68750000Y-82000000D03*
X106026182Y-118954387D03*
X65500000Y-130250000D03*
X104500000Y-88000000D03*
D24*
X57000000Y-104750000D03*
D23*
X178750000Y-81750000D03*
X175500000Y-130250000D03*
X101250000Y-122500000D03*
D24*
X82250000Y-88000000D03*
D23*
%TO.N,CH1_CSN*%
X22500000Y-135250000D03*
%TO.N,CH2_CSN*%
X44250000Y-135000000D03*
%TO.N,CH3_CSN*%
X66250000Y-135250000D03*
%TO.N,CH4_CSN*%
X88500000Y-135250000D03*
%TO.N,CH5_CSN*%
X110250000Y-135250000D03*
%TO.N,CH6_CSN*%
X132250000Y-135000000D03*
%TO.N,CH7_CSN*%
X154250000Y-135000000D03*
%TO.N,CH8_CSN*%
X176250000Y-135250000D03*
%TO.N,CH9_CSN*%
X192750000Y-82750000D03*
%TO.N,CH10_CSN*%
X170750000Y-83000000D03*
%TO.N,CH11_CSN*%
X148750000Y-83250000D03*
%TO.N,CH12_CSN*%
X127000000Y-83000000D03*
%TO.N,CH13_CSN*%
X105000000Y-83250000D03*
%TO.N,CH14_CSN*%
X83000000Y-83000000D03*
%TO.N,CH15_CSN*%
X61000000Y-83000000D03*
%TO.N,CH16_CSN*%
X38750000Y-83000000D03*
%TO.N,CH16_GATE*%
X51750000Y-94001000D03*
X31750000Y-84000000D03*
%TO.N,CH2_GATE*%
X52750000Y-127500000D03*
X51500000Y-134000000D03*
%TO.N,CH3_GATE*%
X73500000Y-134000000D03*
X53500000Y-127500000D03*
%TO.N,CH4_GATE*%
X95500000Y-134000000D03*
X54250000Y-127500000D03*
%TO.N,CH5_GATE*%
X55000000Y-127500000D03*
X117500000Y-134000000D03*
%TO.N,CH6_GATE*%
X139500000Y-134000000D03*
X55750000Y-127500000D03*
%TO.N,CH7_GATE*%
X56500000Y-127500000D03*
X161500000Y-134000000D03*
%TO.N,CH8_GATE*%
X183500000Y-134000000D03*
X57250000Y-127500000D03*
%TO.N,CH9_GATE*%
X185750000Y-84000000D03*
X56700008Y-94001000D03*
%TO.N,CH10_GATE*%
X56000007Y-94001000D03*
X163750000Y-84000000D03*
%TO.N,CH11_GATE*%
X55300006Y-94001000D03*
X141750000Y-84000000D03*
%TO.N,CH12_GATE*%
X119750000Y-84000000D03*
X54600004Y-94001000D03*
%TO.N,CH13_GATE*%
X97750000Y-84000000D03*
X53900004Y-94001000D03*
%TO.N,CH14_GATE*%
X75750000Y-84000000D03*
X53200002Y-94001000D03*
%TO.N,CH15_GATE*%
X53750000Y-84000000D03*
X52500000Y-94001000D03*
%TO.N,CH1_CSN_DEV*%
X24000000Y-131750000D03*
%TO.N,CH2_CSN_DEV*%
X46000000Y-131750000D03*
%TO.N,CH3_CSN_DEV*%
X68000000Y-131750000D03*
%TO.N,CH4_CSN_DEV*%
X90000000Y-131750000D03*
%TO.N,CH5_CSN_DEV*%
X112000000Y-131750000D03*
%TO.N,CH6_CSN_DEV*%
X134000000Y-131750000D03*
%TO.N,CH7_CSN_DEV*%
X156000000Y-131750000D03*
%TO.N,CH8_CSN_DEV*%
X178000000Y-131750000D03*
%TO.N,CH9_CSN_DEV*%
X195000000Y-86000000D03*
%TO.N,CH10_CSN_DEV*%
X173000000Y-86250000D03*
%TO.N,CH11_CSN_DEV*%
X151000000Y-86250000D03*
%TO.N,CH12_CSN_DEV*%
X129250000Y-86250000D03*
%TO.N,CH13_CSN_DEV*%
X107250000Y-86250000D03*
%TO.N,CH14_CSN_DEV*%
X85000000Y-86250000D03*
%TO.N,CH15_CSN_DEV*%
X63250000Y-86250000D03*
%TO.N,CH16_CSN_DEV*%
X41000000Y-86250000D03*
%TO.N,CH1_GATE*%
X52000000Y-127500000D03*
X29500000Y-134000000D03*
%TD*%
D25*
%TO.N,+3V3*%
X108419818Y-96055182D02*
X108625000Y-95850000D01*
X108419818Y-96280182D02*
X108419818Y-96055182D01*
X108100000Y-96600000D02*
X108419818Y-96280182D01*
X106300000Y-96600000D02*
X108100000Y-96600000D01*
X105650000Y-97250000D02*
X106300000Y-96600000D01*
X103851000Y-95451000D02*
X59224000Y-95451000D01*
X59224000Y-95451000D02*
X59075000Y-95600000D01*
X105650000Y-97250000D02*
X103851000Y-95451000D01*
X104246322Y-118953678D02*
X103500000Y-119700000D01*
X103500000Y-119700000D02*
X103500000Y-121000000D01*
X104767858Y-118953678D02*
X104246322Y-118953678D01*
D26*
%TO.N,ADC_02_ALERT*%
X111498000Y-119898000D02*
X110700000Y-119100000D01*
X111498000Y-119898000D02*
X185772768Y-119898000D01*
X186071768Y-119599000D02*
X185772768Y-119898000D01*
X186071768Y-119599000D02*
X186549000Y-119599000D01*
X187100000Y-120150000D02*
X186549000Y-119599000D01*
%TO.N,ADC_01_ALERT*%
X108249000Y-120448997D02*
X108800000Y-120999997D01*
X108249000Y-119851000D02*
X108249000Y-120448997D01*
X109699000Y-120299000D02*
X108900000Y-119500000D01*
X186011166Y-120299000D02*
X109699000Y-120299000D01*
X186300000Y-120010166D02*
X186011166Y-120299000D01*
X108900000Y-119500000D02*
X108600000Y-119500000D01*
X186300000Y-120150000D02*
X186300000Y-120010166D01*
X108600000Y-119500000D02*
X108249000Y-119851000D01*
%TO.N,I2C_SDA*%
X109300000Y-120700000D02*
X108800000Y-120200000D01*
X223964759Y-120700000D02*
X109300000Y-120700000D01*
X224055668Y-120609091D02*
X223964759Y-120700000D01*
X224383363Y-120609091D02*
X224055668Y-120609091D01*
X225078232Y-120370686D02*
X224621768Y-120370686D01*
X224621768Y-120370686D02*
X224383363Y-120609091D01*
X225109856Y-120402310D02*
X225078232Y-120370686D01*
X225250000Y-120262166D02*
X225109856Y-120402310D01*
%TO.N,I2C_SCL*%
X224221768Y-121010091D02*
X224071768Y-121160091D01*
X224071768Y-121160091D02*
X109419138Y-121160091D01*
X108879229Y-121700000D02*
X108800000Y-121700000D01*
X224678232Y-121010091D02*
X224221768Y-121010091D01*
X109419138Y-121160091D02*
X108879229Y-121700000D01*
X224719913Y-121051773D02*
X224678232Y-121010091D01*
X224850000Y-120921686D02*
X224719913Y-121051773D01*
%TO.N,PERIPHERAL_PWR_GATE*%
X220498935Y-118300000D02*
X169600000Y-118300000D01*
X221174935Y-117624000D02*
X220498935Y-118300000D01*
X221631399Y-117624000D02*
X221174935Y-117624000D01*
X221954167Y-118100000D02*
X221954167Y-117946768D01*
X224688909Y-118100000D02*
X221954167Y-118100000D01*
X226050000Y-119461091D02*
X224688909Y-118100000D01*
X221954167Y-117946768D02*
X221631399Y-117624000D01*
X162275000Y-110975000D02*
X169600000Y-118300000D01*
%TO.N,I2C_SDA*%
X255506450Y-102306450D02*
X255506450Y-99063550D01*
X243816900Y-113996000D02*
X255506450Y-102306450D01*
X233505668Y-113996000D02*
X243816900Y-113996000D01*
X232637805Y-114795095D02*
X233433900Y-113999000D01*
X233433900Y-113999000D02*
X233502668Y-113999000D01*
X232637805Y-115460953D02*
X232637805Y-114795095D01*
X227836591Y-120262166D02*
X232637805Y-115460953D01*
X225250000Y-120262166D02*
X227836591Y-120262166D01*
X255506450Y-99063550D02*
X258000000Y-96570000D01*
X233502668Y-113999000D02*
X233505668Y-113996000D01*
%TO.N,I2C_SCL*%
X243980000Y-114400000D02*
X258000000Y-100380000D01*
X233668768Y-114400000D02*
X233671768Y-114397000D01*
X233600000Y-114400000D02*
X233668768Y-114400000D01*
X233038805Y-115627052D02*
X233038805Y-114961195D01*
X233038805Y-114961195D02*
X233600000Y-114400000D01*
X233671768Y-114397000D02*
X234128232Y-114397000D01*
X234131232Y-114400000D02*
X243980000Y-114400000D01*
X234128232Y-114397000D02*
X234131232Y-114400000D01*
X227744171Y-120921686D02*
X233038805Y-115627052D01*
X224850000Y-120921686D02*
X227744171Y-120921686D01*
%TO.N,DISRABUTION_NEO_PIXELS*%
X36371768Y-134228232D02*
X34500000Y-136100000D01*
X50949000Y-134228232D02*
X36371768Y-134228232D01*
X96069768Y-134551000D02*
X51271768Y-134551000D01*
X100971768Y-129649000D02*
X96069768Y-134551000D01*
X51271768Y-134551000D02*
X50949000Y-134228232D01*
X117271768Y-134551000D02*
X112369768Y-129649000D01*
X112369768Y-129649000D02*
X100971768Y-129649000D01*
X131919768Y-134551000D02*
X117271768Y-134551000D01*
X137349000Y-134449000D02*
X132021768Y-134449000D01*
X137900000Y-135000000D02*
X137349000Y-134449000D01*
X152600000Y-135000000D02*
X137900000Y-135000000D01*
X132021768Y-134449000D02*
X131919768Y-134551000D01*
X153151000Y-134449000D02*
X152600000Y-135000000D01*
X161169768Y-134449000D02*
X153151000Y-134449000D01*
X161271768Y-134551000D02*
X161169768Y-134449000D01*
X224149000Y-134551000D02*
X161271768Y-134551000D01*
X233900000Y-114948000D02*
X233900000Y-124800000D01*
X233900000Y-124800000D02*
X224149000Y-134551000D01*
%TO.N,PERIPHERAL_PWR_CSN_DEV*%
X182200000Y-113000000D02*
X185061091Y-115861091D01*
X182000000Y-113000000D02*
X182200000Y-113000000D01*
X185061091Y-115861091D02*
X231338909Y-115861091D01*
D25*
%TO.N,+3V3*%
X209400000Y-77000000D02*
X210800000Y-78400000D01*
X182800000Y-77000000D02*
X209400000Y-77000000D01*
X180700000Y-79100000D02*
X182800000Y-77000000D01*
D26*
%TO.N,ADC_02_ALERT*%
X187075102Y-114498000D02*
X186926102Y-114349000D01*
X187075102Y-114498000D02*
X217055668Y-114498000D01*
X217834668Y-113719000D02*
X217055668Y-114498000D01*
X229819000Y-113719000D02*
X217834668Y-113719000D01*
X230800000Y-114700000D02*
X229819000Y-113719000D01*
%TO.N,ADC_01_ALERT*%
X217971768Y-114149000D02*
X217221768Y-114899000D01*
X186300000Y-114899000D02*
X217221768Y-114899000D01*
X186300000Y-114899000D02*
X186300000Y-114750000D01*
%TO.N,+12V_REF*%
X231760529Y-115300000D02*
X231890027Y-115429498D01*
X185200000Y-114800000D02*
X185700000Y-115300000D01*
X185700000Y-115300000D02*
X231760529Y-115300000D01*
%TO.N,ADC_01_ALERT*%
X219450000Y-114149000D02*
X217971768Y-114149000D01*
X229835355Y-114899000D02*
X220200000Y-114899000D01*
X220200000Y-114899000D02*
X219450000Y-114149000D01*
X230014355Y-114720000D02*
X229835355Y-114899000D01*
%TO.N,IOX0_INT*%
X103230232Y-123701000D02*
X109799000Y-123701000D01*
X109799000Y-123701000D02*
X111938909Y-121561091D01*
X93328232Y-113799000D02*
X103230232Y-123701000D01*
X111938909Y-121561091D02*
X224450000Y-121561091D01*
X62400000Y-113799000D02*
X93328232Y-113799000D01*
%TO.N,RST*%
X92998000Y-115300000D02*
X61200000Y-115300000D01*
X61200000Y-115300000D02*
X61100000Y-115200000D01*
X216000000Y-124200000D02*
X215902000Y-124102000D01*
X215902000Y-124102000D02*
X101800000Y-124102000D01*
X101800000Y-124102000D02*
X92998000Y-115300000D01*
X216200000Y-124200000D02*
X216000000Y-124200000D01*
%TO.N,I2C_SDA*%
X62759868Y-96403000D02*
X100603000Y-96403000D01*
X58375000Y-100787868D02*
X62759868Y-96403000D01*
X100603000Y-96403000D02*
X100900000Y-96700000D01*
X58375000Y-101000000D02*
X58375000Y-100787868D01*
%TO.N,I2C_SCL*%
X101016409Y-96002000D02*
X101714409Y-96700000D01*
X57674997Y-100920771D02*
X62593768Y-96002000D01*
X62593768Y-96002000D02*
X101016409Y-96002000D01*
X57674997Y-101000000D02*
X57674997Y-100920771D01*
D25*
%TO.N,+3V3*%
X23999000Y-78809636D02*
X24409636Y-78399000D01*
X23999000Y-83499000D02*
X23999000Y-78809636D01*
X34210384Y-85589616D02*
X26089616Y-85589616D01*
X39000000Y-90379232D02*
X34210384Y-85589616D01*
X39000000Y-90500000D02*
X39000000Y-90379232D01*
X24409636Y-78399000D02*
X25999000Y-78399000D01*
X41600000Y-123500000D02*
X41600000Y-93100000D01*
X35100000Y-130000000D02*
X41600000Y-123500000D01*
X32500000Y-130000000D02*
X35100000Y-130000000D01*
X28799000Y-133701000D02*
X32500000Y-130000000D01*
X28799000Y-134290364D02*
X28799000Y-133701000D01*
X26089616Y-85589616D02*
X23999000Y-83499000D01*
X33408636Y-138900000D02*
X28799000Y-134290364D01*
X41600000Y-93100000D02*
X39000000Y-90500000D01*
X34400000Y-138900000D02*
X33408636Y-138900000D01*
X25999000Y-78399000D02*
X26700000Y-79100000D01*
D26*
%TO.N,CH1_GATE*%
X48900000Y-130600000D02*
X32900000Y-130600000D01*
X32900000Y-130600000D02*
X29500000Y-134000000D01*
X52000000Y-127500000D02*
X48900000Y-130600000D01*
%TO.N,CH16_GATE*%
X33400000Y-84000000D02*
X31750000Y-84000000D01*
X43401000Y-94001000D02*
X33400000Y-84000000D01*
X51750000Y-94001000D02*
X43401000Y-94001000D01*
%TO.N,CH9_GATE*%
X174850000Y-94900000D02*
X185750000Y-84000000D01*
X109429198Y-94888638D02*
X109885662Y-94888638D01*
X109417836Y-94900000D02*
X109429198Y-94888638D01*
X109885662Y-94888638D02*
X109897024Y-94900000D01*
X57599008Y-94900000D02*
X109417836Y-94900000D01*
X56700008Y-94001000D02*
X57599008Y-94900000D01*
X109897024Y-94900000D02*
X174850000Y-94900000D01*
D25*
%TO.N,+3V3*%
X92200000Y-115900000D02*
X58700000Y-115900000D01*
X101200000Y-124900000D02*
X92200000Y-115900000D01*
X101200000Y-138300000D02*
X101200000Y-130200000D01*
X100500000Y-139000000D02*
X101200000Y-138300000D01*
D26*
%TO.N,Net-(D15-DIN)*%
X27049000Y-81449000D02*
X24700000Y-79100000D01*
X48149000Y-81449000D02*
X27049000Y-81449000D01*
X48700000Y-82000000D02*
X48149000Y-81449000D01*
%TO.N,Net-(D14-DIN)*%
X70600000Y-81900000D02*
X70100000Y-81400000D01*
X70100000Y-81400000D02*
X49100000Y-81400000D01*
X49100000Y-81400000D02*
X46800000Y-79100000D01*
%TO.N,Net-(D13-DIN)*%
X70949000Y-81349000D02*
X68700000Y-79100000D01*
X92049000Y-81349000D02*
X70949000Y-81349000D01*
X92700000Y-82000000D02*
X92049000Y-81349000D01*
%TO.N,Net-(D12-DIN)*%
X92799000Y-81199000D02*
X90700000Y-79100000D01*
X113999000Y-81199000D02*
X92799000Y-81199000D01*
X114700000Y-81900000D02*
X113999000Y-81199000D01*
%TO.N,Net-(D11-DIN)*%
X136049000Y-81349000D02*
X114949000Y-81349000D01*
X136700000Y-82000000D02*
X136049000Y-81349000D01*
X114949000Y-81349000D02*
X112700000Y-79100000D01*
%TO.N,Net-(D10-DIN)*%
X137049000Y-81449000D02*
X134700000Y-79100000D01*
X158149000Y-81449000D02*
X137049000Y-81449000D01*
X158700000Y-82000000D02*
X158149000Y-81449000D01*
%TO.N,Net-(D10-DOUT)*%
X157700000Y-80000000D02*
X156700000Y-79000000D01*
X178800000Y-80000000D02*
X157700000Y-80000000D01*
X180700000Y-81900000D02*
X178800000Y-80000000D01*
%TO.N,Net-(D1-DOUT)*%
X39500000Y-136000000D02*
X36600000Y-138900000D01*
X56500000Y-136000000D02*
X39500000Y-136000000D01*
%TO.N,Net-(D2-DOUT)*%
X61400000Y-136100000D02*
X58400000Y-139100000D01*
X78400000Y-136100000D02*
X61400000Y-136100000D01*
%TO.N,Net-(D3-DOUT)*%
X100500000Y-135900000D02*
X83600000Y-135900000D01*
X83600000Y-135900000D02*
X80500000Y-139000000D01*
%TO.N,Net-(D4-DOUT)*%
X105400000Y-136100000D02*
X102500000Y-139000000D01*
X122700000Y-136100000D02*
X105400000Y-136100000D01*
%TO.N,Net-(D5-DOUT)*%
X127400000Y-136100000D02*
X124500000Y-139000000D01*
X144400000Y-136100000D02*
X127400000Y-136100000D01*
%TO.N,Net-(D6-DOUT)*%
X163700000Y-139000000D02*
X146500000Y-139000000D01*
X166600000Y-136100000D02*
X163700000Y-139000000D01*
%TO.N,Net-(D7-DOUT)*%
X171500000Y-136000000D02*
X168500000Y-139000000D01*
X188600000Y-136000000D02*
X171500000Y-136000000D01*
D25*
%TO.N,+3V3*%
X158700000Y-79100000D02*
X180700000Y-79100000D01*
X156900000Y-77300000D02*
X158700000Y-79100000D01*
X138500000Y-77300000D02*
X156900000Y-77300000D01*
X136700000Y-79100000D02*
X138500000Y-77300000D01*
X116200000Y-77500000D02*
X135100000Y-77500000D01*
X114700000Y-79000000D02*
X116200000Y-77500000D01*
X135100000Y-77500000D02*
X136700000Y-79100000D01*
X114099000Y-78399000D02*
X114700000Y-79000000D01*
X93401000Y-78399000D02*
X114099000Y-78399000D01*
X92700000Y-79100000D02*
X93401000Y-78399000D01*
X71700000Y-78100000D02*
X91700000Y-78100000D01*
X91700000Y-78100000D02*
X92700000Y-79100000D01*
X70600000Y-79200000D02*
X71700000Y-78100000D01*
X69500000Y-78100000D02*
X70600000Y-79200000D01*
X49700000Y-78100000D02*
X69500000Y-78100000D01*
X48700000Y-79100000D02*
X49700000Y-78100000D01*
X27401000Y-78399000D02*
X47999000Y-78399000D01*
X26700000Y-79100000D02*
X27401000Y-78399000D01*
X47999000Y-78399000D02*
X48700000Y-79100000D01*
X55899000Y-139601000D02*
X35101000Y-139601000D01*
X56500000Y-139000000D02*
X55899000Y-139601000D01*
X35101000Y-139601000D02*
X34400000Y-138900000D01*
X57301000Y-139801000D02*
X56500000Y-139000000D01*
X77499000Y-139801000D02*
X57301000Y-139801000D01*
X78400000Y-138900000D02*
X77499000Y-139801000D01*
X99700000Y-139800000D02*
X79300000Y-139800000D01*
X79300000Y-139800000D02*
X78400000Y-138900000D01*
X100500000Y-139000000D02*
X99700000Y-139800000D01*
X121899000Y-139701000D02*
X101201000Y-139701000D01*
X122600000Y-139000000D02*
X121899000Y-139701000D01*
X101201000Y-139701000D02*
X100500000Y-139000000D01*
X123301000Y-139701000D02*
X122600000Y-139000000D01*
X143799000Y-139701000D02*
X123301000Y-139701000D01*
X144500000Y-139000000D02*
X143799000Y-139701000D01*
X145700000Y-140200000D02*
X144500000Y-139000000D01*
X165300000Y-140200000D02*
X145700000Y-140200000D01*
X166600000Y-138900000D02*
X165300000Y-140200000D01*
X167401000Y-139701000D02*
X166600000Y-138900000D01*
X187899000Y-139701000D02*
X167401000Y-139701000D01*
X188600000Y-139000000D02*
X187899000Y-139701000D01*
D26*
%TO.N,CH2_GATE*%
X52750000Y-132750000D02*
X51500000Y-134000000D01*
X52750000Y-127500000D02*
X52750000Y-132750000D01*
%TO.N,CH3_GATE*%
X55625768Y-129655000D02*
X69155000Y-129655000D01*
X53500000Y-127500000D02*
X53500000Y-127529232D01*
X53500000Y-127529232D02*
X55625768Y-129655000D01*
X69155000Y-129655000D02*
X73500000Y-134000000D01*
%TO.N,CH4_GATE*%
X54250000Y-127500000D02*
X54250000Y-127529232D01*
X54250000Y-127529232D02*
X55974768Y-129254000D01*
X55974768Y-129254000D02*
X90754000Y-129254000D01*
X90754000Y-129254000D02*
X95500000Y-134000000D01*
%TO.N,CH5_GATE*%
X55000000Y-127529232D02*
X56323768Y-128853000D01*
X55000000Y-127500000D02*
X55000000Y-127529232D01*
X56323768Y-128853000D02*
X112353000Y-128853000D01*
X112353000Y-128853000D02*
X117500000Y-134000000D01*
%TO.N,CH6_GATE*%
X56634900Y-128452000D02*
X133952000Y-128452000D01*
X133952000Y-128452000D02*
X139500000Y-134000000D01*
X55750000Y-127567100D02*
X56634900Y-128452000D01*
X55750000Y-127500000D02*
X55750000Y-127567100D01*
%TO.N,CH7_GATE*%
X56500000Y-127750000D02*
X56801000Y-128051000D01*
X155551000Y-128051000D02*
X161500000Y-134000000D01*
X56801000Y-128051000D02*
X155551000Y-128051000D01*
X56500000Y-127500000D02*
X56500000Y-127750000D01*
%TO.N,CH8_GATE*%
X177000000Y-127500000D02*
X183500000Y-134000000D01*
X57250000Y-127500000D02*
X177000000Y-127500000D01*
%TO.N,CH10_GATE*%
X58450000Y-93450000D02*
X58500000Y-93500000D01*
X56471776Y-93450000D02*
X58450000Y-93450000D01*
X58500000Y-93500000D02*
X154250000Y-93500000D01*
X56000007Y-94001000D02*
X56000007Y-93921769D01*
X58450000Y-93500000D02*
X58500000Y-93500000D01*
X154250000Y-93500000D02*
X163750000Y-84000000D01*
X56000007Y-93921769D02*
X56471776Y-93450000D01*
%TO.N,CH11_GATE*%
X56721775Y-92500000D02*
X133250000Y-92500000D01*
X133250000Y-92500000D02*
X141750000Y-84000000D01*
X55300006Y-94001000D02*
X55300006Y-93921769D01*
X55300006Y-93921769D02*
X56721775Y-92500000D01*
%TO.N,CH12_GATE*%
X54600004Y-93921770D02*
X56521774Y-92000000D01*
X111750000Y-92000000D02*
X119750000Y-84000000D01*
X54600004Y-94001000D02*
X54600004Y-93921770D01*
X56521774Y-92000000D02*
X111750000Y-92000000D01*
%TO.N,CH13_GATE*%
X90250000Y-91500000D02*
X97750000Y-84000000D01*
X53900004Y-94001000D02*
X53900004Y-93849996D01*
X53900004Y-93849996D02*
X56250000Y-91500000D01*
X56250000Y-91500000D02*
X90250000Y-91500000D01*
%TO.N,CH14_GATE*%
X53200002Y-94001000D02*
X53200002Y-93921770D01*
X53200002Y-93921770D02*
X56121772Y-91000000D01*
X68750000Y-91000000D02*
X75750000Y-84000000D01*
X56121772Y-91000000D02*
X68750000Y-91000000D01*
%TO.N,CH15_GATE*%
X52500000Y-85250000D02*
X53750000Y-84000000D01*
X52500000Y-94001000D02*
X52500000Y-85250000D01*
%TD*%
%TA.AperFunction,Conductor*%
%TO.N,GND*%
G36*
X253543039Y-62719685D02*
G01*
X253588794Y-62772489D01*
X253600000Y-62824000D01*
X253600000Y-63452393D01*
X253580315Y-63519432D01*
X253527511Y-63565187D01*
X253458353Y-63575131D01*
X253443907Y-63572168D01*
X253417853Y-63565187D01*
X253359309Y-63549500D01*
X253240691Y-63549500D01*
X253126114Y-63580201D01*
X253126112Y-63580201D01*
X253126112Y-63580202D01*
X253023387Y-63639511D01*
X253023384Y-63639513D01*
X252939513Y-63723384D01*
X252939511Y-63723387D01*
X252880201Y-63826114D01*
X252849500Y-63940691D01*
X252849500Y-64059309D01*
X252880201Y-64173886D01*
X252939511Y-64276613D01*
X252939512Y-64276614D01*
X252943575Y-64283651D01*
X252941824Y-64284661D01*
X252963095Y-64339689D01*
X252949053Y-64408133D01*
X252941822Y-64419384D01*
X252939511Y-64423387D01*
X252880201Y-64526114D01*
X252849500Y-64640691D01*
X252849500Y-64759309D01*
X252880201Y-64873886D01*
X252939511Y-64976613D01*
X253023387Y-65060489D01*
X253126114Y-65119799D01*
X253240691Y-65150500D01*
X253240694Y-65150500D01*
X253359306Y-65150500D01*
X253359309Y-65150500D01*
X253443909Y-65127831D01*
X253513756Y-65129494D01*
X253571618Y-65168656D01*
X253599123Y-65232884D01*
X253600000Y-65247606D01*
X253600000Y-65776000D01*
X253580315Y-65843039D01*
X253527511Y-65888794D01*
X253476000Y-65900000D01*
X252900000Y-65900000D01*
X251200000Y-67000000D01*
X251200000Y-87747828D01*
X251180315Y-87814867D01*
X251162702Y-87836478D01*
X242100000Y-96700000D01*
X242100000Y-96700001D01*
X242100000Y-107846796D01*
X242080315Y-107913835D01*
X242061444Y-107936659D01*
X238418967Y-111399999D01*
X236040634Y-113661363D01*
X235978488Y-113693292D01*
X235955192Y-113695500D01*
X233545230Y-113695500D01*
X233466106Y-113695500D01*
X233466104Y-113695500D01*
X233458050Y-113696561D01*
X233457988Y-113696097D01*
X233441502Y-113698466D01*
X233440057Y-113698500D01*
X233394338Y-113698500D01*
X233389938Y-113699678D01*
X233377735Y-113699966D01*
X233377264Y-113699839D01*
X233374819Y-113700000D01*
X230724000Y-113700000D01*
X230656961Y-113680315D01*
X230611206Y-113627511D01*
X230600000Y-113576000D01*
X230600000Y-112904744D01*
X231049486Y-112904744D01*
X231049486Y-113023362D01*
X231080187Y-113137939D01*
X231139497Y-113240666D01*
X231223373Y-113324542D01*
X231326100Y-113383852D01*
X231440677Y-113414553D01*
X231440680Y-113414553D01*
X231559292Y-113414553D01*
X231559295Y-113414553D01*
X231673872Y-113383852D01*
X231776599Y-113324542D01*
X231860475Y-113240666D01*
X231919785Y-113137939D01*
X231950486Y-113023362D01*
X231950486Y-112904744D01*
X231919785Y-112790167D01*
X231860475Y-112687440D01*
X231860473Y-112687438D01*
X231856411Y-112680402D01*
X231858842Y-112678998D01*
X231838562Y-112626567D01*
X231852588Y-112558119D01*
X231863766Y-112540727D01*
X231863801Y-112540679D01*
X231863810Y-112540671D01*
X231923120Y-112437944D01*
X231953821Y-112323367D01*
X231953821Y-112204749D01*
X231923120Y-112090172D01*
X231863810Y-111987445D01*
X231779934Y-111903569D01*
X231677207Y-111844259D01*
X231562630Y-111813558D01*
X231444012Y-111813558D01*
X231329435Y-111844259D01*
X231329433Y-111844259D01*
X231329433Y-111844260D01*
X231226708Y-111903569D01*
X231226705Y-111903571D01*
X231142834Y-111987442D01*
X231142832Y-111987445D01*
X231083522Y-112090172D01*
X231052821Y-112204749D01*
X231052821Y-112323367D01*
X231083522Y-112437944D01*
X231142832Y-112540671D01*
X231142833Y-112540672D01*
X231146896Y-112547709D01*
X231144465Y-112549112D01*
X231164745Y-112601552D01*
X231150714Y-112669998D01*
X231139553Y-112687366D01*
X231139501Y-112687433D01*
X231139497Y-112687440D01*
X231080187Y-112790167D01*
X231049486Y-112904744D01*
X230600000Y-112904744D01*
X230600000Y-111524000D01*
X230619685Y-111456961D01*
X230672489Y-111411206D01*
X230724000Y-111400000D01*
X234999998Y-111400000D01*
X235000000Y-111400000D01*
X239400000Y-106900000D01*
X239400000Y-95551759D01*
X239419685Y-95484720D01*
X239436794Y-95463604D01*
X248600000Y-86400000D01*
X248800000Y-82600000D01*
X248899645Y-65959137D01*
X248919731Y-65892219D01*
X248946177Y-65863058D01*
X252866035Y-62727172D01*
X252930681Y-62700664D01*
X252943497Y-62700000D01*
X253476000Y-62700000D01*
X253543039Y-62719685D01*
G37*
%TD.AperFunction*%
%TD*%
%TA.AperFunction,Conductor*%
%TO.N,PERIPHERAL_PWR*%
G36*
X265642193Y-55320185D02*
G01*
X265687948Y-55372989D01*
X265699154Y-55424601D01*
X265697337Y-57654789D01*
X265697299Y-57655381D01*
X265697299Y-57663011D01*
X265697299Y-57702590D01*
X265697267Y-57741890D01*
X265697299Y-57742009D01*
X265697299Y-58443981D01*
X265677614Y-58511020D01*
X265624810Y-58556775D01*
X265555652Y-58566719D01*
X265492096Y-58537694D01*
X265465912Y-58505982D01*
X265448715Y-58476197D01*
X265400500Y-58392686D01*
X265307314Y-58299500D01*
X265246711Y-58264511D01*
X265193187Y-58233608D01*
X265087172Y-58205202D01*
X265065892Y-58199500D01*
X263734108Y-58199500D01*
X263606812Y-58233608D01*
X263492686Y-58299500D01*
X263492683Y-58299502D01*
X263399502Y-58392683D01*
X263399500Y-58392686D01*
X263333608Y-58506812D01*
X263299500Y-58634108D01*
X263299500Y-58765891D01*
X263333608Y-58893187D01*
X263338473Y-58901613D01*
X263399500Y-59007314D01*
X263492686Y-59100500D01*
X263571047Y-59145742D01*
X263612489Y-59169669D01*
X263660704Y-59220237D01*
X263673926Y-59288844D01*
X263647958Y-59353708D01*
X263591044Y-59394236D01*
X263550436Y-59401056D01*
X261051255Y-59400018D01*
X260984224Y-59380306D01*
X260938491Y-59327483D01*
X260928576Y-59258320D01*
X260957628Y-59194776D01*
X260989307Y-59168631D01*
X260993184Y-59166392D01*
X260993186Y-59166392D01*
X261107314Y-59100500D01*
X261200500Y-59007314D01*
X261266392Y-58893186D01*
X261300500Y-58765892D01*
X261300500Y-58634108D01*
X261266392Y-58506814D01*
X261200500Y-58392686D01*
X261107314Y-58299500D01*
X261046711Y-58264511D01*
X260993187Y-58233608D01*
X260887172Y-58205202D01*
X260865892Y-58199500D01*
X259934108Y-58199500D01*
X259806812Y-58233608D01*
X259692686Y-58299500D01*
X259692683Y-58299502D01*
X259599502Y-58392683D01*
X259599500Y-58392686D01*
X259533608Y-58506812D01*
X259499500Y-58634108D01*
X259499500Y-58765891D01*
X259533608Y-58893187D01*
X259538473Y-58901613D01*
X259599500Y-59007314D01*
X259692686Y-59100500D01*
X259800529Y-59162763D01*
X259810633Y-59168597D01*
X259831324Y-59190297D01*
X259853742Y-59210197D01*
X259855178Y-59215315D01*
X259858848Y-59219164D01*
X259864521Y-59248601D01*
X259872623Y-59277467D01*
X259871063Y-59282551D01*
X259872070Y-59287772D01*
X259860927Y-59315603D01*
X259852138Y-59344266D01*
X259848078Y-59347699D01*
X259846102Y-59352636D01*
X259821681Y-59370025D01*
X259798791Y-59389386D01*
X259791697Y-59391377D01*
X259789188Y-59393164D01*
X259764810Y-59398924D01*
X259760442Y-59399498D01*
X259721702Y-59409878D01*
X259721701Y-59409877D01*
X259721006Y-59410064D01*
X259684127Y-59419931D01*
X259684072Y-59419962D01*
X259684011Y-59419979D01*
X259683800Y-59420100D01*
X259683799Y-59420101D01*
X259650160Y-59439522D01*
X259650119Y-59439545D01*
X259615589Y-59459462D01*
X259615497Y-59459531D01*
X259587639Y-59487390D01*
X259587603Y-59487426D01*
X259559617Y-59515389D01*
X259559611Y-59515395D01*
X259559543Y-59515482D01*
X259539798Y-59549680D01*
X259539670Y-59549904D01*
X259520027Y-59583895D01*
X259520010Y-59583956D01*
X259519979Y-59584011D01*
X259519913Y-59584257D01*
X259519912Y-59584259D01*
X259509955Y-59621417D01*
X259509943Y-59621463D01*
X259499513Y-59660322D01*
X259499500Y-59660419D01*
X259499500Y-59660438D01*
X259499500Y-59699875D01*
X259499484Y-59739437D01*
X259499500Y-59739496D01*
X259499500Y-60038861D01*
X259479815Y-60105900D01*
X259427011Y-60151655D01*
X259357853Y-60161599D01*
X259343409Y-60158636D01*
X259309313Y-60149500D01*
X259309309Y-60149500D01*
X259190691Y-60149500D01*
X259076114Y-60180201D01*
X259076112Y-60180201D01*
X259076112Y-60180202D01*
X258973387Y-60239511D01*
X258973384Y-60239513D01*
X258889513Y-60323384D01*
X258889511Y-60323387D01*
X258858780Y-60376615D01*
X258830201Y-60426114D01*
X258799500Y-60540691D01*
X258799500Y-60659309D01*
X258830201Y-60773886D01*
X258889511Y-60876613D01*
X258973387Y-60960489D01*
X259076114Y-61019799D01*
X259190691Y-61050500D01*
X259190694Y-61050500D01*
X259309306Y-61050500D01*
X259309309Y-61050500D01*
X259343408Y-61041363D01*
X259413256Y-61043026D01*
X259471119Y-61082188D01*
X259498623Y-61146417D01*
X259499500Y-61161138D01*
X259499500Y-67688861D01*
X259479815Y-67755900D01*
X259427011Y-67801655D01*
X259357853Y-67811599D01*
X259343409Y-67808636D01*
X259309313Y-67799500D01*
X259309309Y-67799500D01*
X259190691Y-67799500D01*
X259076114Y-67830201D01*
X259076112Y-67830201D01*
X259076112Y-67830202D01*
X258973387Y-67889511D01*
X258973384Y-67889513D01*
X258889513Y-67973384D01*
X258889511Y-67973387D01*
X258835244Y-68067380D01*
X258830201Y-68076114D01*
X258799500Y-68190691D01*
X258799500Y-68309309D01*
X258830201Y-68423886D01*
X258889511Y-68526613D01*
X258973387Y-68610489D01*
X259076114Y-68669799D01*
X259190691Y-68700500D01*
X259190694Y-68700500D01*
X259309306Y-68700500D01*
X259309309Y-68700500D01*
X259343408Y-68691363D01*
X259413256Y-68693026D01*
X259471119Y-68732188D01*
X259498623Y-68796417D01*
X259499500Y-68811138D01*
X259499500Y-68900438D01*
X259499500Y-68979562D01*
X259513152Y-69030513D01*
X259519979Y-69055990D01*
X259519982Y-69055995D01*
X259559535Y-69124504D01*
X259559539Y-69124509D01*
X259559540Y-69124511D01*
X259615489Y-69180460D01*
X259615491Y-69180461D01*
X259615495Y-69180464D01*
X259638111Y-69193521D01*
X259684011Y-69220021D01*
X259760438Y-69240500D01*
X259760444Y-69240500D01*
X259764812Y-69241075D01*
X259768233Y-69242588D01*
X259768288Y-69242603D01*
X259768285Y-69242611D01*
X259828710Y-69269339D01*
X259867184Y-69327662D01*
X259868018Y-69397527D01*
X259830948Y-69456752D01*
X259810633Y-69471401D01*
X259692692Y-69539496D01*
X259692683Y-69539502D01*
X259599502Y-69632683D01*
X259599500Y-69632686D01*
X259533608Y-69746812D01*
X259506820Y-69846790D01*
X259499500Y-69874108D01*
X259499500Y-70005892D01*
X259509664Y-70043826D01*
X259533608Y-70133187D01*
X259536574Y-70138324D01*
X259599500Y-70247314D01*
X259692686Y-70340500D01*
X259806814Y-70406392D01*
X259934108Y-70440500D01*
X259934110Y-70440500D01*
X260865890Y-70440500D01*
X260865892Y-70440500D01*
X260993186Y-70406392D01*
X261107314Y-70340500D01*
X261200500Y-70247314D01*
X261266392Y-70133186D01*
X261300500Y-70005892D01*
X261300500Y-69874108D01*
X261266392Y-69746814D01*
X261200500Y-69632686D01*
X261107314Y-69539500D01*
X261107312Y-69539499D01*
X261107310Y-69539497D01*
X260990206Y-69471887D01*
X260941990Y-69421320D01*
X260928768Y-69352713D01*
X260954736Y-69287848D01*
X261011650Y-69247320D01*
X261052206Y-69240500D01*
X263547794Y-69240500D01*
X263614833Y-69260185D01*
X263660588Y-69312989D01*
X263670532Y-69382147D01*
X263641507Y-69445703D01*
X263609794Y-69471887D01*
X263492689Y-69539497D01*
X263492683Y-69539502D01*
X263399502Y-69632683D01*
X263399500Y-69632686D01*
X263333608Y-69746812D01*
X263306820Y-69846790D01*
X263299500Y-69874108D01*
X263299500Y-70005892D01*
X263309664Y-70043826D01*
X263333608Y-70133187D01*
X263336574Y-70138324D01*
X263399500Y-70247314D01*
X263492686Y-70340500D01*
X263606814Y-70406392D01*
X263734108Y-70440500D01*
X263734110Y-70440500D01*
X265065890Y-70440500D01*
X265065892Y-70440500D01*
X265193186Y-70406392D01*
X265307314Y-70340500D01*
X265400500Y-70247314D01*
X265463426Y-70138324D01*
X265468113Y-70130206D01*
X265518680Y-70081990D01*
X265587287Y-70068768D01*
X265652152Y-70094736D01*
X265692680Y-70151650D01*
X265699500Y-70192206D01*
X265699500Y-164575500D01*
X265679815Y-164642539D01*
X265627011Y-164688294D01*
X265575500Y-164699500D01*
X183196559Y-164699500D01*
X183129520Y-164679815D01*
X183083765Y-164627011D01*
X183072565Y-164576705D01*
X183039673Y-161191826D01*
X183028052Y-159995946D01*
X247699500Y-159995946D01*
X247699500Y-160304053D01*
X247699501Y-160304069D01*
X247739717Y-160609542D01*
X247819464Y-160907162D01*
X247937376Y-161191826D01*
X247937381Y-161191837D01*
X248030014Y-161352280D01*
X248091438Y-161458670D01*
X248091440Y-161458673D01*
X248091441Y-161458674D01*
X248279007Y-161703115D01*
X248279013Y-161703122D01*
X248496877Y-161920986D01*
X248496883Y-161920991D01*
X248741330Y-162108562D01*
X248912830Y-162207578D01*
X249008162Y-162262618D01*
X249008167Y-162262620D01*
X249008170Y-162262622D01*
X249292836Y-162380535D01*
X249590456Y-162460282D01*
X249895940Y-162500500D01*
X249895947Y-162500500D01*
X250204053Y-162500500D01*
X250204060Y-162500500D01*
X250509544Y-162460282D01*
X250807164Y-162380535D01*
X251091830Y-162262622D01*
X251358670Y-162108562D01*
X251603117Y-161920991D01*
X251820991Y-161703117D01*
X252008562Y-161458670D01*
X252162622Y-161191830D01*
X252280535Y-160907164D01*
X252360282Y-160609544D01*
X252400500Y-160304060D01*
X252400500Y-159995940D01*
X252360282Y-159690456D01*
X252280535Y-159392836D01*
X252162622Y-159108170D01*
X252162620Y-159108167D01*
X252162618Y-159108162D01*
X252065326Y-158939649D01*
X252008562Y-158841330D01*
X251931188Y-158740494D01*
X251820992Y-158596884D01*
X251820986Y-158596877D01*
X251603122Y-158379013D01*
X251603115Y-158379007D01*
X251358674Y-158191441D01*
X251358673Y-158191440D01*
X251358670Y-158191438D01*
X251252280Y-158130014D01*
X251091837Y-158037381D01*
X251091826Y-158037376D01*
X250807162Y-157919464D01*
X250509542Y-157839717D01*
X250204069Y-157799501D01*
X250204066Y-157799500D01*
X250204060Y-157799500D01*
X249895940Y-157799500D01*
X249895934Y-157799500D01*
X249895930Y-157799501D01*
X249590457Y-157839717D01*
X249292837Y-157919464D01*
X249008173Y-158037376D01*
X249008162Y-158037381D01*
X248741325Y-158191441D01*
X248496884Y-158379007D01*
X248496877Y-158379013D01*
X248279013Y-158596877D01*
X248279007Y-158596884D01*
X248091441Y-158841325D01*
X247937381Y-159108162D01*
X247937376Y-159108173D01*
X247819464Y-159392837D01*
X247739717Y-159690457D01*
X247699501Y-159995930D01*
X247699500Y-159995946D01*
X183028052Y-159995946D01*
X183003448Y-157464040D01*
X183022480Y-157396815D01*
X183074837Y-157350549D01*
X183143896Y-157339934D01*
X183174895Y-157348277D01*
X183285559Y-157394116D01*
X183285563Y-157394117D01*
X183285565Y-157394118D01*
X183624095Y-157496809D01*
X183624101Y-157496810D01*
X183624104Y-157496811D01*
X183624115Y-157496814D01*
X183841674Y-157540088D01*
X183971060Y-157565825D01*
X184323119Y-157600500D01*
X184323122Y-157600500D01*
X184676878Y-157600500D01*
X184676881Y-157600500D01*
X185028940Y-157565825D01*
X185200679Y-157531663D01*
X185375884Y-157496814D01*
X185375895Y-157496811D01*
X185375895Y-157496810D01*
X185375905Y-157496809D01*
X185714435Y-157394118D01*
X186041269Y-157258739D01*
X186353259Y-157091976D01*
X186647402Y-156895436D01*
X186920864Y-156671012D01*
X187171012Y-156420864D01*
X187395436Y-156147402D01*
X187591976Y-155853259D01*
X187758739Y-155541269D01*
X187791064Y-155463230D01*
X209614500Y-155463230D01*
X209614500Y-158671769D01*
X209617353Y-158702199D01*
X209617353Y-158702201D01*
X209653994Y-158806911D01*
X209662207Y-158830382D01*
X209742850Y-158939650D01*
X209852118Y-159020293D01*
X209894845Y-159035244D01*
X209980299Y-159065146D01*
X210010730Y-159068000D01*
X210010734Y-159068000D01*
X211419270Y-159068000D01*
X211449699Y-159065146D01*
X211449701Y-159065146D01*
X211516950Y-159041614D01*
X211577882Y-159020293D01*
X211687150Y-158939650D01*
X211767793Y-158830382D01*
X211790219Y-158766290D01*
X211812646Y-158702201D01*
X211812646Y-158702199D01*
X211815500Y-158671769D01*
X211815500Y-156080889D01*
X213424500Y-156080889D01*
X213424500Y-158054111D01*
X213451598Y-158225201D01*
X213505127Y-158389945D01*
X213583768Y-158544288D01*
X213685586Y-158684428D01*
X213808072Y-158806914D01*
X213948212Y-158908732D01*
X214102555Y-158987373D01*
X214267299Y-159040902D01*
X214438389Y-159068000D01*
X214438390Y-159068000D01*
X214611610Y-159068000D01*
X214611611Y-159068000D01*
X214782701Y-159040902D01*
X214947445Y-158987373D01*
X215101788Y-158908732D01*
X215241928Y-158806914D01*
X215364414Y-158684428D01*
X215466232Y-158544288D01*
X215544873Y-158389945D01*
X215598402Y-158225201D01*
X215625500Y-158054111D01*
X215625500Y-156080889D01*
X217234500Y-156080889D01*
X217234500Y-158054111D01*
X217261598Y-158225201D01*
X217315127Y-158389945D01*
X217393768Y-158544288D01*
X217495586Y-158684428D01*
X217618072Y-158806914D01*
X217758212Y-158908732D01*
X217912555Y-158987373D01*
X218077299Y-159040902D01*
X218248389Y-159068000D01*
X218248390Y-159068000D01*
X218421610Y-159068000D01*
X218421611Y-159068000D01*
X218592701Y-159040902D01*
X218757445Y-158987373D01*
X218911788Y-158908732D01*
X219051928Y-158806914D01*
X219174414Y-158684428D01*
X219276232Y-158544288D01*
X219354873Y-158389945D01*
X219408402Y-158225201D01*
X219435500Y-158054111D01*
X219435500Y-156080889D01*
X221044500Y-156080889D01*
X221044500Y-158054111D01*
X221071598Y-158225201D01*
X221125127Y-158389945D01*
X221203768Y-158544288D01*
X221305586Y-158684428D01*
X221428072Y-158806914D01*
X221568212Y-158908732D01*
X221722555Y-158987373D01*
X221887299Y-159040902D01*
X222058389Y-159068000D01*
X222058390Y-159068000D01*
X222231610Y-159068000D01*
X222231611Y-159068000D01*
X222402701Y-159040902D01*
X222567445Y-158987373D01*
X222721788Y-158908732D01*
X222861928Y-158806914D01*
X222984414Y-158684428D01*
X223086232Y-158544288D01*
X223164873Y-158389945D01*
X223218402Y-158225201D01*
X223245500Y-158054111D01*
X223245500Y-156080889D01*
X224854500Y-156080889D01*
X224854500Y-158054111D01*
X224881598Y-158225201D01*
X224935127Y-158389945D01*
X225013768Y-158544288D01*
X225115586Y-158684428D01*
X225238072Y-158806914D01*
X225378212Y-158908732D01*
X225532555Y-158987373D01*
X225697299Y-159040902D01*
X225868389Y-159068000D01*
X225868390Y-159068000D01*
X226041610Y-159068000D01*
X226041611Y-159068000D01*
X226212701Y-159040902D01*
X226377445Y-158987373D01*
X226531788Y-158908732D01*
X226671928Y-158806914D01*
X226794414Y-158684428D01*
X226896232Y-158544288D01*
X226974873Y-158389945D01*
X227028402Y-158225201D01*
X227055500Y-158054111D01*
X227055500Y-156080889D01*
X228664500Y-156080889D01*
X228664500Y-158054111D01*
X228691598Y-158225201D01*
X228745127Y-158389945D01*
X228823768Y-158544288D01*
X228925586Y-158684428D01*
X229048072Y-158806914D01*
X229188212Y-158908732D01*
X229342555Y-158987373D01*
X229507299Y-159040902D01*
X229678389Y-159068000D01*
X229678390Y-159068000D01*
X229851610Y-159068000D01*
X229851611Y-159068000D01*
X230022701Y-159040902D01*
X230187445Y-158987373D01*
X230341788Y-158908732D01*
X230481928Y-158806914D01*
X230604414Y-158684428D01*
X230706232Y-158544288D01*
X230784873Y-158389945D01*
X230838402Y-158225201D01*
X230865500Y-158054111D01*
X230865500Y-156080889D01*
X232474500Y-156080889D01*
X232474500Y-158054111D01*
X232501598Y-158225201D01*
X232555127Y-158389945D01*
X232633768Y-158544288D01*
X232735586Y-158684428D01*
X232858072Y-158806914D01*
X232998212Y-158908732D01*
X233152555Y-158987373D01*
X233317299Y-159040902D01*
X233488389Y-159068000D01*
X233488390Y-159068000D01*
X233661610Y-159068000D01*
X233661611Y-159068000D01*
X233832701Y-159040902D01*
X233997445Y-158987373D01*
X234151788Y-158908732D01*
X234291928Y-158806914D01*
X234414414Y-158684428D01*
X234516232Y-158544288D01*
X234594873Y-158389945D01*
X234648402Y-158225201D01*
X234675500Y-158054111D01*
X234675500Y-156080928D01*
X236285000Y-156080928D01*
X236285000Y-156817500D01*
X236836518Y-156817500D01*
X236825889Y-156835909D01*
X236785000Y-156988509D01*
X236785000Y-157146491D01*
X236825889Y-157299091D01*
X236836518Y-157317500D01*
X236285000Y-157317500D01*
X236285000Y-158054071D01*
X236312085Y-158225084D01*
X236365591Y-158389757D01*
X236444195Y-158544024D01*
X236545967Y-158684102D01*
X236668397Y-158806532D01*
X236808475Y-158908304D01*
X236962744Y-158986908D01*
X237127415Y-159040414D01*
X237127414Y-159040414D01*
X237134999Y-159041615D01*
X237135000Y-159041614D01*
X237135000Y-157615982D01*
X237153409Y-157626611D01*
X237306009Y-157667500D01*
X237463991Y-157667500D01*
X237616591Y-157626611D01*
X237635000Y-157615982D01*
X237635000Y-159041615D01*
X237642584Y-159040414D01*
X237807255Y-158986908D01*
X237961524Y-158908304D01*
X238101602Y-158806532D01*
X238224032Y-158684102D01*
X238325804Y-158544024D01*
X238404408Y-158389757D01*
X238457914Y-158225084D01*
X238485000Y-158054071D01*
X238485000Y-157317500D01*
X237933482Y-157317500D01*
X237944111Y-157299091D01*
X237985000Y-157146491D01*
X237985000Y-156988509D01*
X237944111Y-156835909D01*
X237933482Y-156817500D01*
X238485000Y-156817500D01*
X238485000Y-156080928D01*
X238457914Y-155909915D01*
X238404408Y-155745242D01*
X238325804Y-155590975D01*
X238224032Y-155450897D01*
X238101602Y-155328467D01*
X237961524Y-155226695D01*
X237807257Y-155148091D01*
X237642589Y-155094587D01*
X237642581Y-155094585D01*
X237635000Y-155093384D01*
X237635000Y-156519017D01*
X237616591Y-156508389D01*
X237463991Y-156467500D01*
X237306009Y-156467500D01*
X237153409Y-156508389D01*
X237135000Y-156519017D01*
X237135000Y-155093384D01*
X237134999Y-155093384D01*
X237127418Y-155094585D01*
X237127410Y-155094587D01*
X236962742Y-155148091D01*
X236808475Y-155226695D01*
X236668397Y-155328467D01*
X236545967Y-155450897D01*
X236444195Y-155590975D01*
X236365591Y-155745242D01*
X236312085Y-155909915D01*
X236285000Y-156080928D01*
X234675500Y-156080928D01*
X234675500Y-156080889D01*
X234648402Y-155909799D01*
X234594873Y-155745055D01*
X234516232Y-155590712D01*
X234414414Y-155450572D01*
X234291928Y-155328086D01*
X234151788Y-155226268D01*
X233997445Y-155147627D01*
X233832701Y-155094098D01*
X233832699Y-155094097D01*
X233832698Y-155094097D01*
X233679624Y-155069853D01*
X233661611Y-155067000D01*
X233488389Y-155067000D01*
X233470376Y-155069853D01*
X233317302Y-155094097D01*
X233152552Y-155147628D01*
X232998211Y-155226268D01*
X232918256Y-155284359D01*
X232858072Y-155328086D01*
X232858070Y-155328088D01*
X232858069Y-155328088D01*
X232735588Y-155450569D01*
X232735588Y-155450570D01*
X232735586Y-155450572D01*
X232691859Y-155510756D01*
X232633768Y-155590711D01*
X232555128Y-155745052D01*
X232501597Y-155909802D01*
X232474500Y-156080889D01*
X230865500Y-156080889D01*
X230838402Y-155909799D01*
X230784873Y-155745055D01*
X230706232Y-155590712D01*
X230604414Y-155450572D01*
X230481928Y-155328086D01*
X230341788Y-155226268D01*
X230187445Y-155147627D01*
X230022701Y-155094098D01*
X230022699Y-155094097D01*
X230022698Y-155094097D01*
X229869624Y-155069853D01*
X229851611Y-155067000D01*
X229678389Y-155067000D01*
X229660376Y-155069853D01*
X229507302Y-155094097D01*
X229342552Y-155147628D01*
X229188211Y-155226268D01*
X229108256Y-155284359D01*
X229048072Y-155328086D01*
X229048070Y-155328088D01*
X229048069Y-155328088D01*
X228925588Y-155450569D01*
X228925588Y-155450570D01*
X228925586Y-155450572D01*
X228881859Y-155510756D01*
X228823768Y-155590711D01*
X228745128Y-155745052D01*
X228691597Y-155909802D01*
X228664500Y-156080889D01*
X227055500Y-156080889D01*
X227028402Y-155909799D01*
X226974873Y-155745055D01*
X226896232Y-155590712D01*
X226794414Y-155450572D01*
X226671928Y-155328086D01*
X226531788Y-155226268D01*
X226377445Y-155147627D01*
X226212701Y-155094098D01*
X226212699Y-155094097D01*
X226212698Y-155094097D01*
X226059624Y-155069853D01*
X226041611Y-155067000D01*
X225868389Y-155067000D01*
X225850376Y-155069853D01*
X225697302Y-155094097D01*
X225532552Y-155147628D01*
X225378211Y-155226268D01*
X225298256Y-155284359D01*
X225238072Y-155328086D01*
X225238070Y-155328088D01*
X225238069Y-155328088D01*
X225115588Y-155450569D01*
X225115588Y-155450570D01*
X225115586Y-155450572D01*
X225071859Y-155510756D01*
X225013768Y-155590711D01*
X224935128Y-155745052D01*
X224881597Y-155909802D01*
X224854500Y-156080889D01*
X223245500Y-156080889D01*
X223218402Y-155909799D01*
X223164873Y-155745055D01*
X223086232Y-155590712D01*
X222984414Y-155450572D01*
X222861928Y-155328086D01*
X222721788Y-155226268D01*
X222567445Y-155147627D01*
X222402701Y-155094098D01*
X222402699Y-155094097D01*
X222402698Y-155094097D01*
X222249624Y-155069853D01*
X222231611Y-155067000D01*
X222058389Y-155067000D01*
X222040376Y-155069853D01*
X221887302Y-155094097D01*
X221722552Y-155147628D01*
X221568211Y-155226268D01*
X221488256Y-155284359D01*
X221428072Y-155328086D01*
X221428070Y-155328088D01*
X221428069Y-155328088D01*
X221305588Y-155450569D01*
X221305588Y-155450570D01*
X221305586Y-155450572D01*
X221261859Y-155510756D01*
X221203768Y-155590711D01*
X221125128Y-155745052D01*
X221071597Y-155909802D01*
X221044500Y-156080889D01*
X219435500Y-156080889D01*
X219408402Y-155909799D01*
X219354873Y-155745055D01*
X219276232Y-155590712D01*
X219174414Y-155450572D01*
X219051928Y-155328086D01*
X218911788Y-155226268D01*
X218757445Y-155147627D01*
X218592701Y-155094098D01*
X218592699Y-155094097D01*
X218592698Y-155094097D01*
X218439624Y-155069853D01*
X218421611Y-155067000D01*
X218248389Y-155067000D01*
X218230376Y-155069853D01*
X218077302Y-155094097D01*
X217912552Y-155147628D01*
X217758211Y-155226268D01*
X217678256Y-155284359D01*
X217618072Y-155328086D01*
X217618070Y-155328088D01*
X217618069Y-155328088D01*
X217495588Y-155450569D01*
X217495588Y-155450570D01*
X217495586Y-155450572D01*
X217451859Y-155510756D01*
X217393768Y-155590711D01*
X217315128Y-155745052D01*
X217261597Y-155909802D01*
X217234500Y-156080889D01*
X215625500Y-156080889D01*
X215598402Y-155909799D01*
X215544873Y-155745055D01*
X215466232Y-155590712D01*
X215364414Y-155450572D01*
X215241928Y-155328086D01*
X215101788Y-155226268D01*
X214947445Y-155147627D01*
X214782701Y-155094098D01*
X214782699Y-155094097D01*
X214782698Y-155094097D01*
X214629624Y-155069853D01*
X214611611Y-155067000D01*
X214438389Y-155067000D01*
X214420376Y-155069853D01*
X214267302Y-155094097D01*
X214102552Y-155147628D01*
X213948211Y-155226268D01*
X213868256Y-155284359D01*
X213808072Y-155328086D01*
X213808070Y-155328088D01*
X213808069Y-155328088D01*
X213685588Y-155450569D01*
X213685588Y-155450570D01*
X213685586Y-155450572D01*
X213641859Y-155510756D01*
X213583768Y-155590711D01*
X213505128Y-155745052D01*
X213451597Y-155909802D01*
X213424500Y-156080889D01*
X211815500Y-156080889D01*
X211815500Y-155463230D01*
X211812646Y-155432800D01*
X211812646Y-155432798D01*
X211767793Y-155304619D01*
X211767792Y-155304617D01*
X211687150Y-155195350D01*
X211577882Y-155114707D01*
X211577880Y-155114706D01*
X211449700Y-155069853D01*
X211419270Y-155067000D01*
X211419266Y-155067000D01*
X210010734Y-155067000D01*
X210010730Y-155067000D01*
X209980300Y-155069853D01*
X209980298Y-155069853D01*
X209852119Y-155114706D01*
X209852117Y-155114707D01*
X209742850Y-155195350D01*
X209662207Y-155304617D01*
X209662206Y-155304619D01*
X209617353Y-155432798D01*
X209617353Y-155432800D01*
X209614500Y-155463230D01*
X187791064Y-155463230D01*
X187894118Y-155214435D01*
X187996809Y-154875905D01*
X187996811Y-154875895D01*
X187996814Y-154875884D01*
X188031663Y-154700679D01*
X188065825Y-154528940D01*
X188100500Y-154176881D01*
X188100500Y-153823119D01*
X188065825Y-153471060D01*
X188059784Y-153440691D01*
X239249500Y-153440691D01*
X239249500Y-153559309D01*
X239280201Y-153673886D01*
X239339511Y-153776613D01*
X239423387Y-153860489D01*
X239526114Y-153919799D01*
X239640691Y-153950500D01*
X239640694Y-153950500D01*
X239759306Y-153950500D01*
X239759309Y-153950500D01*
X239873886Y-153919799D01*
X239955564Y-153872641D01*
X240023462Y-153856168D01*
X240089490Y-153879019D01*
X240105245Y-153892347D01*
X240123387Y-153910489D01*
X240226114Y-153969799D01*
X240340691Y-154000500D01*
X240340694Y-154000500D01*
X240459306Y-154000500D01*
X240459309Y-154000500D01*
X240573886Y-153969799D01*
X240676613Y-153910489D01*
X240760489Y-153826613D01*
X240819799Y-153723886D01*
X240850500Y-153609309D01*
X240850500Y-153490691D01*
X240819799Y-153376114D01*
X240760489Y-153273387D01*
X240676613Y-153189511D01*
X240573886Y-153130201D01*
X240459309Y-153099500D01*
X240340691Y-153099500D01*
X240235505Y-153127684D01*
X240226110Y-153130202D01*
X240144435Y-153177358D01*
X240076535Y-153193831D01*
X240010508Y-153170979D01*
X239994754Y-153157652D01*
X239976615Y-153139513D01*
X239976613Y-153139511D01*
X239873886Y-153080201D01*
X239759309Y-153049500D01*
X239640691Y-153049500D01*
X239526114Y-153080201D01*
X239526112Y-153080201D01*
X239526112Y-153080202D01*
X239423387Y-153139511D01*
X239423384Y-153139513D01*
X239339513Y-153223384D01*
X239339511Y-153223387D01*
X239280201Y-153326114D01*
X239249500Y-153440691D01*
X188059784Y-153440691D01*
X188046939Y-153376112D01*
X187996814Y-153124116D01*
X187996811Y-153124104D01*
X187996810Y-153124101D01*
X187996809Y-153124095D01*
X187894118Y-152785565D01*
X187758739Y-152458731D01*
X187591976Y-152146741D01*
X187395436Y-151852598D01*
X187359907Y-151809306D01*
X187320451Y-151761228D01*
X187320450Y-151761227D01*
X187262563Y-151690691D01*
X253649500Y-151690691D01*
X253649500Y-151809309D01*
X253680201Y-151923886D01*
X253739511Y-152026613D01*
X253823387Y-152110489D01*
X253926114Y-152169799D01*
X254040691Y-152200500D01*
X254040694Y-152200500D01*
X254159306Y-152200500D01*
X254159309Y-152200500D01*
X254273886Y-152169799D01*
X254376613Y-152110489D01*
X254443872Y-152043230D01*
X256067000Y-152043230D01*
X256067000Y-153451769D01*
X256069853Y-153482199D01*
X256069853Y-153482201D01*
X256114706Y-153610380D01*
X256114707Y-153610382D01*
X256195350Y-153719650D01*
X256304618Y-153800293D01*
X256347345Y-153815244D01*
X256432799Y-153845146D01*
X256463230Y-153848000D01*
X256463234Y-153848000D01*
X259671770Y-153848000D01*
X259702199Y-153845146D01*
X259702201Y-153845146D01*
X259766290Y-153822719D01*
X259830382Y-153800293D01*
X259939650Y-153719650D01*
X260020293Y-153610382D01*
X260062175Y-153490691D01*
X260065146Y-153482201D01*
X260065146Y-153482199D01*
X260068000Y-153451769D01*
X260068000Y-152043230D01*
X260065146Y-152012800D01*
X260065146Y-152012798D01*
X260020293Y-151884619D01*
X260020292Y-151884617D01*
X259996658Y-151852594D01*
X259939650Y-151775350D01*
X259830382Y-151694707D01*
X259830380Y-151694706D01*
X259702200Y-151649853D01*
X259671770Y-151647000D01*
X259671766Y-151647000D01*
X256463234Y-151647000D01*
X256463230Y-151647000D01*
X256432800Y-151649853D01*
X256432798Y-151649853D01*
X256304619Y-151694706D01*
X256304617Y-151694707D01*
X256195350Y-151775350D01*
X256114707Y-151884617D01*
X256114706Y-151884619D01*
X256069853Y-152012798D01*
X256069853Y-152012800D01*
X256067000Y-152043230D01*
X254443872Y-152043230D01*
X254460489Y-152026613D01*
X254519799Y-151923886D01*
X254550500Y-151809309D01*
X254550500Y-151690691D01*
X254519799Y-151576114D01*
X254460489Y-151473387D01*
X254376613Y-151389511D01*
X254273886Y-151330201D01*
X254159309Y-151299500D01*
X254040691Y-151299500D01*
X253926114Y-151330201D01*
X253926112Y-151330201D01*
X253926112Y-151330202D01*
X253823387Y-151389511D01*
X253823384Y-151389513D01*
X253739513Y-151473384D01*
X253739511Y-151473387D01*
X253680201Y-151576114D01*
X253649500Y-151690691D01*
X187262563Y-151690691D01*
X187171007Y-151579130D01*
X186920869Y-151328992D01*
X186647407Y-151104568D01*
X186647406Y-151104567D01*
X186647402Y-151104564D01*
X186353259Y-150908024D01*
X186353254Y-150908021D01*
X186353247Y-150908017D01*
X186041276Y-150741264D01*
X186041271Y-150741262D01*
X185714436Y-150605882D01*
X185375895Y-150503188D01*
X185375884Y-150503185D01*
X185028946Y-150434176D01*
X185028929Y-150434173D01*
X184762700Y-150407952D01*
X184676881Y-150399500D01*
X184323119Y-150399500D01*
X184243748Y-150407317D01*
X183971070Y-150434173D01*
X183971053Y-150434176D01*
X183624115Y-150503185D01*
X183624104Y-150503188D01*
X183420977Y-150564805D01*
X183285565Y-150605882D01*
X183285563Y-150605882D01*
X183285559Y-150605884D01*
X183107864Y-150679487D01*
X183038395Y-150686956D01*
X182975916Y-150655681D01*
X182940264Y-150595591D01*
X182936419Y-150566144D01*
X182919652Y-148840691D01*
X251649500Y-148840691D01*
X251649500Y-148959309D01*
X251680201Y-149073886D01*
X251739511Y-149176613D01*
X251823387Y-149260489D01*
X251926114Y-149319799D01*
X252040691Y-149350500D01*
X252040694Y-149350500D01*
X252159306Y-149350500D01*
X252159309Y-149350500D01*
X252273886Y-149319799D01*
X252376613Y-149260489D01*
X252460489Y-149176613D01*
X252519799Y-149073886D01*
X252550500Y-148959309D01*
X252550500Y-148850889D01*
X256067000Y-148850889D01*
X256067000Y-149024110D01*
X256091153Y-149176612D01*
X256094098Y-149195201D01*
X256147627Y-149359945D01*
X256226268Y-149514288D01*
X256328086Y-149654428D01*
X256450572Y-149776914D01*
X256590712Y-149878732D01*
X256745055Y-149957373D01*
X256909799Y-150010902D01*
X257080889Y-150038000D01*
X257080890Y-150038000D01*
X259054110Y-150038000D01*
X259054111Y-150038000D01*
X259225201Y-150010902D01*
X259389945Y-149957373D01*
X259544288Y-149878732D01*
X259684428Y-149776914D01*
X259806914Y-149654428D01*
X259908732Y-149514288D01*
X259987373Y-149359945D01*
X260040902Y-149195201D01*
X260068000Y-149024111D01*
X260068000Y-148850889D01*
X260040902Y-148679799D01*
X259987373Y-148515055D01*
X259908732Y-148360712D01*
X259806914Y-148220572D01*
X259684428Y-148098086D01*
X259544288Y-147996268D01*
X259389945Y-147917627D01*
X259225201Y-147864098D01*
X259225199Y-147864097D01*
X259225198Y-147864097D01*
X259093771Y-147843281D01*
X259054111Y-147837000D01*
X257080889Y-147837000D01*
X257041228Y-147843281D01*
X256909802Y-147864097D01*
X256745052Y-147917628D01*
X256590711Y-147996268D01*
X256510756Y-148054359D01*
X256450572Y-148098086D01*
X256450570Y-148098088D01*
X256450569Y-148098088D01*
X256328088Y-148220569D01*
X256328088Y-148220570D01*
X256328086Y-148220572D01*
X256284359Y-148280756D01*
X256226268Y-148360711D01*
X256147628Y-148515052D01*
X256094097Y-148679802D01*
X256067000Y-148850889D01*
X252550500Y-148850889D01*
X252550500Y-148840691D01*
X252519799Y-148726114D01*
X252460489Y-148623387D01*
X252376613Y-148539511D01*
X252273886Y-148480201D01*
X252159309Y-148449500D01*
X252040691Y-148449500D01*
X251926114Y-148480201D01*
X251926112Y-148480201D01*
X251926112Y-148480202D01*
X251823387Y-148539511D01*
X251823384Y-148539513D01*
X251739513Y-148623384D01*
X251739511Y-148623387D01*
X251680201Y-148726114D01*
X251649500Y-148840691D01*
X182919652Y-148840691D01*
X182888138Y-145597602D01*
X182907170Y-145530378D01*
X182936643Y-145498027D01*
X183054004Y-145407974D01*
X183257974Y-145204004D01*
X183433575Y-144975156D01*
X183542613Y-144786298D01*
X183593180Y-144738082D01*
X183661787Y-144724860D01*
X183726652Y-144750828D01*
X183757387Y-144786298D01*
X183866420Y-144975148D01*
X183866431Y-144975164D01*
X184042024Y-145204002D01*
X184042030Y-145204009D01*
X184245990Y-145407969D01*
X184245996Y-145407974D01*
X184474844Y-145583575D01*
X184474851Y-145583579D01*
X184724647Y-145727800D01*
X184724663Y-145727808D01*
X184991139Y-145838185D01*
X184991145Y-145838186D01*
X184991155Y-145838191D01*
X185269783Y-145912849D01*
X185555772Y-145950500D01*
X185555779Y-145950500D01*
X185844221Y-145950500D01*
X185844228Y-145950500D01*
X186130217Y-145912849D01*
X186408845Y-145838191D01*
X186408857Y-145838185D01*
X186408860Y-145838185D01*
X186675336Y-145727808D01*
X186675339Y-145727806D01*
X186675345Y-145727804D01*
X186925156Y-145583575D01*
X187154004Y-145407974D01*
X187357974Y-145204004D01*
X187533575Y-144975156D01*
X187677804Y-144725345D01*
X187686209Y-144705055D01*
X187788185Y-144458860D01*
X187788185Y-144458857D01*
X187788191Y-144458845D01*
X187862849Y-144180217D01*
X187900500Y-143894228D01*
X187900500Y-143605778D01*
X188599500Y-143605778D01*
X188599500Y-143894221D01*
X188599501Y-143894238D01*
X188637149Y-144180206D01*
X188637150Y-144180211D01*
X188637151Y-144180217D01*
X188711809Y-144458844D01*
X188711814Y-144458860D01*
X188822191Y-144725336D01*
X188822199Y-144725352D01*
X188966420Y-144975148D01*
X188966431Y-144975164D01*
X189142024Y-145204002D01*
X189142030Y-145204009D01*
X189345990Y-145407969D01*
X189345996Y-145407974D01*
X189574844Y-145583575D01*
X189574851Y-145583579D01*
X189824647Y-145727800D01*
X189824663Y-145727808D01*
X190091139Y-145838185D01*
X190091145Y-145838186D01*
X190091155Y-145838191D01*
X190369783Y-145912849D01*
X190655772Y-145950500D01*
X190655779Y-145950500D01*
X190944221Y-145950500D01*
X190944228Y-145950500D01*
X191230217Y-145912849D01*
X191508845Y-145838191D01*
X191508857Y-145838185D01*
X191508860Y-145838185D01*
X191775336Y-145727808D01*
X191775339Y-145727806D01*
X191775345Y-145727804D01*
X192025156Y-145583575D01*
X192254004Y-145407974D01*
X192457974Y-145204004D01*
X192583136Y-145040889D01*
X256067000Y-145040889D01*
X256067000Y-145214111D01*
X256094098Y-145385201D01*
X256147627Y-145549945D01*
X256226268Y-145704288D01*
X256328086Y-145844428D01*
X256450572Y-145966914D01*
X256590712Y-146068732D01*
X256745055Y-146147373D01*
X256909799Y-146200902D01*
X257080889Y-146228000D01*
X257080890Y-146228000D01*
X259054110Y-146228000D01*
X259054111Y-146228000D01*
X259225201Y-146200902D01*
X259389945Y-146147373D01*
X259544288Y-146068732D01*
X259684428Y-145966914D01*
X259806914Y-145844428D01*
X259908732Y-145704288D01*
X259987373Y-145549945D01*
X260040902Y-145385201D01*
X260068000Y-145214111D01*
X260068000Y-145040889D01*
X260040902Y-144869799D01*
X259987373Y-144705055D01*
X259908732Y-144550712D01*
X259806914Y-144410572D01*
X259684428Y-144288086D01*
X259544288Y-144186268D01*
X259389945Y-144107627D01*
X259225201Y-144054098D01*
X259225199Y-144054097D01*
X259225198Y-144054097D01*
X259093771Y-144033281D01*
X259054111Y-144027000D01*
X257080889Y-144027000D01*
X257041228Y-144033281D01*
X256909802Y-144054097D01*
X256745052Y-144107628D01*
X256590711Y-144186268D01*
X256510756Y-144244359D01*
X256450572Y-144288086D01*
X256450570Y-144288088D01*
X256450569Y-144288088D01*
X256328088Y-144410569D01*
X256328088Y-144410570D01*
X256328086Y-144410572D01*
X256293003Y-144458860D01*
X256226268Y-144550711D01*
X256147628Y-144705052D01*
X256094097Y-144869802D01*
X256077593Y-144974007D01*
X256067000Y-145040889D01*
X192583136Y-145040889D01*
X192633575Y-144975156D01*
X192777804Y-144725345D01*
X192786209Y-144705055D01*
X192888185Y-144458860D01*
X192888185Y-144458857D01*
X192888191Y-144458845D01*
X192962849Y-144180217D01*
X193000500Y-143894228D01*
X193000500Y-143605772D01*
X192962849Y-143319783D01*
X192888191Y-143041155D01*
X192888186Y-143041145D01*
X192888185Y-143041139D01*
X192777808Y-142774663D01*
X192777800Y-142774647D01*
X192633579Y-142524851D01*
X192633575Y-142524844D01*
X192457974Y-142295996D01*
X192457969Y-142295990D01*
X192254009Y-142092030D01*
X192254002Y-142092024D01*
X192025164Y-141916431D01*
X192025162Y-141916429D01*
X192025156Y-141916425D01*
X192025151Y-141916422D01*
X192025148Y-141916420D01*
X191775352Y-141772199D01*
X191775336Y-141772191D01*
X191508860Y-141661814D01*
X191508848Y-141661810D01*
X191508845Y-141661809D01*
X191230217Y-141587151D01*
X191230211Y-141587150D01*
X191230206Y-141587149D01*
X190944238Y-141549501D01*
X190944233Y-141549500D01*
X190944228Y-141549500D01*
X190655772Y-141549500D01*
X190655766Y-141549500D01*
X190655761Y-141549501D01*
X190369793Y-141587149D01*
X190369786Y-141587150D01*
X190369783Y-141587151D01*
X190091155Y-141661809D01*
X190091139Y-141661814D01*
X189824663Y-141772191D01*
X189824647Y-141772199D01*
X189574851Y-141916420D01*
X189574835Y-141916431D01*
X189345997Y-142092024D01*
X189345990Y-142092030D01*
X189142030Y-142295990D01*
X189142024Y-142295997D01*
X188966431Y-142524835D01*
X188966420Y-142524851D01*
X188822199Y-142774647D01*
X188822191Y-142774663D01*
X188711814Y-143041139D01*
X188711809Y-143041155D01*
X188637152Y-143319780D01*
X188637149Y-143319793D01*
X188599501Y-143605761D01*
X188599500Y-143605778D01*
X187900500Y-143605778D01*
X187900500Y-143605772D01*
X187862849Y-143319783D01*
X187788191Y-143041155D01*
X187788186Y-143041145D01*
X187788185Y-143041139D01*
X187677808Y-142774663D01*
X187677800Y-142774647D01*
X187533579Y-142524851D01*
X187533575Y-142524844D01*
X187357974Y-142295996D01*
X187357969Y-142295990D01*
X187154009Y-142092030D01*
X187154002Y-142092024D01*
X186925164Y-141916431D01*
X186925162Y-141916429D01*
X186925156Y-141916425D01*
X186925151Y-141916422D01*
X186925148Y-141916420D01*
X186675352Y-141772199D01*
X186675336Y-141772191D01*
X186408860Y-141661814D01*
X186408848Y-141661810D01*
X186408845Y-141661809D01*
X186130217Y-141587151D01*
X186130211Y-141587150D01*
X186130206Y-141587149D01*
X185844238Y-141549501D01*
X185844233Y-141549500D01*
X185844228Y-141549500D01*
X185555772Y-141549500D01*
X185555766Y-141549500D01*
X185555761Y-141549501D01*
X185269793Y-141587149D01*
X185269786Y-141587150D01*
X185269783Y-141587151D01*
X184991155Y-141661809D01*
X184991139Y-141661814D01*
X184724663Y-141772191D01*
X184724647Y-141772199D01*
X184474851Y-141916420D01*
X184474835Y-141916431D01*
X184245997Y-142092024D01*
X184245990Y-142092030D01*
X184042030Y-142295990D01*
X184042024Y-142295997D01*
X183866431Y-142524835D01*
X183866425Y-142524844D01*
X183757387Y-142713702D01*
X183706819Y-142761917D01*
X183638212Y-142775139D01*
X183573348Y-142749171D01*
X183542613Y-142713702D01*
X183513419Y-142663138D01*
X183433575Y-142524844D01*
X183257974Y-142295996D01*
X183257969Y-142295990D01*
X183054009Y-142092030D01*
X182900492Y-141974232D01*
X182859290Y-141917804D01*
X182851985Y-141877061D01*
X182850653Y-141739947D01*
X182845706Y-141230889D01*
X256067000Y-141230889D01*
X256067000Y-141404110D01*
X256090027Y-141549501D01*
X256094098Y-141575201D01*
X256147627Y-141739945D01*
X256226268Y-141894288D01*
X256328086Y-142034428D01*
X256450572Y-142156914D01*
X256590712Y-142258732D01*
X256745055Y-142337373D01*
X256909799Y-142390902D01*
X257080889Y-142418000D01*
X257080890Y-142418000D01*
X259054110Y-142418000D01*
X259054111Y-142418000D01*
X259225201Y-142390902D01*
X259389945Y-142337373D01*
X259544288Y-142258732D01*
X259684428Y-142156914D01*
X259806914Y-142034428D01*
X259908732Y-141894288D01*
X259987373Y-141739945D01*
X260040902Y-141575201D01*
X260068000Y-141404111D01*
X260068000Y-141230889D01*
X260040902Y-141059799D01*
X259987373Y-140895055D01*
X259908732Y-140740712D01*
X259806914Y-140600572D01*
X259684428Y-140478086D01*
X259544288Y-140376268D01*
X259389945Y-140297627D01*
X259225201Y-140244098D01*
X259225199Y-140244097D01*
X259225198Y-140244097D01*
X259093771Y-140223281D01*
X259054111Y-140217000D01*
X257080889Y-140217000D01*
X257041228Y-140223281D01*
X256909802Y-140244097D01*
X256745052Y-140297628D01*
X256590711Y-140376268D01*
X256510756Y-140434359D01*
X256450572Y-140478086D01*
X256450570Y-140478088D01*
X256450569Y-140478088D01*
X256328088Y-140600569D01*
X256328088Y-140600570D01*
X256328086Y-140600572D01*
X256284359Y-140660756D01*
X256226268Y-140740711D01*
X256147628Y-140895052D01*
X256094097Y-141059802D01*
X256067000Y-141230889D01*
X182845706Y-141230889D01*
X182836434Y-140276704D01*
X182855466Y-140209477D01*
X182907823Y-140163211D01*
X182960428Y-140151500D01*
X187958308Y-140151500D01*
X187958309Y-140151500D01*
X188048673Y-140127286D01*
X188072887Y-140120799D01*
X188175614Y-140061489D01*
X188960490Y-139276614D01*
X188986932Y-139230815D01*
X189019798Y-139173889D01*
X189019798Y-139173888D01*
X189019799Y-139173887D01*
X189030141Y-139135288D01*
X189050500Y-139059309D01*
X189050500Y-139040691D01*
X190049500Y-139040691D01*
X190049500Y-139159309D01*
X190080201Y-139273886D01*
X190139511Y-139376613D01*
X190223387Y-139460489D01*
X190326114Y-139519799D01*
X190440691Y-139550500D01*
X190440694Y-139550500D01*
X190559306Y-139550500D01*
X190559309Y-139550500D01*
X190673886Y-139519799D01*
X190776613Y-139460489D01*
X190860489Y-139376613D01*
X190919799Y-139273886D01*
X190950500Y-139159309D01*
X190950500Y-139040691D01*
X190919799Y-138926114D01*
X190860489Y-138823387D01*
X190776613Y-138739511D01*
X190673886Y-138680201D01*
X190559309Y-138649500D01*
X190440691Y-138649500D01*
X190326114Y-138680201D01*
X190326112Y-138680201D01*
X190326112Y-138680202D01*
X190223387Y-138739511D01*
X190223384Y-138739513D01*
X190139513Y-138823384D01*
X190139511Y-138823387D01*
X190080201Y-138926114D01*
X190049500Y-139040691D01*
X189050500Y-139040691D01*
X189050500Y-138940691D01*
X189019799Y-138826114D01*
X189019799Y-138826113D01*
X189019799Y-138826112D01*
X188960492Y-138723389D01*
X188960488Y-138723384D01*
X188876615Y-138639511D01*
X188876607Y-138639505D01*
X188773893Y-138580204D01*
X188773888Y-138580201D01*
X188761780Y-138576957D01*
X188749673Y-138573713D01*
X188749670Y-138573712D01*
X188711478Y-138563478D01*
X188659309Y-138549500D01*
X188540691Y-138549500D01*
X188450325Y-138573713D01*
X188450324Y-138573712D01*
X188426115Y-138580200D01*
X188426106Y-138580204D01*
X188323392Y-138639505D01*
X188323384Y-138639511D01*
X187748716Y-139214181D01*
X187687393Y-139247666D01*
X187661035Y-139250500D01*
X182949263Y-139250500D01*
X182882224Y-139230815D01*
X182836469Y-139178011D01*
X182825269Y-139127705D01*
X182808684Y-137420889D01*
X256067000Y-137420889D01*
X256067000Y-137594111D01*
X256094098Y-137765201D01*
X256147627Y-137929945D01*
X256226268Y-138084288D01*
X256328086Y-138224428D01*
X256450572Y-138346914D01*
X256590712Y-138448732D01*
X256745055Y-138527373D01*
X256909799Y-138580902D01*
X257080889Y-138608000D01*
X257080890Y-138608000D01*
X259054110Y-138608000D01*
X259054111Y-138608000D01*
X259225201Y-138580902D01*
X259389945Y-138527373D01*
X259544288Y-138448732D01*
X259684428Y-138346914D01*
X259806914Y-138224428D01*
X259908732Y-138084288D01*
X259987373Y-137929945D01*
X260040902Y-137765201D01*
X260068000Y-137594111D01*
X260068000Y-137420889D01*
X260040902Y-137249799D01*
X259987373Y-137085055D01*
X259908732Y-136930712D01*
X259806914Y-136790572D01*
X259684428Y-136668086D01*
X259544288Y-136566268D01*
X259389945Y-136487627D01*
X259225201Y-136434098D01*
X259225199Y-136434097D01*
X259225198Y-136434097D01*
X259093771Y-136413281D01*
X259054111Y-136407000D01*
X257080889Y-136407000D01*
X257041228Y-136413281D01*
X256909802Y-136434097D01*
X256745052Y-136487628D01*
X256590711Y-136566268D01*
X256510756Y-136624359D01*
X256450572Y-136668086D01*
X256450570Y-136668088D01*
X256450569Y-136668088D01*
X256328088Y-136790569D01*
X256328088Y-136790570D01*
X256328086Y-136790572D01*
X256284359Y-136850756D01*
X256226268Y-136930711D01*
X256147628Y-137085052D01*
X256094097Y-137249802D01*
X256067581Y-137417222D01*
X256067000Y-137420889D01*
X182808684Y-137420889D01*
X182808648Y-137417222D01*
X182799013Y-136425705D01*
X182818045Y-136358477D01*
X182870402Y-136312211D01*
X182923007Y-136300500D01*
X188212036Y-136300500D01*
X188279075Y-136320185D01*
X188299717Y-136336819D01*
X188323387Y-136360489D01*
X188426114Y-136419799D01*
X188540691Y-136450500D01*
X188540694Y-136450500D01*
X188659306Y-136450500D01*
X188659309Y-136450500D01*
X188773886Y-136419799D01*
X188876613Y-136360489D01*
X188960489Y-136276613D01*
X189019799Y-136173886D01*
X189050500Y-136059309D01*
X189050500Y-136040691D01*
X190049500Y-136040691D01*
X190049500Y-136159309D01*
X190080201Y-136273886D01*
X190139511Y-136376613D01*
X190223387Y-136460489D01*
X190326114Y-136519799D01*
X190440691Y-136550500D01*
X190440694Y-136550500D01*
X190559306Y-136550500D01*
X190559309Y-136550500D01*
X190673886Y-136519799D01*
X190776613Y-136460489D01*
X190860489Y-136376613D01*
X190919799Y-136273886D01*
X190950500Y-136159309D01*
X190950500Y-136040691D01*
X190919799Y-135926114D01*
X190860489Y-135823387D01*
X190776613Y-135739511D01*
X190673886Y-135680201D01*
X190559309Y-135649500D01*
X190440691Y-135649500D01*
X190326114Y-135680201D01*
X190326112Y-135680201D01*
X190326112Y-135680202D01*
X190223387Y-135739511D01*
X190223384Y-135739513D01*
X190139513Y-135823384D01*
X190139511Y-135823387D01*
X190080201Y-135926114D01*
X190049500Y-136040691D01*
X189050500Y-136040691D01*
X189050500Y-135940691D01*
X189019799Y-135826114D01*
X188960489Y-135723387D01*
X188876613Y-135639511D01*
X188773886Y-135580201D01*
X188659309Y-135549500D01*
X188540691Y-135549500D01*
X188426114Y-135580201D01*
X188426112Y-135580201D01*
X188426112Y-135580202D01*
X188323387Y-135639511D01*
X188323384Y-135639513D01*
X188299717Y-135663181D01*
X188238394Y-135696666D01*
X188212036Y-135699500D01*
X182914757Y-135699500D01*
X182847718Y-135679815D01*
X182801963Y-135627011D01*
X182790763Y-135576705D01*
X182784933Y-134976705D01*
X182803965Y-134909477D01*
X182856322Y-134863211D01*
X182908927Y-134851500D01*
X224188560Y-134851500D01*
X224188562Y-134851500D01*
X224264989Y-134831021D01*
X224333511Y-134791460D01*
X224389460Y-134735511D01*
X225514082Y-133610889D01*
X256067000Y-133610889D01*
X256067000Y-133784111D01*
X256094098Y-133955201D01*
X256147627Y-134119945D01*
X256226268Y-134274288D01*
X256328086Y-134414428D01*
X256450572Y-134536914D01*
X256590712Y-134638732D01*
X256745055Y-134717373D01*
X256909799Y-134770902D01*
X257080889Y-134798000D01*
X257080890Y-134798000D01*
X259054110Y-134798000D01*
X259054111Y-134798000D01*
X259225201Y-134770902D01*
X259389945Y-134717373D01*
X259544288Y-134638732D01*
X259684428Y-134536914D01*
X259806914Y-134414428D01*
X259908732Y-134274288D01*
X259987373Y-134119945D01*
X260040902Y-133955201D01*
X260068000Y-133784111D01*
X260068000Y-133610889D01*
X260040902Y-133439799D01*
X259987373Y-133275055D01*
X259908732Y-133120712D01*
X259806914Y-132980572D01*
X259684428Y-132858086D01*
X259544288Y-132756268D01*
X259389945Y-132677627D01*
X259225201Y-132624098D01*
X259225199Y-132624097D01*
X259225198Y-132624097D01*
X259093771Y-132603281D01*
X259054111Y-132597000D01*
X257080889Y-132597000D01*
X257041228Y-132603281D01*
X256909802Y-132624097D01*
X256745052Y-132677628D01*
X256590711Y-132756268D01*
X256511682Y-132813687D01*
X256450572Y-132858086D01*
X256450570Y-132858088D01*
X256450569Y-132858088D01*
X256328088Y-132980569D01*
X256328088Y-132980570D01*
X256328086Y-132980572D01*
X256284359Y-133040756D01*
X256226268Y-133120711D01*
X256147628Y-133275052D01*
X256094097Y-133439802D01*
X256071860Y-133580202D01*
X256067000Y-133610889D01*
X225514082Y-133610889D01*
X229487472Y-129637499D01*
X256093384Y-129637499D01*
X256093385Y-129637500D01*
X257519018Y-129637500D01*
X257508389Y-129655909D01*
X257467500Y-129808509D01*
X257467500Y-129966491D01*
X257508389Y-130119091D01*
X257519018Y-130137500D01*
X256093385Y-130137500D01*
X256094585Y-130145084D01*
X256148091Y-130309755D01*
X256226695Y-130464024D01*
X256328467Y-130604102D01*
X256450897Y-130726532D01*
X256590975Y-130828304D01*
X256745242Y-130906908D01*
X256909915Y-130960414D01*
X257080929Y-130987500D01*
X257817500Y-130987500D01*
X257817500Y-130435982D01*
X257835909Y-130446611D01*
X257988509Y-130487500D01*
X258146491Y-130487500D01*
X258299091Y-130446611D01*
X258317500Y-130435982D01*
X258317500Y-130987500D01*
X259054071Y-130987500D01*
X259225084Y-130960414D01*
X259389757Y-130906908D01*
X259544024Y-130828304D01*
X259684102Y-130726532D01*
X259806532Y-130604102D01*
X259908304Y-130464024D01*
X259986908Y-130309755D01*
X260040414Y-130145084D01*
X260041615Y-130137500D01*
X258615982Y-130137500D01*
X258626611Y-130119091D01*
X258667500Y-129966491D01*
X258667500Y-129808509D01*
X258626611Y-129655909D01*
X258615982Y-129637500D01*
X260041615Y-129637500D01*
X260041615Y-129637499D01*
X260040414Y-129629915D01*
X259986908Y-129465244D01*
X259908304Y-129310975D01*
X259806532Y-129170897D01*
X259684102Y-129048467D01*
X259544024Y-128946695D01*
X259389757Y-128868091D01*
X259225084Y-128814585D01*
X259054071Y-128787500D01*
X258317500Y-128787500D01*
X258317500Y-129339017D01*
X258299091Y-129328389D01*
X258146491Y-129287500D01*
X257988509Y-129287500D01*
X257835909Y-129328389D01*
X257817500Y-129339017D01*
X257817500Y-128787500D01*
X257080929Y-128787500D01*
X256909915Y-128814585D01*
X256745242Y-128868091D01*
X256590975Y-128946695D01*
X256450897Y-129048467D01*
X256328467Y-129170897D01*
X256226695Y-129310975D01*
X256148091Y-129465244D01*
X256094585Y-129629915D01*
X256093384Y-129637499D01*
X229487472Y-129637499D01*
X233134082Y-125990889D01*
X256067000Y-125990889D01*
X256067000Y-126164111D01*
X256094098Y-126335201D01*
X256147627Y-126499945D01*
X256226268Y-126654288D01*
X256328086Y-126794428D01*
X256450572Y-126916914D01*
X256590712Y-127018732D01*
X256745055Y-127097373D01*
X256909799Y-127150902D01*
X257080889Y-127178000D01*
X257080890Y-127178000D01*
X259054110Y-127178000D01*
X259054111Y-127178000D01*
X259225201Y-127150902D01*
X259389945Y-127097373D01*
X259544288Y-127018732D01*
X259684428Y-126916914D01*
X259806914Y-126794428D01*
X259908732Y-126654288D01*
X259987373Y-126499945D01*
X260040902Y-126335201D01*
X260068000Y-126164111D01*
X260068000Y-125990889D01*
X260040902Y-125819799D01*
X259987373Y-125655055D01*
X259908732Y-125500712D01*
X259806914Y-125360572D01*
X259684428Y-125238086D01*
X259544288Y-125136268D01*
X259389945Y-125057627D01*
X259225201Y-125004098D01*
X259225199Y-125004097D01*
X259225198Y-125004097D01*
X259093771Y-124983281D01*
X259054111Y-124977000D01*
X257080889Y-124977000D01*
X257041228Y-124983281D01*
X256909802Y-125004097D01*
X256745052Y-125057628D01*
X256590711Y-125136268D01*
X256510756Y-125194359D01*
X256450572Y-125238086D01*
X256450570Y-125238088D01*
X256450569Y-125238088D01*
X256328088Y-125360569D01*
X256328088Y-125360570D01*
X256328086Y-125360572D01*
X256284359Y-125420756D01*
X256226268Y-125500711D01*
X256147628Y-125655052D01*
X256094097Y-125819802D01*
X256067000Y-125990889D01*
X233134082Y-125990889D01*
X234140460Y-124984511D01*
X234144796Y-124977000D01*
X234180021Y-124915989D01*
X234200500Y-124839562D01*
X234200500Y-121240691D01*
X239249500Y-121240691D01*
X239249500Y-121359309D01*
X239280201Y-121473886D01*
X239339511Y-121576613D01*
X239423387Y-121660489D01*
X239526114Y-121719799D01*
X239640691Y-121750500D01*
X239640694Y-121750500D01*
X239759306Y-121750500D01*
X239759309Y-121750500D01*
X239873886Y-121719799D01*
X239976613Y-121660489D01*
X239976614Y-121660487D01*
X239983651Y-121656425D01*
X239984662Y-121658177D01*
X240039671Y-121636906D01*
X240108117Y-121650938D01*
X240119367Y-121658167D01*
X240123384Y-121660486D01*
X240123387Y-121660489D01*
X240226114Y-121719799D01*
X240340691Y-121750500D01*
X240340694Y-121750500D01*
X240459306Y-121750500D01*
X240459309Y-121750500D01*
X240573886Y-121719799D01*
X240676613Y-121660489D01*
X240760489Y-121576613D01*
X240819799Y-121473886D01*
X240850500Y-121359309D01*
X240850500Y-121240691D01*
X240819799Y-121126114D01*
X240760489Y-121023387D01*
X240676613Y-120939511D01*
X240573886Y-120880201D01*
X240459309Y-120849500D01*
X240340691Y-120849500D01*
X240226114Y-120880201D01*
X240123387Y-120939511D01*
X240123385Y-120939512D01*
X240116349Y-120943575D01*
X240115338Y-120941824D01*
X240060311Y-120963095D01*
X239991867Y-120949053D01*
X239980615Y-120941822D01*
X239976614Y-120939512D01*
X239976613Y-120939511D01*
X239873886Y-120880201D01*
X239759309Y-120849500D01*
X239640691Y-120849500D01*
X239526114Y-120880201D01*
X239526112Y-120880201D01*
X239526112Y-120880202D01*
X239423387Y-120939511D01*
X239423384Y-120939513D01*
X239339513Y-121023384D01*
X239339511Y-121023387D01*
X239283426Y-121120529D01*
X239280201Y-121126114D01*
X239249500Y-121240691D01*
X234200500Y-121240691D01*
X234200500Y-115335964D01*
X234220185Y-115268925D01*
X234236819Y-115248283D01*
X234260489Y-115224613D01*
X234319799Y-115121886D01*
X234350500Y-115007309D01*
X234350500Y-114888691D01*
X234341899Y-114856591D01*
X234343562Y-114786744D01*
X234382724Y-114728881D01*
X234446953Y-114701377D01*
X234461674Y-114700500D01*
X244019560Y-114700500D01*
X244019562Y-114700500D01*
X244095989Y-114680021D01*
X244164511Y-114640460D01*
X244220460Y-114584511D01*
X248391821Y-110413150D01*
X249021959Y-110413150D01*
X249021959Y-110531768D01*
X249052660Y-110646345D01*
X249111970Y-110749072D01*
X249195846Y-110832948D01*
X249298573Y-110892258D01*
X249413150Y-110922959D01*
X249413153Y-110922959D01*
X249531765Y-110922959D01*
X249531768Y-110922959D01*
X249646345Y-110892258D01*
X249749072Y-110832948D01*
X249832948Y-110749072D01*
X249892258Y-110646345D01*
X249922959Y-110531768D01*
X249922959Y-110413150D01*
X249892258Y-110298573D01*
X249832948Y-110195846D01*
X249749072Y-110111970D01*
X249646345Y-110052660D01*
X249531768Y-110021959D01*
X249413150Y-110021959D01*
X249298573Y-110052660D01*
X249298571Y-110052660D01*
X249298571Y-110052661D01*
X249195846Y-110111970D01*
X249195843Y-110111972D01*
X249111972Y-110195843D01*
X249111970Y-110195846D01*
X249096547Y-110222560D01*
X249052660Y-110298573D01*
X249021959Y-110413150D01*
X248391821Y-110413150D01*
X251509241Y-107295730D01*
X255999500Y-107295730D01*
X255999500Y-108704269D01*
X256002353Y-108734699D01*
X256002353Y-108734701D01*
X256047206Y-108862880D01*
X256047207Y-108862882D01*
X256127850Y-108972150D01*
X256237118Y-109052793D01*
X256279845Y-109067744D01*
X256365299Y-109097646D01*
X256395730Y-109100500D01*
X256395734Y-109100500D01*
X259604270Y-109100500D01*
X259634699Y-109097646D01*
X259634701Y-109097646D01*
X259698790Y-109075219D01*
X259762882Y-109052793D01*
X259872150Y-108972150D01*
X259952793Y-108862882D01*
X259975219Y-108798790D01*
X259997646Y-108734701D01*
X259997646Y-108734699D01*
X260000500Y-108704269D01*
X260000500Y-107295730D01*
X259997646Y-107265300D01*
X259997646Y-107265298D01*
X259952793Y-107137119D01*
X259952792Y-107137117D01*
X259948271Y-107130991D01*
X259872150Y-107027850D01*
X259762882Y-106947207D01*
X259762880Y-106947206D01*
X259634700Y-106902353D01*
X259604270Y-106899500D01*
X259604266Y-106899500D01*
X256395734Y-106899500D01*
X256395730Y-106899500D01*
X256365300Y-106902353D01*
X256365298Y-106902353D01*
X256237119Y-106947206D01*
X256237117Y-106947207D01*
X256127850Y-107027850D01*
X256047207Y-107137117D01*
X256047206Y-107137119D01*
X256002353Y-107265298D01*
X256002353Y-107265300D01*
X255999500Y-107295730D01*
X251509241Y-107295730D01*
X254701582Y-104103389D01*
X255999500Y-104103389D01*
X255999500Y-104276610D01*
X256025300Y-104439511D01*
X256026598Y-104447701D01*
X256080127Y-104612445D01*
X256158768Y-104766788D01*
X256260586Y-104906928D01*
X256383072Y-105029414D01*
X256523212Y-105131232D01*
X256677555Y-105209873D01*
X256842299Y-105263402D01*
X257013389Y-105290500D01*
X257013390Y-105290500D01*
X258986610Y-105290500D01*
X258986611Y-105290500D01*
X259157701Y-105263402D01*
X259322445Y-105209873D01*
X259476788Y-105131232D01*
X259616928Y-105029414D01*
X259739414Y-104906928D01*
X259841232Y-104766788D01*
X259919873Y-104612445D01*
X259973402Y-104447701D01*
X260000500Y-104276611D01*
X260000500Y-104103389D01*
X259973402Y-103932299D01*
X259919873Y-103767555D01*
X259841232Y-103613212D01*
X259739414Y-103473072D01*
X259616928Y-103350586D01*
X259476788Y-103248768D01*
X259322445Y-103170127D01*
X259157701Y-103116598D01*
X259157699Y-103116597D01*
X259157698Y-103116597D01*
X259026271Y-103095781D01*
X258986611Y-103089500D01*
X257013389Y-103089500D01*
X256973728Y-103095781D01*
X256842302Y-103116597D01*
X256842299Y-103116598D01*
X256678565Y-103169799D01*
X256677552Y-103170128D01*
X256523211Y-103248768D01*
X256443256Y-103306859D01*
X256383072Y-103350586D01*
X256383070Y-103350588D01*
X256383069Y-103350588D01*
X256260588Y-103473069D01*
X256260588Y-103473070D01*
X256260586Y-103473072D01*
X256218900Y-103530448D01*
X256158768Y-103613211D01*
X256080128Y-103767552D01*
X256080127Y-103767554D01*
X256080127Y-103767555D01*
X256076451Y-103778868D01*
X256026597Y-103932302D01*
X255999500Y-104103389D01*
X254701582Y-104103389D01*
X257288152Y-101516819D01*
X257349475Y-101483334D01*
X257375833Y-101480500D01*
X258986610Y-101480500D01*
X258986611Y-101480500D01*
X259157701Y-101453402D01*
X259322445Y-101399873D01*
X259476788Y-101321232D01*
X259616928Y-101219414D01*
X259739414Y-101096928D01*
X259841232Y-100956788D01*
X259919873Y-100802445D01*
X259973402Y-100637701D01*
X260000500Y-100466611D01*
X260000500Y-100293389D01*
X259973402Y-100122299D01*
X259919873Y-99957555D01*
X259841232Y-99803212D01*
X259739414Y-99663072D01*
X259616928Y-99540586D01*
X259476788Y-99438768D01*
X259322445Y-99360127D01*
X259157701Y-99306598D01*
X259157699Y-99306597D01*
X259157698Y-99306597D01*
X259026271Y-99285781D01*
X258986611Y-99279500D01*
X257013389Y-99279500D01*
X256973728Y-99285781D01*
X256842302Y-99306597D01*
X256677552Y-99360128D01*
X256523211Y-99438768D01*
X256443256Y-99496859D01*
X256383072Y-99540586D01*
X256383070Y-99540588D01*
X256383069Y-99540588D01*
X256260588Y-99663069D01*
X256260588Y-99663070D01*
X256260586Y-99663072D01*
X256232011Y-99702402D01*
X256158768Y-99803211D01*
X256080129Y-99957550D01*
X256080128Y-99957552D01*
X256080127Y-99957555D01*
X256061332Y-100015402D01*
X256048881Y-100053721D01*
X256009443Y-100111396D01*
X255945084Y-100138594D01*
X255876238Y-100126679D01*
X255824762Y-100079435D01*
X255806950Y-100015402D01*
X255806950Y-99239383D01*
X255826635Y-99172344D01*
X255843269Y-99151702D01*
X257288152Y-97706819D01*
X257349475Y-97673334D01*
X257375833Y-97670500D01*
X258986610Y-97670500D01*
X258986611Y-97670500D01*
X259157701Y-97643402D01*
X259322445Y-97589873D01*
X259476788Y-97511232D01*
X259616928Y-97409414D01*
X259739414Y-97286928D01*
X259841232Y-97146788D01*
X259919873Y-96992445D01*
X259973402Y-96827701D01*
X260000500Y-96656611D01*
X260000500Y-96483389D01*
X259973402Y-96312299D01*
X259919873Y-96147555D01*
X259841232Y-95993212D01*
X259739414Y-95853072D01*
X259616928Y-95730586D01*
X259476788Y-95628768D01*
X259322445Y-95550127D01*
X259157701Y-95496598D01*
X259157699Y-95496597D01*
X259157698Y-95496597D01*
X259014303Y-95473886D01*
X258986611Y-95469500D01*
X257013389Y-95469500D01*
X256985697Y-95473886D01*
X256842302Y-95496597D01*
X256677552Y-95550128D01*
X256523211Y-95628768D01*
X256443256Y-95686859D01*
X256383072Y-95730586D01*
X256383070Y-95730588D01*
X256383069Y-95730588D01*
X256260588Y-95853069D01*
X256260588Y-95853070D01*
X256260586Y-95853072D01*
X256259862Y-95854069D01*
X256158768Y-95993211D01*
X256080128Y-96147552D01*
X256026597Y-96312302D01*
X255999500Y-96483389D01*
X255999500Y-96656610D01*
X256014288Y-96749982D01*
X256026598Y-96827701D01*
X256080127Y-96992445D01*
X256158768Y-97146788D01*
X256260586Y-97286928D01*
X256383072Y-97409414D01*
X256383078Y-97409418D01*
X256469804Y-97472430D01*
X256512470Y-97527760D01*
X256518448Y-97597373D01*
X256485842Y-97659168D01*
X256484599Y-97660428D01*
X255321939Y-98823090D01*
X255265991Y-98879037D01*
X255265985Y-98879045D01*
X255226432Y-98947554D01*
X255226429Y-98947559D01*
X255205950Y-99023989D01*
X255205950Y-102130617D01*
X255186265Y-102197656D01*
X255169631Y-102218298D01*
X243728748Y-113659181D01*
X243667425Y-113692666D01*
X243641067Y-113695500D01*
X236613331Y-113695500D01*
X236546292Y-113675815D01*
X236500537Y-113623011D01*
X236490593Y-113553853D01*
X236519618Y-113490297D01*
X236527887Y-113481637D01*
X236531150Y-113478535D01*
X238560569Y-111548925D01*
X242203046Y-108085585D01*
X242219821Y-108067606D01*
X242238692Y-108044782D01*
X242277490Y-107971733D01*
X242297175Y-107904694D01*
X242305500Y-107846796D01*
X242305500Y-104740691D01*
X251149500Y-104740691D01*
X251149500Y-104859309D01*
X251180201Y-104973886D01*
X251239511Y-105076613D01*
X251323387Y-105160489D01*
X251426114Y-105219799D01*
X251540691Y-105250500D01*
X251540694Y-105250500D01*
X251659306Y-105250500D01*
X251659309Y-105250500D01*
X251773886Y-105219799D01*
X251876613Y-105160489D01*
X251960489Y-105076613D01*
X252019799Y-104973886D01*
X252050500Y-104859309D01*
X252050500Y-104740691D01*
X252019799Y-104626114D01*
X251960489Y-104523387D01*
X251876613Y-104439511D01*
X251773886Y-104380201D01*
X251659309Y-104349500D01*
X251540691Y-104349500D01*
X251426114Y-104380201D01*
X251426112Y-104380201D01*
X251426112Y-104380202D01*
X251323387Y-104439511D01*
X251323384Y-104439513D01*
X251239513Y-104523384D01*
X251239511Y-104523387D01*
X251180201Y-104626114D01*
X251149500Y-104740691D01*
X242305500Y-104740691D01*
X242305500Y-102636530D01*
X244884500Y-102636530D01*
X244884500Y-102843469D01*
X244924868Y-103046412D01*
X244924870Y-103046420D01*
X245004058Y-103237596D01*
X245119024Y-103409657D01*
X245265342Y-103555975D01*
X245265345Y-103555977D01*
X245437402Y-103670941D01*
X245628580Y-103750130D01*
X245773052Y-103778867D01*
X245831530Y-103790499D01*
X245831534Y-103790500D01*
X245831535Y-103790500D01*
X246038466Y-103790500D01*
X246038467Y-103790499D01*
X246241420Y-103750130D01*
X246432598Y-103670941D01*
X246604655Y-103555977D01*
X246750977Y-103409655D01*
X246865941Y-103237598D01*
X246945130Y-103046420D01*
X246985500Y-102843465D01*
X246985500Y-102636535D01*
X246945130Y-102433580D01*
X246865941Y-102242402D01*
X246750977Y-102070345D01*
X246750975Y-102070342D01*
X246604657Y-101924024D01*
X246524173Y-101870247D01*
X247424500Y-101870247D01*
X247424500Y-103609752D01*
X247436131Y-103668229D01*
X247436132Y-103668230D01*
X247480447Y-103734552D01*
X247546769Y-103778867D01*
X247546770Y-103778868D01*
X247605247Y-103790499D01*
X247605250Y-103790500D01*
X247605252Y-103790500D01*
X249344750Y-103790500D01*
X249344751Y-103790499D01*
X249359568Y-103787552D01*
X249403229Y-103778868D01*
X249403229Y-103778867D01*
X249403231Y-103778867D01*
X249469552Y-103734552D01*
X249513867Y-103668231D01*
X249513867Y-103668229D01*
X249513868Y-103668229D01*
X249525499Y-103609752D01*
X249525500Y-103609750D01*
X249525500Y-101870249D01*
X249525499Y-101870247D01*
X249513868Y-101811770D01*
X249513867Y-101811769D01*
X249469552Y-101745447D01*
X249454913Y-101735666D01*
X249403230Y-101701132D01*
X249403229Y-101701131D01*
X249344752Y-101689500D01*
X249344748Y-101689500D01*
X247605252Y-101689500D01*
X247605247Y-101689500D01*
X247546770Y-101701131D01*
X247546769Y-101701132D01*
X247480447Y-101745447D01*
X247436132Y-101811769D01*
X247436131Y-101811770D01*
X247424500Y-101870247D01*
X246524173Y-101870247D01*
X246436655Y-101811770D01*
X246432598Y-101809059D01*
X246312484Y-101759306D01*
X246241420Y-101729870D01*
X246241412Y-101729868D01*
X246038469Y-101689500D01*
X246038465Y-101689500D01*
X245831535Y-101689500D01*
X245831530Y-101689500D01*
X245628587Y-101729868D01*
X245628579Y-101729870D01*
X245437403Y-101809058D01*
X245265342Y-101924024D01*
X245119024Y-102070342D01*
X245004058Y-102242403D01*
X244924870Y-102433579D01*
X244924868Y-102433587D01*
X244884500Y-102636530D01*
X242305500Y-102636530D01*
X242305500Y-101640691D01*
X253649500Y-101640691D01*
X253649500Y-101759309D01*
X253680201Y-101873886D01*
X253739511Y-101976613D01*
X253823387Y-102060489D01*
X253926114Y-102119799D01*
X254040691Y-102150500D01*
X254040694Y-102150500D01*
X254159306Y-102150500D01*
X254159309Y-102150500D01*
X254273886Y-102119799D01*
X254376613Y-102060489D01*
X254460489Y-101976613D01*
X254519799Y-101873886D01*
X254550500Y-101759309D01*
X254550500Y-101640691D01*
X254519799Y-101526114D01*
X254460489Y-101423387D01*
X254376613Y-101339511D01*
X254273886Y-101280201D01*
X254159309Y-101249500D01*
X254040691Y-101249500D01*
X253926114Y-101280201D01*
X253926112Y-101280201D01*
X253926112Y-101280202D01*
X253823387Y-101339511D01*
X253823384Y-101339513D01*
X253739513Y-101423384D01*
X253739511Y-101423387D01*
X253685568Y-101516819D01*
X253680201Y-101526114D01*
X253649500Y-101640691D01*
X242305500Y-101640691D01*
X242305500Y-100096530D01*
X244884500Y-100096530D01*
X244884500Y-100303469D01*
X244924868Y-100506412D01*
X244924870Y-100506420D01*
X245004059Y-100697598D01*
X245035463Y-100744597D01*
X245119024Y-100869657D01*
X245265342Y-101015975D01*
X245265345Y-101015977D01*
X245437402Y-101130941D01*
X245628580Y-101210130D01*
X245826508Y-101249500D01*
X245831530Y-101250499D01*
X245831534Y-101250500D01*
X245831535Y-101250500D01*
X246038466Y-101250500D01*
X246038467Y-101250499D01*
X246241420Y-101210130D01*
X246432598Y-101130941D01*
X246604655Y-101015977D01*
X246750977Y-100869655D01*
X246865941Y-100697598D01*
X246945130Y-100506420D01*
X246985500Y-100303465D01*
X246985500Y-100096535D01*
X246985499Y-100096530D01*
X247424500Y-100096530D01*
X247424500Y-100303469D01*
X247464868Y-100506412D01*
X247464870Y-100506420D01*
X247544059Y-100697598D01*
X247575463Y-100744597D01*
X247659024Y-100869657D01*
X247805342Y-101015975D01*
X247805345Y-101015977D01*
X247977402Y-101130941D01*
X248168580Y-101210130D01*
X248366508Y-101249500D01*
X248371530Y-101250499D01*
X248371534Y-101250500D01*
X248371535Y-101250500D01*
X248578466Y-101250500D01*
X248578467Y-101250499D01*
X248781420Y-101210130D01*
X248972598Y-101130941D01*
X249144655Y-101015977D01*
X249290977Y-100869655D01*
X249405941Y-100697598D01*
X249485130Y-100506420D01*
X249525500Y-100303465D01*
X249525500Y-100096535D01*
X249485130Y-99893580D01*
X249405941Y-99702402D01*
X249290977Y-99530345D01*
X249290975Y-99530342D01*
X249144657Y-99384024D01*
X248988224Y-99279500D01*
X248972598Y-99269059D01*
X248781420Y-99189870D01*
X248781412Y-99189868D01*
X248578469Y-99149500D01*
X248578465Y-99149500D01*
X248371535Y-99149500D01*
X248371530Y-99149500D01*
X248168587Y-99189868D01*
X248168579Y-99189870D01*
X247977403Y-99269058D01*
X247805342Y-99384024D01*
X247659024Y-99530342D01*
X247544058Y-99702403D01*
X247464870Y-99893579D01*
X247464868Y-99893587D01*
X247424500Y-100096530D01*
X246985499Y-100096530D01*
X246945130Y-99893580D01*
X246865941Y-99702402D01*
X246750977Y-99530345D01*
X246750975Y-99530342D01*
X246604657Y-99384024D01*
X246448224Y-99279500D01*
X246432598Y-99269059D01*
X246241420Y-99189870D01*
X246241412Y-99189868D01*
X246038469Y-99149500D01*
X246038465Y-99149500D01*
X245831535Y-99149500D01*
X245831530Y-99149500D01*
X245628587Y-99189868D01*
X245628579Y-99189870D01*
X245437403Y-99269058D01*
X245265342Y-99384024D01*
X245119024Y-99530342D01*
X245004058Y-99702403D01*
X244924870Y-99893579D01*
X244924868Y-99893587D01*
X244884500Y-100096530D01*
X242305500Y-100096530D01*
X242305500Y-97556530D01*
X244884500Y-97556530D01*
X244884500Y-97763469D01*
X244924868Y-97966412D01*
X244924870Y-97966420D01*
X245004058Y-98157596D01*
X245119024Y-98329657D01*
X245265342Y-98475975D01*
X245265345Y-98475977D01*
X245437402Y-98590941D01*
X245628580Y-98670130D01*
X245831530Y-98710499D01*
X245831534Y-98710500D01*
X245831535Y-98710500D01*
X246038466Y-98710500D01*
X246038467Y-98710499D01*
X246241420Y-98670130D01*
X246432598Y-98590941D01*
X246604655Y-98475977D01*
X246750977Y-98329655D01*
X246865941Y-98157598D01*
X246945130Y-97966420D01*
X246985500Y-97763465D01*
X246985500Y-97556535D01*
X246985499Y-97556530D01*
X247424500Y-97556530D01*
X247424500Y-97763469D01*
X247464868Y-97966412D01*
X247464870Y-97966420D01*
X247544058Y-98157596D01*
X247659024Y-98329657D01*
X247805342Y-98475975D01*
X247805345Y-98475977D01*
X247977402Y-98590941D01*
X248168580Y-98670130D01*
X248371530Y-98710499D01*
X248371534Y-98710500D01*
X248371535Y-98710500D01*
X248578466Y-98710500D01*
X248578467Y-98710499D01*
X248781420Y-98670130D01*
X248972598Y-98590941D01*
X249144655Y-98475977D01*
X249290977Y-98329655D01*
X249405941Y-98157598D01*
X249485130Y-97966420D01*
X249525500Y-97763465D01*
X249525500Y-97556535D01*
X249485130Y-97353580D01*
X249405941Y-97162402D01*
X249290977Y-96990345D01*
X249290975Y-96990342D01*
X249144657Y-96844024D01*
X249036255Y-96771593D01*
X248972598Y-96729059D01*
X248781420Y-96649870D01*
X248781412Y-96649868D01*
X248578469Y-96609500D01*
X248578465Y-96609500D01*
X248371535Y-96609500D01*
X248371530Y-96609500D01*
X248168587Y-96649868D01*
X248168579Y-96649870D01*
X247977403Y-96729058D01*
X247805342Y-96844024D01*
X247659024Y-96990342D01*
X247544058Y-97162403D01*
X247464870Y-97353579D01*
X247464868Y-97353587D01*
X247424500Y-97556530D01*
X246985499Y-97556530D01*
X246945130Y-97353580D01*
X246865941Y-97162402D01*
X246750977Y-96990345D01*
X246750975Y-96990342D01*
X246604657Y-96844024D01*
X246496255Y-96771593D01*
X246432598Y-96729059D01*
X246241420Y-96649870D01*
X246241412Y-96649868D01*
X246038469Y-96609500D01*
X246038465Y-96609500D01*
X245831535Y-96609500D01*
X245831530Y-96609500D01*
X245628587Y-96649868D01*
X245628579Y-96649870D01*
X245437403Y-96729058D01*
X245265342Y-96844024D01*
X245119024Y-96990342D01*
X245004058Y-97162403D01*
X244924870Y-97353579D01*
X244924868Y-97353587D01*
X244884500Y-97556530D01*
X242305500Y-97556530D01*
X242305500Y-96838632D01*
X242325185Y-96771593D01*
X242342795Y-96749985D01*
X246511000Y-92673389D01*
X255999500Y-92673389D01*
X255999500Y-92846611D01*
X256026598Y-93017701D01*
X256080127Y-93182445D01*
X256158768Y-93336788D01*
X256260586Y-93476928D01*
X256383072Y-93599414D01*
X256523212Y-93701232D01*
X256677555Y-93779873D01*
X256842299Y-93833402D01*
X257013389Y-93860500D01*
X257013390Y-93860500D01*
X258986610Y-93860500D01*
X258986611Y-93860500D01*
X259157701Y-93833402D01*
X259322445Y-93779873D01*
X259476788Y-93701232D01*
X259616928Y-93599414D01*
X259739414Y-93476928D01*
X259841232Y-93336788D01*
X259919873Y-93182445D01*
X259973402Y-93017701D01*
X260000500Y-92846611D01*
X260000500Y-92673389D01*
X259973402Y-92502299D01*
X259919873Y-92337555D01*
X259853423Y-92207139D01*
X259840528Y-92138472D01*
X259866804Y-92073731D01*
X259923911Y-92033474D01*
X259931796Y-92031076D01*
X259973886Y-92019799D01*
X260076613Y-91960489D01*
X260160489Y-91876613D01*
X260219799Y-91773886D01*
X260250500Y-91659309D01*
X260250500Y-91540691D01*
X260219799Y-91426114D01*
X260160489Y-91323387D01*
X260076613Y-91239511D01*
X260074783Y-91237681D01*
X260041298Y-91176358D01*
X260046282Y-91106666D01*
X260074783Y-91062319D01*
X260076613Y-91060489D01*
X260160489Y-90976613D01*
X260219799Y-90873886D01*
X260250500Y-90759309D01*
X260250500Y-90640691D01*
X260219799Y-90526114D01*
X260160489Y-90423387D01*
X260076613Y-90339511D01*
X259973886Y-90280201D01*
X259859309Y-90249500D01*
X259740691Y-90249500D01*
X259626114Y-90280201D01*
X259626112Y-90280201D01*
X259626112Y-90280202D01*
X259523387Y-90339511D01*
X259523384Y-90339513D01*
X259439513Y-90423384D01*
X259439511Y-90423387D01*
X259380201Y-90526114D01*
X259349500Y-90640691D01*
X259349500Y-90759309D01*
X259380201Y-90873886D01*
X259439511Y-90976613D01*
X259439513Y-90976615D01*
X259525217Y-91062319D01*
X259558702Y-91123642D01*
X259553718Y-91193334D01*
X259525217Y-91237681D01*
X259439513Y-91323384D01*
X259439511Y-91323387D01*
X259380201Y-91426114D01*
X259349500Y-91540691D01*
X259349500Y-91540693D01*
X259349500Y-91578246D01*
X259329815Y-91645285D01*
X259277011Y-91691040D01*
X259207853Y-91700984D01*
X259187183Y-91696177D01*
X259157702Y-91686598D01*
X259157698Y-91686597D01*
X259026271Y-91665781D01*
X258986611Y-91659500D01*
X257013389Y-91659500D01*
X256973728Y-91665781D01*
X256842302Y-91686597D01*
X256677552Y-91740128D01*
X256523211Y-91818768D01*
X256443597Y-91876612D01*
X256383072Y-91920586D01*
X256383070Y-91920588D01*
X256383069Y-91920588D01*
X256260588Y-92043069D01*
X256260588Y-92043070D01*
X256260586Y-92043072D01*
X256238311Y-92073731D01*
X256158768Y-92183211D01*
X256080128Y-92337552D01*
X256026597Y-92502302D01*
X256014312Y-92579867D01*
X255999500Y-92673389D01*
X246511000Y-92673389D01*
X249485481Y-89764282D01*
X251525909Y-89764282D01*
X251525909Y-89882900D01*
X251556610Y-89997477D01*
X251615920Y-90100204D01*
X251699796Y-90184080D01*
X251802523Y-90243390D01*
X251917100Y-90274091D01*
X251917103Y-90274091D01*
X252035715Y-90274091D01*
X252035718Y-90274091D01*
X252150295Y-90243390D01*
X252253022Y-90184080D01*
X252336898Y-90100204D01*
X252396208Y-89997477D01*
X252426909Y-89882900D01*
X252426909Y-89764282D01*
X252396208Y-89649705D01*
X252336898Y-89546978D01*
X252253022Y-89463102D01*
X252150295Y-89403792D01*
X252035718Y-89373091D01*
X251917100Y-89373091D01*
X251802523Y-89403792D01*
X251802521Y-89403792D01*
X251802521Y-89403793D01*
X251699796Y-89463102D01*
X251699793Y-89463104D01*
X251615922Y-89546975D01*
X251615920Y-89546978D01*
X251556610Y-89649705D01*
X251525909Y-89764282D01*
X249485481Y-89764282D01*
X250406619Y-88863389D01*
X255999500Y-88863389D01*
X255999500Y-89036611D01*
X256026598Y-89207701D01*
X256080127Y-89372445D01*
X256158768Y-89526788D01*
X256260586Y-89666928D01*
X256383072Y-89789414D01*
X256523212Y-89891232D01*
X256677555Y-89969873D01*
X256842299Y-90023402D01*
X257013389Y-90050500D01*
X257013390Y-90050500D01*
X258986610Y-90050500D01*
X258986611Y-90050500D01*
X259157701Y-90023402D01*
X259322445Y-89969873D01*
X259476788Y-89891232D01*
X259616928Y-89789414D01*
X259739414Y-89666928D01*
X259841232Y-89526788D01*
X259919873Y-89372445D01*
X259973402Y-89207701D01*
X260000500Y-89036611D01*
X260000500Y-88863389D01*
X259973402Y-88692299D01*
X259919873Y-88527555D01*
X259841232Y-88373212D01*
X259739414Y-88233072D01*
X259616928Y-88110586D01*
X259476788Y-88008768D01*
X259328305Y-87933113D01*
X259322447Y-87930128D01*
X259322446Y-87930127D01*
X259322445Y-87930127D01*
X259157701Y-87876598D01*
X259157699Y-87876597D01*
X259157698Y-87876597D01*
X259026271Y-87855781D01*
X258986611Y-87849500D01*
X257013389Y-87849500D01*
X256973728Y-87855781D01*
X256842302Y-87876597D01*
X256677552Y-87930128D01*
X256523211Y-88008768D01*
X256452026Y-88060488D01*
X256383072Y-88110586D01*
X256383070Y-88110588D01*
X256383069Y-88110588D01*
X256260588Y-88233069D01*
X256260588Y-88233070D01*
X256260586Y-88233072D01*
X256234459Y-88269033D01*
X256158768Y-88373211D01*
X256080128Y-88527552D01*
X256026597Y-88692302D01*
X256015137Y-88764658D01*
X255999500Y-88863389D01*
X250406619Y-88863389D01*
X251306389Y-87983394D01*
X251321998Y-87966305D01*
X251339611Y-87944694D01*
X251368673Y-87889506D01*
X251377487Y-87872771D01*
X251377487Y-87872769D01*
X251377490Y-87872765D01*
X251396123Y-87809308D01*
X251397172Y-87805737D01*
X251397172Y-87805735D01*
X251397175Y-87805726D01*
X251405500Y-87747828D01*
X251405500Y-87640691D01*
X260849500Y-87640691D01*
X260849500Y-87759309D01*
X260880201Y-87873886D01*
X260939511Y-87976613D01*
X261023387Y-88060489D01*
X261126114Y-88119799D01*
X261240691Y-88150500D01*
X261240694Y-88150500D01*
X261359306Y-88150500D01*
X261359309Y-88150500D01*
X261473886Y-88119799D01*
X261576613Y-88060489D01*
X261660489Y-87976613D01*
X261719799Y-87873886D01*
X261750500Y-87759309D01*
X261750500Y-87640691D01*
X261719799Y-87526114D01*
X261660489Y-87423387D01*
X261576613Y-87339511D01*
X261473886Y-87280201D01*
X261359309Y-87249500D01*
X261240691Y-87249500D01*
X261126114Y-87280201D01*
X261126112Y-87280201D01*
X261126112Y-87280202D01*
X261023387Y-87339511D01*
X261023384Y-87339513D01*
X260939513Y-87423384D01*
X260939511Y-87423387D01*
X260880201Y-87526114D01*
X260849500Y-87640691D01*
X251405500Y-87640691D01*
X251405500Y-84889999D01*
X256025884Y-84889999D01*
X256025885Y-84890000D01*
X257451518Y-84890000D01*
X257440889Y-84908409D01*
X257400000Y-85061009D01*
X257400000Y-85218991D01*
X257440889Y-85371591D01*
X257451518Y-85390000D01*
X256025885Y-85390000D01*
X256027085Y-85397584D01*
X256080591Y-85562255D01*
X256159195Y-85716524D01*
X256260967Y-85856602D01*
X256383397Y-85979032D01*
X256523475Y-86080804D01*
X256677742Y-86159408D01*
X256842415Y-86212914D01*
X257013429Y-86240000D01*
X257750000Y-86240000D01*
X257750000Y-85688482D01*
X257768409Y-85699111D01*
X257921009Y-85740000D01*
X258078991Y-85740000D01*
X258231591Y-85699111D01*
X258250000Y-85688482D01*
X258250000Y-86240000D01*
X258986571Y-86240000D01*
X259157584Y-86212914D01*
X259322257Y-86159408D01*
X259476524Y-86080804D01*
X259616602Y-85979032D01*
X259739032Y-85856602D01*
X259840804Y-85716524D01*
X259919408Y-85562255D01*
X259972914Y-85397584D01*
X259974115Y-85390000D01*
X258548482Y-85390000D01*
X258559111Y-85371591D01*
X258600000Y-85218991D01*
X258600000Y-85061009D01*
X258559111Y-84908409D01*
X258548482Y-84890000D01*
X259974115Y-84890000D01*
X259974115Y-84889999D01*
X259972914Y-84882415D01*
X259919408Y-84717744D01*
X259840804Y-84563475D01*
X259739032Y-84423397D01*
X259616602Y-84300967D01*
X259476524Y-84199195D01*
X259322257Y-84120591D01*
X259157584Y-84067085D01*
X258986571Y-84040000D01*
X258250000Y-84040000D01*
X258250000Y-84591517D01*
X258231591Y-84580889D01*
X258078991Y-84540000D01*
X257921009Y-84540000D01*
X257768409Y-84580889D01*
X257750000Y-84591517D01*
X257750000Y-84040000D01*
X257013429Y-84040000D01*
X256842415Y-84067085D01*
X256677742Y-84120591D01*
X256523475Y-84199195D01*
X256383397Y-84300967D01*
X256260967Y-84423397D01*
X256159195Y-84563475D01*
X256080591Y-84717744D01*
X256027085Y-84882415D01*
X256025884Y-84889999D01*
X251405500Y-84889999D01*
X251405500Y-81243389D01*
X255999500Y-81243389D01*
X255999500Y-81416611D01*
X256026598Y-81587701D01*
X256080127Y-81752445D01*
X256158768Y-81906788D01*
X256260586Y-82046928D01*
X256383072Y-82169414D01*
X256523212Y-82271232D01*
X256677555Y-82349873D01*
X256842299Y-82403402D01*
X257013389Y-82430500D01*
X257013390Y-82430500D01*
X258986610Y-82430500D01*
X258986611Y-82430500D01*
X259157701Y-82403402D01*
X259322445Y-82349873D01*
X259476788Y-82271232D01*
X259616928Y-82169414D01*
X259739414Y-82046928D01*
X259841232Y-81906788D01*
X259919873Y-81752445D01*
X259973402Y-81587701D01*
X260000500Y-81416611D01*
X260000500Y-81243389D01*
X259973402Y-81072299D01*
X259919873Y-80907555D01*
X259841232Y-80753212D01*
X259739414Y-80613072D01*
X259616928Y-80490586D01*
X259476788Y-80388768D01*
X259322445Y-80310127D01*
X259157701Y-80256598D01*
X259157699Y-80256597D01*
X259157698Y-80256597D01*
X259026271Y-80235781D01*
X258986611Y-80229500D01*
X257013389Y-80229500D01*
X256973728Y-80235781D01*
X256842302Y-80256597D01*
X256677552Y-80310128D01*
X256523211Y-80388768D01*
X256443256Y-80446859D01*
X256383072Y-80490586D01*
X256383070Y-80490588D01*
X256383069Y-80490588D01*
X256260588Y-80613069D01*
X256260588Y-80613070D01*
X256260586Y-80613072D01*
X256216859Y-80673256D01*
X256158768Y-80753211D01*
X256080128Y-80907552D01*
X256026597Y-81072302D01*
X255999500Y-81243389D01*
X251405500Y-81243389D01*
X251405500Y-73740691D01*
X252749500Y-73740691D01*
X252749500Y-73859309D01*
X252780201Y-73973886D01*
X252839511Y-74076613D01*
X252923387Y-74160489D01*
X253026114Y-74219799D01*
X253140691Y-74250500D01*
X253140694Y-74250500D01*
X253259306Y-74250500D01*
X253259309Y-74250500D01*
X253373886Y-74219799D01*
X253476613Y-74160489D01*
X253560489Y-74076613D01*
X253619799Y-73973886D01*
X253650500Y-73859309D01*
X253650500Y-73740691D01*
X253619799Y-73626114D01*
X253560489Y-73523387D01*
X253476613Y-73439511D01*
X253373886Y-73380201D01*
X253259309Y-73349500D01*
X253140691Y-73349500D01*
X253026114Y-73380201D01*
X253026112Y-73380201D01*
X253026112Y-73380202D01*
X252923387Y-73439511D01*
X252923384Y-73439513D01*
X252839513Y-73523384D01*
X252839511Y-73523387D01*
X252780201Y-73626114D01*
X252749500Y-73740691D01*
X251405500Y-73740691D01*
X251405500Y-67179256D01*
X251425185Y-67112217D01*
X251462135Y-67075150D01*
X251516201Y-67040166D01*
X251583178Y-67020275D01*
X251650278Y-67039751D01*
X251696197Y-67092412D01*
X251706355Y-67161540D01*
X251703338Y-67176365D01*
X251699500Y-67190686D01*
X251699500Y-67190691D01*
X251699500Y-67309309D01*
X251730201Y-67423886D01*
X251789511Y-67526613D01*
X251873387Y-67610489D01*
X251976114Y-67669799D01*
X252090691Y-67700500D01*
X252090694Y-67700500D01*
X252209306Y-67700500D01*
X252209309Y-67700500D01*
X252323886Y-67669799D01*
X252426613Y-67610489D01*
X252462321Y-67574780D01*
X252523641Y-67541296D01*
X252593333Y-67546280D01*
X252637682Y-67574781D01*
X252639510Y-67576609D01*
X252639511Y-67576610D01*
X252723387Y-67660486D01*
X252826114Y-67719796D01*
X252940691Y-67750497D01*
X252940694Y-67750497D01*
X253059306Y-67750497D01*
X253059309Y-67750497D01*
X253173886Y-67719796D01*
X253276613Y-67660486D01*
X253360489Y-67576610D01*
X253419799Y-67473883D01*
X253450500Y-67359306D01*
X253450500Y-67240688D01*
X253419799Y-67126111D01*
X253360489Y-67023384D01*
X253276613Y-66939508D01*
X253173886Y-66880198D01*
X253059309Y-66849497D01*
X252940691Y-66849497D01*
X252826114Y-66880198D01*
X252826112Y-66880198D01*
X252826112Y-66880199D01*
X252723387Y-66939508D01*
X252723383Y-66939511D01*
X252687678Y-66975216D01*
X252626355Y-67008701D01*
X252556663Y-67003715D01*
X252512317Y-66975215D01*
X252426615Y-66889513D01*
X252426613Y-66889511D01*
X252375249Y-66859856D01*
X252323887Y-66830201D01*
X252270015Y-66815766D01*
X252251808Y-66810887D01*
X252192148Y-66774522D01*
X252161620Y-66711675D01*
X252169915Y-66642300D01*
X252214401Y-66588422D01*
X252216495Y-66587035D01*
X252929943Y-66125392D01*
X252996921Y-66105501D01*
X252997306Y-66105500D01*
X253475991Y-66105500D01*
X253476000Y-66105500D01*
X253519684Y-66100803D01*
X253548875Y-66094452D01*
X253571174Y-66089602D01*
X253571190Y-66089598D01*
X253571195Y-66089597D01*
X253581373Y-66087110D01*
X253662085Y-66044100D01*
X253706049Y-66006004D01*
X253769603Y-65976978D01*
X253838761Y-65986921D01*
X253874933Y-66012035D01*
X253923387Y-66060489D01*
X254026114Y-66119799D01*
X254140691Y-66150500D01*
X254140694Y-66150500D01*
X254259306Y-66150500D01*
X254259309Y-66150500D01*
X254373886Y-66119799D01*
X254476613Y-66060489D01*
X254560489Y-65976613D01*
X254619799Y-65873886D01*
X254650500Y-65759309D01*
X254650500Y-65640691D01*
X254619799Y-65526114D01*
X254560489Y-65423387D01*
X254476613Y-65339511D01*
X254373886Y-65280201D01*
X254259309Y-65249500D01*
X254140691Y-65249500D01*
X254057609Y-65271762D01*
X254026110Y-65280202D01*
X253987618Y-65302426D01*
X253919718Y-65318899D01*
X253853691Y-65296046D01*
X253810500Y-65241125D01*
X253804941Y-65223555D01*
X253804259Y-65220670D01*
X253804259Y-65220664D01*
X253788030Y-65151986D01*
X253760525Y-65087758D01*
X253749236Y-65065301D01*
X253725437Y-65039826D01*
X253694056Y-64977401D01*
X253701406Y-64907919D01*
X253708659Y-64893179D01*
X253719799Y-64873886D01*
X253750500Y-64759309D01*
X253750500Y-64640691D01*
X253719799Y-64526114D01*
X253660489Y-64423387D01*
X253660487Y-64423385D01*
X253656425Y-64416349D01*
X253658177Y-64415337D01*
X253636906Y-64360329D01*
X253650938Y-64291883D01*
X253658167Y-64280632D01*
X253660485Y-64276616D01*
X253660489Y-64276613D01*
X253719799Y-64173886D01*
X253750500Y-64059309D01*
X253750500Y-64040691D01*
X256149500Y-64040691D01*
X256149500Y-64159309D01*
X256180201Y-64273886D01*
X256239511Y-64376613D01*
X256323387Y-64460489D01*
X256426114Y-64519799D01*
X256540691Y-64550500D01*
X256540694Y-64550500D01*
X256659306Y-64550500D01*
X256659309Y-64550500D01*
X256695916Y-64540691D01*
X257349500Y-64540691D01*
X257349500Y-64659309D01*
X257380201Y-64773886D01*
X257439511Y-64876613D01*
X257523387Y-64960489D01*
X257626114Y-65019799D01*
X257740691Y-65050500D01*
X257740694Y-65050500D01*
X257859306Y-65050500D01*
X257859309Y-65050500D01*
X257973886Y-65019799D01*
X258076613Y-64960489D01*
X258160489Y-64876613D01*
X258219799Y-64773886D01*
X258250500Y-64659309D01*
X258250500Y-64540691D01*
X258219799Y-64426114D01*
X258160489Y-64323387D01*
X258076613Y-64239511D01*
X257973886Y-64180201D01*
X257859309Y-64149500D01*
X257740691Y-64149500D01*
X257626114Y-64180201D01*
X257626112Y-64180201D01*
X257626112Y-64180202D01*
X257523387Y-64239511D01*
X257523384Y-64239513D01*
X257439513Y-64323384D01*
X257439511Y-64323387D01*
X257408780Y-64376615D01*
X257380201Y-64426114D01*
X257349500Y-64540691D01*
X256695916Y-64540691D01*
X256773886Y-64519799D01*
X256876613Y-64460489D01*
X256960489Y-64376613D01*
X257019799Y-64273886D01*
X257050500Y-64159309D01*
X257050500Y-64040691D01*
X257019799Y-63926114D01*
X256960489Y-63823387D01*
X256876613Y-63739511D01*
X256773886Y-63680201D01*
X256659309Y-63649500D01*
X256540691Y-63649500D01*
X256426114Y-63680201D01*
X256426112Y-63680201D01*
X256426112Y-63680202D01*
X256323387Y-63739511D01*
X256323384Y-63739513D01*
X256239513Y-63823384D01*
X256239511Y-63823387D01*
X256180201Y-63926114D01*
X256149500Y-64040691D01*
X253750500Y-64040691D01*
X253750500Y-63940691D01*
X253719799Y-63826114D01*
X253710283Y-63809633D01*
X253693810Y-63741735D01*
X253716661Y-63675707D01*
X253730882Y-63659068D01*
X253732843Y-63657147D01*
X253777490Y-63577330D01*
X253797175Y-63510291D01*
X253805500Y-63452393D01*
X253805500Y-63390691D01*
X257349500Y-63390691D01*
X257349500Y-63509309D01*
X257380201Y-63623886D01*
X257439511Y-63726613D01*
X257523387Y-63810489D01*
X257626114Y-63869799D01*
X257740691Y-63900500D01*
X257740694Y-63900500D01*
X257859306Y-63900500D01*
X257859309Y-63900500D01*
X257973886Y-63869799D01*
X258076613Y-63810489D01*
X258160489Y-63726613D01*
X258219799Y-63623886D01*
X258250500Y-63509309D01*
X258250500Y-63390691D01*
X258219799Y-63276114D01*
X258160489Y-63173387D01*
X258076613Y-63089511D01*
X257973886Y-63030201D01*
X257859309Y-62999500D01*
X257740691Y-62999500D01*
X257626114Y-63030201D01*
X257626112Y-63030201D01*
X257626112Y-63030202D01*
X257523387Y-63089511D01*
X257523384Y-63089513D01*
X257439513Y-63173384D01*
X257439511Y-63173387D01*
X257380201Y-63276114D01*
X257349500Y-63390691D01*
X253805500Y-63390691D01*
X253805500Y-62824000D01*
X253800803Y-62780316D01*
X253796897Y-62762364D01*
X253789602Y-62728825D01*
X253789348Y-62727789D01*
X253787110Y-62718627D01*
X253744100Y-62637915D01*
X253698345Y-62585111D01*
X253698339Y-62585104D01*
X253680757Y-62567160D01*
X253680756Y-62567159D01*
X253680754Y-62567157D01*
X253680752Y-62567156D01*
X253680750Y-62567154D01*
X253600940Y-62522511D01*
X253600935Y-62522509D01*
X253533903Y-62502826D01*
X253533899Y-62502825D01*
X253533898Y-62502825D01*
X253476000Y-62494500D01*
X252943497Y-62494500D01*
X252937117Y-62494665D01*
X252932852Y-62494775D01*
X252920046Y-62495439D01*
X252852722Y-62510526D01*
X252852718Y-62510527D01*
X252852716Y-62510528D01*
X252823493Y-62522511D01*
X252788068Y-62537037D01*
X252737660Y-62566703D01*
X252737657Y-62566705D01*
X248817806Y-65702585D01*
X248793942Y-65725017D01*
X248793934Y-65725026D01*
X248767509Y-65754165D01*
X248767506Y-65754169D01*
X248722905Y-65833141D01*
X248702821Y-65900051D01*
X248694149Y-65957899D01*
X248694149Y-65957901D01*
X248594549Y-82591080D01*
X248594380Y-82596854D01*
X248401483Y-86261900D01*
X248378302Y-86327812D01*
X248364855Y-86343542D01*
X239292281Y-95317500D01*
X239277118Y-95334243D01*
X239260017Y-95355350D01*
X239222511Y-95426818D01*
X239202826Y-95493855D01*
X239202825Y-95493860D01*
X239202825Y-95493861D01*
X239195339Y-95545930D01*
X239194500Y-95551762D01*
X239194500Y-102415931D01*
X239174815Y-102482970D01*
X239122011Y-102528725D01*
X239052853Y-102538669D01*
X238989297Y-102509644D01*
X238963115Y-102477935D01*
X238962580Y-102477009D01*
X238960489Y-102473387D01*
X238876613Y-102389511D01*
X238773886Y-102330201D01*
X238659309Y-102299500D01*
X238540691Y-102299500D01*
X238426114Y-102330201D01*
X238426112Y-102330201D01*
X238426112Y-102330202D01*
X238323387Y-102389511D01*
X238323384Y-102389513D01*
X238239513Y-102473384D01*
X238239511Y-102473387D01*
X238180201Y-102576114D01*
X238149500Y-102690691D01*
X238149500Y-102809309D01*
X238180201Y-102923886D01*
X238239511Y-103026613D01*
X238323387Y-103110489D01*
X238426114Y-103169799D01*
X238540691Y-103200500D01*
X238540694Y-103200500D01*
X238659306Y-103200500D01*
X238659309Y-103200500D01*
X238773886Y-103169799D01*
X238876613Y-103110489D01*
X238960489Y-103026613D01*
X238963113Y-103022067D01*
X239013680Y-102973852D01*
X239082287Y-102960629D01*
X239147152Y-102986597D01*
X239187680Y-103043511D01*
X239194500Y-103084068D01*
X239194500Y-106765679D01*
X239174815Y-106832718D01*
X239159161Y-106852370D01*
X238153414Y-107880975D01*
X235209051Y-110892256D01*
X234950003Y-111157191D01*
X234889060Y-111191362D01*
X234861342Y-111194500D01*
X231973138Y-111194500D01*
X231906099Y-111174815D01*
X231865751Y-111132501D01*
X231865380Y-111131859D01*
X231860489Y-111123387D01*
X231776613Y-111039511D01*
X231673886Y-110980201D01*
X231559309Y-110949500D01*
X231440691Y-110949500D01*
X231326114Y-110980201D01*
X231326112Y-110980201D01*
X231326112Y-110980202D01*
X231223387Y-111039511D01*
X231223384Y-111039513D01*
X231139512Y-111123385D01*
X231139510Y-111123388D01*
X231134249Y-111132501D01*
X231083681Y-111180716D01*
X231026862Y-111194500D01*
X230723992Y-111194500D01*
X230680313Y-111199197D01*
X230628825Y-111210397D01*
X230618627Y-111212890D01*
X230618624Y-111212891D01*
X230537916Y-111255899D01*
X230537913Y-111255901D01*
X230485104Y-111301660D01*
X230467160Y-111319242D01*
X230467154Y-111319249D01*
X230422511Y-111399059D01*
X230422509Y-111399064D01*
X230402826Y-111466096D01*
X230402825Y-111466101D01*
X230402825Y-111466102D01*
X230394589Y-111523387D01*
X230394500Y-111524003D01*
X230394500Y-113570167D01*
X230374815Y-113637206D01*
X230322011Y-113682961D01*
X230252853Y-113692905D01*
X230189297Y-113663880D01*
X230182819Y-113657848D01*
X230003512Y-113478541D01*
X230003504Y-113478535D01*
X229934995Y-113438982D01*
X229934990Y-113438979D01*
X229909513Y-113432152D01*
X229858562Y-113418500D01*
X217795106Y-113418500D01*
X217756892Y-113428739D01*
X217718677Y-113438979D01*
X217718672Y-113438982D01*
X217650163Y-113478535D01*
X217650155Y-113478541D01*
X216967516Y-114161181D01*
X216906193Y-114194666D01*
X216879835Y-114197500D01*
X187430417Y-114197500D01*
X187363378Y-114177815D01*
X187323030Y-114135501D01*
X187286591Y-114072387D01*
X187202715Y-113988511D01*
X187099988Y-113929201D01*
X186985411Y-113898500D01*
X186866793Y-113898500D01*
X186752216Y-113929201D01*
X186752214Y-113929201D01*
X186752214Y-113929202D01*
X186649489Y-113988511D01*
X186649486Y-113988513D01*
X186565615Y-114072384D01*
X186565613Y-114072387D01*
X186506302Y-114175114D01*
X186506302Y-114175115D01*
X186497245Y-114208916D01*
X186460880Y-114268576D01*
X186398032Y-114299104D01*
X186361287Y-114299760D01*
X186359312Y-114299500D01*
X186359309Y-114299500D01*
X186240691Y-114299500D01*
X186126114Y-114330201D01*
X186126112Y-114330201D01*
X186126112Y-114330202D01*
X186023387Y-114389511D01*
X186023384Y-114389513D01*
X185939513Y-114473384D01*
X185939511Y-114473387D01*
X185880201Y-114576112D01*
X185870965Y-114610582D01*
X185866804Y-114626114D01*
X185863076Y-114640026D01*
X185826710Y-114699686D01*
X185763863Y-114730215D01*
X185694488Y-114721920D01*
X185640610Y-114677434D01*
X185623527Y-114640027D01*
X185619799Y-114626114D01*
X185560489Y-114523387D01*
X185476613Y-114439511D01*
X185373886Y-114380201D01*
X185259309Y-114349500D01*
X185140691Y-114349500D01*
X185026114Y-114380201D01*
X185026112Y-114380201D01*
X185026112Y-114380202D01*
X184923387Y-114439511D01*
X184923384Y-114439513D01*
X184839513Y-114523384D01*
X184839511Y-114523387D01*
X184780201Y-114626114D01*
X184749500Y-114740691D01*
X184749500Y-114740693D01*
X184749500Y-114825167D01*
X184729815Y-114892206D01*
X184677011Y-114937961D01*
X184607853Y-114947905D01*
X184544297Y-114918880D01*
X184537819Y-114912848D01*
X182606672Y-112981701D01*
X182573187Y-112920378D01*
X182570359Y-112895232D01*
X182565942Y-112440691D01*
X221849500Y-112440691D01*
X221849500Y-112559309D01*
X221880201Y-112673886D01*
X221939511Y-112776613D01*
X222023387Y-112860489D01*
X222126114Y-112919799D01*
X222240691Y-112950500D01*
X222240694Y-112950500D01*
X222359306Y-112950500D01*
X222359309Y-112950500D01*
X222473886Y-112919799D01*
X222576613Y-112860489D01*
X222660489Y-112776613D01*
X222719799Y-112673886D01*
X222750500Y-112559309D01*
X222750500Y-112440691D01*
X222719799Y-112326114D01*
X222660489Y-112223387D01*
X222576613Y-112139511D01*
X222473886Y-112080201D01*
X222359309Y-112049500D01*
X222240691Y-112049500D01*
X222126114Y-112080201D01*
X222126112Y-112080201D01*
X222126112Y-112080202D01*
X222023387Y-112139511D01*
X222023384Y-112139513D01*
X221939513Y-112223384D01*
X221939511Y-112223387D01*
X221880201Y-112326114D01*
X221849500Y-112440691D01*
X182565942Y-112440691D01*
X182559140Y-111740691D01*
X226849500Y-111740691D01*
X226849500Y-111859309D01*
X226880201Y-111973886D01*
X226939511Y-112076613D01*
X227023387Y-112160489D01*
X227126114Y-112219799D01*
X227240691Y-112250500D01*
X227240694Y-112250500D01*
X227359306Y-112250500D01*
X227359309Y-112250500D01*
X227473886Y-112219799D01*
X227576613Y-112160489D01*
X227660489Y-112076613D01*
X227719799Y-111973886D01*
X227750500Y-111859309D01*
X227750500Y-111740691D01*
X227719799Y-111626114D01*
X227660489Y-111523387D01*
X227576613Y-111439511D01*
X227473886Y-111380201D01*
X227359309Y-111349500D01*
X227240691Y-111349500D01*
X227126114Y-111380201D01*
X227126112Y-111380201D01*
X227126112Y-111380202D01*
X227023387Y-111439511D01*
X227023384Y-111439513D01*
X226939513Y-111523384D01*
X226939511Y-111523387D01*
X226880201Y-111626114D01*
X226849500Y-111740691D01*
X182559140Y-111740691D01*
X182548578Y-110653780D01*
X182567610Y-110586556D01*
X182619967Y-110540291D01*
X182689026Y-110529675D01*
X182720024Y-110538018D01*
X182841139Y-110588185D01*
X182841145Y-110588186D01*
X182841155Y-110588191D01*
X183119783Y-110662849D01*
X183405772Y-110700500D01*
X183405779Y-110700500D01*
X183694221Y-110700500D01*
X183694228Y-110700500D01*
X183980217Y-110662849D01*
X184258845Y-110588191D01*
X184258857Y-110588185D01*
X184258860Y-110588185D01*
X184525336Y-110477808D01*
X184525339Y-110477806D01*
X184525345Y-110477804D01*
X184775156Y-110333575D01*
X185004004Y-110157974D01*
X185004009Y-110157969D01*
X185075052Y-110086927D01*
X185207969Y-109954009D01*
X185207974Y-109954004D01*
X185383575Y-109725156D01*
X185492903Y-109535795D01*
X185543469Y-109487580D01*
X185612076Y-109474357D01*
X185676941Y-109500325D01*
X185707676Y-109535796D01*
X185816838Y-109724871D01*
X185927438Y-109869007D01*
X186570523Y-109225921D01*
X186658415Y-109346893D01*
X186803107Y-109491585D01*
X186924076Y-109579474D01*
X186280991Y-110222560D01*
X186425128Y-110333161D01*
X186674873Y-110477351D01*
X186674883Y-110477355D01*
X186941317Y-110587716D01*
X187219881Y-110662356D01*
X187505796Y-110699999D01*
X187505811Y-110700000D01*
X187794189Y-110700000D01*
X187794203Y-110699999D01*
X188080118Y-110662356D01*
X188358682Y-110587716D01*
X188625116Y-110477355D01*
X188625126Y-110477351D01*
X188874870Y-110333161D01*
X188874887Y-110333150D01*
X189019007Y-110222561D01*
X189019007Y-110222559D01*
X188375922Y-109579475D01*
X188496893Y-109491585D01*
X188641585Y-109346893D01*
X188729475Y-109225922D01*
X189372559Y-109869007D01*
X189372561Y-109869007D01*
X189483150Y-109724887D01*
X189483161Y-109724870D01*
X189627351Y-109475126D01*
X189627355Y-109475116D01*
X189737716Y-109208682D01*
X189812356Y-108930118D01*
X189849999Y-108644203D01*
X189850000Y-108644189D01*
X189850000Y-108355810D01*
X189849999Y-108355796D01*
X190550000Y-108355796D01*
X190550000Y-108644203D01*
X190587643Y-108930118D01*
X190662283Y-109208682D01*
X190772644Y-109475116D01*
X190772648Y-109475126D01*
X190916838Y-109724872D01*
X191027438Y-109869007D01*
X191670523Y-109225921D01*
X191758415Y-109346893D01*
X191903107Y-109491585D01*
X192024076Y-109579474D01*
X191380991Y-110222560D01*
X191525128Y-110333161D01*
X191774873Y-110477351D01*
X191774883Y-110477355D01*
X192041317Y-110587716D01*
X192319881Y-110662356D01*
X192605796Y-110699999D01*
X192605811Y-110700000D01*
X192894189Y-110700000D01*
X192894203Y-110699999D01*
X193180118Y-110662356D01*
X193458682Y-110587716D01*
X193725116Y-110477355D01*
X193725126Y-110477351D01*
X193974870Y-110333161D01*
X193974887Y-110333150D01*
X194119007Y-110222561D01*
X194119007Y-110222559D01*
X193475922Y-109579475D01*
X193596893Y-109491585D01*
X193741585Y-109346893D01*
X193829475Y-109225923D01*
X194472559Y-109869007D01*
X194472561Y-109869007D01*
X194583150Y-109724887D01*
X194583161Y-109724870D01*
X194727351Y-109475126D01*
X194727355Y-109475116D01*
X194837716Y-109208682D01*
X194902824Y-108965691D01*
X227849500Y-108965691D01*
X227849500Y-109084309D01*
X227880201Y-109198886D01*
X227939511Y-109301613D01*
X228023387Y-109385489D01*
X228126114Y-109444799D01*
X228240691Y-109475500D01*
X228240694Y-109475500D01*
X228359306Y-109475500D01*
X228359309Y-109475500D01*
X228473886Y-109444799D01*
X228576613Y-109385489D01*
X228660489Y-109301613D01*
X228719799Y-109198886D01*
X228750500Y-109084309D01*
X228750500Y-108965691D01*
X228719799Y-108851114D01*
X228660489Y-108748387D01*
X228576613Y-108664511D01*
X228473886Y-108605201D01*
X228359309Y-108574500D01*
X228240691Y-108574500D01*
X228126114Y-108605201D01*
X228126112Y-108605201D01*
X228126112Y-108605202D01*
X228023387Y-108664511D01*
X228023384Y-108664513D01*
X227939513Y-108748384D01*
X227939511Y-108748387D01*
X227880201Y-108851114D01*
X227849500Y-108965691D01*
X194902824Y-108965691D01*
X194912356Y-108930118D01*
X194949999Y-108644203D01*
X194950000Y-108644189D01*
X194950000Y-108355810D01*
X194949999Y-108355796D01*
X194912356Y-108069881D01*
X194837716Y-107791317D01*
X194727355Y-107524883D01*
X194727351Y-107524873D01*
X194583161Y-107275128D01*
X194472560Y-107130991D01*
X193829474Y-107774076D01*
X193741585Y-107653107D01*
X193596893Y-107508415D01*
X193475921Y-107420523D01*
X193934916Y-106961530D01*
X216574500Y-106961530D01*
X216574500Y-107168469D01*
X216614868Y-107371412D01*
X216614870Y-107371420D01*
X216694058Y-107562596D01*
X216809024Y-107734657D01*
X216955342Y-107880975D01*
X216955345Y-107880977D01*
X217127402Y-107995941D01*
X217318580Y-108075130D01*
X217521530Y-108115499D01*
X217521534Y-108115500D01*
X217521535Y-108115500D01*
X217728466Y-108115500D01*
X217728467Y-108115499D01*
X217931420Y-108075130D01*
X218122598Y-107995941D01*
X218294655Y-107880977D01*
X218440977Y-107734655D01*
X218555941Y-107562598D01*
X218635130Y-107371420D01*
X218675500Y-107168465D01*
X218675500Y-106961535D01*
X218675499Y-106961530D01*
X219114500Y-106961530D01*
X219114500Y-107168469D01*
X219154868Y-107371412D01*
X219154870Y-107371420D01*
X219234058Y-107562596D01*
X219349024Y-107734657D01*
X219495342Y-107880975D01*
X219495345Y-107880977D01*
X219667402Y-107995941D01*
X219858580Y-108075130D01*
X220061530Y-108115499D01*
X220061534Y-108115500D01*
X220061535Y-108115500D01*
X220268466Y-108115500D01*
X220268467Y-108115499D01*
X220471420Y-108075130D01*
X220662598Y-107995941D01*
X220834655Y-107880977D01*
X220980977Y-107734655D01*
X221095941Y-107562598D01*
X221175130Y-107371420D01*
X221215500Y-107168465D01*
X221215500Y-106961535D01*
X221175130Y-106758580D01*
X221095941Y-106567402D01*
X220980977Y-106395345D01*
X220980976Y-106395344D01*
X220980975Y-106395342D01*
X220834657Y-106249024D01*
X220748626Y-106191541D01*
X220662598Y-106134059D01*
X220471420Y-106054870D01*
X220471412Y-106054868D01*
X220268469Y-106014500D01*
X220268465Y-106014500D01*
X220061535Y-106014500D01*
X220061530Y-106014500D01*
X219858587Y-106054868D01*
X219858579Y-106054870D01*
X219667403Y-106134058D01*
X219495342Y-106249024D01*
X219349024Y-106395342D01*
X219234058Y-106567403D01*
X219154870Y-106758579D01*
X219154868Y-106758587D01*
X219114500Y-106961530D01*
X218675499Y-106961530D01*
X218635130Y-106758580D01*
X218555941Y-106567402D01*
X218440977Y-106395345D01*
X218440976Y-106395344D01*
X218440975Y-106395342D01*
X218294657Y-106249024D01*
X218208626Y-106191541D01*
X218122598Y-106134059D01*
X217931420Y-106054870D01*
X217931412Y-106054868D01*
X217728469Y-106014500D01*
X217728465Y-106014500D01*
X217521535Y-106014500D01*
X217521530Y-106014500D01*
X217318587Y-106054868D01*
X217318579Y-106054870D01*
X217127403Y-106134058D01*
X216955342Y-106249024D01*
X216809024Y-106395342D01*
X216694058Y-106567403D01*
X216614870Y-106758579D01*
X216614868Y-106758587D01*
X216574500Y-106961530D01*
X193934916Y-106961530D01*
X194028684Y-106867762D01*
X194119007Y-106777438D01*
X193974872Y-106666838D01*
X193725126Y-106522648D01*
X193725116Y-106522644D01*
X193458682Y-106412283D01*
X193180118Y-106337643D01*
X192894203Y-106300000D01*
X192605796Y-106300000D01*
X192319881Y-106337643D01*
X192041317Y-106412283D01*
X191774883Y-106522644D01*
X191774873Y-106522648D01*
X191525123Y-106666841D01*
X191380991Y-106777436D01*
X191380991Y-106777438D01*
X192024077Y-107420524D01*
X191903107Y-107508415D01*
X191758415Y-107653107D01*
X191670524Y-107774077D01*
X191027438Y-107130991D01*
X191027436Y-107130991D01*
X190916841Y-107275123D01*
X190772648Y-107524873D01*
X190772644Y-107524883D01*
X190662283Y-107791317D01*
X190587643Y-108069881D01*
X190550000Y-108355796D01*
X189849999Y-108355796D01*
X189812356Y-108069881D01*
X189737716Y-107791317D01*
X189627355Y-107524883D01*
X189627351Y-107524873D01*
X189483161Y-107275128D01*
X189372560Y-107130991D01*
X188729474Y-107774076D01*
X188641585Y-107653107D01*
X188496893Y-107508415D01*
X188375921Y-107420523D01*
X189019007Y-106777438D01*
X188874872Y-106666838D01*
X188625126Y-106522648D01*
X188625116Y-106522644D01*
X188358682Y-106412283D01*
X188080118Y-106337643D01*
X187794203Y-106300000D01*
X187505796Y-106300000D01*
X187219881Y-106337643D01*
X186941317Y-106412283D01*
X186674883Y-106522644D01*
X186674873Y-106522648D01*
X186425123Y-106666841D01*
X186280991Y-106777436D01*
X186280991Y-106777438D01*
X186924077Y-107420524D01*
X186803107Y-107508415D01*
X186658415Y-107653107D01*
X186570524Y-107774077D01*
X185927438Y-107130991D01*
X185927436Y-107130991D01*
X185816841Y-107275123D01*
X185707676Y-107464203D01*
X185657109Y-107512419D01*
X185588502Y-107525642D01*
X185523637Y-107499674D01*
X185492902Y-107464203D01*
X185383579Y-107274851D01*
X185383575Y-107274844D01*
X185207974Y-107045996D01*
X185207969Y-107045990D01*
X185004009Y-106842030D01*
X185004002Y-106842024D01*
X184775164Y-106666431D01*
X184775162Y-106666429D01*
X184775156Y-106666425D01*
X184775151Y-106666422D01*
X184775148Y-106666420D01*
X184525352Y-106522199D01*
X184525336Y-106522191D01*
X184258860Y-106411814D01*
X184258848Y-106411810D01*
X184258845Y-106411809D01*
X183980217Y-106337151D01*
X183980211Y-106337150D01*
X183980206Y-106337149D01*
X183694238Y-106299501D01*
X183694233Y-106299500D01*
X183694228Y-106299500D01*
X183405772Y-106299500D01*
X183405766Y-106299500D01*
X183405761Y-106299501D01*
X183119793Y-106337149D01*
X183119786Y-106337150D01*
X183119783Y-106337151D01*
X182902611Y-106395342D01*
X182841155Y-106411809D01*
X182841139Y-106411814D01*
X182678357Y-106479240D01*
X182608888Y-106486709D01*
X182546409Y-106455433D01*
X182510757Y-106395344D01*
X182506912Y-106365893D01*
X182480572Y-103655247D01*
X216574500Y-103655247D01*
X216574500Y-105394752D01*
X216586131Y-105453229D01*
X216586132Y-105453230D01*
X216630447Y-105519552D01*
X216696769Y-105563867D01*
X216696770Y-105563868D01*
X216755247Y-105575499D01*
X216755250Y-105575500D01*
X216755252Y-105575500D01*
X218494750Y-105575500D01*
X218494751Y-105575499D01*
X218509568Y-105572552D01*
X218553229Y-105563868D01*
X218553229Y-105563867D01*
X218553231Y-105563867D01*
X218619552Y-105519552D01*
X218663867Y-105453231D01*
X218663867Y-105453229D01*
X218663868Y-105453229D01*
X218675499Y-105394752D01*
X218675500Y-105394750D01*
X218675500Y-104421530D01*
X219114500Y-104421530D01*
X219114500Y-104628469D01*
X219154868Y-104831412D01*
X219154870Y-104831420D01*
X219234059Y-105022598D01*
X219270152Y-105076615D01*
X219349024Y-105194657D01*
X219495342Y-105340975D01*
X219495345Y-105340977D01*
X219667402Y-105455941D01*
X219858580Y-105535130D01*
X220003052Y-105563867D01*
X220061530Y-105575499D01*
X220061534Y-105575500D01*
X220061535Y-105575500D01*
X220268466Y-105575500D01*
X220268467Y-105575499D01*
X220471420Y-105535130D01*
X220662598Y-105455941D01*
X220834655Y-105340977D01*
X220980977Y-105194655D01*
X221095941Y-105022598D01*
X221175130Y-104831420D01*
X221215500Y-104628465D01*
X221215500Y-104421535D01*
X221175130Y-104218580D01*
X221095941Y-104027402D01*
X220980977Y-103855345D01*
X220980975Y-103855342D01*
X220834657Y-103709024D01*
X220748626Y-103651541D01*
X220662598Y-103594059D01*
X220570660Y-103555977D01*
X220471420Y-103514870D01*
X220471412Y-103514868D01*
X220268469Y-103474500D01*
X220268465Y-103474500D01*
X220061535Y-103474500D01*
X220061530Y-103474500D01*
X219858587Y-103514868D01*
X219858579Y-103514870D01*
X219667403Y-103594058D01*
X219495342Y-103709024D01*
X219349024Y-103855342D01*
X219234058Y-104027403D01*
X219154870Y-104218579D01*
X219154868Y-104218587D01*
X219114500Y-104421530D01*
X218675500Y-104421530D01*
X218675500Y-103655249D01*
X218675499Y-103655247D01*
X218663868Y-103596770D01*
X218663867Y-103596769D01*
X218619552Y-103530447D01*
X218553230Y-103486132D01*
X218553229Y-103486131D01*
X218494752Y-103474500D01*
X218494748Y-103474500D01*
X216755252Y-103474500D01*
X216755247Y-103474500D01*
X216696770Y-103486131D01*
X216696769Y-103486132D01*
X216630447Y-103530447D01*
X216586132Y-103596769D01*
X216586131Y-103596770D01*
X216574500Y-103655247D01*
X182480572Y-103655247D01*
X182401771Y-95545946D01*
X186999500Y-95545946D01*
X186999500Y-95854053D01*
X186999501Y-95854069D01*
X187039717Y-96159542D01*
X187119464Y-96457162D01*
X187237376Y-96741826D01*
X187237381Y-96741837D01*
X187330014Y-96902280D01*
X187391438Y-97008670D01*
X187391440Y-97008673D01*
X187391441Y-97008674D01*
X187579007Y-97253115D01*
X187579013Y-97253122D01*
X187796877Y-97470986D01*
X187796883Y-97470991D01*
X188041330Y-97658562D01*
X188212830Y-97757578D01*
X188308162Y-97812618D01*
X188308167Y-97812620D01*
X188308170Y-97812622D01*
X188592836Y-97930535D01*
X188890456Y-98010282D01*
X189195940Y-98050500D01*
X189195947Y-98050500D01*
X189504053Y-98050500D01*
X189504060Y-98050500D01*
X189809544Y-98010282D01*
X190107164Y-97930535D01*
X190391830Y-97812622D01*
X190658670Y-97658562D01*
X190903117Y-97470991D01*
X191120991Y-97253117D01*
X191308562Y-97008670D01*
X191462622Y-96741830D01*
X191580535Y-96457164D01*
X191660282Y-96159544D01*
X191700500Y-95854060D01*
X191700500Y-95545940D01*
X191660313Y-95240691D01*
X203449500Y-95240691D01*
X203449500Y-95359309D01*
X203480201Y-95473886D01*
X203539511Y-95576613D01*
X203623387Y-95660489D01*
X203726114Y-95719799D01*
X203840691Y-95750500D01*
X203840694Y-95750500D01*
X203959306Y-95750500D01*
X203959309Y-95750500D01*
X204073886Y-95719799D01*
X204176613Y-95660489D01*
X204260489Y-95576613D01*
X204319799Y-95473886D01*
X204350500Y-95359309D01*
X204350500Y-95240691D01*
X204319799Y-95126114D01*
X204260489Y-95023387D01*
X204176613Y-94939511D01*
X204073886Y-94880201D01*
X203959309Y-94849500D01*
X203840691Y-94849500D01*
X203726114Y-94880201D01*
X203726112Y-94880201D01*
X203726112Y-94880202D01*
X203623387Y-94939511D01*
X203623384Y-94939513D01*
X203539513Y-95023384D01*
X203539511Y-95023387D01*
X203480201Y-95126114D01*
X203449500Y-95240691D01*
X191660313Y-95240691D01*
X191660282Y-95240456D01*
X191580535Y-94942836D01*
X191462622Y-94658170D01*
X191462620Y-94658167D01*
X191462618Y-94658162D01*
X191407578Y-94562830D01*
X191308562Y-94391330D01*
X191120991Y-94146883D01*
X191120986Y-94146877D01*
X190903122Y-93929013D01*
X190903115Y-93929007D01*
X190658674Y-93741441D01*
X190658673Y-93741440D01*
X190658670Y-93741438D01*
X190552280Y-93680014D01*
X190391837Y-93587381D01*
X190391826Y-93587376D01*
X190107162Y-93469464D01*
X189809542Y-93389717D01*
X189504069Y-93349501D01*
X189504066Y-93349500D01*
X189504060Y-93349500D01*
X189195940Y-93349500D01*
X189195934Y-93349500D01*
X189195930Y-93349501D01*
X188890457Y-93389717D01*
X188592837Y-93469464D01*
X188308173Y-93587376D01*
X188308162Y-93587381D01*
X188041325Y-93741441D01*
X187796884Y-93929007D01*
X187796877Y-93929013D01*
X187579013Y-94146877D01*
X187579007Y-94146884D01*
X187391441Y-94391325D01*
X187237381Y-94658162D01*
X187237376Y-94658173D01*
X187119464Y-94942837D01*
X187039717Y-95240457D01*
X186999501Y-95545930D01*
X186999500Y-95545946D01*
X182401771Y-95545946D01*
X182370625Y-92340691D01*
X202449500Y-92340691D01*
X202449500Y-92459309D01*
X202480201Y-92573886D01*
X202539511Y-92676613D01*
X202623387Y-92760489D01*
X202726114Y-92819799D01*
X202840691Y-92850500D01*
X202840694Y-92850500D01*
X202959306Y-92850500D01*
X202959309Y-92850500D01*
X203073886Y-92819799D01*
X203176613Y-92760489D01*
X203260489Y-92676613D01*
X203319799Y-92573886D01*
X203350500Y-92459309D01*
X203350500Y-92340691D01*
X203319799Y-92226114D01*
X203260489Y-92123387D01*
X203176613Y-92039511D01*
X203073886Y-91980201D01*
X202959309Y-91949500D01*
X202840691Y-91949500D01*
X202726114Y-91980201D01*
X202726112Y-91980201D01*
X202726112Y-91980202D01*
X202623387Y-92039511D01*
X202623384Y-92039513D01*
X202539513Y-92123384D01*
X202539511Y-92123387D01*
X202480201Y-92226114D01*
X202449500Y-92340691D01*
X182370625Y-92340691D01*
X182336614Y-88840691D01*
X202449500Y-88840691D01*
X202449500Y-88959309D01*
X202480201Y-89073886D01*
X202539511Y-89176613D01*
X202623387Y-89260489D01*
X202726114Y-89319799D01*
X202840691Y-89350500D01*
X202840694Y-89350500D01*
X202959306Y-89350500D01*
X202959309Y-89350500D01*
X203073886Y-89319799D01*
X203176613Y-89260489D01*
X203260489Y-89176613D01*
X203319799Y-89073886D01*
X203350500Y-88959309D01*
X203350500Y-88840691D01*
X203323705Y-88740691D01*
X212449500Y-88740691D01*
X212449500Y-88859309D01*
X212480201Y-88973886D01*
X212539511Y-89076613D01*
X212623387Y-89160489D01*
X212726114Y-89219799D01*
X212840691Y-89250500D01*
X212840694Y-89250500D01*
X212959306Y-89250500D01*
X212959309Y-89250500D01*
X213073886Y-89219799D01*
X213176613Y-89160489D01*
X213260489Y-89076613D01*
X213319799Y-88973886D01*
X213350500Y-88859309D01*
X213350500Y-88740691D01*
X213319799Y-88626114D01*
X213260489Y-88523387D01*
X213176613Y-88439511D01*
X213073886Y-88380201D01*
X212959309Y-88349500D01*
X212840691Y-88349500D01*
X212726114Y-88380201D01*
X212726112Y-88380201D01*
X212726112Y-88380202D01*
X212623387Y-88439511D01*
X212623384Y-88439513D01*
X212539513Y-88523384D01*
X212539511Y-88523387D01*
X212480201Y-88626114D01*
X212449500Y-88740691D01*
X203323705Y-88740691D01*
X203319799Y-88726114D01*
X203260489Y-88623387D01*
X203176613Y-88539511D01*
X203073886Y-88480201D01*
X202959309Y-88449500D01*
X202840691Y-88449500D01*
X202726114Y-88480201D01*
X202726112Y-88480201D01*
X202726112Y-88480202D01*
X202623387Y-88539511D01*
X202623384Y-88539513D01*
X202539513Y-88623384D01*
X202539511Y-88623387D01*
X202499723Y-88692302D01*
X202480201Y-88726114D01*
X202449500Y-88840691D01*
X182336614Y-88840691D01*
X182327474Y-87900065D01*
X182346505Y-87832841D01*
X182363778Y-87811192D01*
X182484279Y-87690691D01*
X191799500Y-87690691D01*
X191799500Y-87809309D01*
X191830201Y-87923886D01*
X191889511Y-88026613D01*
X191973387Y-88110489D01*
X192076114Y-88169799D01*
X192190691Y-88200500D01*
X192190694Y-88200500D01*
X192309306Y-88200500D01*
X192309309Y-88200500D01*
X192423886Y-88169799D01*
X192526613Y-88110489D01*
X192610489Y-88026613D01*
X192664473Y-87933111D01*
X207024500Y-87933111D01*
X207024500Y-88051729D01*
X207055201Y-88166306D01*
X207114511Y-88269033D01*
X207198387Y-88352909D01*
X207301114Y-88412219D01*
X207415691Y-88442920D01*
X207415694Y-88442920D01*
X207534306Y-88442920D01*
X207534309Y-88442920D01*
X207648886Y-88412219D01*
X207751613Y-88352909D01*
X207835489Y-88269033D01*
X207894799Y-88166306D01*
X207925500Y-88051729D01*
X207925500Y-87933111D01*
X207894799Y-87818534D01*
X207835489Y-87715807D01*
X207751613Y-87631931D01*
X207648886Y-87572621D01*
X207534309Y-87541920D01*
X207415691Y-87541920D01*
X207301114Y-87572621D01*
X207301112Y-87572621D01*
X207301112Y-87572622D01*
X207198387Y-87631931D01*
X207198384Y-87631933D01*
X207114513Y-87715804D01*
X207114511Y-87715807D01*
X207055201Y-87818534D01*
X207024500Y-87933111D01*
X192664473Y-87933111D01*
X192669799Y-87923886D01*
X192700500Y-87809309D01*
X192700500Y-87690691D01*
X192669799Y-87576114D01*
X192610489Y-87473387D01*
X192526613Y-87389511D01*
X192423886Y-87330201D01*
X192309309Y-87299500D01*
X192190691Y-87299500D01*
X192076114Y-87330201D01*
X192076112Y-87330201D01*
X192076112Y-87330202D01*
X191973387Y-87389511D01*
X191973384Y-87389513D01*
X191889513Y-87473384D01*
X191889511Y-87473387D01*
X191830201Y-87576114D01*
X191799500Y-87690691D01*
X182484279Y-87690691D01*
X183234279Y-86940691D01*
X210049500Y-86940691D01*
X210049500Y-87059309D01*
X210080201Y-87173886D01*
X210139511Y-87276613D01*
X210223387Y-87360489D01*
X210326114Y-87419799D01*
X210440691Y-87450500D01*
X210440694Y-87450500D01*
X210559306Y-87450500D01*
X210559309Y-87450500D01*
X210673886Y-87419799D01*
X210737999Y-87382782D01*
X210805898Y-87366309D01*
X210861999Y-87382782D01*
X210926114Y-87419799D01*
X211040691Y-87450500D01*
X211040694Y-87450500D01*
X211159306Y-87450500D01*
X211159309Y-87450500D01*
X211273886Y-87419799D01*
X211337999Y-87382782D01*
X211405898Y-87366309D01*
X211461999Y-87382782D01*
X211526114Y-87419799D01*
X211640691Y-87450500D01*
X211640694Y-87450500D01*
X211759306Y-87450500D01*
X211759309Y-87450500D01*
X211873886Y-87419799D01*
X211976613Y-87360489D01*
X212060489Y-87276613D01*
X212119799Y-87173886D01*
X212150500Y-87059309D01*
X212150500Y-86940691D01*
X212123705Y-86840691D01*
X243374500Y-86840691D01*
X243374500Y-86959309D01*
X243405201Y-87073886D01*
X243464511Y-87176613D01*
X243548387Y-87260489D01*
X243651114Y-87319799D01*
X243765691Y-87350500D01*
X243765694Y-87350500D01*
X243884306Y-87350500D01*
X243884309Y-87350500D01*
X243998886Y-87319799D01*
X244101613Y-87260489D01*
X244185489Y-87176613D01*
X244244799Y-87073886D01*
X244275500Y-86959309D01*
X244275500Y-86940691D01*
X244924500Y-86940691D01*
X244924500Y-87059309D01*
X244955201Y-87173886D01*
X245014511Y-87276613D01*
X245098387Y-87360489D01*
X245201114Y-87419799D01*
X245315691Y-87450500D01*
X245315694Y-87450500D01*
X245434306Y-87450500D01*
X245434309Y-87450500D01*
X245548886Y-87419799D01*
X245651613Y-87360489D01*
X245735489Y-87276613D01*
X245794799Y-87173886D01*
X245825500Y-87059309D01*
X245825500Y-86940691D01*
X245794799Y-86826114D01*
X245735489Y-86723387D01*
X245651613Y-86639511D01*
X245548886Y-86580201D01*
X245434309Y-86549500D01*
X245315691Y-86549500D01*
X245201114Y-86580201D01*
X245201112Y-86580201D01*
X245201112Y-86580202D01*
X245098387Y-86639511D01*
X245098384Y-86639513D01*
X245014513Y-86723384D01*
X245014511Y-86723387D01*
X244971760Y-86797434D01*
X244955201Y-86826114D01*
X244924500Y-86940691D01*
X244275500Y-86940691D01*
X244275500Y-86840691D01*
X244244799Y-86726114D01*
X244185489Y-86623387D01*
X244101613Y-86539511D01*
X243998886Y-86480201D01*
X243884309Y-86449500D01*
X243765691Y-86449500D01*
X243651114Y-86480201D01*
X243651112Y-86480201D01*
X243651112Y-86480202D01*
X243548387Y-86539511D01*
X243548384Y-86539513D01*
X243464513Y-86623384D01*
X243464511Y-86623387D01*
X243458563Y-86633690D01*
X243405201Y-86726114D01*
X243374500Y-86840691D01*
X212123705Y-86840691D01*
X212119799Y-86826114D01*
X212060489Y-86723387D01*
X211976613Y-86639511D01*
X211873886Y-86580201D01*
X211759309Y-86549500D01*
X211640691Y-86549500D01*
X211535505Y-86577684D01*
X211526110Y-86580202D01*
X211462000Y-86617217D01*
X211394100Y-86633690D01*
X211338000Y-86617217D01*
X211273889Y-86580202D01*
X211273890Y-86580202D01*
X211264494Y-86577684D01*
X211159309Y-86549500D01*
X211040691Y-86549500D01*
X210935505Y-86577684D01*
X210926110Y-86580202D01*
X210862000Y-86617217D01*
X210794100Y-86633690D01*
X210738000Y-86617217D01*
X210673889Y-86580202D01*
X210673890Y-86580202D01*
X210664494Y-86577684D01*
X210559309Y-86549500D01*
X210440691Y-86549500D01*
X210326114Y-86580201D01*
X210326112Y-86580201D01*
X210326112Y-86580202D01*
X210223387Y-86639511D01*
X210223384Y-86639513D01*
X210139513Y-86723384D01*
X210139511Y-86723387D01*
X210096760Y-86797434D01*
X210080201Y-86826114D01*
X210049500Y-86940691D01*
X183234279Y-86940691D01*
X184234280Y-85940691D01*
X194549500Y-85940691D01*
X194549500Y-86059309D01*
X194580201Y-86173886D01*
X194639511Y-86276613D01*
X194723387Y-86360489D01*
X194826114Y-86419799D01*
X194940691Y-86450500D01*
X194940694Y-86450500D01*
X195059306Y-86450500D01*
X195059309Y-86450500D01*
X195173886Y-86419799D01*
X195276613Y-86360489D01*
X195360489Y-86276613D01*
X195419799Y-86173886D01*
X195450500Y-86059309D01*
X195450500Y-85940691D01*
X195419799Y-85826114D01*
X195360489Y-85723387D01*
X195276613Y-85639511D01*
X195173886Y-85580201D01*
X195059309Y-85549500D01*
X194940691Y-85549500D01*
X194826114Y-85580201D01*
X194826112Y-85580201D01*
X194826112Y-85580202D01*
X194723387Y-85639511D01*
X194723384Y-85639513D01*
X194639513Y-85723384D01*
X194639511Y-85723387D01*
X194618091Y-85760488D01*
X194580201Y-85826114D01*
X194549500Y-85940691D01*
X184234280Y-85940691D01*
X185688152Y-84486819D01*
X185749475Y-84453334D01*
X185775833Y-84450500D01*
X185809306Y-84450500D01*
X185809309Y-84450500D01*
X185923886Y-84419799D01*
X186026613Y-84360489D01*
X186110489Y-84276613D01*
X186169799Y-84173886D01*
X186200500Y-84059309D01*
X186200500Y-83940691D01*
X200549500Y-83940691D01*
X200549500Y-84059309D01*
X200580201Y-84173886D01*
X200639511Y-84276613D01*
X200723387Y-84360489D01*
X200826114Y-84419799D01*
X200940691Y-84450500D01*
X200940694Y-84450500D01*
X201059306Y-84450500D01*
X201059309Y-84450500D01*
X201173886Y-84419799D01*
X201276613Y-84360489D01*
X201360489Y-84276613D01*
X201419799Y-84173886D01*
X201428694Y-84140691D01*
X211949500Y-84140691D01*
X211949500Y-84259309D01*
X211980201Y-84373886D01*
X211980202Y-84373889D01*
X212017217Y-84438000D01*
X212033690Y-84505900D01*
X212017217Y-84562000D01*
X211980202Y-84626110D01*
X211980201Y-84626114D01*
X211949500Y-84740691D01*
X211949500Y-84859309D01*
X211976295Y-84959309D01*
X211980202Y-84973889D01*
X212017217Y-85038000D01*
X212033690Y-85105900D01*
X212017217Y-85162000D01*
X211980202Y-85226110D01*
X211976574Y-85239648D01*
X211949500Y-85340691D01*
X211949500Y-85459309D01*
X211980201Y-85573886D01*
X212039511Y-85676613D01*
X212123387Y-85760489D01*
X212226114Y-85819799D01*
X212340691Y-85850500D01*
X212340694Y-85850500D01*
X212459306Y-85850500D01*
X212459309Y-85850500D01*
X212573886Y-85819799D01*
X212676613Y-85760489D01*
X212696411Y-85740691D01*
X234224500Y-85740691D01*
X234224500Y-85859309D01*
X234255201Y-85973886D01*
X234314511Y-86076613D01*
X234398387Y-86160489D01*
X234501114Y-86219799D01*
X234615691Y-86250500D01*
X234615694Y-86250500D01*
X234734306Y-86250500D01*
X234734309Y-86250500D01*
X234848886Y-86219799D01*
X234951613Y-86160489D01*
X235035489Y-86076613D01*
X235094799Y-85973886D01*
X235125500Y-85859309D01*
X235125500Y-85740691D01*
X235094799Y-85626114D01*
X235035489Y-85523387D01*
X234951613Y-85439511D01*
X234848886Y-85380201D01*
X234734309Y-85349500D01*
X234615691Y-85349500D01*
X234501114Y-85380201D01*
X234501112Y-85380201D01*
X234501112Y-85380202D01*
X234398387Y-85439511D01*
X234398384Y-85439513D01*
X234314513Y-85523384D01*
X234314511Y-85523387D01*
X234281709Y-85580202D01*
X234255201Y-85626114D01*
X234224500Y-85740691D01*
X212696411Y-85740691D01*
X212760489Y-85676613D01*
X212819799Y-85573886D01*
X212850500Y-85459309D01*
X212850500Y-85340691D01*
X212819799Y-85226114D01*
X212782782Y-85162000D01*
X212766309Y-85094102D01*
X212782782Y-85038000D01*
X212819799Y-84973886D01*
X212850500Y-84859309D01*
X212850500Y-84840691D01*
X243149500Y-84840691D01*
X243149500Y-84959309D01*
X243180201Y-85073886D01*
X243239511Y-85176613D01*
X243323387Y-85260489D01*
X243426114Y-85319799D01*
X243540691Y-85350500D01*
X243540694Y-85350500D01*
X243659306Y-85350500D01*
X243659309Y-85350500D01*
X243773886Y-85319799D01*
X243876613Y-85260489D01*
X243960489Y-85176613D01*
X244019799Y-85073886D01*
X244050500Y-84959309D01*
X244050500Y-84840691D01*
X244043424Y-84814282D01*
X246575909Y-84814282D01*
X246575909Y-84932900D01*
X246606610Y-85047477D01*
X246665920Y-85150204D01*
X246749796Y-85234080D01*
X246852523Y-85293390D01*
X246967100Y-85324091D01*
X246967103Y-85324091D01*
X247085715Y-85324091D01*
X247085718Y-85324091D01*
X247200295Y-85293390D01*
X247303022Y-85234080D01*
X247386898Y-85150204D01*
X247446208Y-85047477D01*
X247476909Y-84932900D01*
X247476909Y-84814282D01*
X247446208Y-84699705D01*
X247386898Y-84596978D01*
X247303022Y-84513102D01*
X247200295Y-84453792D01*
X247085718Y-84423091D01*
X246967100Y-84423091D01*
X246852523Y-84453792D01*
X246852521Y-84453792D01*
X246852521Y-84453793D01*
X246749796Y-84513102D01*
X246749793Y-84513104D01*
X246665922Y-84596975D01*
X246665920Y-84596978D01*
X246606610Y-84699705D01*
X246575909Y-84814282D01*
X244043424Y-84814282D01*
X244019799Y-84726114D01*
X243960489Y-84623387D01*
X243876613Y-84539511D01*
X243773886Y-84480201D01*
X243659309Y-84449500D01*
X243540691Y-84449500D01*
X243426114Y-84480201D01*
X243426112Y-84480201D01*
X243426112Y-84480202D01*
X243323387Y-84539511D01*
X243323384Y-84539513D01*
X243239513Y-84623384D01*
X243239511Y-84623387D01*
X243195450Y-84699703D01*
X243180201Y-84726114D01*
X243149500Y-84840691D01*
X212850500Y-84840691D01*
X212850500Y-84740691D01*
X212819799Y-84626114D01*
X212782782Y-84562000D01*
X212766309Y-84494102D01*
X212782782Y-84438000D01*
X212819799Y-84373886D01*
X212850500Y-84259309D01*
X212850500Y-84140691D01*
X232674500Y-84140691D01*
X232674500Y-84259309D01*
X232705201Y-84373886D01*
X232764511Y-84476613D01*
X232848387Y-84560489D01*
X232951114Y-84619799D01*
X233065691Y-84650500D01*
X233065694Y-84650500D01*
X233184306Y-84650500D01*
X233184309Y-84650500D01*
X233298886Y-84619799D01*
X233401613Y-84560489D01*
X233485489Y-84476613D01*
X233544799Y-84373886D01*
X233575500Y-84259309D01*
X233575500Y-84140691D01*
X233544799Y-84026114D01*
X233485489Y-83923387D01*
X233401613Y-83839511D01*
X233298886Y-83780201D01*
X233184309Y-83749500D01*
X233065691Y-83749500D01*
X232951114Y-83780201D01*
X232951112Y-83780201D01*
X232951112Y-83780202D01*
X232848387Y-83839511D01*
X232848384Y-83839513D01*
X232764513Y-83923384D01*
X232764511Y-83923387D01*
X232705201Y-84026114D01*
X232674500Y-84140691D01*
X212850500Y-84140691D01*
X212819799Y-84026114D01*
X212760489Y-83923387D01*
X212676613Y-83839511D01*
X212573886Y-83780201D01*
X212459309Y-83749500D01*
X212340691Y-83749500D01*
X212226114Y-83780201D01*
X212226112Y-83780201D01*
X212226112Y-83780202D01*
X212123387Y-83839511D01*
X212123384Y-83839513D01*
X212039513Y-83923384D01*
X212039511Y-83923387D01*
X211980201Y-84026114D01*
X211949500Y-84140691D01*
X201428694Y-84140691D01*
X201450500Y-84059309D01*
X201450500Y-83940691D01*
X201419799Y-83826114D01*
X201360489Y-83723387D01*
X201276613Y-83639511D01*
X201173886Y-83580201D01*
X201059309Y-83549500D01*
X200940691Y-83549500D01*
X200826114Y-83580201D01*
X200826112Y-83580201D01*
X200826112Y-83580202D01*
X200723387Y-83639511D01*
X200723384Y-83639513D01*
X200639513Y-83723384D01*
X200639511Y-83723387D01*
X200606709Y-83780202D01*
X200580201Y-83826114D01*
X200549500Y-83940691D01*
X186200500Y-83940691D01*
X186169799Y-83826114D01*
X186110489Y-83723387D01*
X186026613Y-83639511D01*
X185923886Y-83580201D01*
X185809309Y-83549500D01*
X185690691Y-83549500D01*
X185576114Y-83580201D01*
X185576112Y-83580201D01*
X185576112Y-83580202D01*
X185473387Y-83639511D01*
X185473384Y-83639513D01*
X185389513Y-83723384D01*
X185389511Y-83723387D01*
X185356709Y-83780202D01*
X185330201Y-83826114D01*
X185299500Y-83940691D01*
X185299500Y-83940693D01*
X185299500Y-83974166D01*
X185279815Y-84041205D01*
X185263181Y-84061847D01*
X182527593Y-86797434D01*
X182466270Y-86830919D01*
X182396578Y-86825935D01*
X182340645Y-86784063D01*
X182316228Y-86718599D01*
X182315919Y-86710996D01*
X182276852Y-82690691D01*
X192299500Y-82690691D01*
X192299500Y-82809309D01*
X192330201Y-82923886D01*
X192389511Y-83026613D01*
X192473387Y-83110489D01*
X192576114Y-83169799D01*
X192690691Y-83200500D01*
X192690694Y-83200500D01*
X192809306Y-83200500D01*
X192809309Y-83200500D01*
X192923886Y-83169799D01*
X193026613Y-83110489D01*
X193110489Y-83026613D01*
X193169799Y-82923886D01*
X193200500Y-82809309D01*
X193200500Y-82690691D01*
X193169799Y-82576114D01*
X193110489Y-82473387D01*
X193026613Y-82389511D01*
X192923886Y-82330201D01*
X192809309Y-82299500D01*
X192690691Y-82299500D01*
X192576114Y-82330201D01*
X192576112Y-82330201D01*
X192576112Y-82330202D01*
X192473387Y-82389511D01*
X192473384Y-82389513D01*
X192389513Y-82473384D01*
X192389511Y-82473387D01*
X192330201Y-82576114D01*
X192299500Y-82690691D01*
X182276852Y-82690691D01*
X182234582Y-78340691D01*
X206649500Y-78340691D01*
X206649500Y-78459309D01*
X206680201Y-78573886D01*
X206739511Y-78676613D01*
X206823387Y-78760489D01*
X206926114Y-78819799D01*
X207040691Y-78850500D01*
X207040694Y-78850500D01*
X207159306Y-78850500D01*
X207159309Y-78850500D01*
X207273886Y-78819799D01*
X207376613Y-78760489D01*
X207460489Y-78676613D01*
X207519799Y-78573886D01*
X207550500Y-78459309D01*
X207550500Y-78340691D01*
X207519799Y-78226114D01*
X207460489Y-78123387D01*
X207376613Y-78039511D01*
X207273886Y-77980201D01*
X207159309Y-77949500D01*
X207040691Y-77949500D01*
X206926114Y-77980201D01*
X206926112Y-77980201D01*
X206926112Y-77980202D01*
X206823387Y-78039511D01*
X206823384Y-78039513D01*
X206739513Y-78123384D01*
X206739512Y-78123386D01*
X206739511Y-78123387D01*
X206680201Y-78226114D01*
X206649500Y-78340691D01*
X182234582Y-78340691D01*
X182233758Y-78255911D01*
X182252789Y-78188690D01*
X182270062Y-78167040D01*
X182950284Y-77486819D01*
X183011607Y-77453334D01*
X183037965Y-77450500D01*
X209162035Y-77450500D01*
X209229074Y-77470185D01*
X209249716Y-77486819D01*
X210523386Y-78760489D01*
X210626113Y-78819799D01*
X210650321Y-78826284D01*
X210650324Y-78826286D01*
X210650325Y-78826286D01*
X210680447Y-78834357D01*
X210740691Y-78850500D01*
X210740693Y-78850500D01*
X210859308Y-78850500D01*
X210859309Y-78850500D01*
X210949673Y-78826286D01*
X210973887Y-78819799D01*
X211076614Y-78760489D01*
X211160489Y-78676614D01*
X211219799Y-78573887D01*
X211230141Y-78535288D01*
X211250500Y-78459309D01*
X211250500Y-78340691D01*
X211219799Y-78226114D01*
X211219799Y-78226113D01*
X211160489Y-78123386D01*
X209676614Y-76639511D01*
X209617302Y-76605267D01*
X209573888Y-76580201D01*
X209561780Y-76576957D01*
X209549673Y-76573713D01*
X209549670Y-76573712D01*
X209511478Y-76563478D01*
X209459309Y-76549500D01*
X193572091Y-76549500D01*
X193505052Y-76529815D01*
X193459297Y-76477011D01*
X193449353Y-76407853D01*
X193478378Y-76344297D01*
X193524639Y-76310939D01*
X193725336Y-76227808D01*
X193725339Y-76227806D01*
X193725345Y-76227804D01*
X193975156Y-76083575D01*
X194161366Y-75940691D01*
X247149500Y-75940691D01*
X247149500Y-76059309D01*
X247180201Y-76173886D01*
X247239511Y-76276613D01*
X247323387Y-76360489D01*
X247426114Y-76419799D01*
X247540691Y-76450500D01*
X247540694Y-76450500D01*
X247659306Y-76450500D01*
X247659309Y-76450500D01*
X247773886Y-76419799D01*
X247876613Y-76360489D01*
X247960489Y-76276613D01*
X248019799Y-76173886D01*
X248050500Y-76059309D01*
X248050500Y-75940691D01*
X248019799Y-75826114D01*
X247960489Y-75723387D01*
X247876613Y-75639511D01*
X247773886Y-75580201D01*
X247659309Y-75549500D01*
X247540691Y-75549500D01*
X247426114Y-75580201D01*
X247426112Y-75580201D01*
X247426112Y-75580202D01*
X247323387Y-75639511D01*
X247323384Y-75639513D01*
X247239513Y-75723384D01*
X247239511Y-75723387D01*
X247180201Y-75826114D01*
X247149500Y-75940691D01*
X194161366Y-75940691D01*
X194204004Y-75907974D01*
X194204009Y-75907969D01*
X194267096Y-75844883D01*
X194407969Y-75704009D01*
X194407974Y-75704004D01*
X194583575Y-75475156D01*
X194727804Y-75225345D01*
X194800001Y-75051046D01*
X194838185Y-74958860D01*
X194838185Y-74958857D01*
X194838191Y-74958845D01*
X194912849Y-74680217D01*
X194950500Y-74394228D01*
X194950500Y-74105772D01*
X194912849Y-73819783D01*
X194864862Y-73640691D01*
X245749500Y-73640691D01*
X245749500Y-73759309D01*
X245780201Y-73873886D01*
X245839511Y-73976613D01*
X245923387Y-74060489D01*
X246026114Y-74119799D01*
X246140691Y-74150500D01*
X246140694Y-74150500D01*
X246259306Y-74150500D01*
X246259309Y-74150500D01*
X246373886Y-74119799D01*
X246476613Y-74060489D01*
X246560489Y-73976613D01*
X246619799Y-73873886D01*
X246650500Y-73759309D01*
X246650500Y-73640691D01*
X246619799Y-73526114D01*
X246560489Y-73423387D01*
X246476613Y-73339511D01*
X246373886Y-73280201D01*
X246259309Y-73249500D01*
X246140691Y-73249500D01*
X246026114Y-73280201D01*
X246026112Y-73280201D01*
X246026112Y-73280202D01*
X245923387Y-73339511D01*
X245923384Y-73339513D01*
X245839513Y-73423384D01*
X245839511Y-73423387D01*
X245780201Y-73526114D01*
X245749500Y-73640691D01*
X194864862Y-73640691D01*
X194838191Y-73541155D01*
X194838186Y-73541144D01*
X194838185Y-73541139D01*
X194727808Y-73274663D01*
X194727800Y-73274647D01*
X194583579Y-73024851D01*
X194583575Y-73024844D01*
X194407974Y-72795996D01*
X194407969Y-72795990D01*
X194204009Y-72592030D01*
X194204002Y-72592024D01*
X193975164Y-72416431D01*
X193975162Y-72416429D01*
X193975156Y-72416425D01*
X193975151Y-72416422D01*
X193975148Y-72416420D01*
X193725352Y-72272199D01*
X193725336Y-72272191D01*
X193458860Y-72161814D01*
X193458848Y-72161810D01*
X193458845Y-72161809D01*
X193180217Y-72087151D01*
X193180211Y-72087150D01*
X193180206Y-72087149D01*
X192894238Y-72049501D01*
X192894233Y-72049500D01*
X192894228Y-72049500D01*
X192605772Y-72049500D01*
X192605766Y-72049500D01*
X192605761Y-72049501D01*
X192319793Y-72087149D01*
X192319786Y-72087150D01*
X192319783Y-72087151D01*
X192041155Y-72161809D01*
X192041139Y-72161814D01*
X191774663Y-72272191D01*
X191774647Y-72272199D01*
X191524851Y-72416420D01*
X191524835Y-72416431D01*
X191295997Y-72592024D01*
X191295990Y-72592030D01*
X191092030Y-72795990D01*
X191092024Y-72795997D01*
X190916431Y-73024835D01*
X190916420Y-73024851D01*
X190772199Y-73274647D01*
X190772191Y-73274663D01*
X190661814Y-73541139D01*
X190661810Y-73541152D01*
X190661809Y-73541155D01*
X190635139Y-73640691D01*
X190587152Y-73819780D01*
X190587149Y-73819793D01*
X190549501Y-74105761D01*
X190549500Y-74105778D01*
X190549500Y-74394221D01*
X190549501Y-74394238D01*
X190587149Y-74680206D01*
X190587150Y-74680211D01*
X190587151Y-74680217D01*
X190587152Y-74680219D01*
X190661809Y-74958844D01*
X190661814Y-74958860D01*
X190772191Y-75225336D01*
X190772199Y-75225352D01*
X190916420Y-75475148D01*
X190916431Y-75475164D01*
X191092024Y-75704002D01*
X191092030Y-75704009D01*
X191295990Y-75907969D01*
X191295997Y-75907975D01*
X191338636Y-75940693D01*
X191524844Y-76083575D01*
X191524851Y-76083579D01*
X191774647Y-76227800D01*
X191774663Y-76227808D01*
X191975361Y-76310939D01*
X192029765Y-76354780D01*
X192051830Y-76421074D01*
X192034551Y-76488773D01*
X191983414Y-76536384D01*
X191927909Y-76549500D01*
X188472091Y-76549500D01*
X188405052Y-76529815D01*
X188359297Y-76477011D01*
X188349353Y-76407853D01*
X188378378Y-76344297D01*
X188424639Y-76310939D01*
X188625336Y-76227808D01*
X188625339Y-76227806D01*
X188625345Y-76227804D01*
X188875156Y-76083575D01*
X189104004Y-75907974D01*
X189307974Y-75704004D01*
X189483575Y-75475156D01*
X189627804Y-75225345D01*
X189700001Y-75051046D01*
X189738185Y-74958860D01*
X189738185Y-74958857D01*
X189738191Y-74958845D01*
X189812849Y-74680217D01*
X189850500Y-74394228D01*
X189850500Y-74105772D01*
X189812849Y-73819783D01*
X189738191Y-73541155D01*
X189738186Y-73541145D01*
X189738185Y-73541139D01*
X189627808Y-73274663D01*
X189627800Y-73274647D01*
X189483579Y-73024851D01*
X189483575Y-73024844D01*
X189307974Y-72795996D01*
X189307969Y-72795990D01*
X189104009Y-72592030D01*
X189104002Y-72592024D01*
X188875164Y-72416431D01*
X188875162Y-72416429D01*
X188875156Y-72416425D01*
X188875151Y-72416422D01*
X188875148Y-72416420D01*
X188625352Y-72272199D01*
X188625336Y-72272191D01*
X188358860Y-72161814D01*
X188358848Y-72161810D01*
X188358845Y-72161809D01*
X188080217Y-72087151D01*
X188080211Y-72087150D01*
X188080206Y-72087149D01*
X187794238Y-72049501D01*
X187794233Y-72049500D01*
X187794228Y-72049500D01*
X187505772Y-72049500D01*
X187505766Y-72049500D01*
X187505761Y-72049501D01*
X187219793Y-72087149D01*
X187219786Y-72087150D01*
X187219783Y-72087151D01*
X186941155Y-72161809D01*
X186941139Y-72161814D01*
X186674663Y-72272191D01*
X186674647Y-72272199D01*
X186424851Y-72416420D01*
X186424835Y-72416431D01*
X186195997Y-72592024D01*
X186195990Y-72592030D01*
X185992030Y-72795990D01*
X185992024Y-72795997D01*
X185816431Y-73024835D01*
X185816425Y-73024844D01*
X185707387Y-73213702D01*
X185656819Y-73261917D01*
X185588212Y-73275139D01*
X185523348Y-73249171D01*
X185492613Y-73213702D01*
X185463419Y-73163138D01*
X185383575Y-73024844D01*
X185207974Y-72795996D01*
X185207969Y-72795990D01*
X185004009Y-72592030D01*
X185004002Y-72592024D01*
X184775164Y-72416431D01*
X184775162Y-72416429D01*
X184775156Y-72416425D01*
X184775151Y-72416422D01*
X184775148Y-72416420D01*
X184525352Y-72272199D01*
X184525336Y-72272191D01*
X184258860Y-72161814D01*
X184258848Y-72161810D01*
X184258845Y-72161809D01*
X183980217Y-72087151D01*
X183980211Y-72087150D01*
X183980206Y-72087149D01*
X183694238Y-72049501D01*
X183694233Y-72049500D01*
X183694228Y-72049500D01*
X183405772Y-72049500D01*
X183405766Y-72049500D01*
X183405761Y-72049501D01*
X183119793Y-72087149D01*
X183119786Y-72087150D01*
X183119783Y-72087151D01*
X182841155Y-72161809D01*
X182841139Y-72161814D01*
X182574663Y-72272191D01*
X182574647Y-72272199D01*
X182361768Y-72395106D01*
X182293868Y-72411579D01*
X182227841Y-72388726D01*
X182184650Y-72333805D01*
X182175775Y-72288933D01*
X182171419Y-71840691D01*
X214849500Y-71840691D01*
X214849500Y-71959309D01*
X214880201Y-72073886D01*
X214939511Y-72176613D01*
X215023387Y-72260489D01*
X215126114Y-72319799D01*
X215240691Y-72350500D01*
X215240694Y-72350500D01*
X215359306Y-72350500D01*
X215359309Y-72350500D01*
X215473886Y-72319799D01*
X215576613Y-72260489D01*
X215660489Y-72176613D01*
X215719799Y-72073886D01*
X215750500Y-71959309D01*
X215750500Y-71840691D01*
X215719799Y-71726114D01*
X215660489Y-71623387D01*
X215576613Y-71539511D01*
X215473886Y-71480201D01*
X215359309Y-71449500D01*
X215240691Y-71449500D01*
X215126114Y-71480201D01*
X215126112Y-71480201D01*
X215126112Y-71480202D01*
X215023387Y-71539511D01*
X215023384Y-71539513D01*
X214939513Y-71623384D01*
X214939511Y-71623387D01*
X214880201Y-71726114D01*
X214849500Y-71840691D01*
X182171419Y-71840691D01*
X182153959Y-70043874D01*
X225959499Y-70043874D01*
X225997947Y-70237160D01*
X225997950Y-70237170D01*
X226073364Y-70419238D01*
X226073371Y-70419251D01*
X226182860Y-70583112D01*
X226182863Y-70583116D01*
X226322214Y-70722467D01*
X226322218Y-70722470D01*
X226486079Y-70831959D01*
X226486092Y-70831966D01*
X226668160Y-70907380D01*
X226668165Y-70907382D01*
X226668169Y-70907382D01*
X226668170Y-70907383D01*
X226861456Y-70945831D01*
X226861459Y-70945831D01*
X227058543Y-70945831D01*
X227188582Y-70919963D01*
X227251835Y-70907382D01*
X227433914Y-70831963D01*
X227597782Y-70722470D01*
X227737139Y-70583113D01*
X227846632Y-70419245D01*
X227922051Y-70237166D01*
X227943327Y-70130206D01*
X227960500Y-70043874D01*
X228729499Y-70043874D01*
X228767947Y-70237160D01*
X228767950Y-70237170D01*
X228843364Y-70419238D01*
X228843371Y-70419251D01*
X228952860Y-70583112D01*
X228952863Y-70583116D01*
X229092214Y-70722467D01*
X229092218Y-70722470D01*
X229256079Y-70831959D01*
X229256092Y-70831966D01*
X229438160Y-70907380D01*
X229438165Y-70907382D01*
X229438169Y-70907382D01*
X229438170Y-70907383D01*
X229631456Y-70945831D01*
X229631459Y-70945831D01*
X229828543Y-70945831D01*
X229958582Y-70919963D01*
X230021835Y-70907382D01*
X230203914Y-70831963D01*
X230367782Y-70722470D01*
X230367785Y-70722467D01*
X230416241Y-70674012D01*
X230507136Y-70583116D01*
X230507139Y-70583113D01*
X230616632Y-70419245D01*
X230692051Y-70237166D01*
X230713327Y-70130206D01*
X230730500Y-70043874D01*
X230730500Y-69846835D01*
X231500000Y-69846835D01*
X231500000Y-70043826D01*
X231538427Y-70237012D01*
X231538430Y-70237024D01*
X231613808Y-70419004D01*
X231613809Y-70419006D01*
X231637425Y-70454350D01*
X232017037Y-70074739D01*
X232034075Y-70138324D01*
X232099901Y-70252338D01*
X232192993Y-70345430D01*
X232307007Y-70411256D01*
X232370590Y-70428293D01*
X231990979Y-70807903D01*
X232026328Y-70831523D01*
X232208306Y-70906900D01*
X232208318Y-70906903D01*
X232401504Y-70945330D01*
X232401508Y-70945331D01*
X232598492Y-70945331D01*
X232598495Y-70945330D01*
X232791681Y-70906903D01*
X232791693Y-70906900D01*
X232973676Y-70831521D01*
X232973680Y-70831518D01*
X233009019Y-70807904D01*
X233009020Y-70807903D01*
X232629410Y-70428293D01*
X232692993Y-70411256D01*
X232807007Y-70345430D01*
X232900099Y-70252338D01*
X232965925Y-70138324D01*
X232982962Y-70074740D01*
X233362572Y-70454351D01*
X233362573Y-70454350D01*
X233386187Y-70419011D01*
X233386190Y-70419007D01*
X233461569Y-70237024D01*
X233461572Y-70237012D01*
X233499989Y-70043874D01*
X234269499Y-70043874D01*
X234307947Y-70237160D01*
X234307950Y-70237170D01*
X234383364Y-70419238D01*
X234383371Y-70419251D01*
X234492860Y-70583112D01*
X234492863Y-70583116D01*
X234632214Y-70722467D01*
X234632218Y-70722470D01*
X234796079Y-70831959D01*
X234796092Y-70831966D01*
X234978160Y-70907380D01*
X234978165Y-70907382D01*
X234978169Y-70907382D01*
X234978170Y-70907383D01*
X235171456Y-70945831D01*
X235171459Y-70945831D01*
X235368543Y-70945831D01*
X235498582Y-70919963D01*
X235561835Y-70907382D01*
X235743914Y-70831963D01*
X235907782Y-70722470D01*
X236047139Y-70583113D01*
X236156632Y-70419245D01*
X236232051Y-70237166D01*
X236253327Y-70130206D01*
X236270500Y-70043874D01*
X236270500Y-69846787D01*
X236232052Y-69653501D01*
X236232051Y-69653500D01*
X236232051Y-69653496D01*
X236223430Y-69632683D01*
X236156635Y-69471423D01*
X236156628Y-69471410D01*
X236047139Y-69307549D01*
X236047136Y-69307545D01*
X235907785Y-69168194D01*
X235907781Y-69168191D01*
X235844006Y-69125578D01*
X237039500Y-69125578D01*
X237039500Y-70765083D01*
X237051131Y-70823560D01*
X237051132Y-70823561D01*
X237095447Y-70889883D01*
X237161769Y-70934198D01*
X237161770Y-70934199D01*
X237220247Y-70945830D01*
X237220250Y-70945831D01*
X237220252Y-70945831D01*
X238859750Y-70945831D01*
X238859751Y-70945830D01*
X238874568Y-70942883D01*
X238918229Y-70934199D01*
X238918229Y-70934198D01*
X238918231Y-70934198D01*
X238984552Y-70889883D01*
X239028867Y-70823562D01*
X239028867Y-70823560D01*
X239028868Y-70823560D01*
X239040499Y-70765083D01*
X239040500Y-70765081D01*
X239040500Y-69125580D01*
X239040499Y-69125578D01*
X239028868Y-69067101D01*
X239028867Y-69067100D01*
X238984552Y-69000778D01*
X238918230Y-68956463D01*
X238918229Y-68956462D01*
X238859752Y-68944831D01*
X238859748Y-68944831D01*
X237220252Y-68944831D01*
X237220247Y-68944831D01*
X237161770Y-68956462D01*
X237161769Y-68956463D01*
X237095447Y-69000778D01*
X237051132Y-69067100D01*
X237051131Y-69067101D01*
X237039500Y-69125578D01*
X235844006Y-69125578D01*
X235743920Y-69058702D01*
X235743907Y-69058695D01*
X235561839Y-68983281D01*
X235561829Y-68983278D01*
X235368543Y-68944831D01*
X235368541Y-68944831D01*
X235171459Y-68944831D01*
X235171457Y-68944831D01*
X234978170Y-68983278D01*
X234978160Y-68983281D01*
X234796092Y-69058695D01*
X234796079Y-69058702D01*
X234632218Y-69168191D01*
X234632214Y-69168194D01*
X234492863Y-69307545D01*
X234492860Y-69307549D01*
X234383371Y-69471410D01*
X234383364Y-69471423D01*
X234307950Y-69653491D01*
X234307947Y-69653501D01*
X234269500Y-69846787D01*
X234269500Y-69846790D01*
X234269500Y-70043872D01*
X234269500Y-70043874D01*
X234269499Y-70043874D01*
X233499989Y-70043874D01*
X233499999Y-70043826D01*
X233500000Y-70043823D01*
X233500000Y-69846838D01*
X233499999Y-69846836D01*
X233461572Y-69653649D01*
X233461569Y-69653637D01*
X233386192Y-69471659D01*
X233362572Y-69436310D01*
X232982962Y-69815920D01*
X232965925Y-69752338D01*
X232900099Y-69638324D01*
X232807007Y-69545232D01*
X232692993Y-69479406D01*
X232629409Y-69462368D01*
X233009020Y-69082757D01*
X232973675Y-69059140D01*
X232973673Y-69059139D01*
X232791693Y-68983761D01*
X232791681Y-68983758D01*
X232598495Y-68945331D01*
X232401504Y-68945331D01*
X232208318Y-68983758D01*
X232208310Y-68983760D01*
X232026325Y-69059140D01*
X232026318Y-69059144D01*
X231990979Y-69082757D01*
X231990978Y-69082757D01*
X232370590Y-69462368D01*
X232307007Y-69479406D01*
X232192993Y-69545232D01*
X232099901Y-69638324D01*
X232034075Y-69752338D01*
X232017037Y-69815921D01*
X231637426Y-69436309D01*
X231637426Y-69436310D01*
X231613813Y-69471649D01*
X231613809Y-69471656D01*
X231538429Y-69653641D01*
X231538427Y-69653649D01*
X231500000Y-69846835D01*
X230730500Y-69846835D01*
X230730500Y-69846787D01*
X230692052Y-69653501D01*
X230692051Y-69653500D01*
X230692051Y-69653496D01*
X230683430Y-69632683D01*
X230616635Y-69471423D01*
X230616628Y-69471410D01*
X230507139Y-69307549D01*
X230507136Y-69307545D01*
X230367785Y-69168194D01*
X230367781Y-69168191D01*
X230203920Y-69058702D01*
X230203907Y-69058695D01*
X230021839Y-68983281D01*
X230021829Y-68983278D01*
X229828543Y-68944831D01*
X229828541Y-68944831D01*
X229631459Y-68944831D01*
X229631457Y-68944831D01*
X229438170Y-68983278D01*
X229438160Y-68983281D01*
X229256092Y-69058695D01*
X229256079Y-69058702D01*
X229092218Y-69168191D01*
X229092214Y-69168194D01*
X228952863Y-69307545D01*
X228952860Y-69307549D01*
X228843371Y-69471410D01*
X228843364Y-69471423D01*
X228767950Y-69653491D01*
X228767947Y-69653501D01*
X228729500Y-69846787D01*
X228729500Y-69846790D01*
X228729500Y-70043872D01*
X228729500Y-70043874D01*
X228729499Y-70043874D01*
X227960500Y-70043874D01*
X227960500Y-69846787D01*
X227922052Y-69653501D01*
X227922051Y-69653500D01*
X227922051Y-69653496D01*
X227913430Y-69632683D01*
X227846635Y-69471423D01*
X227846628Y-69471410D01*
X227737139Y-69307549D01*
X227737136Y-69307545D01*
X227597785Y-69168194D01*
X227597781Y-69168191D01*
X227433920Y-69058702D01*
X227433907Y-69058695D01*
X227251839Y-68983281D01*
X227251829Y-68983278D01*
X227058543Y-68944831D01*
X227058541Y-68944831D01*
X226861459Y-68944831D01*
X226861457Y-68944831D01*
X226668170Y-68983278D01*
X226668160Y-68983281D01*
X226486092Y-69058695D01*
X226486079Y-69058702D01*
X226322218Y-69168191D01*
X226322214Y-69168194D01*
X226182863Y-69307545D01*
X226182860Y-69307549D01*
X226073371Y-69471410D01*
X226073364Y-69471423D01*
X225997950Y-69653491D01*
X225997947Y-69653501D01*
X225959500Y-69846787D01*
X225959500Y-69846790D01*
X225959500Y-70043872D01*
X225959500Y-70043874D01*
X225959499Y-70043874D01*
X182153959Y-70043874D01*
X182122091Y-66764294D01*
X182141123Y-66697068D01*
X182193480Y-66650802D01*
X182262539Y-66640187D01*
X182326373Y-66668593D01*
X182329025Y-66670921D01*
X182329136Y-66671012D01*
X182602598Y-66895436D01*
X182896741Y-67091976D01*
X182896750Y-67091981D01*
X182896752Y-67091982D01*
X183208723Y-67258735D01*
X183208725Y-67258735D01*
X183208731Y-67258739D01*
X183535565Y-67394118D01*
X183874095Y-67496809D01*
X183874101Y-67496810D01*
X183874104Y-67496811D01*
X183874115Y-67496814D01*
X184068848Y-67535548D01*
X184221060Y-67565825D01*
X184573119Y-67600500D01*
X184573122Y-67600500D01*
X184926878Y-67600500D01*
X184926881Y-67600500D01*
X185278940Y-67565825D01*
X185450679Y-67531663D01*
X185625884Y-67496814D01*
X185625895Y-67496811D01*
X185625895Y-67496810D01*
X185625905Y-67496809D01*
X185964435Y-67394118D01*
X186291269Y-67258739D01*
X186603259Y-67091976D01*
X186897402Y-66895436D01*
X187170864Y-66671012D01*
X187421012Y-66420864D01*
X187645436Y-66147402D01*
X187841976Y-65853259D01*
X188008739Y-65541269D01*
X188144118Y-65214435D01*
X188246809Y-64875905D01*
X188246811Y-64875895D01*
X188246814Y-64875884D01*
X188311536Y-64550500D01*
X188315825Y-64528940D01*
X188350500Y-64176881D01*
X188350500Y-64073119D01*
X203399500Y-64073119D01*
X203399500Y-64426881D01*
X203408652Y-64519799D01*
X203434173Y-64778929D01*
X203434176Y-64778946D01*
X203503185Y-65125884D01*
X203503188Y-65125895D01*
X203605882Y-65464436D01*
X203701610Y-65695543D01*
X203728021Y-65759306D01*
X203741262Y-65791271D01*
X203741264Y-65791276D01*
X203908017Y-66103247D01*
X203908028Y-66103265D01*
X204104558Y-66397393D01*
X204104568Y-66397407D01*
X204328992Y-66670869D01*
X204579130Y-66921007D01*
X204579135Y-66921011D01*
X204579136Y-66921012D01*
X204852598Y-67145436D01*
X205146741Y-67341976D01*
X205146750Y-67341981D01*
X205146752Y-67341982D01*
X205458723Y-67508735D01*
X205458725Y-67508735D01*
X205458731Y-67508739D01*
X205785565Y-67644118D01*
X206124095Y-67746809D01*
X206124101Y-67746810D01*
X206124104Y-67746811D01*
X206124115Y-67746814D01*
X206341674Y-67790088D01*
X206471060Y-67815825D01*
X206823119Y-67850500D01*
X206823122Y-67850500D01*
X207176878Y-67850500D01*
X207176881Y-67850500D01*
X207528940Y-67815825D01*
X207700679Y-67781663D01*
X207875884Y-67746814D01*
X207875895Y-67746811D01*
X207875895Y-67746810D01*
X207875905Y-67746809D01*
X208214435Y-67644118D01*
X208541269Y-67508739D01*
X208853259Y-67341976D01*
X209147402Y-67145436D01*
X209372006Y-66961109D01*
X217799500Y-66961109D01*
X217799500Y-67249552D01*
X217799501Y-67249569D01*
X217837149Y-67535537D01*
X217837150Y-67535542D01*
X217837151Y-67535548D01*
X217911809Y-67814175D01*
X217911814Y-67814191D01*
X218022191Y-68080667D01*
X218022199Y-68080683D01*
X218166420Y-68330479D01*
X218166431Y-68330495D01*
X218342024Y-68559333D01*
X218342030Y-68559340D01*
X218545990Y-68763300D01*
X218545996Y-68763305D01*
X218774844Y-68938906D01*
X218774851Y-68938910D01*
X219024647Y-69083131D01*
X219024663Y-69083139D01*
X219291139Y-69193516D01*
X219291145Y-69193517D01*
X219291155Y-69193522D01*
X219569783Y-69268180D01*
X219855772Y-69305831D01*
X219855779Y-69305831D01*
X220144221Y-69305831D01*
X220144228Y-69305831D01*
X220430217Y-69268180D01*
X220708845Y-69193522D01*
X220708857Y-69193516D01*
X220708860Y-69193516D01*
X220975336Y-69083139D01*
X220975339Y-69083137D01*
X220975345Y-69083135D01*
X221225156Y-68938906D01*
X221454004Y-68763305D01*
X221657974Y-68559335D01*
X221833575Y-68330487D01*
X221977804Y-68080676D01*
X221979695Y-68076112D01*
X222088185Y-67814191D01*
X222088185Y-67814188D01*
X222088191Y-67814176D01*
X222162849Y-67535548D01*
X222200500Y-67249559D01*
X222200500Y-67203874D01*
X227344499Y-67203874D01*
X227382947Y-67397160D01*
X227382950Y-67397170D01*
X227458364Y-67579238D01*
X227458371Y-67579251D01*
X227567860Y-67743112D01*
X227567863Y-67743116D01*
X227707214Y-67882467D01*
X227707218Y-67882470D01*
X227871079Y-67991959D01*
X227871092Y-67991966D01*
X228053160Y-68067380D01*
X228053165Y-68067382D01*
X228053169Y-68067382D01*
X228053170Y-68067383D01*
X228246456Y-68105831D01*
X228246459Y-68105831D01*
X228443543Y-68105831D01*
X228573582Y-68079963D01*
X228636835Y-68067382D01*
X228818914Y-67991963D01*
X228982782Y-67882470D01*
X229122139Y-67743113D01*
X229231632Y-67579245D01*
X229232724Y-67576610D01*
X229265778Y-67496809D01*
X229307051Y-67397166D01*
X229336414Y-67249552D01*
X229345500Y-67203874D01*
X230114499Y-67203874D01*
X230152947Y-67397160D01*
X230152950Y-67397170D01*
X230228364Y-67579238D01*
X230228371Y-67579251D01*
X230337860Y-67743112D01*
X230337863Y-67743116D01*
X230477214Y-67882467D01*
X230477218Y-67882470D01*
X230641079Y-67991959D01*
X230641092Y-67991966D01*
X230823160Y-68067380D01*
X230823165Y-68067382D01*
X230823169Y-68067382D01*
X230823170Y-68067383D01*
X231016456Y-68105831D01*
X231016459Y-68105831D01*
X231213543Y-68105831D01*
X231343582Y-68079963D01*
X231406835Y-68067382D01*
X231588914Y-67991963D01*
X231752782Y-67882470D01*
X231892139Y-67743113D01*
X232001632Y-67579245D01*
X232002724Y-67576610D01*
X232035778Y-67496809D01*
X232077051Y-67397166D01*
X232106414Y-67249552D01*
X232115500Y-67203874D01*
X232884499Y-67203874D01*
X232922947Y-67397160D01*
X232922950Y-67397170D01*
X232998364Y-67579238D01*
X232998371Y-67579251D01*
X233107860Y-67743112D01*
X233107863Y-67743116D01*
X233247214Y-67882467D01*
X233247218Y-67882470D01*
X233411079Y-67991959D01*
X233411092Y-67991966D01*
X233593160Y-68067380D01*
X233593165Y-68067382D01*
X233593169Y-68067382D01*
X233593170Y-68067383D01*
X233786456Y-68105831D01*
X233786459Y-68105831D01*
X233983543Y-68105831D01*
X234113582Y-68079963D01*
X234176835Y-68067382D01*
X234358914Y-67991963D01*
X234522782Y-67882470D01*
X234662139Y-67743113D01*
X234771632Y-67579245D01*
X234772724Y-67576610D01*
X234805778Y-67496809D01*
X234847051Y-67397166D01*
X234876414Y-67249552D01*
X234885500Y-67203874D01*
X235654499Y-67203874D01*
X235692947Y-67397160D01*
X235692950Y-67397170D01*
X235768364Y-67579238D01*
X235768371Y-67579251D01*
X235877860Y-67743112D01*
X235877863Y-67743116D01*
X236017214Y-67882467D01*
X236017218Y-67882470D01*
X236181079Y-67991959D01*
X236181092Y-67991966D01*
X236363160Y-68067380D01*
X236363165Y-68067382D01*
X236363169Y-68067382D01*
X236363170Y-68067383D01*
X236556456Y-68105831D01*
X236556459Y-68105831D01*
X236753543Y-68105831D01*
X236883582Y-68079963D01*
X236946835Y-68067382D01*
X237128914Y-67991963D01*
X237292782Y-67882470D01*
X237432139Y-67743113D01*
X237541632Y-67579245D01*
X237542724Y-67576610D01*
X237575778Y-67496809D01*
X237617051Y-67397166D01*
X237646414Y-67249552D01*
X237655500Y-67203874D01*
X237655500Y-67006788D01*
X237650417Y-66981237D01*
X237650417Y-66981235D01*
X237646414Y-66961109D01*
X242799500Y-66961109D01*
X242799500Y-67249552D01*
X242799501Y-67249569D01*
X242837149Y-67535537D01*
X242837150Y-67535542D01*
X242837151Y-67535548D01*
X242911809Y-67814175D01*
X242911814Y-67814191D01*
X243022191Y-68080667D01*
X243022199Y-68080683D01*
X243166420Y-68330479D01*
X243166431Y-68330495D01*
X243342024Y-68559333D01*
X243342030Y-68559340D01*
X243545990Y-68763300D01*
X243545996Y-68763305D01*
X243774844Y-68938906D01*
X243774851Y-68938910D01*
X244024647Y-69083131D01*
X244024663Y-69083139D01*
X244291139Y-69193516D01*
X244291145Y-69193517D01*
X244291155Y-69193522D01*
X244569783Y-69268180D01*
X244855772Y-69305831D01*
X244855779Y-69305831D01*
X245144221Y-69305831D01*
X245144228Y-69305831D01*
X245430217Y-69268180D01*
X245708845Y-69193522D01*
X245708857Y-69193516D01*
X245708860Y-69193516D01*
X245975336Y-69083139D01*
X245975339Y-69083137D01*
X245975345Y-69083135D01*
X246225156Y-68938906D01*
X246454004Y-68763305D01*
X246657974Y-68559335D01*
X246833575Y-68330487D01*
X246977804Y-68080676D01*
X246979695Y-68076112D01*
X247088185Y-67814191D01*
X247088185Y-67814188D01*
X247088191Y-67814176D01*
X247162849Y-67535548D01*
X247200500Y-67249559D01*
X247200500Y-66961103D01*
X247162849Y-66675114D01*
X247088191Y-66396486D01*
X247088186Y-66396476D01*
X247088185Y-66396470D01*
X246977808Y-66129994D01*
X246977800Y-66129978D01*
X246833579Y-65880182D01*
X246833575Y-65880175D01*
X246783015Y-65814284D01*
X246657975Y-65651328D01*
X246657969Y-65651321D01*
X246454009Y-65447361D01*
X246454002Y-65447355D01*
X246225164Y-65271762D01*
X246225162Y-65271760D01*
X246225156Y-65271756D01*
X246225151Y-65271753D01*
X246225148Y-65271751D01*
X245975352Y-65127530D01*
X245975336Y-65127522D01*
X245708860Y-65017145D01*
X245708848Y-65017141D01*
X245708845Y-65017140D01*
X245430217Y-64942482D01*
X245430211Y-64942481D01*
X245430206Y-64942480D01*
X245144238Y-64904832D01*
X245144233Y-64904831D01*
X245144228Y-64904831D01*
X244855772Y-64904831D01*
X244855766Y-64904831D01*
X244855761Y-64904832D01*
X244569793Y-64942480D01*
X244569786Y-64942481D01*
X244569783Y-64942482D01*
X244433395Y-64979027D01*
X244291155Y-65017140D01*
X244291139Y-65017145D01*
X244024663Y-65127522D01*
X244024647Y-65127530D01*
X243774851Y-65271751D01*
X243774835Y-65271762D01*
X243545997Y-65447355D01*
X243545990Y-65447361D01*
X243342030Y-65651321D01*
X243342024Y-65651328D01*
X243166431Y-65880166D01*
X243166420Y-65880182D01*
X243022199Y-66129978D01*
X243022191Y-66129994D01*
X242911814Y-66396470D01*
X242911809Y-66396486D01*
X242838252Y-66671007D01*
X242837152Y-66675111D01*
X242837149Y-66675124D01*
X242799501Y-66961092D01*
X242799500Y-66961109D01*
X237646414Y-66961109D01*
X237617052Y-66813503D01*
X237617052Y-66813501D01*
X237617051Y-66813496D01*
X237574876Y-66711675D01*
X237541635Y-66631423D01*
X237541628Y-66631410D01*
X237432139Y-66467549D01*
X237432136Y-66467545D01*
X237292785Y-66328194D01*
X237292781Y-66328191D01*
X237128920Y-66218702D01*
X237128907Y-66218695D01*
X236946839Y-66143281D01*
X236946829Y-66143278D01*
X236753543Y-66104831D01*
X236753541Y-66104831D01*
X236556459Y-66104831D01*
X236556457Y-66104831D01*
X236363170Y-66143278D01*
X236363160Y-66143281D01*
X236181092Y-66218695D01*
X236181079Y-66218702D01*
X236017218Y-66328191D01*
X236017214Y-66328194D01*
X235877863Y-66467545D01*
X235877860Y-66467549D01*
X235768371Y-66631410D01*
X235768364Y-66631423D01*
X235692950Y-66813491D01*
X235692947Y-66813501D01*
X235654500Y-67006787D01*
X235654500Y-67006788D01*
X235654500Y-67006790D01*
X235654500Y-67203872D01*
X235654500Y-67203874D01*
X235654499Y-67203874D01*
X234885500Y-67203874D01*
X234885500Y-67006787D01*
X234847052Y-66813501D01*
X234847051Y-66813500D01*
X234847051Y-66813496D01*
X234804876Y-66711675D01*
X234771635Y-66631423D01*
X234771628Y-66631410D01*
X234662139Y-66467549D01*
X234662136Y-66467545D01*
X234522785Y-66328194D01*
X234522781Y-66328191D01*
X234358920Y-66218702D01*
X234358907Y-66218695D01*
X234176839Y-66143281D01*
X234176829Y-66143278D01*
X233983543Y-66104831D01*
X233983541Y-66104831D01*
X233786459Y-66104831D01*
X233786457Y-66104831D01*
X233593170Y-66143278D01*
X233593160Y-66143281D01*
X233411092Y-66218695D01*
X233411079Y-66218702D01*
X233247218Y-66328191D01*
X233247214Y-66328194D01*
X233107863Y-66467545D01*
X233107860Y-66467549D01*
X232998371Y-66631410D01*
X232998364Y-66631423D01*
X232922950Y-66813491D01*
X232922947Y-66813501D01*
X232884500Y-67006787D01*
X232884500Y-67006788D01*
X232884500Y-67006790D01*
X232884500Y-67203872D01*
X232884500Y-67203874D01*
X232884499Y-67203874D01*
X232115500Y-67203874D01*
X232115500Y-67006787D01*
X232077052Y-66813501D01*
X232077051Y-66813500D01*
X232077051Y-66813496D01*
X232034876Y-66711675D01*
X232001635Y-66631423D01*
X232001628Y-66631410D01*
X231892139Y-66467549D01*
X231892136Y-66467545D01*
X231752785Y-66328194D01*
X231752781Y-66328191D01*
X231588920Y-66218702D01*
X231588907Y-66218695D01*
X231406839Y-66143281D01*
X231406829Y-66143278D01*
X231213543Y-66104831D01*
X231213541Y-66104831D01*
X231016459Y-66104831D01*
X231016457Y-66104831D01*
X230823170Y-66143278D01*
X230823160Y-66143281D01*
X230641092Y-66218695D01*
X230641079Y-66218702D01*
X230477218Y-66328191D01*
X230477214Y-66328194D01*
X230337863Y-66467545D01*
X230337860Y-66467549D01*
X230228371Y-66631410D01*
X230228364Y-66631423D01*
X230152950Y-66813491D01*
X230152947Y-66813501D01*
X230114500Y-67006787D01*
X230114500Y-67006788D01*
X230114500Y-67006790D01*
X230114500Y-67203872D01*
X230114500Y-67203874D01*
X230114499Y-67203874D01*
X229345500Y-67203874D01*
X229345500Y-67006787D01*
X229307052Y-66813501D01*
X229307051Y-66813500D01*
X229307051Y-66813496D01*
X229264876Y-66711675D01*
X229231635Y-66631423D01*
X229231628Y-66631410D01*
X229122139Y-66467549D01*
X229122136Y-66467545D01*
X228982785Y-66328194D01*
X228982781Y-66328191D01*
X228818920Y-66218702D01*
X228818907Y-66218695D01*
X228636839Y-66143281D01*
X228636829Y-66143278D01*
X228443543Y-66104831D01*
X228443541Y-66104831D01*
X228246459Y-66104831D01*
X228246457Y-66104831D01*
X228053170Y-66143278D01*
X228053160Y-66143281D01*
X227871092Y-66218695D01*
X227871079Y-66218702D01*
X227707218Y-66328191D01*
X227707214Y-66328194D01*
X227567863Y-66467545D01*
X227567860Y-66467549D01*
X227458371Y-66631410D01*
X227458364Y-66631423D01*
X227382950Y-66813491D01*
X227382947Y-66813501D01*
X227344500Y-67006787D01*
X227344500Y-67006788D01*
X227344500Y-67006790D01*
X227344500Y-67203872D01*
X227344500Y-67203874D01*
X227344499Y-67203874D01*
X222200500Y-67203874D01*
X222200500Y-66961103D01*
X222162849Y-66675114D01*
X222088191Y-66396486D01*
X222088186Y-66396476D01*
X222088185Y-66396470D01*
X221977808Y-66129994D01*
X221977800Y-66129978D01*
X221833579Y-65880182D01*
X221833575Y-65880175D01*
X221783015Y-65814284D01*
X221657975Y-65651328D01*
X221657969Y-65651321D01*
X221454009Y-65447361D01*
X221454002Y-65447355D01*
X221225164Y-65271762D01*
X221225162Y-65271760D01*
X221225156Y-65271756D01*
X221225151Y-65271753D01*
X221225148Y-65271751D01*
X220975352Y-65127530D01*
X220975336Y-65127522D01*
X220708860Y-65017145D01*
X220708848Y-65017141D01*
X220708845Y-65017140D01*
X220430217Y-64942482D01*
X220430211Y-64942481D01*
X220430206Y-64942480D01*
X220144238Y-64904832D01*
X220144233Y-64904831D01*
X220144228Y-64904831D01*
X219855772Y-64904831D01*
X219855766Y-64904831D01*
X219855761Y-64904832D01*
X219569793Y-64942480D01*
X219569786Y-64942481D01*
X219569783Y-64942482D01*
X219433395Y-64979027D01*
X219291155Y-65017140D01*
X219291139Y-65017145D01*
X219024663Y-65127522D01*
X219024647Y-65127530D01*
X218774851Y-65271751D01*
X218774835Y-65271762D01*
X218545997Y-65447355D01*
X218545990Y-65447361D01*
X218342030Y-65651321D01*
X218342024Y-65651328D01*
X218166431Y-65880166D01*
X218166420Y-65880182D01*
X218022199Y-66129978D01*
X218022191Y-66129994D01*
X217911814Y-66396470D01*
X217911809Y-66396486D01*
X217838252Y-66671007D01*
X217837152Y-66675111D01*
X217837149Y-66675124D01*
X217799501Y-66961092D01*
X217799500Y-66961109D01*
X209372006Y-66961109D01*
X209420864Y-66921012D01*
X209446445Y-66895431D01*
X209472514Y-66869363D01*
X209671007Y-66670869D01*
X209671012Y-66670864D01*
X209895436Y-66397402D01*
X210091976Y-66103259D01*
X210258739Y-65791269D01*
X210394118Y-65464435D01*
X210496809Y-65125905D01*
X210496811Y-65125895D01*
X210496814Y-65125884D01*
X210540783Y-64904832D01*
X210565825Y-64778940D01*
X210600500Y-64426881D01*
X210600500Y-64073119D01*
X210565825Y-63721060D01*
X210537235Y-63577328D01*
X210496814Y-63374115D01*
X210496811Y-63374104D01*
X210496810Y-63374101D01*
X210496809Y-63374095D01*
X210394118Y-63035565D01*
X210258739Y-62708731D01*
X210220887Y-62637916D01*
X210091982Y-62396752D01*
X210091981Y-62396750D01*
X210091976Y-62396741D01*
X209895436Y-62102598D01*
X209671012Y-61829136D01*
X209671011Y-61829135D01*
X209671007Y-61829130D01*
X209420869Y-61578992D01*
X209147407Y-61354568D01*
X209147406Y-61354567D01*
X209147402Y-61354564D01*
X208853259Y-61158024D01*
X208853254Y-61158021D01*
X208853247Y-61158017D01*
X208541276Y-60991264D01*
X208541271Y-60991262D01*
X208466971Y-60960486D01*
X208340317Y-60908024D01*
X208214436Y-60855882D01*
X207875895Y-60753188D01*
X207875884Y-60753185D01*
X207528946Y-60684176D01*
X207528929Y-60684173D01*
X207262700Y-60657952D01*
X207176881Y-60649500D01*
X206823119Y-60649500D01*
X206743748Y-60657317D01*
X206471070Y-60684173D01*
X206471053Y-60684176D01*
X206124115Y-60753185D01*
X206124104Y-60753188D01*
X205785563Y-60855882D01*
X205458728Y-60991262D01*
X205458723Y-60991264D01*
X205146752Y-61158017D01*
X205146734Y-61158028D01*
X204852606Y-61354558D01*
X204852592Y-61354568D01*
X204579130Y-61578992D01*
X204328992Y-61829130D01*
X204104568Y-62102592D01*
X204104558Y-62102606D01*
X203908028Y-62396734D01*
X203908017Y-62396752D01*
X203741264Y-62708723D01*
X203741262Y-62708728D01*
X203605882Y-63035563D01*
X203503188Y-63374104D01*
X203503185Y-63374115D01*
X203434176Y-63721053D01*
X203434173Y-63721070D01*
X203413979Y-63926112D01*
X203399500Y-64073119D01*
X188350500Y-64073119D01*
X188350500Y-63823119D01*
X188315825Y-63471060D01*
X188277048Y-63276114D01*
X188246814Y-63124115D01*
X188246811Y-63124104D01*
X188246810Y-63124101D01*
X188246809Y-63124095D01*
X188144118Y-62785565D01*
X188008739Y-62458731D01*
X187975610Y-62396752D01*
X187841982Y-62146752D01*
X187841981Y-62146750D01*
X187841976Y-62146741D01*
X187645436Y-61852598D01*
X187421012Y-61579136D01*
X187421011Y-61579135D01*
X187421007Y-61579130D01*
X187170869Y-61328992D01*
X186897407Y-61104568D01*
X186897406Y-61104567D01*
X186897402Y-61104564D01*
X186603259Y-60908024D01*
X186603254Y-60908021D01*
X186603247Y-60908017D01*
X186291276Y-60741264D01*
X186291271Y-60741262D01*
X185964436Y-60605882D01*
X185625895Y-60503188D01*
X185625884Y-60503185D01*
X185278946Y-60434176D01*
X185278929Y-60434173D01*
X185012700Y-60407952D01*
X184926881Y-60399500D01*
X184573119Y-60399500D01*
X184493748Y-60407317D01*
X184221070Y-60434173D01*
X184221053Y-60434176D01*
X183874115Y-60503185D01*
X183874104Y-60503188D01*
X183535563Y-60605882D01*
X183208728Y-60741262D01*
X183208723Y-60741264D01*
X182896752Y-60908017D01*
X182896734Y-60908028D01*
X182602606Y-61104558D01*
X182602592Y-61104568D01*
X182329130Y-61328992D01*
X182280579Y-61377543D01*
X182219256Y-61411027D01*
X182149564Y-61406042D01*
X182093631Y-61364170D01*
X182069215Y-61298706D01*
X182068906Y-61291105D01*
X182056756Y-60040691D01*
X232949500Y-60040691D01*
X232949500Y-60159309D01*
X232980201Y-60273886D01*
X233039511Y-60376613D01*
X233123387Y-60460489D01*
X233226114Y-60519799D01*
X233340691Y-60550500D01*
X233340694Y-60550500D01*
X233459306Y-60550500D01*
X233459309Y-60550500D01*
X233573886Y-60519799D01*
X233676613Y-60460489D01*
X233760489Y-60376613D01*
X233819799Y-60273886D01*
X233850500Y-60159309D01*
X233850500Y-60040691D01*
X233819799Y-59926114D01*
X233760489Y-59823387D01*
X233676613Y-59739511D01*
X233573886Y-59680201D01*
X233459309Y-59649500D01*
X233340691Y-59649500D01*
X233226114Y-59680201D01*
X233226112Y-59680201D01*
X233226112Y-59680202D01*
X233123387Y-59739511D01*
X233123384Y-59739513D01*
X233039513Y-59823384D01*
X233039511Y-59823387D01*
X232980201Y-59926114D01*
X232949500Y-60040691D01*
X182056756Y-60040691D01*
X182051411Y-59490691D01*
X236449500Y-59490691D01*
X236449500Y-59609309D01*
X236480201Y-59723886D01*
X236539511Y-59826613D01*
X236623387Y-59910489D01*
X236726114Y-59969799D01*
X236840691Y-60000500D01*
X236840694Y-60000500D01*
X236959306Y-60000500D01*
X236959309Y-60000500D01*
X237073886Y-59969799D01*
X237176613Y-59910489D01*
X237260489Y-59826613D01*
X237319799Y-59723886D01*
X237350500Y-59609309D01*
X237350500Y-59490691D01*
X237319799Y-59376114D01*
X237260489Y-59273387D01*
X237176613Y-59189511D01*
X237073886Y-59130201D01*
X236959309Y-59099500D01*
X236840691Y-59099500D01*
X236726114Y-59130201D01*
X236726112Y-59130201D01*
X236726112Y-59130202D01*
X236623387Y-59189511D01*
X236623384Y-59189513D01*
X236539513Y-59273384D01*
X236539511Y-59273387D01*
X236483717Y-59370025D01*
X236480201Y-59376114D01*
X236449500Y-59490691D01*
X182051411Y-59490691D01*
X182045687Y-58901612D01*
X182042423Y-58565691D01*
X251049500Y-58565691D01*
X251049500Y-58684309D01*
X251080201Y-58798886D01*
X251139511Y-58901613D01*
X251223387Y-58985489D01*
X251326114Y-59044799D01*
X251440691Y-59075500D01*
X251440694Y-59075500D01*
X251559306Y-59075500D01*
X251559309Y-59075500D01*
X251673886Y-59044799D01*
X251776613Y-58985489D01*
X251860489Y-58901613D01*
X251919799Y-58798886D01*
X251950500Y-58684309D01*
X251950500Y-58565691D01*
X251919799Y-58451114D01*
X251860489Y-58348387D01*
X251776613Y-58264511D01*
X251673886Y-58205201D01*
X251559309Y-58174500D01*
X251440691Y-58174500D01*
X251326114Y-58205201D01*
X251326112Y-58205201D01*
X251326112Y-58205202D01*
X251223387Y-58264511D01*
X251223384Y-58264513D01*
X251139513Y-58348384D01*
X251139511Y-58348387D01*
X251080201Y-58451114D01*
X251049500Y-58565691D01*
X182042423Y-58565691D01*
X182042356Y-58558769D01*
X182026875Y-56965691D01*
X251149500Y-56965691D01*
X251149500Y-57084309D01*
X251180201Y-57198886D01*
X251239511Y-57301613D01*
X251323387Y-57385489D01*
X251426114Y-57444799D01*
X251540691Y-57475500D01*
X251540694Y-57475500D01*
X251659306Y-57475500D01*
X251659309Y-57475500D01*
X251773886Y-57444799D01*
X251876613Y-57385489D01*
X251960489Y-57301613D01*
X252019799Y-57198886D01*
X252050500Y-57084309D01*
X252050500Y-56965691D01*
X252019799Y-56851114D01*
X251960489Y-56748387D01*
X251876613Y-56664511D01*
X251773886Y-56605201D01*
X251659309Y-56574500D01*
X251540691Y-56574500D01*
X251426114Y-56605201D01*
X251426112Y-56605201D01*
X251426112Y-56605202D01*
X251323387Y-56664511D01*
X251323384Y-56664513D01*
X251239513Y-56748384D01*
X251239511Y-56748387D01*
X251180201Y-56851114D01*
X251149500Y-56965691D01*
X182026875Y-56965691D01*
X182026808Y-56958769D01*
X182011911Y-55425705D01*
X182030943Y-55358477D01*
X182083300Y-55312211D01*
X182135905Y-55300500D01*
X219960438Y-55300500D01*
X265575154Y-55300500D01*
X265642193Y-55320185D01*
G37*
%TD.AperFunction*%
%TD*%
M02*
