%TF.GenerationSoftware,KiCad,Pcbnew,9.0.0*%
%TF.CreationDate,2025-05-29T20:25:46-04:00*%
%TF.ProjectId,distrabution_controler,64697374-7261-4627-9574-696f6e5f636f,rev?*%
%TF.SameCoordinates,Original*%
%TF.FileFunction,Legend,Bot*%
%TF.FilePolarity,Positive*%
%FSLAX46Y46*%
G04 Gerber Fmt 4.6, Leading zero omitted, Abs format (unit mm)*
G04 Created by KiCad (PCBNEW 9.0.0) date 2025-05-29 20:25:46*
%MOMM*%
%LPD*%
G01*
G04 APERTURE LIST*
%ADD10C,0.150000*%
%ADD11C,0.120000*%
G04 APERTURE END LIST*
D10*
X108184819Y-121988095D02*
X108994342Y-121988095D01*
X108994342Y-121988095D02*
X109089580Y-122035714D01*
X109089580Y-122035714D02*
X109137200Y-122083333D01*
X109137200Y-122083333D02*
X109184819Y-122178571D01*
X109184819Y-122178571D02*
X109184819Y-122369047D01*
X109184819Y-122369047D02*
X109137200Y-122464285D01*
X109137200Y-122464285D02*
X109089580Y-122511904D01*
X109089580Y-122511904D02*
X108994342Y-122559523D01*
X108994342Y-122559523D02*
X108184819Y-122559523D01*
X108184819Y-123511904D02*
X108184819Y-123035714D01*
X108184819Y-123035714D02*
X108661009Y-122988095D01*
X108661009Y-122988095D02*
X108613390Y-123035714D01*
X108613390Y-123035714D02*
X108565771Y-123130952D01*
X108565771Y-123130952D02*
X108565771Y-123369047D01*
X108565771Y-123369047D02*
X108613390Y-123464285D01*
X108613390Y-123464285D02*
X108661009Y-123511904D01*
X108661009Y-123511904D02*
X108756247Y-123559523D01*
X108756247Y-123559523D02*
X108994342Y-123559523D01*
X108994342Y-123559523D02*
X109089580Y-123511904D01*
X109089580Y-123511904D02*
X109137200Y-123464285D01*
X109137200Y-123464285D02*
X109184819Y-123369047D01*
X109184819Y-123369047D02*
X109184819Y-123130952D01*
X109184819Y-123130952D02*
X109137200Y-123035714D01*
X109137200Y-123035714D02*
X109089580Y-122988095D01*
X102699819Y-92888095D02*
X103509342Y-92888095D01*
X103509342Y-92888095D02*
X103604580Y-92935714D01*
X103604580Y-92935714D02*
X103652200Y-92983333D01*
X103652200Y-92983333D02*
X103699819Y-93078571D01*
X103699819Y-93078571D02*
X103699819Y-93269047D01*
X103699819Y-93269047D02*
X103652200Y-93364285D01*
X103652200Y-93364285D02*
X103604580Y-93411904D01*
X103604580Y-93411904D02*
X103509342Y-93459523D01*
X103509342Y-93459523D02*
X102699819Y-93459523D01*
X102699819Y-94364285D02*
X102699819Y-94173809D01*
X102699819Y-94173809D02*
X102747438Y-94078571D01*
X102747438Y-94078571D02*
X102795057Y-94030952D01*
X102795057Y-94030952D02*
X102937914Y-93935714D01*
X102937914Y-93935714D02*
X103128390Y-93888095D01*
X103128390Y-93888095D02*
X103509342Y-93888095D01*
X103509342Y-93888095D02*
X103604580Y-93935714D01*
X103604580Y-93935714D02*
X103652200Y-93983333D01*
X103652200Y-93983333D02*
X103699819Y-94078571D01*
X103699819Y-94078571D02*
X103699819Y-94269047D01*
X103699819Y-94269047D02*
X103652200Y-94364285D01*
X103652200Y-94364285D02*
X103604580Y-94411904D01*
X103604580Y-94411904D02*
X103509342Y-94459523D01*
X103509342Y-94459523D02*
X103271247Y-94459523D01*
X103271247Y-94459523D02*
X103176009Y-94411904D01*
X103176009Y-94411904D02*
X103128390Y-94364285D01*
X103128390Y-94364285D02*
X103080771Y-94269047D01*
X103080771Y-94269047D02*
X103080771Y-94078571D01*
X103080771Y-94078571D02*
X103128390Y-93983333D01*
X103128390Y-93983333D02*
X103176009Y-93935714D01*
X103176009Y-93935714D02*
X103271247Y-93888095D01*
X254114285Y-99154819D02*
X254114285Y-98154819D01*
X254114285Y-98154819D02*
X253876190Y-98154819D01*
X253876190Y-98154819D02*
X253733333Y-98202438D01*
X253733333Y-98202438D02*
X253638095Y-98297676D01*
X253638095Y-98297676D02*
X253590476Y-98392914D01*
X253590476Y-98392914D02*
X253542857Y-98583390D01*
X253542857Y-98583390D02*
X253542857Y-98726247D01*
X253542857Y-98726247D02*
X253590476Y-98916723D01*
X253590476Y-98916723D02*
X253638095Y-99011961D01*
X253638095Y-99011961D02*
X253733333Y-99107200D01*
X253733333Y-99107200D02*
X253876190Y-99154819D01*
X253876190Y-99154819D02*
X254114285Y-99154819D01*
X253161904Y-98250057D02*
X253114285Y-98202438D01*
X253114285Y-98202438D02*
X253019047Y-98154819D01*
X253019047Y-98154819D02*
X252780952Y-98154819D01*
X252780952Y-98154819D02*
X252685714Y-98202438D01*
X252685714Y-98202438D02*
X252638095Y-98250057D01*
X252638095Y-98250057D02*
X252590476Y-98345295D01*
X252590476Y-98345295D02*
X252590476Y-98440533D01*
X252590476Y-98440533D02*
X252638095Y-98583390D01*
X252638095Y-98583390D02*
X253209523Y-99154819D01*
X253209523Y-99154819D02*
X252590476Y-99154819D01*
X251971428Y-98154819D02*
X251876190Y-98154819D01*
X251876190Y-98154819D02*
X251780952Y-98202438D01*
X251780952Y-98202438D02*
X251733333Y-98250057D01*
X251733333Y-98250057D02*
X251685714Y-98345295D01*
X251685714Y-98345295D02*
X251638095Y-98535771D01*
X251638095Y-98535771D02*
X251638095Y-98773866D01*
X251638095Y-98773866D02*
X251685714Y-98964342D01*
X251685714Y-98964342D02*
X251733333Y-99059580D01*
X251733333Y-99059580D02*
X251780952Y-99107200D01*
X251780952Y-99107200D02*
X251876190Y-99154819D01*
X251876190Y-99154819D02*
X251971428Y-99154819D01*
X251971428Y-99154819D02*
X252066666Y-99107200D01*
X252066666Y-99107200D02*
X252114285Y-99059580D01*
X252114285Y-99059580D02*
X252161904Y-98964342D01*
X252161904Y-98964342D02*
X252209523Y-98773866D01*
X252209523Y-98773866D02*
X252209523Y-98535771D01*
X252209523Y-98535771D02*
X252161904Y-98345295D01*
X252161904Y-98345295D02*
X252114285Y-98250057D01*
X252114285Y-98250057D02*
X252066666Y-98202438D01*
X252066666Y-98202438D02*
X251971428Y-98154819D01*
X223359580Y-110957142D02*
X223407200Y-110909523D01*
X223407200Y-110909523D02*
X223454819Y-110766666D01*
X223454819Y-110766666D02*
X223454819Y-110671428D01*
X223454819Y-110671428D02*
X223407200Y-110528571D01*
X223407200Y-110528571D02*
X223311961Y-110433333D01*
X223311961Y-110433333D02*
X223216723Y-110385714D01*
X223216723Y-110385714D02*
X223026247Y-110338095D01*
X223026247Y-110338095D02*
X222883390Y-110338095D01*
X222883390Y-110338095D02*
X222692914Y-110385714D01*
X222692914Y-110385714D02*
X222597676Y-110433333D01*
X222597676Y-110433333D02*
X222502438Y-110528571D01*
X222502438Y-110528571D02*
X222454819Y-110671428D01*
X222454819Y-110671428D02*
X222454819Y-110766666D01*
X222454819Y-110766666D02*
X222502438Y-110909523D01*
X222502438Y-110909523D02*
X222550057Y-110957142D01*
X223454819Y-111909523D02*
X223454819Y-111338095D01*
X223454819Y-111623809D02*
X222454819Y-111623809D01*
X222454819Y-111623809D02*
X222597676Y-111528571D01*
X222597676Y-111528571D02*
X222692914Y-111433333D01*
X222692914Y-111433333D02*
X222740533Y-111338095D01*
X222788152Y-112766666D02*
X223454819Y-112766666D01*
X222407200Y-112528571D02*
X223121485Y-112290476D01*
X223121485Y-112290476D02*
X223121485Y-112909523D01*
X181327857Y-116984819D02*
X181661190Y-116508628D01*
X181899285Y-116984819D02*
X181899285Y-115984819D01*
X181899285Y-115984819D02*
X181518333Y-115984819D01*
X181518333Y-115984819D02*
X181423095Y-116032438D01*
X181423095Y-116032438D02*
X181375476Y-116080057D01*
X181375476Y-116080057D02*
X181327857Y-116175295D01*
X181327857Y-116175295D02*
X181327857Y-116318152D01*
X181327857Y-116318152D02*
X181375476Y-116413390D01*
X181375476Y-116413390D02*
X181423095Y-116461009D01*
X181423095Y-116461009D02*
X181518333Y-116508628D01*
X181518333Y-116508628D02*
X181899285Y-116508628D01*
X180994523Y-115984819D02*
X180375476Y-115984819D01*
X180375476Y-115984819D02*
X180708809Y-116365771D01*
X180708809Y-116365771D02*
X180565952Y-116365771D01*
X180565952Y-116365771D02*
X180470714Y-116413390D01*
X180470714Y-116413390D02*
X180423095Y-116461009D01*
X180423095Y-116461009D02*
X180375476Y-116556247D01*
X180375476Y-116556247D02*
X180375476Y-116794342D01*
X180375476Y-116794342D02*
X180423095Y-116889580D01*
X180423095Y-116889580D02*
X180470714Y-116937200D01*
X180470714Y-116937200D02*
X180565952Y-116984819D01*
X180565952Y-116984819D02*
X180851666Y-116984819D01*
X180851666Y-116984819D02*
X180946904Y-116937200D01*
X180946904Y-116937200D02*
X180994523Y-116889580D01*
X180042142Y-115984819D02*
X179423095Y-115984819D01*
X179423095Y-115984819D02*
X179756428Y-116365771D01*
X179756428Y-116365771D02*
X179613571Y-116365771D01*
X179613571Y-116365771D02*
X179518333Y-116413390D01*
X179518333Y-116413390D02*
X179470714Y-116461009D01*
X179470714Y-116461009D02*
X179423095Y-116556247D01*
X179423095Y-116556247D02*
X179423095Y-116794342D01*
X179423095Y-116794342D02*
X179470714Y-116889580D01*
X179470714Y-116889580D02*
X179518333Y-116937200D01*
X179518333Y-116937200D02*
X179613571Y-116984819D01*
X179613571Y-116984819D02*
X179899285Y-116984819D01*
X179899285Y-116984819D02*
X179994523Y-116937200D01*
X179994523Y-116937200D02*
X180042142Y-116889580D01*
X229459580Y-115857142D02*
X229507200Y-115809523D01*
X229507200Y-115809523D02*
X229554819Y-115666666D01*
X229554819Y-115666666D02*
X229554819Y-115571428D01*
X229554819Y-115571428D02*
X229507200Y-115428571D01*
X229507200Y-115428571D02*
X229411961Y-115333333D01*
X229411961Y-115333333D02*
X229316723Y-115285714D01*
X229316723Y-115285714D02*
X229126247Y-115238095D01*
X229126247Y-115238095D02*
X228983390Y-115238095D01*
X228983390Y-115238095D02*
X228792914Y-115285714D01*
X228792914Y-115285714D02*
X228697676Y-115333333D01*
X228697676Y-115333333D02*
X228602438Y-115428571D01*
X228602438Y-115428571D02*
X228554819Y-115571428D01*
X228554819Y-115571428D02*
X228554819Y-115666666D01*
X228554819Y-115666666D02*
X228602438Y-115809523D01*
X228602438Y-115809523D02*
X228650057Y-115857142D01*
X229554819Y-116809523D02*
X229554819Y-116238095D01*
X229554819Y-116523809D02*
X228554819Y-116523809D01*
X228554819Y-116523809D02*
X228697676Y-116428571D01*
X228697676Y-116428571D02*
X228792914Y-116333333D01*
X228792914Y-116333333D02*
X228840533Y-116238095D01*
X228554819Y-117666666D02*
X228554819Y-117476190D01*
X228554819Y-117476190D02*
X228602438Y-117380952D01*
X228602438Y-117380952D02*
X228650057Y-117333333D01*
X228650057Y-117333333D02*
X228792914Y-117238095D01*
X228792914Y-117238095D02*
X228983390Y-117190476D01*
X228983390Y-117190476D02*
X229364342Y-117190476D01*
X229364342Y-117190476D02*
X229459580Y-117238095D01*
X229459580Y-117238095D02*
X229507200Y-117285714D01*
X229507200Y-117285714D02*
X229554819Y-117380952D01*
X229554819Y-117380952D02*
X229554819Y-117571428D01*
X229554819Y-117571428D02*
X229507200Y-117666666D01*
X229507200Y-117666666D02*
X229459580Y-117714285D01*
X229459580Y-117714285D02*
X229364342Y-117761904D01*
X229364342Y-117761904D02*
X229126247Y-117761904D01*
X229126247Y-117761904D02*
X229031009Y-117714285D01*
X229031009Y-117714285D02*
X228983390Y-117666666D01*
X228983390Y-117666666D02*
X228935771Y-117571428D01*
X228935771Y-117571428D02*
X228935771Y-117380952D01*
X228935771Y-117380952D02*
X228983390Y-117285714D01*
X228983390Y-117285714D02*
X229031009Y-117238095D01*
X229031009Y-117238095D02*
X229126247Y-117190476D01*
X227959580Y-115857142D02*
X228007200Y-115809523D01*
X228007200Y-115809523D02*
X228054819Y-115666666D01*
X228054819Y-115666666D02*
X228054819Y-115571428D01*
X228054819Y-115571428D02*
X228007200Y-115428571D01*
X228007200Y-115428571D02*
X227911961Y-115333333D01*
X227911961Y-115333333D02*
X227816723Y-115285714D01*
X227816723Y-115285714D02*
X227626247Y-115238095D01*
X227626247Y-115238095D02*
X227483390Y-115238095D01*
X227483390Y-115238095D02*
X227292914Y-115285714D01*
X227292914Y-115285714D02*
X227197676Y-115333333D01*
X227197676Y-115333333D02*
X227102438Y-115428571D01*
X227102438Y-115428571D02*
X227054819Y-115571428D01*
X227054819Y-115571428D02*
X227054819Y-115666666D01*
X227054819Y-115666666D02*
X227102438Y-115809523D01*
X227102438Y-115809523D02*
X227150057Y-115857142D01*
X228054819Y-116809523D02*
X228054819Y-116238095D01*
X228054819Y-116523809D02*
X227054819Y-116523809D01*
X227054819Y-116523809D02*
X227197676Y-116428571D01*
X227197676Y-116428571D02*
X227292914Y-116333333D01*
X227292914Y-116333333D02*
X227340533Y-116238095D01*
X227054819Y-117142857D02*
X227054819Y-117809523D01*
X227054819Y-117809523D02*
X228054819Y-117380952D01*
X223459580Y-120633333D02*
X223507200Y-120585714D01*
X223507200Y-120585714D02*
X223554819Y-120442857D01*
X223554819Y-120442857D02*
X223554819Y-120347619D01*
X223554819Y-120347619D02*
X223507200Y-120204762D01*
X223507200Y-120204762D02*
X223411961Y-120109524D01*
X223411961Y-120109524D02*
X223316723Y-120061905D01*
X223316723Y-120061905D02*
X223126247Y-120014286D01*
X223126247Y-120014286D02*
X222983390Y-120014286D01*
X222983390Y-120014286D02*
X222792914Y-120061905D01*
X222792914Y-120061905D02*
X222697676Y-120109524D01*
X222697676Y-120109524D02*
X222602438Y-120204762D01*
X222602438Y-120204762D02*
X222554819Y-120347619D01*
X222554819Y-120347619D02*
X222554819Y-120442857D01*
X222554819Y-120442857D02*
X222602438Y-120585714D01*
X222602438Y-120585714D02*
X222650057Y-120633333D01*
X223554819Y-121585714D02*
X223554819Y-121014286D01*
X223554819Y-121300000D02*
X222554819Y-121300000D01*
X222554819Y-121300000D02*
X222697676Y-121204762D01*
X222697676Y-121204762D02*
X222792914Y-121109524D01*
X222792914Y-121109524D02*
X222840533Y-121014286D01*
X220359580Y-110957142D02*
X220407200Y-110909523D01*
X220407200Y-110909523D02*
X220454819Y-110766666D01*
X220454819Y-110766666D02*
X220454819Y-110671428D01*
X220454819Y-110671428D02*
X220407200Y-110528571D01*
X220407200Y-110528571D02*
X220311961Y-110433333D01*
X220311961Y-110433333D02*
X220216723Y-110385714D01*
X220216723Y-110385714D02*
X220026247Y-110338095D01*
X220026247Y-110338095D02*
X219883390Y-110338095D01*
X219883390Y-110338095D02*
X219692914Y-110385714D01*
X219692914Y-110385714D02*
X219597676Y-110433333D01*
X219597676Y-110433333D02*
X219502438Y-110528571D01*
X219502438Y-110528571D02*
X219454819Y-110671428D01*
X219454819Y-110671428D02*
X219454819Y-110766666D01*
X219454819Y-110766666D02*
X219502438Y-110909523D01*
X219502438Y-110909523D02*
X219550057Y-110957142D01*
X220454819Y-111909523D02*
X220454819Y-111338095D01*
X220454819Y-111623809D02*
X219454819Y-111623809D01*
X219454819Y-111623809D02*
X219597676Y-111528571D01*
X219597676Y-111528571D02*
X219692914Y-111433333D01*
X219692914Y-111433333D02*
X219740533Y-111338095D01*
X219550057Y-112290476D02*
X219502438Y-112338095D01*
X219502438Y-112338095D02*
X219454819Y-112433333D01*
X219454819Y-112433333D02*
X219454819Y-112671428D01*
X219454819Y-112671428D02*
X219502438Y-112766666D01*
X219502438Y-112766666D02*
X219550057Y-112814285D01*
X219550057Y-112814285D02*
X219645295Y-112861904D01*
X219645295Y-112861904D02*
X219740533Y-112861904D01*
X219740533Y-112861904D02*
X219883390Y-112814285D01*
X219883390Y-112814285D02*
X220454819Y-112242857D01*
X220454819Y-112242857D02*
X220454819Y-112861904D01*
X178242857Y-113984819D02*
X178576190Y-113508628D01*
X178814285Y-113984819D02*
X178814285Y-112984819D01*
X178814285Y-112984819D02*
X178433333Y-112984819D01*
X178433333Y-112984819D02*
X178338095Y-113032438D01*
X178338095Y-113032438D02*
X178290476Y-113080057D01*
X178290476Y-113080057D02*
X178242857Y-113175295D01*
X178242857Y-113175295D02*
X178242857Y-113318152D01*
X178242857Y-113318152D02*
X178290476Y-113413390D01*
X178290476Y-113413390D02*
X178338095Y-113461009D01*
X178338095Y-113461009D02*
X178433333Y-113508628D01*
X178433333Y-113508628D02*
X178814285Y-113508628D01*
X177861904Y-113080057D02*
X177814285Y-113032438D01*
X177814285Y-113032438D02*
X177719047Y-112984819D01*
X177719047Y-112984819D02*
X177480952Y-112984819D01*
X177480952Y-112984819D02*
X177385714Y-113032438D01*
X177385714Y-113032438D02*
X177338095Y-113080057D01*
X177338095Y-113080057D02*
X177290476Y-113175295D01*
X177290476Y-113175295D02*
X177290476Y-113270533D01*
X177290476Y-113270533D02*
X177338095Y-113413390D01*
X177338095Y-113413390D02*
X177909523Y-113984819D01*
X177909523Y-113984819D02*
X177290476Y-113984819D01*
X176338095Y-113984819D02*
X176909523Y-113984819D01*
X176623809Y-113984819D02*
X176623809Y-112984819D01*
X176623809Y-112984819D02*
X176719047Y-113127676D01*
X176719047Y-113127676D02*
X176814285Y-113222914D01*
X176814285Y-113222914D02*
X176909523Y-113270533D01*
X220459580Y-120533333D02*
X220507200Y-120485714D01*
X220507200Y-120485714D02*
X220554819Y-120342857D01*
X220554819Y-120342857D02*
X220554819Y-120247619D01*
X220554819Y-120247619D02*
X220507200Y-120104762D01*
X220507200Y-120104762D02*
X220411961Y-120009524D01*
X220411961Y-120009524D02*
X220316723Y-119961905D01*
X220316723Y-119961905D02*
X220126247Y-119914286D01*
X220126247Y-119914286D02*
X219983390Y-119914286D01*
X219983390Y-119914286D02*
X219792914Y-119961905D01*
X219792914Y-119961905D02*
X219697676Y-120009524D01*
X219697676Y-120009524D02*
X219602438Y-120104762D01*
X219602438Y-120104762D02*
X219554819Y-120247619D01*
X219554819Y-120247619D02*
X219554819Y-120342857D01*
X219554819Y-120342857D02*
X219602438Y-120485714D01*
X219602438Y-120485714D02*
X219650057Y-120533333D01*
X219888152Y-121390476D02*
X220554819Y-121390476D01*
X219507200Y-121152381D02*
X220221485Y-120914286D01*
X220221485Y-120914286D02*
X220221485Y-121533333D01*
X253489285Y-149354819D02*
X253489285Y-148354819D01*
X253489285Y-148354819D02*
X253251190Y-148354819D01*
X253251190Y-148354819D02*
X253108333Y-148402438D01*
X253108333Y-148402438D02*
X253013095Y-148497676D01*
X253013095Y-148497676D02*
X252965476Y-148592914D01*
X252965476Y-148592914D02*
X252917857Y-148783390D01*
X252917857Y-148783390D02*
X252917857Y-148926247D01*
X252917857Y-148926247D02*
X252965476Y-149116723D01*
X252965476Y-149116723D02*
X253013095Y-149211961D01*
X253013095Y-149211961D02*
X253108333Y-149307200D01*
X253108333Y-149307200D02*
X253251190Y-149354819D01*
X253251190Y-149354819D02*
X253489285Y-149354819D01*
X252536904Y-148450057D02*
X252489285Y-148402438D01*
X252489285Y-148402438D02*
X252394047Y-148354819D01*
X252394047Y-148354819D02*
X252155952Y-148354819D01*
X252155952Y-148354819D02*
X252060714Y-148402438D01*
X252060714Y-148402438D02*
X252013095Y-148450057D01*
X252013095Y-148450057D02*
X251965476Y-148545295D01*
X251965476Y-148545295D02*
X251965476Y-148640533D01*
X251965476Y-148640533D02*
X252013095Y-148783390D01*
X252013095Y-148783390D02*
X252584523Y-149354819D01*
X252584523Y-149354819D02*
X251965476Y-149354819D01*
X251013095Y-149354819D02*
X251584523Y-149354819D01*
X251298809Y-149354819D02*
X251298809Y-148354819D01*
X251298809Y-148354819D02*
X251394047Y-148497676D01*
X251394047Y-148497676D02*
X251489285Y-148592914D01*
X251489285Y-148592914D02*
X251584523Y-148640533D01*
X221959580Y-120533333D02*
X222007200Y-120485714D01*
X222007200Y-120485714D02*
X222054819Y-120342857D01*
X222054819Y-120342857D02*
X222054819Y-120247619D01*
X222054819Y-120247619D02*
X222007200Y-120104762D01*
X222007200Y-120104762D02*
X221911961Y-120009524D01*
X221911961Y-120009524D02*
X221816723Y-119961905D01*
X221816723Y-119961905D02*
X221626247Y-119914286D01*
X221626247Y-119914286D02*
X221483390Y-119914286D01*
X221483390Y-119914286D02*
X221292914Y-119961905D01*
X221292914Y-119961905D02*
X221197676Y-120009524D01*
X221197676Y-120009524D02*
X221102438Y-120104762D01*
X221102438Y-120104762D02*
X221054819Y-120247619D01*
X221054819Y-120247619D02*
X221054819Y-120342857D01*
X221054819Y-120342857D02*
X221102438Y-120485714D01*
X221102438Y-120485714D02*
X221150057Y-120533333D01*
X221054819Y-120866667D02*
X221054819Y-121485714D01*
X221054819Y-121485714D02*
X221435771Y-121152381D01*
X221435771Y-121152381D02*
X221435771Y-121295238D01*
X221435771Y-121295238D02*
X221483390Y-121390476D01*
X221483390Y-121390476D02*
X221531009Y-121438095D01*
X221531009Y-121438095D02*
X221626247Y-121485714D01*
X221626247Y-121485714D02*
X221864342Y-121485714D01*
X221864342Y-121485714D02*
X221959580Y-121438095D01*
X221959580Y-121438095D02*
X222007200Y-121390476D01*
X222007200Y-121390476D02*
X222054819Y-121295238D01*
X222054819Y-121295238D02*
X222054819Y-121009524D01*
X222054819Y-121009524D02*
X222007200Y-120914286D01*
X222007200Y-120914286D02*
X221959580Y-120866667D01*
X229466666Y-122954819D02*
X229799999Y-122478628D01*
X230038094Y-122954819D02*
X230038094Y-121954819D01*
X230038094Y-121954819D02*
X229657142Y-121954819D01*
X229657142Y-121954819D02*
X229561904Y-122002438D01*
X229561904Y-122002438D02*
X229514285Y-122050057D01*
X229514285Y-122050057D02*
X229466666Y-122145295D01*
X229466666Y-122145295D02*
X229466666Y-122288152D01*
X229466666Y-122288152D02*
X229514285Y-122383390D01*
X229514285Y-122383390D02*
X229561904Y-122431009D01*
X229561904Y-122431009D02*
X229657142Y-122478628D01*
X229657142Y-122478628D02*
X230038094Y-122478628D01*
X229085713Y-122050057D02*
X229038094Y-122002438D01*
X229038094Y-122002438D02*
X228942856Y-121954819D01*
X228942856Y-121954819D02*
X228704761Y-121954819D01*
X228704761Y-121954819D02*
X228609523Y-122002438D01*
X228609523Y-122002438D02*
X228561904Y-122050057D01*
X228561904Y-122050057D02*
X228514285Y-122145295D01*
X228514285Y-122145295D02*
X228514285Y-122240533D01*
X228514285Y-122240533D02*
X228561904Y-122383390D01*
X228561904Y-122383390D02*
X229133332Y-122954819D01*
X229133332Y-122954819D02*
X228514285Y-122954819D01*
X224959580Y-120733333D02*
X225007200Y-120685714D01*
X225007200Y-120685714D02*
X225054819Y-120542857D01*
X225054819Y-120542857D02*
X225054819Y-120447619D01*
X225054819Y-120447619D02*
X225007200Y-120304762D01*
X225007200Y-120304762D02*
X224911961Y-120209524D01*
X224911961Y-120209524D02*
X224816723Y-120161905D01*
X224816723Y-120161905D02*
X224626247Y-120114286D01*
X224626247Y-120114286D02*
X224483390Y-120114286D01*
X224483390Y-120114286D02*
X224292914Y-120161905D01*
X224292914Y-120161905D02*
X224197676Y-120209524D01*
X224197676Y-120209524D02*
X224102438Y-120304762D01*
X224102438Y-120304762D02*
X224054819Y-120447619D01*
X224054819Y-120447619D02*
X224054819Y-120542857D01*
X224054819Y-120542857D02*
X224102438Y-120685714D01*
X224102438Y-120685714D02*
X224150057Y-120733333D01*
X224150057Y-121114286D02*
X224102438Y-121161905D01*
X224102438Y-121161905D02*
X224054819Y-121257143D01*
X224054819Y-121257143D02*
X224054819Y-121495238D01*
X224054819Y-121495238D02*
X224102438Y-121590476D01*
X224102438Y-121590476D02*
X224150057Y-121638095D01*
X224150057Y-121638095D02*
X224245295Y-121685714D01*
X224245295Y-121685714D02*
X224340533Y-121685714D01*
X224340533Y-121685714D02*
X224483390Y-121638095D01*
X224483390Y-121638095D02*
X225054819Y-121066667D01*
X225054819Y-121066667D02*
X225054819Y-121685714D01*
X229459580Y-107133333D02*
X229507200Y-107085714D01*
X229507200Y-107085714D02*
X229554819Y-106942857D01*
X229554819Y-106942857D02*
X229554819Y-106847619D01*
X229554819Y-106847619D02*
X229507200Y-106704762D01*
X229507200Y-106704762D02*
X229411961Y-106609524D01*
X229411961Y-106609524D02*
X229316723Y-106561905D01*
X229316723Y-106561905D02*
X229126247Y-106514286D01*
X229126247Y-106514286D02*
X228983390Y-106514286D01*
X228983390Y-106514286D02*
X228792914Y-106561905D01*
X228792914Y-106561905D02*
X228697676Y-106609524D01*
X228697676Y-106609524D02*
X228602438Y-106704762D01*
X228602438Y-106704762D02*
X228554819Y-106847619D01*
X228554819Y-106847619D02*
X228554819Y-106942857D01*
X228554819Y-106942857D02*
X228602438Y-107085714D01*
X228602438Y-107085714D02*
X228650057Y-107133333D01*
X228554819Y-107990476D02*
X228554819Y-107800000D01*
X228554819Y-107800000D02*
X228602438Y-107704762D01*
X228602438Y-107704762D02*
X228650057Y-107657143D01*
X228650057Y-107657143D02*
X228792914Y-107561905D01*
X228792914Y-107561905D02*
X228983390Y-107514286D01*
X228983390Y-107514286D02*
X229364342Y-107514286D01*
X229364342Y-107514286D02*
X229459580Y-107561905D01*
X229459580Y-107561905D02*
X229507200Y-107609524D01*
X229507200Y-107609524D02*
X229554819Y-107704762D01*
X229554819Y-107704762D02*
X229554819Y-107895238D01*
X229554819Y-107895238D02*
X229507200Y-107990476D01*
X229507200Y-107990476D02*
X229459580Y-108038095D01*
X229459580Y-108038095D02*
X229364342Y-108085714D01*
X229364342Y-108085714D02*
X229126247Y-108085714D01*
X229126247Y-108085714D02*
X229031009Y-108038095D01*
X229031009Y-108038095D02*
X228983390Y-107990476D01*
X228983390Y-107990476D02*
X228935771Y-107895238D01*
X228935771Y-107895238D02*
X228935771Y-107704762D01*
X228935771Y-107704762D02*
X228983390Y-107609524D01*
X228983390Y-107609524D02*
X229031009Y-107561905D01*
X229031009Y-107561905D02*
X229126247Y-107514286D01*
X181242857Y-113984819D02*
X181576190Y-113508628D01*
X181814285Y-113984819D02*
X181814285Y-112984819D01*
X181814285Y-112984819D02*
X181433333Y-112984819D01*
X181433333Y-112984819D02*
X181338095Y-113032438D01*
X181338095Y-113032438D02*
X181290476Y-113080057D01*
X181290476Y-113080057D02*
X181242857Y-113175295D01*
X181242857Y-113175295D02*
X181242857Y-113318152D01*
X181242857Y-113318152D02*
X181290476Y-113413390D01*
X181290476Y-113413390D02*
X181338095Y-113461009D01*
X181338095Y-113461009D02*
X181433333Y-113508628D01*
X181433333Y-113508628D02*
X181814285Y-113508628D01*
X180909523Y-112984819D02*
X180290476Y-112984819D01*
X180290476Y-112984819D02*
X180623809Y-113365771D01*
X180623809Y-113365771D02*
X180480952Y-113365771D01*
X180480952Y-113365771D02*
X180385714Y-113413390D01*
X180385714Y-113413390D02*
X180338095Y-113461009D01*
X180338095Y-113461009D02*
X180290476Y-113556247D01*
X180290476Y-113556247D02*
X180290476Y-113794342D01*
X180290476Y-113794342D02*
X180338095Y-113889580D01*
X180338095Y-113889580D02*
X180385714Y-113937200D01*
X180385714Y-113937200D02*
X180480952Y-113984819D01*
X180480952Y-113984819D02*
X180766666Y-113984819D01*
X180766666Y-113984819D02*
X180861904Y-113937200D01*
X180861904Y-113937200D02*
X180909523Y-113889580D01*
X179909523Y-113080057D02*
X179861904Y-113032438D01*
X179861904Y-113032438D02*
X179766666Y-112984819D01*
X179766666Y-112984819D02*
X179528571Y-112984819D01*
X179528571Y-112984819D02*
X179433333Y-113032438D01*
X179433333Y-113032438D02*
X179385714Y-113080057D01*
X179385714Y-113080057D02*
X179338095Y-113175295D01*
X179338095Y-113175295D02*
X179338095Y-113270533D01*
X179338095Y-113270533D02*
X179385714Y-113413390D01*
X179385714Y-113413390D02*
X179957142Y-113984819D01*
X179957142Y-113984819D02*
X179338095Y-113984819D01*
X229366666Y-121454819D02*
X229699999Y-120978628D01*
X229938094Y-121454819D02*
X229938094Y-120454819D01*
X229938094Y-120454819D02*
X229557142Y-120454819D01*
X229557142Y-120454819D02*
X229461904Y-120502438D01*
X229461904Y-120502438D02*
X229414285Y-120550057D01*
X229414285Y-120550057D02*
X229366666Y-120645295D01*
X229366666Y-120645295D02*
X229366666Y-120788152D01*
X229366666Y-120788152D02*
X229414285Y-120883390D01*
X229414285Y-120883390D02*
X229461904Y-120931009D01*
X229461904Y-120931009D02*
X229557142Y-120978628D01*
X229557142Y-120978628D02*
X229938094Y-120978628D01*
X228414285Y-121454819D02*
X228985713Y-121454819D01*
X228699999Y-121454819D02*
X228699999Y-120454819D01*
X228699999Y-120454819D02*
X228795237Y-120597676D01*
X228795237Y-120597676D02*
X228890475Y-120692914D01*
X228890475Y-120692914D02*
X228985713Y-120740533D01*
X178317857Y-116984819D02*
X178651190Y-116508628D01*
X178889285Y-116984819D02*
X178889285Y-115984819D01*
X178889285Y-115984819D02*
X178508333Y-115984819D01*
X178508333Y-115984819D02*
X178413095Y-116032438D01*
X178413095Y-116032438D02*
X178365476Y-116080057D01*
X178365476Y-116080057D02*
X178317857Y-116175295D01*
X178317857Y-116175295D02*
X178317857Y-116318152D01*
X178317857Y-116318152D02*
X178365476Y-116413390D01*
X178365476Y-116413390D02*
X178413095Y-116461009D01*
X178413095Y-116461009D02*
X178508333Y-116508628D01*
X178508333Y-116508628D02*
X178889285Y-116508628D01*
X177936904Y-116080057D02*
X177889285Y-116032438D01*
X177889285Y-116032438D02*
X177794047Y-115984819D01*
X177794047Y-115984819D02*
X177555952Y-115984819D01*
X177555952Y-115984819D02*
X177460714Y-116032438D01*
X177460714Y-116032438D02*
X177413095Y-116080057D01*
X177413095Y-116080057D02*
X177365476Y-116175295D01*
X177365476Y-116175295D02*
X177365476Y-116270533D01*
X177365476Y-116270533D02*
X177413095Y-116413390D01*
X177413095Y-116413390D02*
X177984523Y-116984819D01*
X177984523Y-116984819D02*
X177365476Y-116984819D01*
X176984523Y-116080057D02*
X176936904Y-116032438D01*
X176936904Y-116032438D02*
X176841666Y-115984819D01*
X176841666Y-115984819D02*
X176603571Y-115984819D01*
X176603571Y-115984819D02*
X176508333Y-116032438D01*
X176508333Y-116032438D02*
X176460714Y-116080057D01*
X176460714Y-116080057D02*
X176413095Y-116175295D01*
X176413095Y-116175295D02*
X176413095Y-116270533D01*
X176413095Y-116270533D02*
X176460714Y-116413390D01*
X176460714Y-116413390D02*
X177032142Y-116984819D01*
X177032142Y-116984819D02*
X176413095Y-116984819D01*
X221859580Y-110957142D02*
X221907200Y-110909523D01*
X221907200Y-110909523D02*
X221954819Y-110766666D01*
X221954819Y-110766666D02*
X221954819Y-110671428D01*
X221954819Y-110671428D02*
X221907200Y-110528571D01*
X221907200Y-110528571D02*
X221811961Y-110433333D01*
X221811961Y-110433333D02*
X221716723Y-110385714D01*
X221716723Y-110385714D02*
X221526247Y-110338095D01*
X221526247Y-110338095D02*
X221383390Y-110338095D01*
X221383390Y-110338095D02*
X221192914Y-110385714D01*
X221192914Y-110385714D02*
X221097676Y-110433333D01*
X221097676Y-110433333D02*
X221002438Y-110528571D01*
X221002438Y-110528571D02*
X220954819Y-110671428D01*
X220954819Y-110671428D02*
X220954819Y-110766666D01*
X220954819Y-110766666D02*
X221002438Y-110909523D01*
X221002438Y-110909523D02*
X221050057Y-110957142D01*
X221954819Y-111909523D02*
X221954819Y-111338095D01*
X221954819Y-111623809D02*
X220954819Y-111623809D01*
X220954819Y-111623809D02*
X221097676Y-111528571D01*
X221097676Y-111528571D02*
X221192914Y-111433333D01*
X221192914Y-111433333D02*
X221240533Y-111338095D01*
X220954819Y-112242857D02*
X220954819Y-112861904D01*
X220954819Y-112861904D02*
X221335771Y-112528571D01*
X221335771Y-112528571D02*
X221335771Y-112671428D01*
X221335771Y-112671428D02*
X221383390Y-112766666D01*
X221383390Y-112766666D02*
X221431009Y-112814285D01*
X221431009Y-112814285D02*
X221526247Y-112861904D01*
X221526247Y-112861904D02*
X221764342Y-112861904D01*
X221764342Y-112861904D02*
X221859580Y-112814285D01*
X221859580Y-112814285D02*
X221907200Y-112766666D01*
X221907200Y-112766666D02*
X221954819Y-112671428D01*
X221954819Y-112671428D02*
X221954819Y-112385714D01*
X221954819Y-112385714D02*
X221907200Y-112290476D01*
X221907200Y-112290476D02*
X221859580Y-112242857D01*
X262754819Y-89866666D02*
X263469104Y-89866666D01*
X263469104Y-89866666D02*
X263611961Y-89819047D01*
X263611961Y-89819047D02*
X263707200Y-89723809D01*
X263707200Y-89723809D02*
X263754819Y-89580952D01*
X263754819Y-89580952D02*
X263754819Y-89485714D01*
X263754819Y-90342857D02*
X262754819Y-90342857D01*
X262754819Y-90342857D02*
X262754819Y-90723809D01*
X262754819Y-90723809D02*
X262802438Y-90819047D01*
X262802438Y-90819047D02*
X262850057Y-90866666D01*
X262850057Y-90866666D02*
X262945295Y-90914285D01*
X262945295Y-90914285D02*
X263088152Y-90914285D01*
X263088152Y-90914285D02*
X263183390Y-90866666D01*
X263183390Y-90866666D02*
X263231009Y-90819047D01*
X263231009Y-90819047D02*
X263278628Y-90723809D01*
X263278628Y-90723809D02*
X263278628Y-90342857D01*
X263754819Y-91866666D02*
X263754819Y-91295238D01*
X263754819Y-91580952D02*
X262754819Y-91580952D01*
X262754819Y-91580952D02*
X262897676Y-91485714D01*
X262897676Y-91485714D02*
X262992914Y-91390476D01*
X262992914Y-91390476D02*
X263040533Y-91295238D01*
X227959580Y-107133333D02*
X228007200Y-107085714D01*
X228007200Y-107085714D02*
X228054819Y-106942857D01*
X228054819Y-106942857D02*
X228054819Y-106847619D01*
X228054819Y-106847619D02*
X228007200Y-106704762D01*
X228007200Y-106704762D02*
X227911961Y-106609524D01*
X227911961Y-106609524D02*
X227816723Y-106561905D01*
X227816723Y-106561905D02*
X227626247Y-106514286D01*
X227626247Y-106514286D02*
X227483390Y-106514286D01*
X227483390Y-106514286D02*
X227292914Y-106561905D01*
X227292914Y-106561905D02*
X227197676Y-106609524D01*
X227197676Y-106609524D02*
X227102438Y-106704762D01*
X227102438Y-106704762D02*
X227054819Y-106847619D01*
X227054819Y-106847619D02*
X227054819Y-106942857D01*
X227054819Y-106942857D02*
X227102438Y-107085714D01*
X227102438Y-107085714D02*
X227150057Y-107133333D01*
X227054819Y-108038095D02*
X227054819Y-107561905D01*
X227054819Y-107561905D02*
X227531009Y-107514286D01*
X227531009Y-107514286D02*
X227483390Y-107561905D01*
X227483390Y-107561905D02*
X227435771Y-107657143D01*
X227435771Y-107657143D02*
X227435771Y-107895238D01*
X227435771Y-107895238D02*
X227483390Y-107990476D01*
X227483390Y-107990476D02*
X227531009Y-108038095D01*
X227531009Y-108038095D02*
X227626247Y-108085714D01*
X227626247Y-108085714D02*
X227864342Y-108085714D01*
X227864342Y-108085714D02*
X227959580Y-108038095D01*
X227959580Y-108038095D02*
X228007200Y-107990476D01*
X228007200Y-107990476D02*
X228054819Y-107895238D01*
X228054819Y-107895238D02*
X228054819Y-107657143D01*
X228054819Y-107657143D02*
X228007200Y-107561905D01*
X228007200Y-107561905D02*
X227959580Y-107514286D01*
X225942857Y-114359580D02*
X225990476Y-114407200D01*
X225990476Y-114407200D02*
X226133333Y-114454819D01*
X226133333Y-114454819D02*
X226228571Y-114454819D01*
X226228571Y-114454819D02*
X226371428Y-114407200D01*
X226371428Y-114407200D02*
X226466666Y-114311961D01*
X226466666Y-114311961D02*
X226514285Y-114216723D01*
X226514285Y-114216723D02*
X226561904Y-114026247D01*
X226561904Y-114026247D02*
X226561904Y-113883390D01*
X226561904Y-113883390D02*
X226514285Y-113692914D01*
X226514285Y-113692914D02*
X226466666Y-113597676D01*
X226466666Y-113597676D02*
X226371428Y-113502438D01*
X226371428Y-113502438D02*
X226228571Y-113454819D01*
X226228571Y-113454819D02*
X226133333Y-113454819D01*
X226133333Y-113454819D02*
X225990476Y-113502438D01*
X225990476Y-113502438D02*
X225942857Y-113550057D01*
X224990476Y-114454819D02*
X225561904Y-114454819D01*
X225276190Y-114454819D02*
X225276190Y-113454819D01*
X225276190Y-113454819D02*
X225371428Y-113597676D01*
X225371428Y-113597676D02*
X225466666Y-113692914D01*
X225466666Y-113692914D02*
X225561904Y-113740533D01*
X224085714Y-113454819D02*
X224561904Y-113454819D01*
X224561904Y-113454819D02*
X224609523Y-113931009D01*
X224609523Y-113931009D02*
X224561904Y-113883390D01*
X224561904Y-113883390D02*
X224466666Y-113835771D01*
X224466666Y-113835771D02*
X224228571Y-113835771D01*
X224228571Y-113835771D02*
X224133333Y-113883390D01*
X224133333Y-113883390D02*
X224085714Y-113931009D01*
X224085714Y-113931009D02*
X224038095Y-114026247D01*
X224038095Y-114026247D02*
X224038095Y-114264342D01*
X224038095Y-114264342D02*
X224085714Y-114359580D01*
X224085714Y-114359580D02*
X224133333Y-114407200D01*
X224133333Y-114407200D02*
X224228571Y-114454819D01*
X224228571Y-114454819D02*
X224466666Y-114454819D01*
X224466666Y-114454819D02*
X224561904Y-114407200D01*
X224561904Y-114407200D02*
X224609523Y-114359580D01*
X99642857Y-123609580D02*
X99690476Y-123657200D01*
X99690476Y-123657200D02*
X99833333Y-123704819D01*
X99833333Y-123704819D02*
X99928571Y-123704819D01*
X99928571Y-123704819D02*
X100071428Y-123657200D01*
X100071428Y-123657200D02*
X100166666Y-123561961D01*
X100166666Y-123561961D02*
X100214285Y-123466723D01*
X100214285Y-123466723D02*
X100261904Y-123276247D01*
X100261904Y-123276247D02*
X100261904Y-123133390D01*
X100261904Y-123133390D02*
X100214285Y-122942914D01*
X100214285Y-122942914D02*
X100166666Y-122847676D01*
X100166666Y-122847676D02*
X100071428Y-122752438D01*
X100071428Y-122752438D02*
X99928571Y-122704819D01*
X99928571Y-122704819D02*
X99833333Y-122704819D01*
X99833333Y-122704819D02*
X99690476Y-122752438D01*
X99690476Y-122752438D02*
X99642857Y-122800057D01*
X99261904Y-122800057D02*
X99214285Y-122752438D01*
X99214285Y-122752438D02*
X99119047Y-122704819D01*
X99119047Y-122704819D02*
X98880952Y-122704819D01*
X98880952Y-122704819D02*
X98785714Y-122752438D01*
X98785714Y-122752438D02*
X98738095Y-122800057D01*
X98738095Y-122800057D02*
X98690476Y-122895295D01*
X98690476Y-122895295D02*
X98690476Y-122990533D01*
X98690476Y-122990533D02*
X98738095Y-123133390D01*
X98738095Y-123133390D02*
X99309523Y-123704819D01*
X99309523Y-123704819D02*
X98690476Y-123704819D01*
X97833333Y-122704819D02*
X98023809Y-122704819D01*
X98023809Y-122704819D02*
X98119047Y-122752438D01*
X98119047Y-122752438D02*
X98166666Y-122800057D01*
X98166666Y-122800057D02*
X98261904Y-122942914D01*
X98261904Y-122942914D02*
X98309523Y-123133390D01*
X98309523Y-123133390D02*
X98309523Y-123514342D01*
X98309523Y-123514342D02*
X98261904Y-123609580D01*
X98261904Y-123609580D02*
X98214285Y-123657200D01*
X98214285Y-123657200D02*
X98119047Y-123704819D01*
X98119047Y-123704819D02*
X97928571Y-123704819D01*
X97928571Y-123704819D02*
X97833333Y-123657200D01*
X97833333Y-123657200D02*
X97785714Y-123609580D01*
X97785714Y-123609580D02*
X97738095Y-123514342D01*
X97738095Y-123514342D02*
X97738095Y-123276247D01*
X97738095Y-123276247D02*
X97785714Y-123181009D01*
X97785714Y-123181009D02*
X97833333Y-123133390D01*
X97833333Y-123133390D02*
X97928571Y-123085771D01*
X97928571Y-123085771D02*
X98119047Y-123085771D01*
X98119047Y-123085771D02*
X98214285Y-123133390D01*
X98214285Y-123133390D02*
X98261904Y-123181009D01*
X98261904Y-123181009D02*
X98309523Y-123276247D01*
X46134819Y-132607142D02*
X45658628Y-132273809D01*
X46134819Y-132035714D02*
X45134819Y-132035714D01*
X45134819Y-132035714D02*
X45134819Y-132416666D01*
X45134819Y-132416666D02*
X45182438Y-132511904D01*
X45182438Y-132511904D02*
X45230057Y-132559523D01*
X45230057Y-132559523D02*
X45325295Y-132607142D01*
X45325295Y-132607142D02*
X45468152Y-132607142D01*
X45468152Y-132607142D02*
X45563390Y-132559523D01*
X45563390Y-132559523D02*
X45611009Y-132511904D01*
X45611009Y-132511904D02*
X45658628Y-132416666D01*
X45658628Y-132416666D02*
X45658628Y-132035714D01*
X46134819Y-133559523D02*
X46134819Y-132988095D01*
X46134819Y-133273809D02*
X45134819Y-133273809D01*
X45134819Y-133273809D02*
X45277676Y-133178571D01*
X45277676Y-133178571D02*
X45372914Y-133083333D01*
X45372914Y-133083333D02*
X45420533Y-132988095D01*
X45468152Y-134416666D02*
X46134819Y-134416666D01*
X45087200Y-134178571D02*
X45801485Y-133940476D01*
X45801485Y-133940476D02*
X45801485Y-134559523D01*
X104274819Y-87107142D02*
X103798628Y-86773809D01*
X104274819Y-86535714D02*
X103274819Y-86535714D01*
X103274819Y-86535714D02*
X103274819Y-86916666D01*
X103274819Y-86916666D02*
X103322438Y-87011904D01*
X103322438Y-87011904D02*
X103370057Y-87059523D01*
X103370057Y-87059523D02*
X103465295Y-87107142D01*
X103465295Y-87107142D02*
X103608152Y-87107142D01*
X103608152Y-87107142D02*
X103703390Y-87059523D01*
X103703390Y-87059523D02*
X103751009Y-87011904D01*
X103751009Y-87011904D02*
X103798628Y-86916666D01*
X103798628Y-86916666D02*
X103798628Y-86535714D01*
X103608152Y-87964285D02*
X104274819Y-87964285D01*
X103227200Y-87726190D02*
X103941485Y-87488095D01*
X103941485Y-87488095D02*
X103941485Y-88107142D01*
X103274819Y-88392857D02*
X103274819Y-89059523D01*
X103274819Y-89059523D02*
X104274819Y-88630952D01*
X170024819Y-87107142D02*
X169548628Y-86773809D01*
X170024819Y-86535714D02*
X169024819Y-86535714D01*
X169024819Y-86535714D02*
X169024819Y-86916666D01*
X169024819Y-86916666D02*
X169072438Y-87011904D01*
X169072438Y-87011904D02*
X169120057Y-87059523D01*
X169120057Y-87059523D02*
X169215295Y-87107142D01*
X169215295Y-87107142D02*
X169358152Y-87107142D01*
X169358152Y-87107142D02*
X169453390Y-87059523D01*
X169453390Y-87059523D02*
X169501009Y-87011904D01*
X169501009Y-87011904D02*
X169548628Y-86916666D01*
X169548628Y-86916666D02*
X169548628Y-86535714D01*
X169358152Y-87964285D02*
X170024819Y-87964285D01*
X168977200Y-87726190D02*
X169691485Y-87488095D01*
X169691485Y-87488095D02*
X169691485Y-88107142D01*
X169358152Y-88916666D02*
X170024819Y-88916666D01*
X168977200Y-88678571D02*
X169691485Y-88440476D01*
X169691485Y-88440476D02*
X169691485Y-89059523D01*
X57142857Y-113359580D02*
X57190476Y-113407200D01*
X57190476Y-113407200D02*
X57333333Y-113454819D01*
X57333333Y-113454819D02*
X57428571Y-113454819D01*
X57428571Y-113454819D02*
X57571428Y-113407200D01*
X57571428Y-113407200D02*
X57666666Y-113311961D01*
X57666666Y-113311961D02*
X57714285Y-113216723D01*
X57714285Y-113216723D02*
X57761904Y-113026247D01*
X57761904Y-113026247D02*
X57761904Y-112883390D01*
X57761904Y-112883390D02*
X57714285Y-112692914D01*
X57714285Y-112692914D02*
X57666666Y-112597676D01*
X57666666Y-112597676D02*
X57571428Y-112502438D01*
X57571428Y-112502438D02*
X57428571Y-112454819D01*
X57428571Y-112454819D02*
X57333333Y-112454819D01*
X57333333Y-112454819D02*
X57190476Y-112502438D01*
X57190476Y-112502438D02*
X57142857Y-112550057D01*
X56190476Y-113454819D02*
X56761904Y-113454819D01*
X56476190Y-113454819D02*
X56476190Y-112454819D01*
X56476190Y-112454819D02*
X56571428Y-112597676D01*
X56571428Y-112597676D02*
X56666666Y-112692914D01*
X56666666Y-112692914D02*
X56761904Y-112740533D01*
X55714285Y-113454819D02*
X55523809Y-113454819D01*
X55523809Y-113454819D02*
X55428571Y-113407200D01*
X55428571Y-113407200D02*
X55380952Y-113359580D01*
X55380952Y-113359580D02*
X55285714Y-113216723D01*
X55285714Y-113216723D02*
X55238095Y-113026247D01*
X55238095Y-113026247D02*
X55238095Y-112645295D01*
X55238095Y-112645295D02*
X55285714Y-112550057D01*
X55285714Y-112550057D02*
X55333333Y-112502438D01*
X55333333Y-112502438D02*
X55428571Y-112454819D01*
X55428571Y-112454819D02*
X55619047Y-112454819D01*
X55619047Y-112454819D02*
X55714285Y-112502438D01*
X55714285Y-112502438D02*
X55761904Y-112550057D01*
X55761904Y-112550057D02*
X55809523Y-112645295D01*
X55809523Y-112645295D02*
X55809523Y-112883390D01*
X55809523Y-112883390D02*
X55761904Y-112978628D01*
X55761904Y-112978628D02*
X55714285Y-113026247D01*
X55714285Y-113026247D02*
X55619047Y-113073866D01*
X55619047Y-113073866D02*
X55428571Y-113073866D01*
X55428571Y-113073866D02*
X55333333Y-113026247D01*
X55333333Y-113026247D02*
X55285714Y-112978628D01*
X55285714Y-112978628D02*
X55238095Y-112883390D01*
X134134819Y-132607142D02*
X133658628Y-132273809D01*
X134134819Y-132035714D02*
X133134819Y-132035714D01*
X133134819Y-132035714D02*
X133134819Y-132416666D01*
X133134819Y-132416666D02*
X133182438Y-132511904D01*
X133182438Y-132511904D02*
X133230057Y-132559523D01*
X133230057Y-132559523D02*
X133325295Y-132607142D01*
X133325295Y-132607142D02*
X133468152Y-132607142D01*
X133468152Y-132607142D02*
X133563390Y-132559523D01*
X133563390Y-132559523D02*
X133611009Y-132511904D01*
X133611009Y-132511904D02*
X133658628Y-132416666D01*
X133658628Y-132416666D02*
X133658628Y-132035714D01*
X134134819Y-133559523D02*
X134134819Y-132988095D01*
X134134819Y-133273809D02*
X133134819Y-133273809D01*
X133134819Y-133273809D02*
X133277676Y-133178571D01*
X133277676Y-133178571D02*
X133372914Y-133083333D01*
X133372914Y-133083333D02*
X133420533Y-132988095D01*
X133563390Y-134130952D02*
X133515771Y-134035714D01*
X133515771Y-134035714D02*
X133468152Y-133988095D01*
X133468152Y-133988095D02*
X133372914Y-133940476D01*
X133372914Y-133940476D02*
X133325295Y-133940476D01*
X133325295Y-133940476D02*
X133230057Y-133988095D01*
X133230057Y-133988095D02*
X133182438Y-134035714D01*
X133182438Y-134035714D02*
X133134819Y-134130952D01*
X133134819Y-134130952D02*
X133134819Y-134321428D01*
X133134819Y-134321428D02*
X133182438Y-134416666D01*
X133182438Y-134416666D02*
X133230057Y-134464285D01*
X133230057Y-134464285D02*
X133325295Y-134511904D01*
X133325295Y-134511904D02*
X133372914Y-134511904D01*
X133372914Y-134511904D02*
X133468152Y-134464285D01*
X133468152Y-134464285D02*
X133515771Y-134416666D01*
X133515771Y-134416666D02*
X133563390Y-134321428D01*
X133563390Y-134321428D02*
X133563390Y-134130952D01*
X133563390Y-134130952D02*
X133611009Y-134035714D01*
X133611009Y-134035714D02*
X133658628Y-133988095D01*
X133658628Y-133988095D02*
X133753866Y-133940476D01*
X133753866Y-133940476D02*
X133944342Y-133940476D01*
X133944342Y-133940476D02*
X134039580Y-133988095D01*
X134039580Y-133988095D02*
X134087200Y-134035714D01*
X134087200Y-134035714D02*
X134134819Y-134130952D01*
X134134819Y-134130952D02*
X134134819Y-134321428D01*
X134134819Y-134321428D02*
X134087200Y-134416666D01*
X134087200Y-134416666D02*
X134039580Y-134464285D01*
X134039580Y-134464285D02*
X133944342Y-134511904D01*
X133944342Y-134511904D02*
X133753866Y-134511904D01*
X133753866Y-134511904D02*
X133658628Y-134464285D01*
X133658628Y-134464285D02*
X133611009Y-134416666D01*
X133611009Y-134416666D02*
X133563390Y-134321428D01*
X148024819Y-87107142D02*
X147548628Y-86773809D01*
X148024819Y-86535714D02*
X147024819Y-86535714D01*
X147024819Y-86535714D02*
X147024819Y-86916666D01*
X147024819Y-86916666D02*
X147072438Y-87011904D01*
X147072438Y-87011904D02*
X147120057Y-87059523D01*
X147120057Y-87059523D02*
X147215295Y-87107142D01*
X147215295Y-87107142D02*
X147358152Y-87107142D01*
X147358152Y-87107142D02*
X147453390Y-87059523D01*
X147453390Y-87059523D02*
X147501009Y-87011904D01*
X147501009Y-87011904D02*
X147548628Y-86916666D01*
X147548628Y-86916666D02*
X147548628Y-86535714D01*
X147358152Y-87964285D02*
X148024819Y-87964285D01*
X146977200Y-87726190D02*
X147691485Y-87488095D01*
X147691485Y-87488095D02*
X147691485Y-88107142D01*
X147024819Y-88964285D02*
X147024819Y-88488095D01*
X147024819Y-88488095D02*
X147501009Y-88440476D01*
X147501009Y-88440476D02*
X147453390Y-88488095D01*
X147453390Y-88488095D02*
X147405771Y-88583333D01*
X147405771Y-88583333D02*
X147405771Y-88821428D01*
X147405771Y-88821428D02*
X147453390Y-88916666D01*
X147453390Y-88916666D02*
X147501009Y-88964285D01*
X147501009Y-88964285D02*
X147596247Y-89011904D01*
X147596247Y-89011904D02*
X147834342Y-89011904D01*
X147834342Y-89011904D02*
X147929580Y-88964285D01*
X147929580Y-88964285D02*
X147977200Y-88916666D01*
X147977200Y-88916666D02*
X148024819Y-88821428D01*
X148024819Y-88821428D02*
X148024819Y-88583333D01*
X148024819Y-88583333D02*
X147977200Y-88488095D01*
X147977200Y-88488095D02*
X147929580Y-88440476D01*
X100892857Y-120109580D02*
X100940476Y-120157200D01*
X100940476Y-120157200D02*
X101083333Y-120204819D01*
X101083333Y-120204819D02*
X101178571Y-120204819D01*
X101178571Y-120204819D02*
X101321428Y-120157200D01*
X101321428Y-120157200D02*
X101416666Y-120061961D01*
X101416666Y-120061961D02*
X101464285Y-119966723D01*
X101464285Y-119966723D02*
X101511904Y-119776247D01*
X101511904Y-119776247D02*
X101511904Y-119633390D01*
X101511904Y-119633390D02*
X101464285Y-119442914D01*
X101464285Y-119442914D02*
X101416666Y-119347676D01*
X101416666Y-119347676D02*
X101321428Y-119252438D01*
X101321428Y-119252438D02*
X101178571Y-119204819D01*
X101178571Y-119204819D02*
X101083333Y-119204819D01*
X101083333Y-119204819D02*
X100940476Y-119252438D01*
X100940476Y-119252438D02*
X100892857Y-119300057D01*
X100511904Y-119300057D02*
X100464285Y-119252438D01*
X100464285Y-119252438D02*
X100369047Y-119204819D01*
X100369047Y-119204819D02*
X100130952Y-119204819D01*
X100130952Y-119204819D02*
X100035714Y-119252438D01*
X100035714Y-119252438D02*
X99988095Y-119300057D01*
X99988095Y-119300057D02*
X99940476Y-119395295D01*
X99940476Y-119395295D02*
X99940476Y-119490533D01*
X99940476Y-119490533D02*
X99988095Y-119633390D01*
X99988095Y-119633390D02*
X100559523Y-120204819D01*
X100559523Y-120204819D02*
X99940476Y-120204819D01*
X99607142Y-119204819D02*
X98940476Y-119204819D01*
X98940476Y-119204819D02*
X99369047Y-120204819D01*
X68134819Y-132607142D02*
X67658628Y-132273809D01*
X68134819Y-132035714D02*
X67134819Y-132035714D01*
X67134819Y-132035714D02*
X67134819Y-132416666D01*
X67134819Y-132416666D02*
X67182438Y-132511904D01*
X67182438Y-132511904D02*
X67230057Y-132559523D01*
X67230057Y-132559523D02*
X67325295Y-132607142D01*
X67325295Y-132607142D02*
X67468152Y-132607142D01*
X67468152Y-132607142D02*
X67563390Y-132559523D01*
X67563390Y-132559523D02*
X67611009Y-132511904D01*
X67611009Y-132511904D02*
X67658628Y-132416666D01*
X67658628Y-132416666D02*
X67658628Y-132035714D01*
X68134819Y-133559523D02*
X68134819Y-132988095D01*
X68134819Y-133273809D02*
X67134819Y-133273809D01*
X67134819Y-133273809D02*
X67277676Y-133178571D01*
X67277676Y-133178571D02*
X67372914Y-133083333D01*
X67372914Y-133083333D02*
X67420533Y-132988095D01*
X67134819Y-134464285D02*
X67134819Y-133988095D01*
X67134819Y-133988095D02*
X67611009Y-133940476D01*
X67611009Y-133940476D02*
X67563390Y-133988095D01*
X67563390Y-133988095D02*
X67515771Y-134083333D01*
X67515771Y-134083333D02*
X67515771Y-134321428D01*
X67515771Y-134321428D02*
X67563390Y-134416666D01*
X67563390Y-134416666D02*
X67611009Y-134464285D01*
X67611009Y-134464285D02*
X67706247Y-134511904D01*
X67706247Y-134511904D02*
X67944342Y-134511904D01*
X67944342Y-134511904D02*
X68039580Y-134464285D01*
X68039580Y-134464285D02*
X68087200Y-134416666D01*
X68087200Y-134416666D02*
X68134819Y-134321428D01*
X68134819Y-134321428D02*
X68134819Y-134083333D01*
X68134819Y-134083333D02*
X68087200Y-133988095D01*
X68087200Y-133988095D02*
X68039580Y-133940476D01*
X134134819Y-129607142D02*
X133658628Y-129273809D01*
X134134819Y-129035714D02*
X133134819Y-129035714D01*
X133134819Y-129035714D02*
X133134819Y-129416666D01*
X133134819Y-129416666D02*
X133182438Y-129511904D01*
X133182438Y-129511904D02*
X133230057Y-129559523D01*
X133230057Y-129559523D02*
X133325295Y-129607142D01*
X133325295Y-129607142D02*
X133468152Y-129607142D01*
X133468152Y-129607142D02*
X133563390Y-129559523D01*
X133563390Y-129559523D02*
X133611009Y-129511904D01*
X133611009Y-129511904D02*
X133658628Y-129416666D01*
X133658628Y-129416666D02*
X133658628Y-129035714D01*
X133230057Y-129988095D02*
X133182438Y-130035714D01*
X133182438Y-130035714D02*
X133134819Y-130130952D01*
X133134819Y-130130952D02*
X133134819Y-130369047D01*
X133134819Y-130369047D02*
X133182438Y-130464285D01*
X133182438Y-130464285D02*
X133230057Y-130511904D01*
X133230057Y-130511904D02*
X133325295Y-130559523D01*
X133325295Y-130559523D02*
X133420533Y-130559523D01*
X133420533Y-130559523D02*
X133563390Y-130511904D01*
X133563390Y-130511904D02*
X134134819Y-129940476D01*
X134134819Y-129940476D02*
X134134819Y-130559523D01*
X134134819Y-131035714D02*
X134134819Y-131226190D01*
X134134819Y-131226190D02*
X134087200Y-131321428D01*
X134087200Y-131321428D02*
X134039580Y-131369047D01*
X134039580Y-131369047D02*
X133896723Y-131464285D01*
X133896723Y-131464285D02*
X133706247Y-131511904D01*
X133706247Y-131511904D02*
X133325295Y-131511904D01*
X133325295Y-131511904D02*
X133230057Y-131464285D01*
X133230057Y-131464285D02*
X133182438Y-131416666D01*
X133182438Y-131416666D02*
X133134819Y-131321428D01*
X133134819Y-131321428D02*
X133134819Y-131130952D01*
X133134819Y-131130952D02*
X133182438Y-131035714D01*
X133182438Y-131035714D02*
X133230057Y-130988095D01*
X133230057Y-130988095D02*
X133325295Y-130940476D01*
X133325295Y-130940476D02*
X133563390Y-130940476D01*
X133563390Y-130940476D02*
X133658628Y-130988095D01*
X133658628Y-130988095D02*
X133706247Y-131035714D01*
X133706247Y-131035714D02*
X133753866Y-131130952D01*
X133753866Y-131130952D02*
X133753866Y-131321428D01*
X133753866Y-131321428D02*
X133706247Y-131416666D01*
X133706247Y-131416666D02*
X133658628Y-131464285D01*
X133658628Y-131464285D02*
X133563390Y-131511904D01*
X59804819Y-105738095D02*
X60614342Y-105738095D01*
X60614342Y-105738095D02*
X60709580Y-105785714D01*
X60709580Y-105785714D02*
X60757200Y-105833333D01*
X60757200Y-105833333D02*
X60804819Y-105928571D01*
X60804819Y-105928571D02*
X60804819Y-106119047D01*
X60804819Y-106119047D02*
X60757200Y-106214285D01*
X60757200Y-106214285D02*
X60709580Y-106261904D01*
X60709580Y-106261904D02*
X60614342Y-106309523D01*
X60614342Y-106309523D02*
X59804819Y-106309523D01*
X59804819Y-106690476D02*
X59804819Y-107309523D01*
X59804819Y-107309523D02*
X60185771Y-106976190D01*
X60185771Y-106976190D02*
X60185771Y-107119047D01*
X60185771Y-107119047D02*
X60233390Y-107214285D01*
X60233390Y-107214285D02*
X60281009Y-107261904D01*
X60281009Y-107261904D02*
X60376247Y-107309523D01*
X60376247Y-107309523D02*
X60614342Y-107309523D01*
X60614342Y-107309523D02*
X60709580Y-107261904D01*
X60709580Y-107261904D02*
X60757200Y-107214285D01*
X60757200Y-107214285D02*
X60804819Y-107119047D01*
X60804819Y-107119047D02*
X60804819Y-106833333D01*
X60804819Y-106833333D02*
X60757200Y-106738095D01*
X60757200Y-106738095D02*
X60709580Y-106690476D01*
X156134819Y-129607142D02*
X155658628Y-129273809D01*
X156134819Y-129035714D02*
X155134819Y-129035714D01*
X155134819Y-129035714D02*
X155134819Y-129416666D01*
X155134819Y-129416666D02*
X155182438Y-129511904D01*
X155182438Y-129511904D02*
X155230057Y-129559523D01*
X155230057Y-129559523D02*
X155325295Y-129607142D01*
X155325295Y-129607142D02*
X155468152Y-129607142D01*
X155468152Y-129607142D02*
X155563390Y-129559523D01*
X155563390Y-129559523D02*
X155611009Y-129511904D01*
X155611009Y-129511904D02*
X155658628Y-129416666D01*
X155658628Y-129416666D02*
X155658628Y-129035714D01*
X155134819Y-129940476D02*
X155134819Y-130559523D01*
X155134819Y-130559523D02*
X155515771Y-130226190D01*
X155515771Y-130226190D02*
X155515771Y-130369047D01*
X155515771Y-130369047D02*
X155563390Y-130464285D01*
X155563390Y-130464285D02*
X155611009Y-130511904D01*
X155611009Y-130511904D02*
X155706247Y-130559523D01*
X155706247Y-130559523D02*
X155944342Y-130559523D01*
X155944342Y-130559523D02*
X156039580Y-130511904D01*
X156039580Y-130511904D02*
X156087200Y-130464285D01*
X156087200Y-130464285D02*
X156134819Y-130369047D01*
X156134819Y-130369047D02*
X156134819Y-130083333D01*
X156134819Y-130083333D02*
X156087200Y-129988095D01*
X156087200Y-129988095D02*
X156039580Y-129940476D01*
X155134819Y-131178571D02*
X155134819Y-131273809D01*
X155134819Y-131273809D02*
X155182438Y-131369047D01*
X155182438Y-131369047D02*
X155230057Y-131416666D01*
X155230057Y-131416666D02*
X155325295Y-131464285D01*
X155325295Y-131464285D02*
X155515771Y-131511904D01*
X155515771Y-131511904D02*
X155753866Y-131511904D01*
X155753866Y-131511904D02*
X155944342Y-131464285D01*
X155944342Y-131464285D02*
X156039580Y-131416666D01*
X156039580Y-131416666D02*
X156087200Y-131369047D01*
X156087200Y-131369047D02*
X156134819Y-131273809D01*
X156134819Y-131273809D02*
X156134819Y-131178571D01*
X156134819Y-131178571D02*
X156087200Y-131083333D01*
X156087200Y-131083333D02*
X156039580Y-131035714D01*
X156039580Y-131035714D02*
X155944342Y-130988095D01*
X155944342Y-130988095D02*
X155753866Y-130940476D01*
X155753866Y-130940476D02*
X155515771Y-130940476D01*
X155515771Y-130940476D02*
X155325295Y-130988095D01*
X155325295Y-130988095D02*
X155230057Y-131035714D01*
X155230057Y-131035714D02*
X155182438Y-131083333D01*
X155182438Y-131083333D02*
X155134819Y-131178571D01*
X60274819Y-87107142D02*
X59798628Y-86773809D01*
X60274819Y-86535714D02*
X59274819Y-86535714D01*
X59274819Y-86535714D02*
X59274819Y-86916666D01*
X59274819Y-86916666D02*
X59322438Y-87011904D01*
X59322438Y-87011904D02*
X59370057Y-87059523D01*
X59370057Y-87059523D02*
X59465295Y-87107142D01*
X59465295Y-87107142D02*
X59608152Y-87107142D01*
X59608152Y-87107142D02*
X59703390Y-87059523D01*
X59703390Y-87059523D02*
X59751009Y-87011904D01*
X59751009Y-87011904D02*
X59798628Y-86916666D01*
X59798628Y-86916666D02*
X59798628Y-86535714D01*
X59608152Y-87964285D02*
X60274819Y-87964285D01*
X59227200Y-87726190D02*
X59941485Y-87488095D01*
X59941485Y-87488095D02*
X59941485Y-88107142D01*
X60274819Y-88535714D02*
X60274819Y-88726190D01*
X60274819Y-88726190D02*
X60227200Y-88821428D01*
X60227200Y-88821428D02*
X60179580Y-88869047D01*
X60179580Y-88869047D02*
X60036723Y-88964285D01*
X60036723Y-88964285D02*
X59846247Y-89011904D01*
X59846247Y-89011904D02*
X59465295Y-89011904D01*
X59465295Y-89011904D02*
X59370057Y-88964285D01*
X59370057Y-88964285D02*
X59322438Y-88916666D01*
X59322438Y-88916666D02*
X59274819Y-88821428D01*
X59274819Y-88821428D02*
X59274819Y-88630952D01*
X59274819Y-88630952D02*
X59322438Y-88535714D01*
X59322438Y-88535714D02*
X59370057Y-88488095D01*
X59370057Y-88488095D02*
X59465295Y-88440476D01*
X59465295Y-88440476D02*
X59703390Y-88440476D01*
X59703390Y-88440476D02*
X59798628Y-88488095D01*
X59798628Y-88488095D02*
X59846247Y-88535714D01*
X59846247Y-88535714D02*
X59893866Y-88630952D01*
X59893866Y-88630952D02*
X59893866Y-88821428D01*
X59893866Y-88821428D02*
X59846247Y-88916666D01*
X59846247Y-88916666D02*
X59798628Y-88964285D01*
X59798628Y-88964285D02*
X59703390Y-89011904D01*
X148024819Y-84107142D02*
X147548628Y-83773809D01*
X148024819Y-83535714D02*
X147024819Y-83535714D01*
X147024819Y-83535714D02*
X147024819Y-83916666D01*
X147024819Y-83916666D02*
X147072438Y-84011904D01*
X147072438Y-84011904D02*
X147120057Y-84059523D01*
X147120057Y-84059523D02*
X147215295Y-84107142D01*
X147215295Y-84107142D02*
X147358152Y-84107142D01*
X147358152Y-84107142D02*
X147453390Y-84059523D01*
X147453390Y-84059523D02*
X147501009Y-84011904D01*
X147501009Y-84011904D02*
X147548628Y-83916666D01*
X147548628Y-83916666D02*
X147548628Y-83535714D01*
X147024819Y-84440476D02*
X147024819Y-85059523D01*
X147024819Y-85059523D02*
X147405771Y-84726190D01*
X147405771Y-84726190D02*
X147405771Y-84869047D01*
X147405771Y-84869047D02*
X147453390Y-84964285D01*
X147453390Y-84964285D02*
X147501009Y-85011904D01*
X147501009Y-85011904D02*
X147596247Y-85059523D01*
X147596247Y-85059523D02*
X147834342Y-85059523D01*
X147834342Y-85059523D02*
X147929580Y-85011904D01*
X147929580Y-85011904D02*
X147977200Y-84964285D01*
X147977200Y-84964285D02*
X148024819Y-84869047D01*
X148024819Y-84869047D02*
X148024819Y-84583333D01*
X148024819Y-84583333D02*
X147977200Y-84488095D01*
X147977200Y-84488095D02*
X147929580Y-84440476D01*
X147024819Y-85916666D02*
X147024819Y-85726190D01*
X147024819Y-85726190D02*
X147072438Y-85630952D01*
X147072438Y-85630952D02*
X147120057Y-85583333D01*
X147120057Y-85583333D02*
X147262914Y-85488095D01*
X147262914Y-85488095D02*
X147453390Y-85440476D01*
X147453390Y-85440476D02*
X147834342Y-85440476D01*
X147834342Y-85440476D02*
X147929580Y-85488095D01*
X147929580Y-85488095D02*
X147977200Y-85535714D01*
X147977200Y-85535714D02*
X148024819Y-85630952D01*
X148024819Y-85630952D02*
X148024819Y-85821428D01*
X148024819Y-85821428D02*
X147977200Y-85916666D01*
X147977200Y-85916666D02*
X147929580Y-85964285D01*
X147929580Y-85964285D02*
X147834342Y-86011904D01*
X147834342Y-86011904D02*
X147596247Y-86011904D01*
X147596247Y-86011904D02*
X147501009Y-85964285D01*
X147501009Y-85964285D02*
X147453390Y-85916666D01*
X147453390Y-85916666D02*
X147405771Y-85821428D01*
X147405771Y-85821428D02*
X147405771Y-85630952D01*
X147405771Y-85630952D02*
X147453390Y-85535714D01*
X147453390Y-85535714D02*
X147501009Y-85488095D01*
X147501009Y-85488095D02*
X147596247Y-85440476D01*
X178134819Y-129607142D02*
X177658628Y-129273809D01*
X178134819Y-129035714D02*
X177134819Y-129035714D01*
X177134819Y-129035714D02*
X177134819Y-129416666D01*
X177134819Y-129416666D02*
X177182438Y-129511904D01*
X177182438Y-129511904D02*
X177230057Y-129559523D01*
X177230057Y-129559523D02*
X177325295Y-129607142D01*
X177325295Y-129607142D02*
X177468152Y-129607142D01*
X177468152Y-129607142D02*
X177563390Y-129559523D01*
X177563390Y-129559523D02*
X177611009Y-129511904D01*
X177611009Y-129511904D02*
X177658628Y-129416666D01*
X177658628Y-129416666D02*
X177658628Y-129035714D01*
X177134819Y-129940476D02*
X177134819Y-130559523D01*
X177134819Y-130559523D02*
X177515771Y-130226190D01*
X177515771Y-130226190D02*
X177515771Y-130369047D01*
X177515771Y-130369047D02*
X177563390Y-130464285D01*
X177563390Y-130464285D02*
X177611009Y-130511904D01*
X177611009Y-130511904D02*
X177706247Y-130559523D01*
X177706247Y-130559523D02*
X177944342Y-130559523D01*
X177944342Y-130559523D02*
X178039580Y-130511904D01*
X178039580Y-130511904D02*
X178087200Y-130464285D01*
X178087200Y-130464285D02*
X178134819Y-130369047D01*
X178134819Y-130369047D02*
X178134819Y-130083333D01*
X178134819Y-130083333D02*
X178087200Y-129988095D01*
X178087200Y-129988095D02*
X178039580Y-129940476D01*
X178134819Y-131511904D02*
X178134819Y-130940476D01*
X178134819Y-131226190D02*
X177134819Y-131226190D01*
X177134819Y-131226190D02*
X177277676Y-131130952D01*
X177277676Y-131130952D02*
X177372914Y-131035714D01*
X177372914Y-131035714D02*
X177420533Y-130940476D01*
X24134819Y-129607142D02*
X23658628Y-129273809D01*
X24134819Y-129035714D02*
X23134819Y-129035714D01*
X23134819Y-129035714D02*
X23134819Y-129416666D01*
X23134819Y-129416666D02*
X23182438Y-129511904D01*
X23182438Y-129511904D02*
X23230057Y-129559523D01*
X23230057Y-129559523D02*
X23325295Y-129607142D01*
X23325295Y-129607142D02*
X23468152Y-129607142D01*
X23468152Y-129607142D02*
X23563390Y-129559523D01*
X23563390Y-129559523D02*
X23611009Y-129511904D01*
X23611009Y-129511904D02*
X23658628Y-129416666D01*
X23658628Y-129416666D02*
X23658628Y-129035714D01*
X23230057Y-129988095D02*
X23182438Y-130035714D01*
X23182438Y-130035714D02*
X23134819Y-130130952D01*
X23134819Y-130130952D02*
X23134819Y-130369047D01*
X23134819Y-130369047D02*
X23182438Y-130464285D01*
X23182438Y-130464285D02*
X23230057Y-130511904D01*
X23230057Y-130511904D02*
X23325295Y-130559523D01*
X23325295Y-130559523D02*
X23420533Y-130559523D01*
X23420533Y-130559523D02*
X23563390Y-130511904D01*
X23563390Y-130511904D02*
X24134819Y-129940476D01*
X24134819Y-129940476D02*
X24134819Y-130559523D01*
X23468152Y-131416666D02*
X24134819Y-131416666D01*
X23087200Y-131178571D02*
X23801485Y-130940476D01*
X23801485Y-130940476D02*
X23801485Y-131559523D01*
X113517857Y-94959580D02*
X113565476Y-95007200D01*
X113565476Y-95007200D02*
X113708333Y-95054819D01*
X113708333Y-95054819D02*
X113803571Y-95054819D01*
X113803571Y-95054819D02*
X113946428Y-95007200D01*
X113946428Y-95007200D02*
X114041666Y-94911961D01*
X114041666Y-94911961D02*
X114089285Y-94816723D01*
X114089285Y-94816723D02*
X114136904Y-94626247D01*
X114136904Y-94626247D02*
X114136904Y-94483390D01*
X114136904Y-94483390D02*
X114089285Y-94292914D01*
X114089285Y-94292914D02*
X114041666Y-94197676D01*
X114041666Y-94197676D02*
X113946428Y-94102438D01*
X113946428Y-94102438D02*
X113803571Y-94054819D01*
X113803571Y-94054819D02*
X113708333Y-94054819D01*
X113708333Y-94054819D02*
X113565476Y-94102438D01*
X113565476Y-94102438D02*
X113517857Y-94150057D01*
X113136904Y-94150057D02*
X113089285Y-94102438D01*
X113089285Y-94102438D02*
X112994047Y-94054819D01*
X112994047Y-94054819D02*
X112755952Y-94054819D01*
X112755952Y-94054819D02*
X112660714Y-94102438D01*
X112660714Y-94102438D02*
X112613095Y-94150057D01*
X112613095Y-94150057D02*
X112565476Y-94245295D01*
X112565476Y-94245295D02*
X112565476Y-94340533D01*
X112565476Y-94340533D02*
X112613095Y-94483390D01*
X112613095Y-94483390D02*
X113184523Y-95054819D01*
X113184523Y-95054819D02*
X112565476Y-95054819D01*
X111994047Y-94483390D02*
X112089285Y-94435771D01*
X112089285Y-94435771D02*
X112136904Y-94388152D01*
X112136904Y-94388152D02*
X112184523Y-94292914D01*
X112184523Y-94292914D02*
X112184523Y-94245295D01*
X112184523Y-94245295D02*
X112136904Y-94150057D01*
X112136904Y-94150057D02*
X112089285Y-94102438D01*
X112089285Y-94102438D02*
X111994047Y-94054819D01*
X111994047Y-94054819D02*
X111803571Y-94054819D01*
X111803571Y-94054819D02*
X111708333Y-94102438D01*
X111708333Y-94102438D02*
X111660714Y-94150057D01*
X111660714Y-94150057D02*
X111613095Y-94245295D01*
X111613095Y-94245295D02*
X111613095Y-94292914D01*
X111613095Y-94292914D02*
X111660714Y-94388152D01*
X111660714Y-94388152D02*
X111708333Y-94435771D01*
X111708333Y-94435771D02*
X111803571Y-94483390D01*
X111803571Y-94483390D02*
X111994047Y-94483390D01*
X111994047Y-94483390D02*
X112089285Y-94531009D01*
X112089285Y-94531009D02*
X112136904Y-94578628D01*
X112136904Y-94578628D02*
X112184523Y-94673866D01*
X112184523Y-94673866D02*
X112184523Y-94864342D01*
X112184523Y-94864342D02*
X112136904Y-94959580D01*
X112136904Y-94959580D02*
X112089285Y-95007200D01*
X112089285Y-95007200D02*
X111994047Y-95054819D01*
X111994047Y-95054819D02*
X111803571Y-95054819D01*
X111803571Y-95054819D02*
X111708333Y-95007200D01*
X111708333Y-95007200D02*
X111660714Y-94959580D01*
X111660714Y-94959580D02*
X111613095Y-94864342D01*
X111613095Y-94864342D02*
X111613095Y-94673866D01*
X111613095Y-94673866D02*
X111660714Y-94578628D01*
X111660714Y-94578628D02*
X111708333Y-94531009D01*
X111708333Y-94531009D02*
X111803571Y-94483390D01*
X24134819Y-132607142D02*
X23658628Y-132273809D01*
X24134819Y-132035714D02*
X23134819Y-132035714D01*
X23134819Y-132035714D02*
X23134819Y-132416666D01*
X23134819Y-132416666D02*
X23182438Y-132511904D01*
X23182438Y-132511904D02*
X23230057Y-132559523D01*
X23230057Y-132559523D02*
X23325295Y-132607142D01*
X23325295Y-132607142D02*
X23468152Y-132607142D01*
X23468152Y-132607142D02*
X23563390Y-132559523D01*
X23563390Y-132559523D02*
X23611009Y-132511904D01*
X23611009Y-132511904D02*
X23658628Y-132416666D01*
X23658628Y-132416666D02*
X23658628Y-132035714D01*
X24134819Y-133559523D02*
X24134819Y-132988095D01*
X24134819Y-133273809D02*
X23134819Y-133273809D01*
X23134819Y-133273809D02*
X23277676Y-133178571D01*
X23277676Y-133178571D02*
X23372914Y-133083333D01*
X23372914Y-133083333D02*
X23420533Y-132988095D01*
X23134819Y-133892857D02*
X23134819Y-134511904D01*
X23134819Y-134511904D02*
X23515771Y-134178571D01*
X23515771Y-134178571D02*
X23515771Y-134321428D01*
X23515771Y-134321428D02*
X23563390Y-134416666D01*
X23563390Y-134416666D02*
X23611009Y-134464285D01*
X23611009Y-134464285D02*
X23706247Y-134511904D01*
X23706247Y-134511904D02*
X23944342Y-134511904D01*
X23944342Y-134511904D02*
X24039580Y-134464285D01*
X24039580Y-134464285D02*
X24087200Y-134416666D01*
X24087200Y-134416666D02*
X24134819Y-134321428D01*
X24134819Y-134321428D02*
X24134819Y-134035714D01*
X24134819Y-134035714D02*
X24087200Y-133940476D01*
X24087200Y-133940476D02*
X24039580Y-133892857D01*
X57117857Y-111859580D02*
X57165476Y-111907200D01*
X57165476Y-111907200D02*
X57308333Y-111954819D01*
X57308333Y-111954819D02*
X57403571Y-111954819D01*
X57403571Y-111954819D02*
X57546428Y-111907200D01*
X57546428Y-111907200D02*
X57641666Y-111811961D01*
X57641666Y-111811961D02*
X57689285Y-111716723D01*
X57689285Y-111716723D02*
X57736904Y-111526247D01*
X57736904Y-111526247D02*
X57736904Y-111383390D01*
X57736904Y-111383390D02*
X57689285Y-111192914D01*
X57689285Y-111192914D02*
X57641666Y-111097676D01*
X57641666Y-111097676D02*
X57546428Y-111002438D01*
X57546428Y-111002438D02*
X57403571Y-110954819D01*
X57403571Y-110954819D02*
X57308333Y-110954819D01*
X57308333Y-110954819D02*
X57165476Y-111002438D01*
X57165476Y-111002438D02*
X57117857Y-111050057D01*
X56736904Y-111050057D02*
X56689285Y-111002438D01*
X56689285Y-111002438D02*
X56594047Y-110954819D01*
X56594047Y-110954819D02*
X56355952Y-110954819D01*
X56355952Y-110954819D02*
X56260714Y-111002438D01*
X56260714Y-111002438D02*
X56213095Y-111050057D01*
X56213095Y-111050057D02*
X56165476Y-111145295D01*
X56165476Y-111145295D02*
X56165476Y-111240533D01*
X56165476Y-111240533D02*
X56213095Y-111383390D01*
X56213095Y-111383390D02*
X56784523Y-111954819D01*
X56784523Y-111954819D02*
X56165476Y-111954819D01*
X55546428Y-110954819D02*
X55451190Y-110954819D01*
X55451190Y-110954819D02*
X55355952Y-111002438D01*
X55355952Y-111002438D02*
X55308333Y-111050057D01*
X55308333Y-111050057D02*
X55260714Y-111145295D01*
X55260714Y-111145295D02*
X55213095Y-111335771D01*
X55213095Y-111335771D02*
X55213095Y-111573866D01*
X55213095Y-111573866D02*
X55260714Y-111764342D01*
X55260714Y-111764342D02*
X55308333Y-111859580D01*
X55308333Y-111859580D02*
X55355952Y-111907200D01*
X55355952Y-111907200D02*
X55451190Y-111954819D01*
X55451190Y-111954819D02*
X55546428Y-111954819D01*
X55546428Y-111954819D02*
X55641666Y-111907200D01*
X55641666Y-111907200D02*
X55689285Y-111859580D01*
X55689285Y-111859580D02*
X55736904Y-111764342D01*
X55736904Y-111764342D02*
X55784523Y-111573866D01*
X55784523Y-111573866D02*
X55784523Y-111335771D01*
X55784523Y-111335771D02*
X55736904Y-111145295D01*
X55736904Y-111145295D02*
X55689285Y-111050057D01*
X55689285Y-111050057D02*
X55641666Y-111002438D01*
X55641666Y-111002438D02*
X55546428Y-110954819D01*
X112134819Y-132607142D02*
X111658628Y-132273809D01*
X112134819Y-132035714D02*
X111134819Y-132035714D01*
X111134819Y-132035714D02*
X111134819Y-132416666D01*
X111134819Y-132416666D02*
X111182438Y-132511904D01*
X111182438Y-132511904D02*
X111230057Y-132559523D01*
X111230057Y-132559523D02*
X111325295Y-132607142D01*
X111325295Y-132607142D02*
X111468152Y-132607142D01*
X111468152Y-132607142D02*
X111563390Y-132559523D01*
X111563390Y-132559523D02*
X111611009Y-132511904D01*
X111611009Y-132511904D02*
X111658628Y-132416666D01*
X111658628Y-132416666D02*
X111658628Y-132035714D01*
X112134819Y-133559523D02*
X112134819Y-132988095D01*
X112134819Y-133273809D02*
X111134819Y-133273809D01*
X111134819Y-133273809D02*
X111277676Y-133178571D01*
X111277676Y-133178571D02*
X111372914Y-133083333D01*
X111372914Y-133083333D02*
X111420533Y-132988095D01*
X111134819Y-133892857D02*
X111134819Y-134559523D01*
X111134819Y-134559523D02*
X112134819Y-134130952D01*
X105234580Y-96707142D02*
X105282200Y-96659523D01*
X105282200Y-96659523D02*
X105329819Y-96516666D01*
X105329819Y-96516666D02*
X105329819Y-96421428D01*
X105329819Y-96421428D02*
X105282200Y-96278571D01*
X105282200Y-96278571D02*
X105186961Y-96183333D01*
X105186961Y-96183333D02*
X105091723Y-96135714D01*
X105091723Y-96135714D02*
X104901247Y-96088095D01*
X104901247Y-96088095D02*
X104758390Y-96088095D01*
X104758390Y-96088095D02*
X104567914Y-96135714D01*
X104567914Y-96135714D02*
X104472676Y-96183333D01*
X104472676Y-96183333D02*
X104377438Y-96278571D01*
X104377438Y-96278571D02*
X104329819Y-96421428D01*
X104329819Y-96421428D02*
X104329819Y-96516666D01*
X104329819Y-96516666D02*
X104377438Y-96659523D01*
X104377438Y-96659523D02*
X104425057Y-96707142D01*
X104425057Y-97088095D02*
X104377438Y-97135714D01*
X104377438Y-97135714D02*
X104329819Y-97230952D01*
X104329819Y-97230952D02*
X104329819Y-97469047D01*
X104329819Y-97469047D02*
X104377438Y-97564285D01*
X104377438Y-97564285D02*
X104425057Y-97611904D01*
X104425057Y-97611904D02*
X104520295Y-97659523D01*
X104520295Y-97659523D02*
X104615533Y-97659523D01*
X104615533Y-97659523D02*
X104758390Y-97611904D01*
X104758390Y-97611904D02*
X105329819Y-97040476D01*
X105329819Y-97040476D02*
X105329819Y-97659523D01*
X105329819Y-98135714D02*
X105329819Y-98326190D01*
X105329819Y-98326190D02*
X105282200Y-98421428D01*
X105282200Y-98421428D02*
X105234580Y-98469047D01*
X105234580Y-98469047D02*
X105091723Y-98564285D01*
X105091723Y-98564285D02*
X104901247Y-98611904D01*
X104901247Y-98611904D02*
X104520295Y-98611904D01*
X104520295Y-98611904D02*
X104425057Y-98564285D01*
X104425057Y-98564285D02*
X104377438Y-98516666D01*
X104377438Y-98516666D02*
X104329819Y-98421428D01*
X104329819Y-98421428D02*
X104329819Y-98230952D01*
X104329819Y-98230952D02*
X104377438Y-98135714D01*
X104377438Y-98135714D02*
X104425057Y-98088095D01*
X104425057Y-98088095D02*
X104520295Y-98040476D01*
X104520295Y-98040476D02*
X104758390Y-98040476D01*
X104758390Y-98040476D02*
X104853628Y-98088095D01*
X104853628Y-98088095D02*
X104901247Y-98135714D01*
X104901247Y-98135714D02*
X104948866Y-98230952D01*
X104948866Y-98230952D02*
X104948866Y-98421428D01*
X104948866Y-98421428D02*
X104901247Y-98516666D01*
X104901247Y-98516666D02*
X104853628Y-98564285D01*
X104853628Y-98564285D02*
X104758390Y-98611904D01*
X126274819Y-84107142D02*
X125798628Y-83773809D01*
X126274819Y-83535714D02*
X125274819Y-83535714D01*
X125274819Y-83535714D02*
X125274819Y-83916666D01*
X125274819Y-83916666D02*
X125322438Y-84011904D01*
X125322438Y-84011904D02*
X125370057Y-84059523D01*
X125370057Y-84059523D02*
X125465295Y-84107142D01*
X125465295Y-84107142D02*
X125608152Y-84107142D01*
X125608152Y-84107142D02*
X125703390Y-84059523D01*
X125703390Y-84059523D02*
X125751009Y-84011904D01*
X125751009Y-84011904D02*
X125798628Y-83916666D01*
X125798628Y-83916666D02*
X125798628Y-83535714D01*
X125274819Y-84440476D02*
X125274819Y-85059523D01*
X125274819Y-85059523D02*
X125655771Y-84726190D01*
X125655771Y-84726190D02*
X125655771Y-84869047D01*
X125655771Y-84869047D02*
X125703390Y-84964285D01*
X125703390Y-84964285D02*
X125751009Y-85011904D01*
X125751009Y-85011904D02*
X125846247Y-85059523D01*
X125846247Y-85059523D02*
X126084342Y-85059523D01*
X126084342Y-85059523D02*
X126179580Y-85011904D01*
X126179580Y-85011904D02*
X126227200Y-84964285D01*
X126227200Y-84964285D02*
X126274819Y-84869047D01*
X126274819Y-84869047D02*
X126274819Y-84583333D01*
X126274819Y-84583333D02*
X126227200Y-84488095D01*
X126227200Y-84488095D02*
X126179580Y-84440476D01*
X125274819Y-85392857D02*
X125274819Y-86059523D01*
X125274819Y-86059523D02*
X126274819Y-85630952D01*
X156134819Y-132607142D02*
X155658628Y-132273809D01*
X156134819Y-132035714D02*
X155134819Y-132035714D01*
X155134819Y-132035714D02*
X155134819Y-132416666D01*
X155134819Y-132416666D02*
X155182438Y-132511904D01*
X155182438Y-132511904D02*
X155230057Y-132559523D01*
X155230057Y-132559523D02*
X155325295Y-132607142D01*
X155325295Y-132607142D02*
X155468152Y-132607142D01*
X155468152Y-132607142D02*
X155563390Y-132559523D01*
X155563390Y-132559523D02*
X155611009Y-132511904D01*
X155611009Y-132511904D02*
X155658628Y-132416666D01*
X155658628Y-132416666D02*
X155658628Y-132035714D01*
X156134819Y-133559523D02*
X156134819Y-132988095D01*
X156134819Y-133273809D02*
X155134819Y-133273809D01*
X155134819Y-133273809D02*
X155277676Y-133178571D01*
X155277676Y-133178571D02*
X155372914Y-133083333D01*
X155372914Y-133083333D02*
X155420533Y-132988095D01*
X156134819Y-134035714D02*
X156134819Y-134226190D01*
X156134819Y-134226190D02*
X156087200Y-134321428D01*
X156087200Y-134321428D02*
X156039580Y-134369047D01*
X156039580Y-134369047D02*
X155896723Y-134464285D01*
X155896723Y-134464285D02*
X155706247Y-134511904D01*
X155706247Y-134511904D02*
X155325295Y-134511904D01*
X155325295Y-134511904D02*
X155230057Y-134464285D01*
X155230057Y-134464285D02*
X155182438Y-134416666D01*
X155182438Y-134416666D02*
X155134819Y-134321428D01*
X155134819Y-134321428D02*
X155134819Y-134130952D01*
X155134819Y-134130952D02*
X155182438Y-134035714D01*
X155182438Y-134035714D02*
X155230057Y-133988095D01*
X155230057Y-133988095D02*
X155325295Y-133940476D01*
X155325295Y-133940476D02*
X155563390Y-133940476D01*
X155563390Y-133940476D02*
X155658628Y-133988095D01*
X155658628Y-133988095D02*
X155706247Y-134035714D01*
X155706247Y-134035714D02*
X155753866Y-134130952D01*
X155753866Y-134130952D02*
X155753866Y-134321428D01*
X155753866Y-134321428D02*
X155706247Y-134416666D01*
X155706247Y-134416666D02*
X155658628Y-134464285D01*
X155658628Y-134464285D02*
X155563390Y-134511904D01*
X107289580Y-118382142D02*
X107337200Y-118334523D01*
X107337200Y-118334523D02*
X107384819Y-118191666D01*
X107384819Y-118191666D02*
X107384819Y-118096428D01*
X107384819Y-118096428D02*
X107337200Y-117953571D01*
X107337200Y-117953571D02*
X107241961Y-117858333D01*
X107241961Y-117858333D02*
X107146723Y-117810714D01*
X107146723Y-117810714D02*
X106956247Y-117763095D01*
X106956247Y-117763095D02*
X106813390Y-117763095D01*
X106813390Y-117763095D02*
X106622914Y-117810714D01*
X106622914Y-117810714D02*
X106527676Y-117858333D01*
X106527676Y-117858333D02*
X106432438Y-117953571D01*
X106432438Y-117953571D02*
X106384819Y-118096428D01*
X106384819Y-118096428D02*
X106384819Y-118191666D01*
X106384819Y-118191666D02*
X106432438Y-118334523D01*
X106432438Y-118334523D02*
X106480057Y-118382142D01*
X106480057Y-118763095D02*
X106432438Y-118810714D01*
X106432438Y-118810714D02*
X106384819Y-118905952D01*
X106384819Y-118905952D02*
X106384819Y-119144047D01*
X106384819Y-119144047D02*
X106432438Y-119239285D01*
X106432438Y-119239285D02*
X106480057Y-119286904D01*
X106480057Y-119286904D02*
X106575295Y-119334523D01*
X106575295Y-119334523D02*
X106670533Y-119334523D01*
X106670533Y-119334523D02*
X106813390Y-119286904D01*
X106813390Y-119286904D02*
X107384819Y-118715476D01*
X107384819Y-118715476D02*
X107384819Y-119334523D01*
X106384819Y-120239285D02*
X106384819Y-119763095D01*
X106384819Y-119763095D02*
X106861009Y-119715476D01*
X106861009Y-119715476D02*
X106813390Y-119763095D01*
X106813390Y-119763095D02*
X106765771Y-119858333D01*
X106765771Y-119858333D02*
X106765771Y-120096428D01*
X106765771Y-120096428D02*
X106813390Y-120191666D01*
X106813390Y-120191666D02*
X106861009Y-120239285D01*
X106861009Y-120239285D02*
X106956247Y-120286904D01*
X106956247Y-120286904D02*
X107194342Y-120286904D01*
X107194342Y-120286904D02*
X107289580Y-120239285D01*
X107289580Y-120239285D02*
X107337200Y-120191666D01*
X107337200Y-120191666D02*
X107384819Y-120096428D01*
X107384819Y-120096428D02*
X107384819Y-119858333D01*
X107384819Y-119858333D02*
X107337200Y-119763095D01*
X107337200Y-119763095D02*
X107289580Y-119715476D01*
X112134819Y-129607142D02*
X111658628Y-129273809D01*
X112134819Y-129035714D02*
X111134819Y-129035714D01*
X111134819Y-129035714D02*
X111134819Y-129416666D01*
X111134819Y-129416666D02*
X111182438Y-129511904D01*
X111182438Y-129511904D02*
X111230057Y-129559523D01*
X111230057Y-129559523D02*
X111325295Y-129607142D01*
X111325295Y-129607142D02*
X111468152Y-129607142D01*
X111468152Y-129607142D02*
X111563390Y-129559523D01*
X111563390Y-129559523D02*
X111611009Y-129511904D01*
X111611009Y-129511904D02*
X111658628Y-129416666D01*
X111658628Y-129416666D02*
X111658628Y-129035714D01*
X111230057Y-129988095D02*
X111182438Y-130035714D01*
X111182438Y-130035714D02*
X111134819Y-130130952D01*
X111134819Y-130130952D02*
X111134819Y-130369047D01*
X111134819Y-130369047D02*
X111182438Y-130464285D01*
X111182438Y-130464285D02*
X111230057Y-130511904D01*
X111230057Y-130511904D02*
X111325295Y-130559523D01*
X111325295Y-130559523D02*
X111420533Y-130559523D01*
X111420533Y-130559523D02*
X111563390Y-130511904D01*
X111563390Y-130511904D02*
X112134819Y-129940476D01*
X112134819Y-129940476D02*
X112134819Y-130559523D01*
X111563390Y-131130952D02*
X111515771Y-131035714D01*
X111515771Y-131035714D02*
X111468152Y-130988095D01*
X111468152Y-130988095D02*
X111372914Y-130940476D01*
X111372914Y-130940476D02*
X111325295Y-130940476D01*
X111325295Y-130940476D02*
X111230057Y-130988095D01*
X111230057Y-130988095D02*
X111182438Y-131035714D01*
X111182438Y-131035714D02*
X111134819Y-131130952D01*
X111134819Y-131130952D02*
X111134819Y-131321428D01*
X111134819Y-131321428D02*
X111182438Y-131416666D01*
X111182438Y-131416666D02*
X111230057Y-131464285D01*
X111230057Y-131464285D02*
X111325295Y-131511904D01*
X111325295Y-131511904D02*
X111372914Y-131511904D01*
X111372914Y-131511904D02*
X111468152Y-131464285D01*
X111468152Y-131464285D02*
X111515771Y-131416666D01*
X111515771Y-131416666D02*
X111563390Y-131321428D01*
X111563390Y-131321428D02*
X111563390Y-131130952D01*
X111563390Y-131130952D02*
X111611009Y-131035714D01*
X111611009Y-131035714D02*
X111658628Y-130988095D01*
X111658628Y-130988095D02*
X111753866Y-130940476D01*
X111753866Y-130940476D02*
X111944342Y-130940476D01*
X111944342Y-130940476D02*
X112039580Y-130988095D01*
X112039580Y-130988095D02*
X112087200Y-131035714D01*
X112087200Y-131035714D02*
X112134819Y-131130952D01*
X112134819Y-131130952D02*
X112134819Y-131321428D01*
X112134819Y-131321428D02*
X112087200Y-131416666D01*
X112087200Y-131416666D02*
X112039580Y-131464285D01*
X112039580Y-131464285D02*
X111944342Y-131511904D01*
X111944342Y-131511904D02*
X111753866Y-131511904D01*
X111753866Y-131511904D02*
X111658628Y-131464285D01*
X111658628Y-131464285D02*
X111611009Y-131416666D01*
X111611009Y-131416666D02*
X111563390Y-131321428D01*
X231031569Y-62891666D02*
X231745854Y-62891666D01*
X231745854Y-62891666D02*
X231888711Y-62844047D01*
X231888711Y-62844047D02*
X231983950Y-62748809D01*
X231983950Y-62748809D02*
X232031569Y-62605952D01*
X232031569Y-62605952D02*
X232031569Y-62510714D01*
X232031569Y-63367857D02*
X231031569Y-63367857D01*
X231031569Y-63367857D02*
X231031569Y-63748809D01*
X231031569Y-63748809D02*
X231079188Y-63844047D01*
X231079188Y-63844047D02*
X231126807Y-63891666D01*
X231126807Y-63891666D02*
X231222045Y-63939285D01*
X231222045Y-63939285D02*
X231364902Y-63939285D01*
X231364902Y-63939285D02*
X231460140Y-63891666D01*
X231460140Y-63891666D02*
X231507759Y-63844047D01*
X231507759Y-63844047D02*
X231555378Y-63748809D01*
X231555378Y-63748809D02*
X231555378Y-63367857D01*
X231031569Y-64272619D02*
X231031569Y-64891666D01*
X231031569Y-64891666D02*
X231412521Y-64558333D01*
X231412521Y-64558333D02*
X231412521Y-64701190D01*
X231412521Y-64701190D02*
X231460140Y-64796428D01*
X231460140Y-64796428D02*
X231507759Y-64844047D01*
X231507759Y-64844047D02*
X231602997Y-64891666D01*
X231602997Y-64891666D02*
X231841092Y-64891666D01*
X231841092Y-64891666D02*
X231936330Y-64844047D01*
X231936330Y-64844047D02*
X231983950Y-64796428D01*
X231983950Y-64796428D02*
X232031569Y-64701190D01*
X232031569Y-64701190D02*
X232031569Y-64415476D01*
X232031569Y-64415476D02*
X231983950Y-64320238D01*
X231983950Y-64320238D02*
X231936330Y-64272619D01*
X192024819Y-83782142D02*
X191548628Y-83448809D01*
X192024819Y-83210714D02*
X191024819Y-83210714D01*
X191024819Y-83210714D02*
X191024819Y-83591666D01*
X191024819Y-83591666D02*
X191072438Y-83686904D01*
X191072438Y-83686904D02*
X191120057Y-83734523D01*
X191120057Y-83734523D02*
X191215295Y-83782142D01*
X191215295Y-83782142D02*
X191358152Y-83782142D01*
X191358152Y-83782142D02*
X191453390Y-83734523D01*
X191453390Y-83734523D02*
X191501009Y-83686904D01*
X191501009Y-83686904D02*
X191548628Y-83591666D01*
X191548628Y-83591666D02*
X191548628Y-83210714D01*
X191024819Y-84115476D02*
X191024819Y-84734523D01*
X191024819Y-84734523D02*
X191405771Y-84401190D01*
X191405771Y-84401190D02*
X191405771Y-84544047D01*
X191405771Y-84544047D02*
X191453390Y-84639285D01*
X191453390Y-84639285D02*
X191501009Y-84686904D01*
X191501009Y-84686904D02*
X191596247Y-84734523D01*
X191596247Y-84734523D02*
X191834342Y-84734523D01*
X191834342Y-84734523D02*
X191929580Y-84686904D01*
X191929580Y-84686904D02*
X191977200Y-84639285D01*
X191977200Y-84639285D02*
X192024819Y-84544047D01*
X192024819Y-84544047D02*
X192024819Y-84258333D01*
X192024819Y-84258333D02*
X191977200Y-84163095D01*
X191977200Y-84163095D02*
X191929580Y-84115476D01*
X191358152Y-85591666D02*
X192024819Y-85591666D01*
X190977200Y-85353571D02*
X191691485Y-85115476D01*
X191691485Y-85115476D02*
X191691485Y-85734523D01*
X82024819Y-84107142D02*
X81548628Y-83773809D01*
X82024819Y-83535714D02*
X81024819Y-83535714D01*
X81024819Y-83535714D02*
X81024819Y-83916666D01*
X81024819Y-83916666D02*
X81072438Y-84011904D01*
X81072438Y-84011904D02*
X81120057Y-84059523D01*
X81120057Y-84059523D02*
X81215295Y-84107142D01*
X81215295Y-84107142D02*
X81358152Y-84107142D01*
X81358152Y-84107142D02*
X81453390Y-84059523D01*
X81453390Y-84059523D02*
X81501009Y-84011904D01*
X81501009Y-84011904D02*
X81548628Y-83916666D01*
X81548628Y-83916666D02*
X81548628Y-83535714D01*
X81024819Y-84440476D02*
X81024819Y-85059523D01*
X81024819Y-85059523D02*
X81405771Y-84726190D01*
X81405771Y-84726190D02*
X81405771Y-84869047D01*
X81405771Y-84869047D02*
X81453390Y-84964285D01*
X81453390Y-84964285D02*
X81501009Y-85011904D01*
X81501009Y-85011904D02*
X81596247Y-85059523D01*
X81596247Y-85059523D02*
X81834342Y-85059523D01*
X81834342Y-85059523D02*
X81929580Y-85011904D01*
X81929580Y-85011904D02*
X81977200Y-84964285D01*
X81977200Y-84964285D02*
X82024819Y-84869047D01*
X82024819Y-84869047D02*
X82024819Y-84583333D01*
X82024819Y-84583333D02*
X81977200Y-84488095D01*
X81977200Y-84488095D02*
X81929580Y-84440476D01*
X82024819Y-85535714D02*
X82024819Y-85726190D01*
X82024819Y-85726190D02*
X81977200Y-85821428D01*
X81977200Y-85821428D02*
X81929580Y-85869047D01*
X81929580Y-85869047D02*
X81786723Y-85964285D01*
X81786723Y-85964285D02*
X81596247Y-86011904D01*
X81596247Y-86011904D02*
X81215295Y-86011904D01*
X81215295Y-86011904D02*
X81120057Y-85964285D01*
X81120057Y-85964285D02*
X81072438Y-85916666D01*
X81072438Y-85916666D02*
X81024819Y-85821428D01*
X81024819Y-85821428D02*
X81024819Y-85630952D01*
X81024819Y-85630952D02*
X81072438Y-85535714D01*
X81072438Y-85535714D02*
X81120057Y-85488095D01*
X81120057Y-85488095D02*
X81215295Y-85440476D01*
X81215295Y-85440476D02*
X81453390Y-85440476D01*
X81453390Y-85440476D02*
X81548628Y-85488095D01*
X81548628Y-85488095D02*
X81596247Y-85535714D01*
X81596247Y-85535714D02*
X81643866Y-85630952D01*
X81643866Y-85630952D02*
X81643866Y-85821428D01*
X81643866Y-85821428D02*
X81596247Y-85916666D01*
X81596247Y-85916666D02*
X81548628Y-85964285D01*
X81548628Y-85964285D02*
X81453390Y-86011904D01*
X126274819Y-87107142D02*
X125798628Y-86773809D01*
X126274819Y-86535714D02*
X125274819Y-86535714D01*
X125274819Y-86535714D02*
X125274819Y-86916666D01*
X125274819Y-86916666D02*
X125322438Y-87011904D01*
X125322438Y-87011904D02*
X125370057Y-87059523D01*
X125370057Y-87059523D02*
X125465295Y-87107142D01*
X125465295Y-87107142D02*
X125608152Y-87107142D01*
X125608152Y-87107142D02*
X125703390Y-87059523D01*
X125703390Y-87059523D02*
X125751009Y-87011904D01*
X125751009Y-87011904D02*
X125798628Y-86916666D01*
X125798628Y-86916666D02*
X125798628Y-86535714D01*
X125608152Y-87964285D02*
X126274819Y-87964285D01*
X125227200Y-87726190D02*
X125941485Y-87488095D01*
X125941485Y-87488095D02*
X125941485Y-88107142D01*
X125274819Y-88916666D02*
X125274819Y-88726190D01*
X125274819Y-88726190D02*
X125322438Y-88630952D01*
X125322438Y-88630952D02*
X125370057Y-88583333D01*
X125370057Y-88583333D02*
X125512914Y-88488095D01*
X125512914Y-88488095D02*
X125703390Y-88440476D01*
X125703390Y-88440476D02*
X126084342Y-88440476D01*
X126084342Y-88440476D02*
X126179580Y-88488095D01*
X126179580Y-88488095D02*
X126227200Y-88535714D01*
X126227200Y-88535714D02*
X126274819Y-88630952D01*
X126274819Y-88630952D02*
X126274819Y-88821428D01*
X126274819Y-88821428D02*
X126227200Y-88916666D01*
X126227200Y-88916666D02*
X126179580Y-88964285D01*
X126179580Y-88964285D02*
X126084342Y-89011904D01*
X126084342Y-89011904D02*
X125846247Y-89011904D01*
X125846247Y-89011904D02*
X125751009Y-88964285D01*
X125751009Y-88964285D02*
X125703390Y-88916666D01*
X125703390Y-88916666D02*
X125655771Y-88821428D01*
X125655771Y-88821428D02*
X125655771Y-88630952D01*
X125655771Y-88630952D02*
X125703390Y-88535714D01*
X125703390Y-88535714D02*
X125751009Y-88488095D01*
X125751009Y-88488095D02*
X125846247Y-88440476D01*
X170024819Y-84107142D02*
X169548628Y-83773809D01*
X170024819Y-83535714D02*
X169024819Y-83535714D01*
X169024819Y-83535714D02*
X169024819Y-83916666D01*
X169024819Y-83916666D02*
X169072438Y-84011904D01*
X169072438Y-84011904D02*
X169120057Y-84059523D01*
X169120057Y-84059523D02*
X169215295Y-84107142D01*
X169215295Y-84107142D02*
X169358152Y-84107142D01*
X169358152Y-84107142D02*
X169453390Y-84059523D01*
X169453390Y-84059523D02*
X169501009Y-84011904D01*
X169501009Y-84011904D02*
X169548628Y-83916666D01*
X169548628Y-83916666D02*
X169548628Y-83535714D01*
X169024819Y-84440476D02*
X169024819Y-85059523D01*
X169024819Y-85059523D02*
X169405771Y-84726190D01*
X169405771Y-84726190D02*
X169405771Y-84869047D01*
X169405771Y-84869047D02*
X169453390Y-84964285D01*
X169453390Y-84964285D02*
X169501009Y-85011904D01*
X169501009Y-85011904D02*
X169596247Y-85059523D01*
X169596247Y-85059523D02*
X169834342Y-85059523D01*
X169834342Y-85059523D02*
X169929580Y-85011904D01*
X169929580Y-85011904D02*
X169977200Y-84964285D01*
X169977200Y-84964285D02*
X170024819Y-84869047D01*
X170024819Y-84869047D02*
X170024819Y-84583333D01*
X170024819Y-84583333D02*
X169977200Y-84488095D01*
X169977200Y-84488095D02*
X169929580Y-84440476D01*
X169024819Y-85964285D02*
X169024819Y-85488095D01*
X169024819Y-85488095D02*
X169501009Y-85440476D01*
X169501009Y-85440476D02*
X169453390Y-85488095D01*
X169453390Y-85488095D02*
X169405771Y-85583333D01*
X169405771Y-85583333D02*
X169405771Y-85821428D01*
X169405771Y-85821428D02*
X169453390Y-85916666D01*
X169453390Y-85916666D02*
X169501009Y-85964285D01*
X169501009Y-85964285D02*
X169596247Y-86011904D01*
X169596247Y-86011904D02*
X169834342Y-86011904D01*
X169834342Y-86011904D02*
X169929580Y-85964285D01*
X169929580Y-85964285D02*
X169977200Y-85916666D01*
X169977200Y-85916666D02*
X170024819Y-85821428D01*
X170024819Y-85821428D02*
X170024819Y-85583333D01*
X170024819Y-85583333D02*
X169977200Y-85488095D01*
X169977200Y-85488095D02*
X169929580Y-85440476D01*
X178134819Y-132607142D02*
X177658628Y-132273809D01*
X178134819Y-132035714D02*
X177134819Y-132035714D01*
X177134819Y-132035714D02*
X177134819Y-132416666D01*
X177134819Y-132416666D02*
X177182438Y-132511904D01*
X177182438Y-132511904D02*
X177230057Y-132559523D01*
X177230057Y-132559523D02*
X177325295Y-132607142D01*
X177325295Y-132607142D02*
X177468152Y-132607142D01*
X177468152Y-132607142D02*
X177563390Y-132559523D01*
X177563390Y-132559523D02*
X177611009Y-132511904D01*
X177611009Y-132511904D02*
X177658628Y-132416666D01*
X177658628Y-132416666D02*
X177658628Y-132035714D01*
X177230057Y-132988095D02*
X177182438Y-133035714D01*
X177182438Y-133035714D02*
X177134819Y-133130952D01*
X177134819Y-133130952D02*
X177134819Y-133369047D01*
X177134819Y-133369047D02*
X177182438Y-133464285D01*
X177182438Y-133464285D02*
X177230057Y-133511904D01*
X177230057Y-133511904D02*
X177325295Y-133559523D01*
X177325295Y-133559523D02*
X177420533Y-133559523D01*
X177420533Y-133559523D02*
X177563390Y-133511904D01*
X177563390Y-133511904D02*
X178134819Y-132940476D01*
X178134819Y-132940476D02*
X178134819Y-133559523D01*
X177134819Y-134178571D02*
X177134819Y-134273809D01*
X177134819Y-134273809D02*
X177182438Y-134369047D01*
X177182438Y-134369047D02*
X177230057Y-134416666D01*
X177230057Y-134416666D02*
X177325295Y-134464285D01*
X177325295Y-134464285D02*
X177515771Y-134511904D01*
X177515771Y-134511904D02*
X177753866Y-134511904D01*
X177753866Y-134511904D02*
X177944342Y-134464285D01*
X177944342Y-134464285D02*
X178039580Y-134416666D01*
X178039580Y-134416666D02*
X178087200Y-134369047D01*
X178087200Y-134369047D02*
X178134819Y-134273809D01*
X178134819Y-134273809D02*
X178134819Y-134178571D01*
X178134819Y-134178571D02*
X178087200Y-134083333D01*
X178087200Y-134083333D02*
X178039580Y-134035714D01*
X178039580Y-134035714D02*
X177944342Y-133988095D01*
X177944342Y-133988095D02*
X177753866Y-133940476D01*
X177753866Y-133940476D02*
X177515771Y-133940476D01*
X177515771Y-133940476D02*
X177325295Y-133988095D01*
X177325295Y-133988095D02*
X177230057Y-134035714D01*
X177230057Y-134035714D02*
X177182438Y-134083333D01*
X177182438Y-134083333D02*
X177134819Y-134178571D01*
X112292857Y-96959580D02*
X112340476Y-97007200D01*
X112340476Y-97007200D02*
X112483333Y-97054819D01*
X112483333Y-97054819D02*
X112578571Y-97054819D01*
X112578571Y-97054819D02*
X112721428Y-97007200D01*
X112721428Y-97007200D02*
X112816666Y-96911961D01*
X112816666Y-96911961D02*
X112864285Y-96816723D01*
X112864285Y-96816723D02*
X112911904Y-96626247D01*
X112911904Y-96626247D02*
X112911904Y-96483390D01*
X112911904Y-96483390D02*
X112864285Y-96292914D01*
X112864285Y-96292914D02*
X112816666Y-96197676D01*
X112816666Y-96197676D02*
X112721428Y-96102438D01*
X112721428Y-96102438D02*
X112578571Y-96054819D01*
X112578571Y-96054819D02*
X112483333Y-96054819D01*
X112483333Y-96054819D02*
X112340476Y-96102438D01*
X112340476Y-96102438D02*
X112292857Y-96150057D01*
X111959523Y-96054819D02*
X111340476Y-96054819D01*
X111340476Y-96054819D02*
X111673809Y-96435771D01*
X111673809Y-96435771D02*
X111530952Y-96435771D01*
X111530952Y-96435771D02*
X111435714Y-96483390D01*
X111435714Y-96483390D02*
X111388095Y-96531009D01*
X111388095Y-96531009D02*
X111340476Y-96626247D01*
X111340476Y-96626247D02*
X111340476Y-96864342D01*
X111340476Y-96864342D02*
X111388095Y-96959580D01*
X111388095Y-96959580D02*
X111435714Y-97007200D01*
X111435714Y-97007200D02*
X111530952Y-97054819D01*
X111530952Y-97054819D02*
X111816666Y-97054819D01*
X111816666Y-97054819D02*
X111911904Y-97007200D01*
X111911904Y-97007200D02*
X111959523Y-96959580D01*
X110388095Y-97054819D02*
X110959523Y-97054819D01*
X110673809Y-97054819D02*
X110673809Y-96054819D01*
X110673809Y-96054819D02*
X110769047Y-96197676D01*
X110769047Y-96197676D02*
X110864285Y-96292914D01*
X110864285Y-96292914D02*
X110959523Y-96340533D01*
X82024819Y-87093892D02*
X81548628Y-86760559D01*
X82024819Y-86522464D02*
X81024819Y-86522464D01*
X81024819Y-86522464D02*
X81024819Y-86903416D01*
X81024819Y-86903416D02*
X81072438Y-86998654D01*
X81072438Y-86998654D02*
X81120057Y-87046273D01*
X81120057Y-87046273D02*
X81215295Y-87093892D01*
X81215295Y-87093892D02*
X81358152Y-87093892D01*
X81358152Y-87093892D02*
X81453390Y-87046273D01*
X81453390Y-87046273D02*
X81501009Y-86998654D01*
X81501009Y-86998654D02*
X81548628Y-86903416D01*
X81548628Y-86903416D02*
X81548628Y-86522464D01*
X81358152Y-87951035D02*
X82024819Y-87951035D01*
X80977200Y-87712940D02*
X81691485Y-87474845D01*
X81691485Y-87474845D02*
X81691485Y-88093892D01*
X81453390Y-88617702D02*
X81405771Y-88522464D01*
X81405771Y-88522464D02*
X81358152Y-88474845D01*
X81358152Y-88474845D02*
X81262914Y-88427226D01*
X81262914Y-88427226D02*
X81215295Y-88427226D01*
X81215295Y-88427226D02*
X81120057Y-88474845D01*
X81120057Y-88474845D02*
X81072438Y-88522464D01*
X81072438Y-88522464D02*
X81024819Y-88617702D01*
X81024819Y-88617702D02*
X81024819Y-88808178D01*
X81024819Y-88808178D02*
X81072438Y-88903416D01*
X81072438Y-88903416D02*
X81120057Y-88951035D01*
X81120057Y-88951035D02*
X81215295Y-88998654D01*
X81215295Y-88998654D02*
X81262914Y-88998654D01*
X81262914Y-88998654D02*
X81358152Y-88951035D01*
X81358152Y-88951035D02*
X81405771Y-88903416D01*
X81405771Y-88903416D02*
X81453390Y-88808178D01*
X81453390Y-88808178D02*
X81453390Y-88617702D01*
X81453390Y-88617702D02*
X81501009Y-88522464D01*
X81501009Y-88522464D02*
X81548628Y-88474845D01*
X81548628Y-88474845D02*
X81643866Y-88427226D01*
X81643866Y-88427226D02*
X81834342Y-88427226D01*
X81834342Y-88427226D02*
X81929580Y-88474845D01*
X81929580Y-88474845D02*
X81977200Y-88522464D01*
X81977200Y-88522464D02*
X82024819Y-88617702D01*
X82024819Y-88617702D02*
X82024819Y-88808178D01*
X82024819Y-88808178D02*
X81977200Y-88903416D01*
X81977200Y-88903416D02*
X81929580Y-88951035D01*
X81929580Y-88951035D02*
X81834342Y-88998654D01*
X81834342Y-88998654D02*
X81643866Y-88998654D01*
X81643866Y-88998654D02*
X81548628Y-88951035D01*
X81548628Y-88951035D02*
X81501009Y-88903416D01*
X81501009Y-88903416D02*
X81453390Y-88808178D01*
X38024819Y-84107142D02*
X37548628Y-83773809D01*
X38024819Y-83535714D02*
X37024819Y-83535714D01*
X37024819Y-83535714D02*
X37024819Y-83916666D01*
X37024819Y-83916666D02*
X37072438Y-84011904D01*
X37072438Y-84011904D02*
X37120057Y-84059523D01*
X37120057Y-84059523D02*
X37215295Y-84107142D01*
X37215295Y-84107142D02*
X37358152Y-84107142D01*
X37358152Y-84107142D02*
X37453390Y-84059523D01*
X37453390Y-84059523D02*
X37501009Y-84011904D01*
X37501009Y-84011904D02*
X37548628Y-83916666D01*
X37548628Y-83916666D02*
X37548628Y-83535714D01*
X37358152Y-84964285D02*
X38024819Y-84964285D01*
X36977200Y-84726190D02*
X37691485Y-84488095D01*
X37691485Y-84488095D02*
X37691485Y-85107142D01*
X38024819Y-86011904D02*
X38024819Y-85440476D01*
X38024819Y-85726190D02*
X37024819Y-85726190D01*
X37024819Y-85726190D02*
X37167676Y-85630952D01*
X37167676Y-85630952D02*
X37262914Y-85535714D01*
X37262914Y-85535714D02*
X37310533Y-85440476D01*
X100892857Y-118704819D02*
X101226190Y-118228628D01*
X101464285Y-118704819D02*
X101464285Y-117704819D01*
X101464285Y-117704819D02*
X101083333Y-117704819D01*
X101083333Y-117704819D02*
X100988095Y-117752438D01*
X100988095Y-117752438D02*
X100940476Y-117800057D01*
X100940476Y-117800057D02*
X100892857Y-117895295D01*
X100892857Y-117895295D02*
X100892857Y-118038152D01*
X100892857Y-118038152D02*
X100940476Y-118133390D01*
X100940476Y-118133390D02*
X100988095Y-118181009D01*
X100988095Y-118181009D02*
X101083333Y-118228628D01*
X101083333Y-118228628D02*
X101464285Y-118228628D01*
X100511904Y-117800057D02*
X100464285Y-117752438D01*
X100464285Y-117752438D02*
X100369047Y-117704819D01*
X100369047Y-117704819D02*
X100130952Y-117704819D01*
X100130952Y-117704819D02*
X100035714Y-117752438D01*
X100035714Y-117752438D02*
X99988095Y-117800057D01*
X99988095Y-117800057D02*
X99940476Y-117895295D01*
X99940476Y-117895295D02*
X99940476Y-117990533D01*
X99940476Y-117990533D02*
X99988095Y-118133390D01*
X99988095Y-118133390D02*
X100559523Y-118704819D01*
X100559523Y-118704819D02*
X99940476Y-118704819D01*
X99607142Y-117704819D02*
X98988095Y-117704819D01*
X98988095Y-117704819D02*
X99321428Y-118085771D01*
X99321428Y-118085771D02*
X99178571Y-118085771D01*
X99178571Y-118085771D02*
X99083333Y-118133390D01*
X99083333Y-118133390D02*
X99035714Y-118181009D01*
X99035714Y-118181009D02*
X98988095Y-118276247D01*
X98988095Y-118276247D02*
X98988095Y-118514342D01*
X98988095Y-118514342D02*
X99035714Y-118609580D01*
X99035714Y-118609580D02*
X99083333Y-118657200D01*
X99083333Y-118657200D02*
X99178571Y-118704819D01*
X99178571Y-118704819D02*
X99464285Y-118704819D01*
X99464285Y-118704819D02*
X99559523Y-118657200D01*
X99559523Y-118657200D02*
X99607142Y-118609580D01*
X99617857Y-122109580D02*
X99665476Y-122157200D01*
X99665476Y-122157200D02*
X99808333Y-122204819D01*
X99808333Y-122204819D02*
X99903571Y-122204819D01*
X99903571Y-122204819D02*
X100046428Y-122157200D01*
X100046428Y-122157200D02*
X100141666Y-122061961D01*
X100141666Y-122061961D02*
X100189285Y-121966723D01*
X100189285Y-121966723D02*
X100236904Y-121776247D01*
X100236904Y-121776247D02*
X100236904Y-121633390D01*
X100236904Y-121633390D02*
X100189285Y-121442914D01*
X100189285Y-121442914D02*
X100141666Y-121347676D01*
X100141666Y-121347676D02*
X100046428Y-121252438D01*
X100046428Y-121252438D02*
X99903571Y-121204819D01*
X99903571Y-121204819D02*
X99808333Y-121204819D01*
X99808333Y-121204819D02*
X99665476Y-121252438D01*
X99665476Y-121252438D02*
X99617857Y-121300057D01*
X99236904Y-121300057D02*
X99189285Y-121252438D01*
X99189285Y-121252438D02*
X99094047Y-121204819D01*
X99094047Y-121204819D02*
X98855952Y-121204819D01*
X98855952Y-121204819D02*
X98760714Y-121252438D01*
X98760714Y-121252438D02*
X98713095Y-121300057D01*
X98713095Y-121300057D02*
X98665476Y-121395295D01*
X98665476Y-121395295D02*
X98665476Y-121490533D01*
X98665476Y-121490533D02*
X98713095Y-121633390D01*
X98713095Y-121633390D02*
X99284523Y-122204819D01*
X99284523Y-122204819D02*
X98665476Y-122204819D01*
X97808333Y-121538152D02*
X97808333Y-122204819D01*
X98046428Y-121157200D02*
X98284523Y-121871485D01*
X98284523Y-121871485D02*
X97665476Y-121871485D01*
X38024819Y-87107142D02*
X37548628Y-86773809D01*
X38024819Y-86535714D02*
X37024819Y-86535714D01*
X37024819Y-86535714D02*
X37024819Y-86916666D01*
X37024819Y-86916666D02*
X37072438Y-87011904D01*
X37072438Y-87011904D02*
X37120057Y-87059523D01*
X37120057Y-87059523D02*
X37215295Y-87107142D01*
X37215295Y-87107142D02*
X37358152Y-87107142D01*
X37358152Y-87107142D02*
X37453390Y-87059523D01*
X37453390Y-87059523D02*
X37501009Y-87011904D01*
X37501009Y-87011904D02*
X37548628Y-86916666D01*
X37548628Y-86916666D02*
X37548628Y-86535714D01*
X37024819Y-88011904D02*
X37024819Y-87535714D01*
X37024819Y-87535714D02*
X37501009Y-87488095D01*
X37501009Y-87488095D02*
X37453390Y-87535714D01*
X37453390Y-87535714D02*
X37405771Y-87630952D01*
X37405771Y-87630952D02*
X37405771Y-87869047D01*
X37405771Y-87869047D02*
X37453390Y-87964285D01*
X37453390Y-87964285D02*
X37501009Y-88011904D01*
X37501009Y-88011904D02*
X37596247Y-88059523D01*
X37596247Y-88059523D02*
X37834342Y-88059523D01*
X37834342Y-88059523D02*
X37929580Y-88011904D01*
X37929580Y-88011904D02*
X37977200Y-87964285D01*
X37977200Y-87964285D02*
X38024819Y-87869047D01*
X38024819Y-87869047D02*
X38024819Y-87630952D01*
X38024819Y-87630952D02*
X37977200Y-87535714D01*
X37977200Y-87535714D02*
X37929580Y-87488095D01*
X37024819Y-88678571D02*
X37024819Y-88773809D01*
X37024819Y-88773809D02*
X37072438Y-88869047D01*
X37072438Y-88869047D02*
X37120057Y-88916666D01*
X37120057Y-88916666D02*
X37215295Y-88964285D01*
X37215295Y-88964285D02*
X37405771Y-89011904D01*
X37405771Y-89011904D02*
X37643866Y-89011904D01*
X37643866Y-89011904D02*
X37834342Y-88964285D01*
X37834342Y-88964285D02*
X37929580Y-88916666D01*
X37929580Y-88916666D02*
X37977200Y-88869047D01*
X37977200Y-88869047D02*
X38024819Y-88773809D01*
X38024819Y-88773809D02*
X38024819Y-88678571D01*
X38024819Y-88678571D02*
X37977200Y-88583333D01*
X37977200Y-88583333D02*
X37929580Y-88535714D01*
X37929580Y-88535714D02*
X37834342Y-88488095D01*
X37834342Y-88488095D02*
X37643866Y-88440476D01*
X37643866Y-88440476D02*
X37405771Y-88440476D01*
X37405771Y-88440476D02*
X37215295Y-88488095D01*
X37215295Y-88488095D02*
X37120057Y-88535714D01*
X37120057Y-88535714D02*
X37072438Y-88583333D01*
X37072438Y-88583333D02*
X37024819Y-88678571D01*
X60274819Y-84107142D02*
X59798628Y-83773809D01*
X60274819Y-83535714D02*
X59274819Y-83535714D01*
X59274819Y-83535714D02*
X59274819Y-83916666D01*
X59274819Y-83916666D02*
X59322438Y-84011904D01*
X59322438Y-84011904D02*
X59370057Y-84059523D01*
X59370057Y-84059523D02*
X59465295Y-84107142D01*
X59465295Y-84107142D02*
X59608152Y-84107142D01*
X59608152Y-84107142D02*
X59703390Y-84059523D01*
X59703390Y-84059523D02*
X59751009Y-84011904D01*
X59751009Y-84011904D02*
X59798628Y-83916666D01*
X59798628Y-83916666D02*
X59798628Y-83535714D01*
X59608152Y-84964285D02*
X60274819Y-84964285D01*
X59227200Y-84726190D02*
X59941485Y-84488095D01*
X59941485Y-84488095D02*
X59941485Y-85107142D01*
X59274819Y-85678571D02*
X59274819Y-85773809D01*
X59274819Y-85773809D02*
X59322438Y-85869047D01*
X59322438Y-85869047D02*
X59370057Y-85916666D01*
X59370057Y-85916666D02*
X59465295Y-85964285D01*
X59465295Y-85964285D02*
X59655771Y-86011904D01*
X59655771Y-86011904D02*
X59893866Y-86011904D01*
X59893866Y-86011904D02*
X60084342Y-85964285D01*
X60084342Y-85964285D02*
X60179580Y-85916666D01*
X60179580Y-85916666D02*
X60227200Y-85869047D01*
X60227200Y-85869047D02*
X60274819Y-85773809D01*
X60274819Y-85773809D02*
X60274819Y-85678571D01*
X60274819Y-85678571D02*
X60227200Y-85583333D01*
X60227200Y-85583333D02*
X60179580Y-85535714D01*
X60179580Y-85535714D02*
X60084342Y-85488095D01*
X60084342Y-85488095D02*
X59893866Y-85440476D01*
X59893866Y-85440476D02*
X59655771Y-85440476D01*
X59655771Y-85440476D02*
X59465295Y-85488095D01*
X59465295Y-85488095D02*
X59370057Y-85535714D01*
X59370057Y-85535714D02*
X59322438Y-85583333D01*
X59322438Y-85583333D02*
X59274819Y-85678571D01*
X90134819Y-132607142D02*
X89658628Y-132273809D01*
X90134819Y-132035714D02*
X89134819Y-132035714D01*
X89134819Y-132035714D02*
X89134819Y-132416666D01*
X89134819Y-132416666D02*
X89182438Y-132511904D01*
X89182438Y-132511904D02*
X89230057Y-132559523D01*
X89230057Y-132559523D02*
X89325295Y-132607142D01*
X89325295Y-132607142D02*
X89468152Y-132607142D01*
X89468152Y-132607142D02*
X89563390Y-132559523D01*
X89563390Y-132559523D02*
X89611009Y-132511904D01*
X89611009Y-132511904D02*
X89658628Y-132416666D01*
X89658628Y-132416666D02*
X89658628Y-132035714D01*
X90134819Y-133559523D02*
X90134819Y-132988095D01*
X90134819Y-133273809D02*
X89134819Y-133273809D01*
X89134819Y-133273809D02*
X89277676Y-133178571D01*
X89277676Y-133178571D02*
X89372914Y-133083333D01*
X89372914Y-133083333D02*
X89420533Y-132988095D01*
X89134819Y-134416666D02*
X89134819Y-134226190D01*
X89134819Y-134226190D02*
X89182438Y-134130952D01*
X89182438Y-134130952D02*
X89230057Y-134083333D01*
X89230057Y-134083333D02*
X89372914Y-133988095D01*
X89372914Y-133988095D02*
X89563390Y-133940476D01*
X89563390Y-133940476D02*
X89944342Y-133940476D01*
X89944342Y-133940476D02*
X90039580Y-133988095D01*
X90039580Y-133988095D02*
X90087200Y-134035714D01*
X90087200Y-134035714D02*
X90134819Y-134130952D01*
X90134819Y-134130952D02*
X90134819Y-134321428D01*
X90134819Y-134321428D02*
X90087200Y-134416666D01*
X90087200Y-134416666D02*
X90039580Y-134464285D01*
X90039580Y-134464285D02*
X89944342Y-134511904D01*
X89944342Y-134511904D02*
X89706247Y-134511904D01*
X89706247Y-134511904D02*
X89611009Y-134464285D01*
X89611009Y-134464285D02*
X89563390Y-134416666D01*
X89563390Y-134416666D02*
X89515771Y-134321428D01*
X89515771Y-134321428D02*
X89515771Y-134130952D01*
X89515771Y-134130952D02*
X89563390Y-134035714D01*
X89563390Y-134035714D02*
X89611009Y-133988095D01*
X89611009Y-133988095D02*
X89706247Y-133940476D01*
X112267857Y-98554819D02*
X112601190Y-98078628D01*
X112839285Y-98554819D02*
X112839285Y-97554819D01*
X112839285Y-97554819D02*
X112458333Y-97554819D01*
X112458333Y-97554819D02*
X112363095Y-97602438D01*
X112363095Y-97602438D02*
X112315476Y-97650057D01*
X112315476Y-97650057D02*
X112267857Y-97745295D01*
X112267857Y-97745295D02*
X112267857Y-97888152D01*
X112267857Y-97888152D02*
X112315476Y-97983390D01*
X112315476Y-97983390D02*
X112363095Y-98031009D01*
X112363095Y-98031009D02*
X112458333Y-98078628D01*
X112458333Y-98078628D02*
X112839285Y-98078628D01*
X111410714Y-97888152D02*
X111410714Y-98554819D01*
X111648809Y-97507200D02*
X111886904Y-98221485D01*
X111886904Y-98221485D02*
X111267857Y-98221485D01*
X110934523Y-97650057D02*
X110886904Y-97602438D01*
X110886904Y-97602438D02*
X110791666Y-97554819D01*
X110791666Y-97554819D02*
X110553571Y-97554819D01*
X110553571Y-97554819D02*
X110458333Y-97602438D01*
X110458333Y-97602438D02*
X110410714Y-97650057D01*
X110410714Y-97650057D02*
X110363095Y-97745295D01*
X110363095Y-97745295D02*
X110363095Y-97840533D01*
X110363095Y-97840533D02*
X110410714Y-97983390D01*
X110410714Y-97983390D02*
X110982142Y-98554819D01*
X110982142Y-98554819D02*
X110363095Y-98554819D01*
X234581569Y-62891666D02*
X235295854Y-62891666D01*
X235295854Y-62891666D02*
X235438711Y-62844047D01*
X235438711Y-62844047D02*
X235533950Y-62748809D01*
X235533950Y-62748809D02*
X235581569Y-62605952D01*
X235581569Y-62605952D02*
X235581569Y-62510714D01*
X235581569Y-63367857D02*
X234581569Y-63367857D01*
X234581569Y-63367857D02*
X234581569Y-63748809D01*
X234581569Y-63748809D02*
X234629188Y-63844047D01*
X234629188Y-63844047D02*
X234676807Y-63891666D01*
X234676807Y-63891666D02*
X234772045Y-63939285D01*
X234772045Y-63939285D02*
X234914902Y-63939285D01*
X234914902Y-63939285D02*
X235010140Y-63891666D01*
X235010140Y-63891666D02*
X235057759Y-63844047D01*
X235057759Y-63844047D02*
X235105378Y-63748809D01*
X235105378Y-63748809D02*
X235105378Y-63367857D01*
X234676807Y-64320238D02*
X234629188Y-64367857D01*
X234629188Y-64367857D02*
X234581569Y-64463095D01*
X234581569Y-64463095D02*
X234581569Y-64701190D01*
X234581569Y-64701190D02*
X234629188Y-64796428D01*
X234629188Y-64796428D02*
X234676807Y-64844047D01*
X234676807Y-64844047D02*
X234772045Y-64891666D01*
X234772045Y-64891666D02*
X234867283Y-64891666D01*
X234867283Y-64891666D02*
X235010140Y-64844047D01*
X235010140Y-64844047D02*
X235581569Y-64272619D01*
X235581569Y-64272619D02*
X235581569Y-64891666D01*
X104274819Y-84107142D02*
X103798628Y-83773809D01*
X104274819Y-83535714D02*
X103274819Y-83535714D01*
X103274819Y-83535714D02*
X103274819Y-83916666D01*
X103274819Y-83916666D02*
X103322438Y-84011904D01*
X103322438Y-84011904D02*
X103370057Y-84059523D01*
X103370057Y-84059523D02*
X103465295Y-84107142D01*
X103465295Y-84107142D02*
X103608152Y-84107142D01*
X103608152Y-84107142D02*
X103703390Y-84059523D01*
X103703390Y-84059523D02*
X103751009Y-84011904D01*
X103751009Y-84011904D02*
X103798628Y-83916666D01*
X103798628Y-83916666D02*
X103798628Y-83535714D01*
X103274819Y-84440476D02*
X103274819Y-85059523D01*
X103274819Y-85059523D02*
X103655771Y-84726190D01*
X103655771Y-84726190D02*
X103655771Y-84869047D01*
X103655771Y-84869047D02*
X103703390Y-84964285D01*
X103703390Y-84964285D02*
X103751009Y-85011904D01*
X103751009Y-85011904D02*
X103846247Y-85059523D01*
X103846247Y-85059523D02*
X104084342Y-85059523D01*
X104084342Y-85059523D02*
X104179580Y-85011904D01*
X104179580Y-85011904D02*
X104227200Y-84964285D01*
X104227200Y-84964285D02*
X104274819Y-84869047D01*
X104274819Y-84869047D02*
X104274819Y-84583333D01*
X104274819Y-84583333D02*
X104227200Y-84488095D01*
X104227200Y-84488095D02*
X104179580Y-84440476D01*
X103703390Y-85630952D02*
X103655771Y-85535714D01*
X103655771Y-85535714D02*
X103608152Y-85488095D01*
X103608152Y-85488095D02*
X103512914Y-85440476D01*
X103512914Y-85440476D02*
X103465295Y-85440476D01*
X103465295Y-85440476D02*
X103370057Y-85488095D01*
X103370057Y-85488095D02*
X103322438Y-85535714D01*
X103322438Y-85535714D02*
X103274819Y-85630952D01*
X103274819Y-85630952D02*
X103274819Y-85821428D01*
X103274819Y-85821428D02*
X103322438Y-85916666D01*
X103322438Y-85916666D02*
X103370057Y-85964285D01*
X103370057Y-85964285D02*
X103465295Y-86011904D01*
X103465295Y-86011904D02*
X103512914Y-86011904D01*
X103512914Y-86011904D02*
X103608152Y-85964285D01*
X103608152Y-85964285D02*
X103655771Y-85916666D01*
X103655771Y-85916666D02*
X103703390Y-85821428D01*
X103703390Y-85821428D02*
X103703390Y-85630952D01*
X103703390Y-85630952D02*
X103751009Y-85535714D01*
X103751009Y-85535714D02*
X103798628Y-85488095D01*
X103798628Y-85488095D02*
X103893866Y-85440476D01*
X103893866Y-85440476D02*
X104084342Y-85440476D01*
X104084342Y-85440476D02*
X104179580Y-85488095D01*
X104179580Y-85488095D02*
X104227200Y-85535714D01*
X104227200Y-85535714D02*
X104274819Y-85630952D01*
X104274819Y-85630952D02*
X104274819Y-85821428D01*
X104274819Y-85821428D02*
X104227200Y-85916666D01*
X104227200Y-85916666D02*
X104179580Y-85964285D01*
X104179580Y-85964285D02*
X104084342Y-86011904D01*
X104084342Y-86011904D02*
X103893866Y-86011904D01*
X103893866Y-86011904D02*
X103798628Y-85964285D01*
X103798628Y-85964285D02*
X103751009Y-85916666D01*
X103751009Y-85916666D02*
X103703390Y-85821428D01*
X192024819Y-86857142D02*
X191548628Y-86523809D01*
X192024819Y-86285714D02*
X191024819Y-86285714D01*
X191024819Y-86285714D02*
X191024819Y-86666666D01*
X191024819Y-86666666D02*
X191072438Y-86761904D01*
X191072438Y-86761904D02*
X191120057Y-86809523D01*
X191120057Y-86809523D02*
X191215295Y-86857142D01*
X191215295Y-86857142D02*
X191358152Y-86857142D01*
X191358152Y-86857142D02*
X191453390Y-86809523D01*
X191453390Y-86809523D02*
X191501009Y-86761904D01*
X191501009Y-86761904D02*
X191548628Y-86666666D01*
X191548628Y-86666666D02*
X191548628Y-86285714D01*
X191358152Y-87714285D02*
X192024819Y-87714285D01*
X190977200Y-87476190D02*
X191691485Y-87238095D01*
X191691485Y-87238095D02*
X191691485Y-87857142D01*
X191024819Y-88142857D02*
X191024819Y-88761904D01*
X191024819Y-88761904D02*
X191405771Y-88428571D01*
X191405771Y-88428571D02*
X191405771Y-88571428D01*
X191405771Y-88571428D02*
X191453390Y-88666666D01*
X191453390Y-88666666D02*
X191501009Y-88714285D01*
X191501009Y-88714285D02*
X191596247Y-88761904D01*
X191596247Y-88761904D02*
X191834342Y-88761904D01*
X191834342Y-88761904D02*
X191929580Y-88714285D01*
X191929580Y-88714285D02*
X191977200Y-88666666D01*
X191977200Y-88666666D02*
X192024819Y-88571428D01*
X192024819Y-88571428D02*
X192024819Y-88285714D01*
X192024819Y-88285714D02*
X191977200Y-88190476D01*
X191977200Y-88190476D02*
X191929580Y-88142857D01*
X46134819Y-129607142D02*
X45658628Y-129273809D01*
X46134819Y-129035714D02*
X45134819Y-129035714D01*
X45134819Y-129035714D02*
X45134819Y-129416666D01*
X45134819Y-129416666D02*
X45182438Y-129511904D01*
X45182438Y-129511904D02*
X45230057Y-129559523D01*
X45230057Y-129559523D02*
X45325295Y-129607142D01*
X45325295Y-129607142D02*
X45468152Y-129607142D01*
X45468152Y-129607142D02*
X45563390Y-129559523D01*
X45563390Y-129559523D02*
X45611009Y-129511904D01*
X45611009Y-129511904D02*
X45658628Y-129416666D01*
X45658628Y-129416666D02*
X45658628Y-129035714D01*
X45230057Y-129988095D02*
X45182438Y-130035714D01*
X45182438Y-130035714D02*
X45134819Y-130130952D01*
X45134819Y-130130952D02*
X45134819Y-130369047D01*
X45134819Y-130369047D02*
X45182438Y-130464285D01*
X45182438Y-130464285D02*
X45230057Y-130511904D01*
X45230057Y-130511904D02*
X45325295Y-130559523D01*
X45325295Y-130559523D02*
X45420533Y-130559523D01*
X45420533Y-130559523D02*
X45563390Y-130511904D01*
X45563390Y-130511904D02*
X46134819Y-129940476D01*
X46134819Y-129940476D02*
X46134819Y-130559523D01*
X45134819Y-131464285D02*
X45134819Y-130988095D01*
X45134819Y-130988095D02*
X45611009Y-130940476D01*
X45611009Y-130940476D02*
X45563390Y-130988095D01*
X45563390Y-130988095D02*
X45515771Y-131083333D01*
X45515771Y-131083333D02*
X45515771Y-131321428D01*
X45515771Y-131321428D02*
X45563390Y-131416666D01*
X45563390Y-131416666D02*
X45611009Y-131464285D01*
X45611009Y-131464285D02*
X45706247Y-131511904D01*
X45706247Y-131511904D02*
X45944342Y-131511904D01*
X45944342Y-131511904D02*
X46039580Y-131464285D01*
X46039580Y-131464285D02*
X46087200Y-131416666D01*
X46087200Y-131416666D02*
X46134819Y-131321428D01*
X46134819Y-131321428D02*
X46134819Y-131083333D01*
X46134819Y-131083333D02*
X46087200Y-130988095D01*
X46087200Y-130988095D02*
X46039580Y-130940476D01*
X90134819Y-129607142D02*
X89658628Y-129273809D01*
X90134819Y-129035714D02*
X89134819Y-129035714D01*
X89134819Y-129035714D02*
X89134819Y-129416666D01*
X89134819Y-129416666D02*
X89182438Y-129511904D01*
X89182438Y-129511904D02*
X89230057Y-129559523D01*
X89230057Y-129559523D02*
X89325295Y-129607142D01*
X89325295Y-129607142D02*
X89468152Y-129607142D01*
X89468152Y-129607142D02*
X89563390Y-129559523D01*
X89563390Y-129559523D02*
X89611009Y-129511904D01*
X89611009Y-129511904D02*
X89658628Y-129416666D01*
X89658628Y-129416666D02*
X89658628Y-129035714D01*
X89230057Y-129988095D02*
X89182438Y-130035714D01*
X89182438Y-130035714D02*
X89134819Y-130130952D01*
X89134819Y-130130952D02*
X89134819Y-130369047D01*
X89134819Y-130369047D02*
X89182438Y-130464285D01*
X89182438Y-130464285D02*
X89230057Y-130511904D01*
X89230057Y-130511904D02*
X89325295Y-130559523D01*
X89325295Y-130559523D02*
X89420533Y-130559523D01*
X89420533Y-130559523D02*
X89563390Y-130511904D01*
X89563390Y-130511904D02*
X90134819Y-129940476D01*
X90134819Y-129940476D02*
X90134819Y-130559523D01*
X89134819Y-130892857D02*
X89134819Y-131559523D01*
X89134819Y-131559523D02*
X90134819Y-131130952D01*
X113517857Y-93459580D02*
X113565476Y-93507200D01*
X113565476Y-93507200D02*
X113708333Y-93554819D01*
X113708333Y-93554819D02*
X113803571Y-93554819D01*
X113803571Y-93554819D02*
X113946428Y-93507200D01*
X113946428Y-93507200D02*
X114041666Y-93411961D01*
X114041666Y-93411961D02*
X114089285Y-93316723D01*
X114089285Y-93316723D02*
X114136904Y-93126247D01*
X114136904Y-93126247D02*
X114136904Y-92983390D01*
X114136904Y-92983390D02*
X114089285Y-92792914D01*
X114089285Y-92792914D02*
X114041666Y-92697676D01*
X114041666Y-92697676D02*
X113946428Y-92602438D01*
X113946428Y-92602438D02*
X113803571Y-92554819D01*
X113803571Y-92554819D02*
X113708333Y-92554819D01*
X113708333Y-92554819D02*
X113565476Y-92602438D01*
X113565476Y-92602438D02*
X113517857Y-92650057D01*
X113184523Y-92554819D02*
X112565476Y-92554819D01*
X112565476Y-92554819D02*
X112898809Y-92935771D01*
X112898809Y-92935771D02*
X112755952Y-92935771D01*
X112755952Y-92935771D02*
X112660714Y-92983390D01*
X112660714Y-92983390D02*
X112613095Y-93031009D01*
X112613095Y-93031009D02*
X112565476Y-93126247D01*
X112565476Y-93126247D02*
X112565476Y-93364342D01*
X112565476Y-93364342D02*
X112613095Y-93459580D01*
X112613095Y-93459580D02*
X112660714Y-93507200D01*
X112660714Y-93507200D02*
X112755952Y-93554819D01*
X112755952Y-93554819D02*
X113041666Y-93554819D01*
X113041666Y-93554819D02*
X113136904Y-93507200D01*
X113136904Y-93507200D02*
X113184523Y-93459580D01*
X111946428Y-92554819D02*
X111851190Y-92554819D01*
X111851190Y-92554819D02*
X111755952Y-92602438D01*
X111755952Y-92602438D02*
X111708333Y-92650057D01*
X111708333Y-92650057D02*
X111660714Y-92745295D01*
X111660714Y-92745295D02*
X111613095Y-92935771D01*
X111613095Y-92935771D02*
X111613095Y-93173866D01*
X111613095Y-93173866D02*
X111660714Y-93364342D01*
X111660714Y-93364342D02*
X111708333Y-93459580D01*
X111708333Y-93459580D02*
X111755952Y-93507200D01*
X111755952Y-93507200D02*
X111851190Y-93554819D01*
X111851190Y-93554819D02*
X111946428Y-93554819D01*
X111946428Y-93554819D02*
X112041666Y-93507200D01*
X112041666Y-93507200D02*
X112089285Y-93459580D01*
X112089285Y-93459580D02*
X112136904Y-93364342D01*
X112136904Y-93364342D02*
X112184523Y-93173866D01*
X112184523Y-93173866D02*
X112184523Y-92935771D01*
X112184523Y-92935771D02*
X112136904Y-92745295D01*
X112136904Y-92745295D02*
X112089285Y-92650057D01*
X112089285Y-92650057D02*
X112041666Y-92602438D01*
X112041666Y-92602438D02*
X111946428Y-92554819D01*
X56666666Y-114954819D02*
X56999999Y-114478628D01*
X57238094Y-114954819D02*
X57238094Y-113954819D01*
X57238094Y-113954819D02*
X56857142Y-113954819D01*
X56857142Y-113954819D02*
X56761904Y-114002438D01*
X56761904Y-114002438D02*
X56714285Y-114050057D01*
X56714285Y-114050057D02*
X56666666Y-114145295D01*
X56666666Y-114145295D02*
X56666666Y-114288152D01*
X56666666Y-114288152D02*
X56714285Y-114383390D01*
X56714285Y-114383390D02*
X56761904Y-114431009D01*
X56761904Y-114431009D02*
X56857142Y-114478628D01*
X56857142Y-114478628D02*
X57238094Y-114478628D01*
X56333332Y-113954819D02*
X55666666Y-113954819D01*
X55666666Y-113954819D02*
X56095237Y-114954819D01*
X68134819Y-129607142D02*
X67658628Y-129273809D01*
X68134819Y-129035714D02*
X67134819Y-129035714D01*
X67134819Y-129035714D02*
X67134819Y-129416666D01*
X67134819Y-129416666D02*
X67182438Y-129511904D01*
X67182438Y-129511904D02*
X67230057Y-129559523D01*
X67230057Y-129559523D02*
X67325295Y-129607142D01*
X67325295Y-129607142D02*
X67468152Y-129607142D01*
X67468152Y-129607142D02*
X67563390Y-129559523D01*
X67563390Y-129559523D02*
X67611009Y-129511904D01*
X67611009Y-129511904D02*
X67658628Y-129416666D01*
X67658628Y-129416666D02*
X67658628Y-129035714D01*
X67230057Y-129988095D02*
X67182438Y-130035714D01*
X67182438Y-130035714D02*
X67134819Y-130130952D01*
X67134819Y-130130952D02*
X67134819Y-130369047D01*
X67134819Y-130369047D02*
X67182438Y-130464285D01*
X67182438Y-130464285D02*
X67230057Y-130511904D01*
X67230057Y-130511904D02*
X67325295Y-130559523D01*
X67325295Y-130559523D02*
X67420533Y-130559523D01*
X67420533Y-130559523D02*
X67563390Y-130511904D01*
X67563390Y-130511904D02*
X68134819Y-129940476D01*
X68134819Y-129940476D02*
X68134819Y-130559523D01*
X67134819Y-131416666D02*
X67134819Y-131226190D01*
X67134819Y-131226190D02*
X67182438Y-131130952D01*
X67182438Y-131130952D02*
X67230057Y-131083333D01*
X67230057Y-131083333D02*
X67372914Y-130988095D01*
X67372914Y-130988095D02*
X67563390Y-130940476D01*
X67563390Y-130940476D02*
X67944342Y-130940476D01*
X67944342Y-130940476D02*
X68039580Y-130988095D01*
X68039580Y-130988095D02*
X68087200Y-131035714D01*
X68087200Y-131035714D02*
X68134819Y-131130952D01*
X68134819Y-131130952D02*
X68134819Y-131321428D01*
X68134819Y-131321428D02*
X68087200Y-131416666D01*
X68087200Y-131416666D02*
X68039580Y-131464285D01*
X68039580Y-131464285D02*
X67944342Y-131511904D01*
X67944342Y-131511904D02*
X67706247Y-131511904D01*
X67706247Y-131511904D02*
X67611009Y-131464285D01*
X67611009Y-131464285D02*
X67563390Y-131416666D01*
X67563390Y-131416666D02*
X67515771Y-131321428D01*
X67515771Y-131321428D02*
X67515771Y-131130952D01*
X67515771Y-131130952D02*
X67563390Y-131035714D01*
X67563390Y-131035714D02*
X67611009Y-130988095D01*
X67611009Y-130988095D02*
X67706247Y-130940476D01*
D11*
%TO.C,U5*%
X104290000Y-121140000D02*
X104765000Y-121140000D01*
X104290000Y-121615000D02*
X104290000Y-121140000D01*
X104290000Y-123885000D02*
X104290000Y-124360000D01*
X104290000Y-124360000D02*
X104765000Y-124360000D01*
X107035000Y-124360000D02*
X107270000Y-124360000D01*
X107510000Y-121140000D02*
X107035000Y-121140000D01*
X107510000Y-121615000D02*
X107510000Y-121140000D01*
X107510000Y-123885000D02*
X107510000Y-124060000D01*
X107840000Y-124600000D02*
X107510000Y-124360000D01*
X107840000Y-124120000D01*
X107840000Y-124600000D01*
G36*
X107840000Y-124600000D02*
G01*
X107510000Y-124360000D01*
X107840000Y-124120000D01*
X107840000Y-124600000D01*
G37*
%TO.C,U6*%
X104465000Y-92515000D02*
X104465000Y-92340000D01*
X104465000Y-94785000D02*
X104465000Y-95260000D01*
X104465000Y-95260000D02*
X104940000Y-95260000D01*
X104940000Y-92040000D02*
X104705000Y-92040000D01*
X107685000Y-92040000D02*
X107210000Y-92040000D01*
X107685000Y-92515000D02*
X107685000Y-92040000D01*
X107685000Y-94785000D02*
X107685000Y-95260000D01*
X107685000Y-95260000D02*
X107210000Y-95260000D01*
X104465000Y-92040000D02*
X104135000Y-92280000D01*
X104135000Y-91800000D01*
X104465000Y-92040000D01*
G36*
X104465000Y-92040000D02*
G01*
X104135000Y-92280000D01*
X104135000Y-91800000D01*
X104465000Y-92040000D01*
G37*
%TO.C,D20*%
X254140000Y-99710000D02*
X253860000Y-99710000D01*
X253860000Y-99430000D01*
X254140000Y-99710000D01*
G36*
X254140000Y-99710000D02*
G01*
X253860000Y-99710000D01*
X253860000Y-99430000D01*
X254140000Y-99710000D01*
G37*
X252250000Y-103760000D02*
X253450000Y-103760000D01*
X252250000Y-103360000D02*
X252250000Y-103760000D01*
X252250000Y-102460000D02*
X252250000Y-102640000D01*
X252250000Y-101660000D02*
X252250000Y-101740000D01*
X252250000Y-100760000D02*
X252250000Y-100940000D01*
X252250000Y-100040000D02*
X252250000Y-99640000D01*
X252250000Y-99640000D02*
X253450000Y-99640000D01*
X253550000Y-102860000D02*
X253550000Y-103040000D01*
X253550000Y-102060000D02*
X253550000Y-102140000D01*
X253550000Y-101260000D02*
X253550000Y-101340000D01*
%TO.C,C14*%
X223510000Y-114740580D02*
X223510000Y-114459420D01*
X222490000Y-114740580D02*
X222490000Y-114459420D01*
%TO.C,R33*%
X180447742Y-115622500D02*
X180922258Y-115622500D01*
X180447742Y-114577500D02*
X180922258Y-114577500D01*
%TO.C,C16*%
X228590000Y-113459420D02*
X228590000Y-113740580D01*
X229610000Y-113459420D02*
X229610000Y-113740580D01*
%TO.C,C17*%
X227090000Y-113459420D02*
X227090000Y-113740580D01*
X228110000Y-113459420D02*
X228110000Y-113740580D01*
%TO.C,C1*%
X222590000Y-118159420D02*
X222590000Y-118440580D01*
X223610000Y-118159420D02*
X223610000Y-118440580D01*
%TO.C,C12*%
X220510000Y-114740580D02*
X220510000Y-114459420D01*
X219490000Y-114740580D02*
X219490000Y-114459420D01*
%TO.C,R21*%
X177362742Y-112622500D02*
X177837258Y-112622500D01*
X177362742Y-111577500D02*
X177837258Y-111577500D01*
%TO.C,C4*%
X219590000Y-118159420D02*
X219590000Y-118440580D01*
X220610000Y-118159420D02*
X220610000Y-118440580D01*
%TO.C,D21*%
X252925000Y-151460000D02*
X252925000Y-151540000D01*
X252925000Y-152260000D02*
X252925000Y-152340000D01*
X252925000Y-153060000D02*
X252925000Y-153240000D01*
X251625000Y-149840000D02*
X252825000Y-149840000D01*
X251625000Y-150240000D02*
X251625000Y-149840000D01*
X251625000Y-150960000D02*
X251625000Y-151140000D01*
X251625000Y-151860000D02*
X251625000Y-151940000D01*
X251625000Y-152660000D02*
X251625000Y-152840000D01*
X251625000Y-153560000D02*
X251625000Y-153960000D01*
X251625000Y-153960000D02*
X252825000Y-153960000D01*
X253515000Y-149910000D02*
X253235000Y-149910000D01*
X253235000Y-149630000D01*
X253515000Y-149910000D01*
G36*
X253515000Y-149910000D02*
G01*
X253235000Y-149910000D01*
X253235000Y-149630000D01*
X253515000Y-149910000D01*
G37*
%TO.C,C3*%
X221090000Y-118159420D02*
X221090000Y-118440580D01*
X222110000Y-118159420D02*
X222110000Y-118440580D01*
%TO.C,R2*%
X227037258Y-121977500D02*
X226562742Y-121977500D01*
X227037258Y-123022500D02*
X226562742Y-123022500D01*
%TO.C,C2*%
X224090000Y-118159420D02*
X224090000Y-118440580D01*
X225110000Y-118159420D02*
X225110000Y-118440580D01*
%TO.C,C6*%
X229610000Y-109940580D02*
X229610000Y-109659420D01*
X228590000Y-109940580D02*
X228590000Y-109659420D01*
%TO.C,R32*%
X180362742Y-112622500D02*
X180837258Y-112622500D01*
X180362742Y-111577500D02*
X180837258Y-111577500D01*
%TO.C,R1*%
X227037258Y-120477500D02*
X226562742Y-120477500D01*
X227037258Y-121522500D02*
X226562742Y-121522500D01*
%TO.C,R22*%
X177437742Y-115622500D02*
X177912258Y-115622500D01*
X177437742Y-114577500D02*
X177912258Y-114577500D01*
%TO.C,C13*%
X222010000Y-114740580D02*
X222010000Y-114459420D01*
X220990000Y-114740580D02*
X220990000Y-114459420D01*
%TO.C,JP1*%
X260300000Y-87950000D02*
X260300000Y-93450000D01*
X262250000Y-87950000D02*
X260300000Y-87950000D01*
X262800000Y-89000000D02*
X262800000Y-89600000D01*
X262500000Y-89300000D02*
X262800000Y-89000000D01*
X262800000Y-89600000D02*
X262500000Y-89300000D01*
X260300000Y-93450000D02*
X262250000Y-93450000D01*
X262250000Y-93450000D02*
X262250000Y-87950000D01*
%TO.C,C5*%
X228110000Y-109940580D02*
X228110000Y-109659420D01*
X227090000Y-109940580D02*
X227090000Y-109659420D01*
%TO.C,C15*%
X225159420Y-115910000D02*
X225440580Y-115910000D01*
X225159420Y-114890000D02*
X225440580Y-114890000D01*
%TO.C,C26*%
X102140580Y-122740000D02*
X101859420Y-122740000D01*
X102140580Y-123760000D02*
X101859420Y-123760000D01*
%TO.C,R14*%
X43727500Y-133487258D02*
X43727500Y-133012742D01*
X44772500Y-133487258D02*
X44772500Y-133012742D01*
%TO.C,R47*%
X104727500Y-87512742D02*
X104727500Y-87987258D01*
X105772500Y-87512742D02*
X105772500Y-87987258D01*
%TO.C,R44*%
X170477500Y-87512742D02*
X170477500Y-87987258D01*
X171522500Y-87512742D02*
X171522500Y-87987258D01*
%TO.C,C19*%
X59359420Y-112490000D02*
X59640580Y-112490000D01*
X59359420Y-113510000D02*
X59640580Y-113510000D01*
%TO.C,R18*%
X131727500Y-133487258D02*
X131727500Y-133012742D01*
X132772500Y-133487258D02*
X132772500Y-133012742D01*
%TO.C,R45*%
X148477500Y-87512742D02*
X148477500Y-87987258D01*
X149522500Y-87512742D02*
X149522500Y-87987258D01*
%TO.C,C27*%
X103390580Y-119240000D02*
X103109420Y-119240000D01*
X103390580Y-120260000D02*
X103109420Y-120260000D01*
%TO.C,R15*%
X65727500Y-133487258D02*
X65727500Y-133012742D01*
X66772500Y-133487258D02*
X66772500Y-133012742D01*
%TO.C,R29*%
X131727500Y-130487258D02*
X131727500Y-130012742D01*
X132772500Y-130487258D02*
X132772500Y-130012742D01*
%TO.C,U3*%
X51465000Y-106500000D02*
X51465000Y-104300000D01*
X51465000Y-106500000D02*
X51465000Y-108700000D01*
X59535000Y-106500000D02*
X59535000Y-104300000D01*
X59535000Y-106500000D02*
X59535000Y-108700000D01*
X59315000Y-110690000D02*
X58835000Y-110690000D01*
X59075000Y-110360000D01*
X59315000Y-110690000D01*
G36*
X59315000Y-110690000D02*
G01*
X58835000Y-110690000D01*
X59075000Y-110360000D01*
X59315000Y-110690000D01*
G37*
%TO.C,R30*%
X153727500Y-130487258D02*
X153727500Y-130012742D01*
X154772500Y-130487258D02*
X154772500Y-130012742D01*
%TO.C,R49*%
X60727500Y-87512742D02*
X60727500Y-87987258D01*
X61772500Y-87512742D02*
X61772500Y-87987258D01*
%TO.C,R36*%
X148477500Y-84512742D02*
X148477500Y-84987258D01*
X149522500Y-84512742D02*
X149522500Y-84987258D01*
%TO.C,R31*%
X175727500Y-130487258D02*
X175727500Y-130012742D01*
X176772500Y-130487258D02*
X176772500Y-130012742D01*
%TO.C,R24*%
X21727500Y-130487258D02*
X21727500Y-130012742D01*
X22772500Y-130487258D02*
X22772500Y-130012742D01*
%TO.C,C28*%
X109734420Y-94090000D02*
X110015580Y-94090000D01*
X109734420Y-95110000D02*
X110015580Y-95110000D01*
%TO.C,R13*%
X21727500Y-133487258D02*
X21727500Y-133012742D01*
X22772500Y-133487258D02*
X22772500Y-133012742D01*
%TO.C,C20*%
X59359420Y-110990000D02*
X59640580Y-110990000D01*
X59359420Y-112010000D02*
X59640580Y-112010000D01*
%TO.C,R17*%
X109727500Y-133487258D02*
X109727500Y-133012742D01*
X110772500Y-133487258D02*
X110772500Y-133012742D01*
%TO.C,C29*%
X105865000Y-97209420D02*
X105865000Y-97490580D01*
X106885000Y-97209420D02*
X106885000Y-97490580D01*
%TO.C,R37*%
X126727500Y-84512742D02*
X126727500Y-84987258D01*
X127772500Y-84512742D02*
X127772500Y-84987258D01*
%TO.C,R19*%
X153727500Y-133487258D02*
X153727500Y-133012742D01*
X154772500Y-133487258D02*
X154772500Y-133012742D01*
%TO.C,C25*%
X104990000Y-119165580D02*
X104990000Y-118884420D01*
X106010000Y-119165580D02*
X106010000Y-118884420D01*
%TO.C,R28*%
X109727500Y-130487258D02*
X109727500Y-130012742D01*
X110772500Y-130487258D02*
X110772500Y-130012742D01*
%TO.C,JP3*%
X232376750Y-62325000D02*
X232376750Y-65125000D01*
X232376750Y-65125000D02*
X234376750Y-65125000D01*
X234376750Y-62325000D02*
X232376750Y-62325000D01*
X234376750Y-65125000D02*
X234376750Y-62325000D01*
%TO.C,R34*%
X192477500Y-84187742D02*
X192477500Y-84662258D01*
X193522500Y-84187742D02*
X193522500Y-84662258D01*
%TO.C,R39*%
X82477500Y-84512742D02*
X82477500Y-84987258D01*
X83522500Y-84512742D02*
X83522500Y-84987258D01*
%TO.C,R46*%
X126727500Y-87512742D02*
X126727500Y-87987258D01*
X127772500Y-87512742D02*
X127772500Y-87987258D01*
%TO.C,R35*%
X170477500Y-84512742D02*
X170477500Y-84987258D01*
X171522500Y-84512742D02*
X171522500Y-84987258D01*
%TO.C,R20*%
X175727500Y-133487258D02*
X175727500Y-133012742D01*
X176772500Y-133487258D02*
X176772500Y-133012742D01*
%TO.C,C31*%
X108509420Y-96090000D02*
X108790580Y-96090000D01*
X108509420Y-97110000D02*
X108790580Y-97110000D01*
%TO.C,R48*%
X82477500Y-87499492D02*
X82477500Y-87974008D01*
X83522500Y-87499492D02*
X83522500Y-87974008D01*
%TO.C,R41*%
X38477500Y-84512742D02*
X38477500Y-84987258D01*
X39522500Y-84512742D02*
X39522500Y-84987258D01*
%TO.C,R23*%
X103487258Y-117727500D02*
X103012742Y-117727500D01*
X103487258Y-118772500D02*
X103012742Y-118772500D01*
%TO.C,C24*%
X102140580Y-121240000D02*
X101859420Y-121240000D01*
X102140580Y-122260000D02*
X101859420Y-122260000D01*
%TO.C,R50*%
X38477500Y-87512742D02*
X38477500Y-87987258D01*
X39522500Y-87512742D02*
X39522500Y-87987258D01*
%TO.C,R40*%
X60727500Y-84512742D02*
X60727500Y-84987258D01*
X61772500Y-84512742D02*
X61772500Y-84987258D01*
%TO.C,R16*%
X87727500Y-133487258D02*
X87727500Y-133012742D01*
X88772500Y-133487258D02*
X88772500Y-133012742D01*
%TO.C,R42*%
X108412742Y-97577500D02*
X108887258Y-97577500D01*
X108412742Y-98622500D02*
X108887258Y-98622500D01*
%TO.C,JP2*%
X235926750Y-62325000D02*
X235926750Y-65125000D01*
X235926750Y-65125000D02*
X237926750Y-65125000D01*
X237926750Y-62325000D02*
X235926750Y-62325000D01*
X237926750Y-65125000D02*
X237926750Y-62325000D01*
%TO.C,R38*%
X104727500Y-84512742D02*
X104727500Y-84987258D01*
X105772500Y-84512742D02*
X105772500Y-84987258D01*
%TO.C,R43*%
X192477500Y-87262742D02*
X192477500Y-87737258D01*
X193522500Y-87262742D02*
X193522500Y-87737258D01*
%TO.C,R25*%
X43727500Y-130487258D02*
X43727500Y-130012742D01*
X44772500Y-130487258D02*
X44772500Y-130012742D01*
%TO.C,R27*%
X87727500Y-130487258D02*
X87727500Y-130012742D01*
X88772500Y-130487258D02*
X88772500Y-130012742D01*
%TO.C,C30*%
X109734420Y-92590000D02*
X110015580Y-92590000D01*
X109734420Y-93610000D02*
X110015580Y-93610000D01*
%TO.C,R7*%
X59262742Y-113977500D02*
X59737258Y-113977500D01*
X59262742Y-115022500D02*
X59737258Y-115022500D01*
%TO.C,R26*%
X65727500Y-130487258D02*
X65727500Y-130012742D01*
X66772500Y-130487258D02*
X66772500Y-130012742D01*
%TD*%
M02*
