%TF.GenerationSoftware,KiCad,Pcbnew,9.0.0*%
%TF.CreationDate,2025-05-29T20:25:45-04:00*%
%TF.ProjectId,distrabution_controler,64697374-7261-4627-9574-696f6e5f636f,rev?*%
%TF.SameCoordinates,Original*%
%TF.FileFunction,Paste,Bot*%
%TF.FilePolarity,Positive*%
%FSLAX46Y46*%
G04 Gerber Fmt 4.6, Leading zero omitted, Abs format (unit mm)*
G04 Created by KiCad (PCBNEW 9.0.0) date 2025-05-29 20:25:45*
%MOMM*%
%LPD*%
G01*
G04 APERTURE LIST*
G04 Aperture macros list*
%AMRoundRect*
0 Rectangle with rounded corners*
0 $1 Rounding radius*
0 $2 $3 $4 $5 $6 $7 $8 $9 X,Y pos of 4 corners*
0 Add a 4 corners polygon primitive as box body*
4,1,4,$2,$3,$4,$5,$6,$7,$8,$9,$2,$3,0*
0 Add four circle primitives for the rounded corners*
1,1,$1+$1,$2,$3*
1,1,$1+$1,$4,$5*
1,1,$1+$1,$6,$7*
1,1,$1+$1,$8,$9*
0 Add four rect primitives between the rounded corners*
20,1,$1+$1,$2,$3,$4,$5,0*
20,1,$1+$1,$4,$5,$6,$7,0*
20,1,$1+$1,$6,$7,$8,$9,0*
20,1,$1+$1,$8,$9,$2,$3,0*%
G04 Aperture macros list end*
%ADD10RoundRect,0.172500X0.172500X-0.172500X0.172500X0.172500X-0.172500X0.172500X-0.172500X-0.172500X0*%
%ADD11RoundRect,0.062500X0.062500X-0.375000X0.062500X0.375000X-0.062500X0.375000X-0.062500X-0.375000X0*%
%ADD12RoundRect,0.062500X0.375000X-0.062500X0.375000X0.062500X-0.375000X0.062500X-0.375000X-0.062500X0*%
%ADD13RoundRect,0.172500X-0.172500X0.172500X-0.172500X-0.172500X0.172500X-0.172500X0.172500X0.172500X0*%
%ADD14RoundRect,0.062500X-0.062500X0.375000X-0.062500X-0.375000X0.062500X-0.375000X0.062500X0.375000X0*%
%ADD15RoundRect,0.062500X-0.375000X0.062500X-0.375000X-0.062500X0.375000X-0.062500X0.375000X0.062500X0*%
%ADD16R,0.600000X0.200000*%
%ADD17RoundRect,0.225000X0.250000X-0.225000X0.250000X0.225000X-0.250000X0.225000X-0.250000X-0.225000X0*%
%ADD18RoundRect,0.200000X-0.200000X-0.275000X0.200000X-0.275000X0.200000X0.275000X-0.200000X0.275000X0*%
%ADD19RoundRect,0.225000X-0.250000X0.225000X-0.250000X-0.225000X0.250000X-0.225000X0.250000X0.225000X0*%
%ADD20RoundRect,0.200000X0.200000X0.275000X-0.200000X0.275000X-0.200000X-0.275000X0.200000X-0.275000X0*%
%ADD21RoundRect,0.225000X-0.225000X-0.250000X0.225000X-0.250000X0.225000X0.250000X-0.225000X0.250000X0*%
%ADD22RoundRect,0.225000X0.225000X0.250000X-0.225000X0.250000X-0.225000X-0.250000X0.225000X-0.250000X0*%
%ADD23RoundRect,0.200000X0.275000X-0.200000X0.275000X0.200000X-0.275000X0.200000X-0.275000X-0.200000X0*%
%ADD24RoundRect,0.200000X-0.275000X0.200000X-0.275000X-0.200000X0.275000X-0.200000X0.275000X0.200000X0*%
%ADD25RoundRect,0.100000X0.100000X-0.637500X0.100000X0.637500X-0.100000X0.637500X-0.100000X-0.637500X0*%
G04 APERTURE END LIST*
D10*
%TO.C,U5*%
X105500000Y-123150000D03*
X106300000Y-123150000D03*
X105500000Y-122350000D03*
X106300000Y-122350000D03*
D11*
X106650000Y-124187500D03*
X106150000Y-124187500D03*
X105650000Y-124187500D03*
X105150000Y-124187500D03*
D12*
X104462500Y-123500000D03*
X104462500Y-123000000D03*
X104462500Y-122500000D03*
X104462500Y-122000000D03*
D11*
X105150000Y-121312500D03*
X105650000Y-121312500D03*
X106150000Y-121312500D03*
X106650000Y-121312500D03*
D12*
X107337500Y-122000000D03*
X107337500Y-122500000D03*
X107337500Y-123000000D03*
X107337500Y-123500000D03*
%TD*%
D13*
%TO.C,U6*%
X106475000Y-93250000D03*
X105675000Y-93250000D03*
X106475000Y-94050000D03*
X105675000Y-94050000D03*
D14*
X105325000Y-92212500D03*
X105825000Y-92212500D03*
X106325000Y-92212500D03*
X106825000Y-92212500D03*
D15*
X107512500Y-92900000D03*
X107512500Y-93400000D03*
X107512500Y-93900000D03*
X107512500Y-94400000D03*
D14*
X106825000Y-95087500D03*
X106325000Y-95087500D03*
X105825000Y-95087500D03*
X105325000Y-95087500D03*
D15*
X104637500Y-94400000D03*
X104637500Y-93900000D03*
X104637500Y-93400000D03*
X104637500Y-92900000D03*
%TD*%
D16*
%TO.C,D20*%
X252425000Y-100400000D03*
X252425000Y-101300000D03*
X252425000Y-102100000D03*
X252425000Y-103000000D03*
X253375000Y-103400000D03*
X253375000Y-102500000D03*
X253375000Y-101700000D03*
X253375000Y-100900000D03*
X253375000Y-100000000D03*
%TD*%
D17*
%TO.C,C14*%
X223000000Y-115375000D03*
X223000000Y-113825000D03*
%TD*%
D18*
%TO.C,R33*%
X179860000Y-115100000D03*
X181510000Y-115100000D03*
%TD*%
D19*
%TO.C,C16*%
X229100000Y-112825000D03*
X229100000Y-114375000D03*
%TD*%
%TO.C,C17*%
X227600000Y-112825000D03*
X227600000Y-114375000D03*
%TD*%
%TO.C,C1*%
X223100000Y-117525000D03*
X223100000Y-119075000D03*
%TD*%
D17*
%TO.C,C12*%
X220000000Y-115375000D03*
X220000000Y-113825000D03*
%TD*%
D18*
%TO.C,R21*%
X176775000Y-112100000D03*
X178425000Y-112100000D03*
%TD*%
D19*
%TO.C,C4*%
X220100000Y-117525000D03*
X220100000Y-119075000D03*
%TD*%
D16*
%TO.C,D21*%
X252750000Y-150200000D03*
X252750000Y-151100000D03*
X252750000Y-151900000D03*
X252750000Y-152700000D03*
X252750000Y-153600000D03*
X251800000Y-153200000D03*
X251800000Y-152300000D03*
X251800000Y-151500000D03*
X251800000Y-150600000D03*
%TD*%
D19*
%TO.C,C3*%
X221600000Y-117525000D03*
X221600000Y-119075000D03*
%TD*%
D20*
%TO.C,R2*%
X227625000Y-122500000D03*
X225975000Y-122500000D03*
%TD*%
D19*
%TO.C,C2*%
X224600000Y-117525000D03*
X224600000Y-119075000D03*
%TD*%
D17*
%TO.C,C6*%
X229100000Y-110575000D03*
X229100000Y-109025000D03*
%TD*%
D18*
%TO.C,R32*%
X179775000Y-112100000D03*
X181425000Y-112100000D03*
%TD*%
D20*
%TO.C,R1*%
X227625000Y-121000000D03*
X225975000Y-121000000D03*
%TD*%
D18*
%TO.C,R22*%
X176850000Y-115100000D03*
X178500000Y-115100000D03*
%TD*%
D17*
%TO.C,C13*%
X221500000Y-115375000D03*
X221500000Y-113825000D03*
%TD*%
%TO.C,C5*%
X227600000Y-110575000D03*
X227600000Y-109025000D03*
%TD*%
D21*
%TO.C,C15*%
X224525000Y-115400000D03*
X226075000Y-115400000D03*
%TD*%
D22*
%TO.C,C26*%
X102775000Y-123250000D03*
X101225000Y-123250000D03*
%TD*%
D23*
%TO.C,R14*%
X44250000Y-134075000D03*
X44250000Y-132425000D03*
%TD*%
D24*
%TO.C,R47*%
X105250000Y-86925000D03*
X105250000Y-88575000D03*
%TD*%
%TO.C,R44*%
X171000000Y-86925000D03*
X171000000Y-88575000D03*
%TD*%
D21*
%TO.C,C19*%
X58725000Y-113000000D03*
X60275000Y-113000000D03*
%TD*%
D23*
%TO.C,R18*%
X132250000Y-134075000D03*
X132250000Y-132425000D03*
%TD*%
D24*
%TO.C,R45*%
X149000000Y-86925000D03*
X149000000Y-88575000D03*
%TD*%
D22*
%TO.C,C27*%
X104025000Y-119750000D03*
X102475000Y-119750000D03*
%TD*%
D23*
%TO.C,R15*%
X66250000Y-134075000D03*
X66250000Y-132425000D03*
%TD*%
%TO.C,R29*%
X132250000Y-131075000D03*
X132250000Y-129425000D03*
%TD*%
D25*
%TO.C,U3*%
X59075000Y-109362500D03*
X58425000Y-109362500D03*
X57775000Y-109362500D03*
X57125000Y-109362500D03*
X56475000Y-109362500D03*
X55825000Y-109362500D03*
X55175000Y-109362500D03*
X54525000Y-109362500D03*
X53875000Y-109362500D03*
X53225000Y-109362500D03*
X52575000Y-109362500D03*
X51925000Y-109362500D03*
X51925000Y-103637500D03*
X52575000Y-103637500D03*
X53225000Y-103637500D03*
X53875000Y-103637500D03*
X54525000Y-103637500D03*
X55175000Y-103637500D03*
X55825000Y-103637500D03*
X56475000Y-103637500D03*
X57125000Y-103637500D03*
X57775000Y-103637500D03*
X58425000Y-103637500D03*
X59075000Y-103637500D03*
%TD*%
D23*
%TO.C,R30*%
X154250000Y-131075000D03*
X154250000Y-129425000D03*
%TD*%
D24*
%TO.C,R49*%
X61250000Y-86925000D03*
X61250000Y-88575000D03*
%TD*%
%TO.C,R36*%
X149000000Y-83925000D03*
X149000000Y-85575000D03*
%TD*%
D23*
%TO.C,R31*%
X176250000Y-131075000D03*
X176250000Y-129425000D03*
%TD*%
%TO.C,R24*%
X22250000Y-131075000D03*
X22250000Y-129425000D03*
%TD*%
D21*
%TO.C,C28*%
X109100000Y-94600000D03*
X110650000Y-94600000D03*
%TD*%
D23*
%TO.C,R13*%
X22250000Y-134075000D03*
X22250000Y-132425000D03*
%TD*%
D21*
%TO.C,C20*%
X58725000Y-111500000D03*
X60275000Y-111500000D03*
%TD*%
D23*
%TO.C,R17*%
X110250000Y-134075000D03*
X110250000Y-132425000D03*
%TD*%
D19*
%TO.C,C29*%
X106375000Y-96575000D03*
X106375000Y-98125000D03*
%TD*%
D24*
%TO.C,R37*%
X127250000Y-83925000D03*
X127250000Y-85575000D03*
%TD*%
D23*
%TO.C,R19*%
X154250000Y-134075000D03*
X154250000Y-132425000D03*
%TD*%
D17*
%TO.C,C25*%
X105500000Y-119800000D03*
X105500000Y-118250000D03*
%TD*%
D23*
%TO.C,R28*%
X110250000Y-131075000D03*
X110250000Y-129425000D03*
%TD*%
D24*
%TO.C,R34*%
X193000000Y-83600000D03*
X193000000Y-85250000D03*
%TD*%
%TO.C,R39*%
X83000000Y-83925000D03*
X83000000Y-85575000D03*
%TD*%
%TO.C,R46*%
X127250000Y-86925000D03*
X127250000Y-88575000D03*
%TD*%
%TO.C,R35*%
X171000000Y-83925000D03*
X171000000Y-85575000D03*
%TD*%
D23*
%TO.C,R20*%
X176250000Y-134075000D03*
X176250000Y-132425000D03*
%TD*%
D21*
%TO.C,C31*%
X107875000Y-96600000D03*
X109425000Y-96600000D03*
%TD*%
D24*
%TO.C,R48*%
X83000000Y-86911750D03*
X83000000Y-88561750D03*
%TD*%
%TO.C,R41*%
X39000000Y-83925000D03*
X39000000Y-85575000D03*
%TD*%
D20*
%TO.C,R23*%
X104075000Y-118250000D03*
X102425000Y-118250000D03*
%TD*%
D22*
%TO.C,C24*%
X102775000Y-121750000D03*
X101225000Y-121750000D03*
%TD*%
D24*
%TO.C,R50*%
X39000000Y-86925000D03*
X39000000Y-88575000D03*
%TD*%
%TO.C,R40*%
X61250000Y-83925000D03*
X61250000Y-85575000D03*
%TD*%
D23*
%TO.C,R16*%
X88250000Y-134075000D03*
X88250000Y-132425000D03*
%TD*%
D18*
%TO.C,R42*%
X107825000Y-98100000D03*
X109475000Y-98100000D03*
%TD*%
D24*
%TO.C,R38*%
X105250000Y-83925000D03*
X105250000Y-85575000D03*
%TD*%
%TO.C,R43*%
X193000000Y-86675000D03*
X193000000Y-88325000D03*
%TD*%
D23*
%TO.C,R25*%
X44250000Y-131075000D03*
X44250000Y-129425000D03*
%TD*%
%TO.C,R27*%
X88250000Y-131075000D03*
X88250000Y-129425000D03*
%TD*%
D21*
%TO.C,C30*%
X109100000Y-93100000D03*
X110650000Y-93100000D03*
%TD*%
D18*
%TO.C,R7*%
X58675000Y-114500000D03*
X60325000Y-114500000D03*
%TD*%
D23*
%TO.C,R26*%
X66250000Y-131075000D03*
X66250000Y-129425000D03*
%TD*%
M02*
