M48
; DRILL file {KiCad 9.0.0} date 2025-05-29T20:25:49-0400
; FORMAT={-:-/ absolute / inch / decimal}
; #@! TF.CreationDate,2025-05-29T20:25:49-04:00
; #@! TF.GenerationSoftware,Kicad,Pcbnew,9.0.0
; #@! TF.FileFunction,Plated,1,4,PTH
FMAT,2
INCH
; #@! TA.AperFunction,Plated,PTH,ComponentDrill
T1C0.0079
; #@! TA.AperFunction,Plated,PTH,ViaDrill
T2C0.0118
; #@! TA.AperFunction,Plated,PTH,ComponentDrill
T3C0.0236
; #@! TA.AperFunction,Plated,PTH,ComponentDrill
T4C0.0394
; #@! TA.AperFunction,Plated,PTH,ComponentDrill
T5C0.0472
; #@! TA.AperFunction,Plated,PTH,ComponentDrill
T6C0.0591
; #@! TA.AperFunction,Plated,PTH,ComponentDrill
T7C0.0669
; #@! TA.AperFunction,Plated,PTH,ComponentDrill
T8C0.1024
; #@! TA.AperFunction,Plated,PTH,ComponentDrill
T9C0.1260
; #@! TA.AperFunction,Plated,PTH,ComponentDrill
T10C0.2520
; #@! TA.AperFunction,Plated,PTH,ComponentDrill
T11C0.3307
%
G90
G05
T1
X4.1476Y-4.811
X4.1476Y-4.8543
X4.1545Y-3.6654
X4.1545Y-3.7087
X4.1909Y-4.811
X4.1909Y-4.8543
X4.1978Y-3.6654
X4.1978Y-3.7087
T2
X0.8465Y-5.1181
X0.8858Y-5.3248
X0.9449Y-5.187
X0.9724Y-3.1142
X0.9744Y-3.2283
X1.0512Y-3.1142
X1.0512Y-3.2244
X1.1614Y-5.2756
X1.25Y-3.3071
X1.3543Y-5.4685
X1.3583Y-5.3583
X1.437Y-5.3642
X1.4409Y-5.4685
X1.5059Y-3.4646
X1.5256Y-3.2677
X1.6142Y-3.3957
X1.7126Y-5.1181
X1.7421Y-5.315
X1.811Y-5.187
X1.8406Y-3.2283
X1.8425Y-3.1142
X1.9173Y-3.1142
X1.9173Y-3.2283
X2.0276Y-5.2756
X2.0374Y-3.7008
X2.0374Y-4.252
X2.0472Y-5.0197
X2.0669Y-3.7008
X2.0768Y-5.0197
X2.0945Y-3.7008
X2.1063Y-5.0197
X2.1161Y-3.3071
X2.122Y-3.7008
X2.1358Y-5.0197
X2.1496Y-3.7008
X2.1654Y-5.0197
X2.1772Y-3.7008
X2.1949Y-5.0197
X2.2047Y-3.7008
X2.2244Y-5.0197
X2.2244Y-5.3543
X2.2244Y-5.4724
X2.2323Y-3.7008
X2.2441Y-4.124
X2.2539Y-5.0197
X2.2707Y-3.9764
X2.2982Y-3.9764
X2.2992Y-5.4764
X2.3031Y-5.3642
X2.311Y-4.563
X2.3258Y-3.7638
X2.372Y-4.4193
X2.3819Y-3.4646
X2.4016Y-3.2677
X2.4055Y-4.3031
X2.4055Y-4.5354
X2.4567Y-4.4803
X2.4902Y-3.3957
X2.5787Y-5.128
X2.6083Y-5.3248
X2.6772Y-5.187
X2.7047Y-3.1142
X2.7067Y-3.2283
X2.7795Y-3.1181
X2.7795Y-3.2244
X2.8937Y-5.2756
X2.9823Y-3.3071
X3.0866Y-5.3583
X3.0866Y-5.4685
X3.1693Y-5.3642
X3.1693Y-5.4724
X3.2382Y-3.4646
X3.2677Y-3.2677
X3.3465Y-3.3957
X3.4449Y-5.1181
X3.4843Y-5.3248
X3.5433Y-5.187
X3.5709Y-3.1142
X3.5728Y-3.2283
X3.6496Y-3.1142
X3.6496Y-3.2283
X3.7598Y-5.2756
X3.8484Y-3.3071
X3.9567Y-5.3504
X3.9567Y-5.4724
X3.9724Y-3.8071
X3.9843Y-4.9173
X3.9843Y-5.126
X3.9862Y-4.8228
X4.0045Y-3.8071
X4.0059Y-4.7638
X4.0354Y-5.3543
X4.0354Y-5.4724
X4.0748Y-4.7638
X4.1142Y-3.4646
X4.1191Y-4.7559
X4.1247Y-4.6832
X4.1339Y-3.2776
X4.1594Y-3.8287
X4.1743Y-4.6832
X4.2085Y-3.8355
X4.2164Y-3.7741
X4.2224Y-3.3957
X4.2766Y-3.7736
X4.2835Y-4.7323
X4.2835Y-4.7638
X4.2835Y-4.7913
X4.2835Y-4.8189
X4.311Y-5.128
X4.3172Y-3.7575
X4.3406Y-5.3248
X4.3583Y-4.689
X4.4094Y-5.187
X4.437Y-3.1142
X4.439Y-3.2185
X4.5157Y-3.1102
X4.5157Y-3.2244
X4.626Y-5.2756
X4.7146Y-3.3071
X4.8268Y-5.4724
X4.8307Y-5.3583
X4.9016Y-5.3583
X4.9016Y-5.4724
X4.9803Y-3.4646
X5.0Y-3.2677
X5.0886Y-3.3957
X5.1772Y-5.128
X5.2067Y-5.315
X5.2756Y-5.187
X5.3031Y-3.1142
X5.3051Y-3.2283
X5.3819Y-3.1142
X5.3819Y-3.2283
X5.4921Y-5.2756
X5.5807Y-3.3071
X5.685Y-5.3583
X5.689Y-5.4724
X5.7677Y-5.3583
X5.7677Y-5.4724
X5.8366Y-3.4646
X5.8563Y-3.2776
X5.9449Y-3.3957
X6.0433Y-5.128
X6.0728Y-5.315
X6.1417Y-5.187
X6.1693Y-3.1102
X6.1713Y-3.2283
X6.248Y-3.1142
X6.248Y-3.2283
X6.3583Y-5.2756
X6.3888Y-4.3691
X6.4469Y-3.3071
X6.5591Y-5.3583
X6.5591Y-5.4685
X6.6339Y-5.3583
X6.6339Y-5.4724
X6.6929Y-3.4646
X6.7008Y-4.3543
X6.7008Y-4.4646
X6.7224Y-3.2677
X6.7756Y-4.4646
X6.7795Y-4.3543
X6.811Y-3.3957
X6.9094Y-5.128
X6.939Y-5.3248
X6.9626Y-4.5315
X7.0079Y-5.187
X7.0374Y-3.2185
X7.1142Y-3.1142
X7.1142Y-3.2244
X7.1654Y-4.4488
X7.1693Y-4.4134
X7.1732Y-4.5315
X7.2244Y-5.2756
X7.2913Y-4.5197
X7.313Y-3.3071
X7.3346Y-4.5177
X7.3346Y-4.7303
X7.3593Y-4.5019
X7.3661Y-4.7303
X7.4252Y-5.3543
X7.4252Y-5.4724
X7.5Y-5.3583
X7.5Y-5.4764
X7.5689Y-3.4547
X7.5886Y-3.2579
X7.6772Y-3.3858
X7.9134Y-3.3071
X7.9882Y-3.5
X7.9882Y-3.6378
X8.0276Y-3.752
X8.1535Y-3.0866
X8.1683Y-3.4643
X8.2874Y-3.4252
X8.2992Y-3.0866
X8.311Y-3.4252
X8.3346Y-3.4252
X8.3622Y-3.315
X8.3622Y-3.3386
X8.3622Y-3.3622
X8.3819Y-3.4961
X8.4537Y-4.6821
X8.4764Y-2.8307
X8.5118Y-4.8898
X8.5906Y-4.5157
X8.622Y-4.5165
X8.662Y-4.5915
X8.7167Y-4.6526
X8.752Y-4.4291
X8.7559Y-4.5906
X8.7918Y-4.598
X8.8366Y-4.7859
X8.8366Y-4.8169
X8.8524Y-4.7607
X8.8543Y-4.4988
X8.8681Y-4.7347
X8.8996Y-4.7032
X8.9006Y-4.5906
X8.9488Y-4.4016
X8.9882Y-4.2923
X8.9961Y-4.7835
X9.0557Y-4.5165
X9.0866Y-4.5157
X9.1078Y-4.5615
X9.1142Y-4.4474
X9.1142Y-4.3858
X9.1143Y-4.4198
X9.1295Y-4.5445
X9.1417Y-4.4764
X9.1781Y-3.315
X9.189Y-2.3661
X9.2087Y-4.5255
X9.2392Y-3.378
X9.3268Y-2.3445
X9.3937Y-4.0453
X9.437Y-4.7756
X9.437Y-6.0433
X9.4646Y-4.7756
X9.4646Y-6.0453
X9.5906Y-3.3425
X9.5994Y-3.4213
X9.6299Y-3.0394
X9.6604Y-3.4252
X9.6929Y-2.9016
X9.7254Y-3.3415
X9.748Y-2.9921
X9.752Y-3.0394
X9.752Y-3.0906
X9.752Y-3.1378
X9.752Y-3.189
X9.8218Y-4.3493
X9.9016Y-2.3081
X9.9055Y-2.2451
X9.9055Y-4.126
X9.9203Y-3.5364
X9.9252Y-5.8622
X9.9272Y-2.6476
X9.9606Y-2.6496
X9.9685Y-2.9055
X9.9724Y-2.4882
X9.9724Y-2.5197
X9.9724Y-2.5472
X9.9724Y-2.5787
X10.0039Y-4.0039
X10.0039Y-5.9744
X10.0079Y-2.5866
X10.1024Y-2.5236
X10.1496Y-2.498
X10.1496Y-2.5433
X10.2067Y-2.3858
X10.2067Y-2.687
X10.2283Y-3.5709
X10.2283Y-3.6063
X10.2874Y-3.4528
T4
X8.5679Y-4.1152
X8.5679Y-4.2152
X8.6679Y-4.1152
X8.6679Y-4.2152
X8.9354Y-2.7538
X8.99Y-2.6419
X9.0445Y-2.7538
X9.099Y-2.6419
X9.1535Y-2.7538
X9.2081Y-2.6419
X9.2626Y-2.7538
X9.3171Y-2.6419
X9.3717Y-2.7538
X9.6825Y-3.8449
X9.6825Y-3.9449
X9.6825Y-4.0449
X9.7825Y-3.8449
X9.7825Y-3.9449
X9.7825Y-4.0449
T5
X8.2959Y-6.1838
X8.4459Y-6.1838
X8.5959Y-6.1838
X8.7459Y-6.1838
X8.8959Y-6.1838
X9.0459Y-6.1838
X9.1959Y-6.1838
X9.3459Y-6.1838
X10.1575Y-3.202
X10.1575Y-3.352
X10.1575Y-3.502
X10.1575Y-3.652
X10.1575Y-3.802
X10.1575Y-3.952
X10.1575Y-4.102
X10.1575Y-4.252
X10.1601Y-4.9637
X10.1601Y-5.1137
X10.1601Y-5.2637
X10.1601Y-5.4137
X10.1601Y-5.5637
X10.1601Y-5.7137
X10.1601Y-5.8637
X10.1601Y-6.0137
T6
X8.7677Y-5.0134
T7
X8.6677Y-4.9134
X8.6677Y-5.1134
X8.8677Y-4.9134
X8.8677Y-5.1134
T8
X0.8878Y-5.6594
X0.9626Y-2.9232
X1.0886Y-5.6594
X1.1634Y-2.9232
X1.25Y-5.6594
X1.3248Y-2.9232
X1.4508Y-5.6594
X1.5256Y-2.9232
X1.752Y-5.6594
X1.8287Y-2.9232
X1.9528Y-5.6594
X2.0295Y-2.9232
X2.1142Y-5.6594
X2.1909Y-2.9232
X2.315Y-5.6594
X2.3917Y-2.9232
X2.6181Y-5.6594
X2.6949Y-2.9232
X2.8189Y-5.6594
X2.8957Y-2.9232
X2.9803Y-5.6594
X3.0571Y-2.9232
X3.1811Y-5.6594
X3.2579Y-2.9232
X3.4843Y-5.6594
X3.561Y-2.9232
X3.685Y-5.6594
X3.7618Y-2.9232
X3.8465Y-5.6594
X3.9232Y-2.9232
X4.0472Y-5.6594
X4.124Y-2.9232
X4.3504Y-5.6594
X4.4272Y-2.9232
X4.5512Y-5.6594
X4.628Y-2.9232
X4.7126Y-5.6594
X4.7894Y-2.9232
X4.9134Y-5.6594
X4.9902Y-2.9232
X5.2165Y-5.6594
X5.2933Y-2.9232
X5.4173Y-5.6594
X5.4941Y-2.9232
X5.5787Y-5.6594
X5.6555Y-2.9232
X5.7795Y-5.6594
X5.8563Y-2.9232
X6.0827Y-5.6594
X6.1594Y-2.9232
X6.2835Y-5.6594
X6.3602Y-2.9232
X6.4449Y-5.6594
X6.5217Y-2.9232
X6.6457Y-5.6594
X6.7224Y-2.9232
X6.9488Y-5.6594
X7.0256Y-2.9232
X7.0256Y-4.2717
X7.1496Y-5.6594
X7.2264Y-2.9232
X7.2264Y-4.2717
X7.311Y-5.6594
X7.3878Y-2.9232
X7.3878Y-4.2717
X7.5118Y-5.6594
X7.5886Y-2.9232
X7.5886Y-4.2717
T9
X8.6614Y-2.6419
X9.6457Y-2.6419
T10
X1.2008Y-6.063
X1.2106Y-2.5197
X2.0669Y-6.063
X2.0768Y-2.5197
X2.9331Y-6.063
X2.9429Y-2.5197
X3.7992Y-6.063
X3.8091Y-2.5197
X4.6654Y-6.063
X4.6752Y-2.5197
X5.5315Y-6.063
X5.5413Y-2.5197
X6.3976Y-6.063
X6.4075Y-2.5197
X7.2638Y-6.063
X7.2736Y-2.5197
X8.1496Y-2.5295
T11
X1.2008Y-3.8976
X1.2008Y-4.685
T3
G00X10.2677Y-2.311
M15
G01X10.2362Y-2.311
M16
G05
G00X10.2677Y-2.7535
M15
G01X10.2362Y-2.7535
M16
G05
G00X10.4331Y-2.311
M15
G01X10.3858Y-2.311
M16
G05
G00X10.4331Y-2.7535
M15
G01X10.3858Y-2.7535
M16
G05
M30
